%TF.GenerationSoftware,KiCad,Pcbnew,(6.0.0)*%
%TF.CreationDate,2022-06-20T15:54:39+02:00*%
%TF.ProjectId,PulseOximeter,50756c73-654f-4786-996d-657465722e6b,rev?*%
%TF.SameCoordinates,Original*%
%TF.FileFunction,Legend,Bot*%
%TF.FilePolarity,Positive*%
%FSLAX46Y46*%
G04 Gerber Fmt 4.6, Leading zero omitted, Abs format (unit mm)*
G04 Created by KiCad (PCBNEW (6.0.0)) date 2022-06-20 15:54:39*
%MOMM*%
%LPD*%
G01*
G04 APERTURE LIST*
G04 APERTURE END LIST*
%TO.C,G\u002A\u002A\u002A*%
G36*
X88704874Y-124524606D02*
G01*
X88742923Y-124571968D01*
X88775970Y-124593815D01*
X88782513Y-124594801D01*
X88801719Y-124623781D01*
X88799936Y-124628485D01*
X88769875Y-124623340D01*
X88714450Y-124589226D01*
X88627181Y-124524706D01*
X88540412Y-124607837D01*
X88526429Y-124621627D01*
X88479280Y-124683718D01*
X88481743Y-124724827D01*
X88486708Y-124731700D01*
X88480153Y-124752461D01*
X88422051Y-124758687D01*
X88412255Y-124758598D01*
X88361250Y-124750557D01*
X88364357Y-124728588D01*
X88370589Y-124719024D01*
X88359848Y-124673744D01*
X88301341Y-124602418D01*
X88208227Y-124506348D01*
X88112840Y-124598801D01*
X88067561Y-124646316D01*
X88039408Y-124694505D01*
X88049460Y-124729819D01*
X88055686Y-124737840D01*
X88058503Y-124761999D01*
X88011440Y-124768385D01*
X87953631Y-124751758D01*
X87889549Y-124680587D01*
X87882454Y-124669045D01*
X87842892Y-124619610D01*
X87814741Y-124606969D01*
X87802861Y-124598524D01*
X87805139Y-124551355D01*
X87812518Y-124533096D01*
X87899771Y-124533096D01*
X87912922Y-124559637D01*
X87954661Y-124605375D01*
X87970713Y-124619412D01*
X88003229Y-124635908D01*
X88035420Y-124617859D01*
X88084660Y-124559079D01*
X88128990Y-124496399D01*
X88133662Y-124479128D01*
X88237178Y-124479128D01*
X88325466Y-124567417D01*
X88413754Y-124655705D01*
X88568796Y-124452435D01*
X88492215Y-124392197D01*
X88455920Y-124364368D01*
X88404807Y-124337539D01*
X88362811Y-124350699D01*
X88306307Y-124405544D01*
X88259185Y-124455703D01*
X88237178Y-124479128D01*
X88133662Y-124479128D01*
X88139998Y-124455703D01*
X88119540Y-124422878D01*
X88091973Y-124403015D01*
X88052719Y-124407206D01*
X87989541Y-124446570D01*
X87974472Y-124457621D01*
X87921272Y-124503149D01*
X87899771Y-124533096D01*
X87812518Y-124533096D01*
X87822359Y-124508745D01*
X87853492Y-124494996D01*
X87873171Y-124491597D01*
X87923212Y-124455156D01*
X87982794Y-124391100D01*
X87983865Y-124389770D01*
X88047279Y-124318915D01*
X88095304Y-124279568D01*
X88120580Y-124276068D01*
X88115747Y-124312750D01*
X88115767Y-124342554D01*
X88147422Y-124390434D01*
X88177800Y-124408875D01*
X88215340Y-124400919D01*
X88270072Y-124353119D01*
X88304996Y-124315274D01*
X88326711Y-124271658D01*
X88310847Y-124234639D01*
X88295938Y-124210580D01*
X88312638Y-124196674D01*
X88377444Y-124195062D01*
X88396563Y-124195892D01*
X88451595Y-124206663D01*
X88452873Y-124229771D01*
X88449562Y-124235047D01*
X88461430Y-124278053D01*
X88525190Y-124340370D01*
X88623917Y-124419147D01*
X88668855Y-124354989D01*
X88674551Y-124346753D01*
X88695873Y-124303827D01*
X88684766Y-124265619D01*
X88636223Y-124209866D01*
X88621153Y-124193547D01*
X88581787Y-124142229D01*
X88573204Y-124114349D01*
X88581157Y-124115823D01*
X88622587Y-124145935D01*
X88689614Y-124205431D01*
X88772377Y-124285822D01*
X88808779Y-124321550D01*
X88892810Y-124396377D01*
X88958619Y-124444193D01*
X88995739Y-124456980D01*
X89016538Y-124450375D01*
X89031408Y-124457175D01*
X89009175Y-124494721D01*
X88947659Y-124568051D01*
X88895829Y-124629237D01*
X88866611Y-124677479D01*
X88872603Y-124708832D01*
X88910825Y-124736960D01*
X88934936Y-124755611D01*
X88927090Y-124767500D01*
X88914960Y-124766111D01*
X88872890Y-124736755D01*
X88856831Y-124720860D01*
X88821711Y-124736755D01*
X88805840Y-124749313D01*
X88749993Y-124768385D01*
X88743911Y-124752993D01*
X88770503Y-124704116D01*
X88827560Y-124630742D01*
X88945214Y-124493099D01*
X88790874Y-124332003D01*
X88725201Y-124393701D01*
X88686401Y-124434280D01*
X88681944Y-124452435D01*
X88677052Y-124472366D01*
X88704874Y-124524606D01*
G37*
G36*
X90903056Y-117713552D02*
G01*
X90834546Y-117707700D01*
X90804760Y-117702819D01*
X90741491Y-117710570D01*
X90692962Y-117756288D01*
X90689718Y-117759344D01*
X90670686Y-117787657D01*
X90652192Y-117848804D01*
X90636324Y-117901267D01*
X90650838Y-118002018D01*
X90654503Y-118027455D01*
X90724511Y-118158071D01*
X90744088Y-118183082D01*
X90830485Y-118258512D01*
X90911304Y-118279372D01*
X90978718Y-118248501D01*
X91024905Y-118168735D01*
X91042039Y-118042914D01*
X91043664Y-117994660D01*
X91053327Y-117928071D01*
X91068796Y-117901948D01*
X91081082Y-117910837D01*
X91109671Y-117960821D01*
X91140150Y-118040149D01*
X91200613Y-118280115D01*
X91203634Y-118292104D01*
X91220735Y-118445486D01*
X91233669Y-118561494D01*
X91231815Y-118614777D01*
X91227419Y-118741123D01*
X91224694Y-118819426D01*
X91223865Y-118823625D01*
X91199032Y-118949370D01*
X91196164Y-118963890D01*
X91181794Y-119036655D01*
X91177754Y-119057112D01*
X91093893Y-119265761D01*
X90974157Y-119436584D01*
X90948443Y-119463844D01*
X90827578Y-119570246D01*
X90702109Y-119637514D01*
X90550247Y-119678060D01*
X90412724Y-119695892D01*
X90157407Y-119691709D01*
X89915015Y-119640446D01*
X89695553Y-119544708D01*
X89509028Y-119407098D01*
X89464221Y-119363671D01*
X89367530Y-119255851D01*
X89302316Y-119150474D01*
X89262839Y-119032540D01*
X89245863Y-118905728D01*
X89486279Y-118905728D01*
X89487897Y-118967184D01*
X89508091Y-119082692D01*
X89557856Y-119180305D01*
X89645372Y-119273123D01*
X89778819Y-119374247D01*
X89843928Y-119417956D01*
X89913938Y-119457022D01*
X89982434Y-119479055D01*
X90069317Y-119489844D01*
X90194487Y-119495181D01*
X90363799Y-119493046D01*
X90504445Y-119470724D01*
X90617437Y-119423692D01*
X90717277Y-119347861D01*
X90798223Y-119252305D01*
X90851175Y-119125054D01*
X90861642Y-119021523D01*
X90990066Y-119021523D01*
X90993548Y-119056052D01*
X91002299Y-119060604D01*
X91012944Y-119036655D01*
X91010845Y-119021253D01*
X90993548Y-119017259D01*
X90990066Y-119021523D01*
X90861642Y-119021523D01*
X90867469Y-118963890D01*
X90867469Y-118832990D01*
X90960283Y-118832990D01*
X90964796Y-118849032D01*
X90998397Y-118891180D01*
X91037545Y-118930250D01*
X91065606Y-118949370D01*
X91061092Y-118933328D01*
X91027492Y-118891180D01*
X90988344Y-118852110D01*
X90960283Y-118832990D01*
X90867469Y-118832990D01*
X90867469Y-118800949D01*
X90775569Y-118896348D01*
X90743815Y-118929311D01*
X90621720Y-119034330D01*
X90478381Y-119102522D01*
X90315786Y-119123941D01*
X90190823Y-119104827D01*
X90042580Y-119036612D01*
X89906748Y-118927759D01*
X89794460Y-118787541D01*
X89746634Y-118687515D01*
X89912860Y-118687515D01*
X89917374Y-118703557D01*
X89950974Y-118745705D01*
X89990122Y-118784774D01*
X90018183Y-118803895D01*
X90013670Y-118787853D01*
X89980069Y-118745705D01*
X89940922Y-118706635D01*
X89912860Y-118687515D01*
X89746634Y-118687515D01*
X89716854Y-118625231D01*
X89713079Y-118614777D01*
X89790951Y-118614777D01*
X89805499Y-118629324D01*
X89820046Y-118614777D01*
X89805499Y-118600229D01*
X89790951Y-118614777D01*
X89713079Y-118614777D01*
X89698088Y-118573267D01*
X89668976Y-118508966D01*
X89648495Y-118483849D01*
X89637167Y-118491119D01*
X89601726Y-118535735D01*
X89570668Y-118585682D01*
X89557100Y-118607503D01*
X89533981Y-118652190D01*
X89497417Y-118766151D01*
X89486279Y-118905728D01*
X89245863Y-118905728D01*
X89243362Y-118887045D01*
X89238145Y-118698989D01*
X89242208Y-118585682D01*
X89383620Y-118585682D01*
X89398168Y-118600229D01*
X89412715Y-118585682D01*
X89398168Y-118571134D01*
X89383620Y-118585682D01*
X89242208Y-118585682D01*
X89246676Y-118461103D01*
X89250090Y-118436644D01*
X89383620Y-118436644D01*
X89389530Y-118460291D01*
X89427263Y-118483849D01*
X89447144Y-118482635D01*
X89470905Y-118472864D01*
X89463422Y-118460522D01*
X89427263Y-118425659D01*
X89423033Y-118422193D01*
X89391273Y-118405770D01*
X89383620Y-118436644D01*
X89250090Y-118436644D01*
X89267470Y-118312112D01*
X89429279Y-118312112D01*
X89436583Y-118331423D01*
X89479502Y-118364548D01*
X89515419Y-118385564D01*
X89526075Y-118386480D01*
X89493419Y-118350631D01*
X89456984Y-118319633D01*
X89429279Y-118312112D01*
X89267470Y-118312112D01*
X89276801Y-118245248D01*
X89331538Y-118057932D01*
X89340751Y-118038622D01*
X89470905Y-118038622D01*
X89471692Y-118042019D01*
X89500467Y-118078097D01*
X89562347Y-118136191D01*
X89645955Y-118205461D01*
X89647508Y-118206682D01*
X89739155Y-118281128D01*
X89858421Y-118381300D01*
X89864458Y-118386480D01*
X89965137Y-118472864D01*
X89990042Y-118494233D01*
X90118750Y-118606965D01*
X90122365Y-118610169D01*
X90127612Y-118614777D01*
X90229655Y-118704392D01*
X90295482Y-118759999D01*
X90321075Y-118777854D01*
X90307662Y-118758819D01*
X90256472Y-118703759D01*
X90198438Y-118645432D01*
X90086525Y-118539303D01*
X89959302Y-118423997D01*
X89834594Y-118315900D01*
X89736836Y-118233512D01*
X89639136Y-118151166D01*
X89563771Y-118087637D01*
X89521822Y-118052266D01*
X89488792Y-118031449D01*
X89470905Y-118038622D01*
X89340751Y-118038622D01*
X89392743Y-117929655D01*
X89533800Y-117929655D01*
X89556325Y-117963621D01*
X89612233Y-118015051D01*
X89708331Y-118092369D01*
X89749775Y-118126151D01*
X89851067Y-118213704D01*
X89975209Y-118325406D01*
X90110231Y-118450412D01*
X90244164Y-118577876D01*
X90339678Y-118668685D01*
X90446228Y-118765995D01*
X90460006Y-118777854D01*
X90490260Y-118803895D01*
X90532667Y-118840396D01*
X90591933Y-118885857D01*
X90616967Y-118896348D01*
X90605485Y-118870800D01*
X90558206Y-118814332D01*
X90482515Y-118736330D01*
X90386401Y-118645489D01*
X90296500Y-118560984D01*
X90218810Y-118482233D01*
X90169718Y-118425659D01*
X90232906Y-118425659D01*
X90237420Y-118441701D01*
X90271020Y-118483849D01*
X90310168Y-118522919D01*
X90338229Y-118542039D01*
X90333715Y-118525997D01*
X90300115Y-118483849D01*
X90260967Y-118444779D01*
X90232906Y-118425659D01*
X90169718Y-118425659D01*
X90168810Y-118424613D01*
X90154531Y-118396740D01*
X90143365Y-118369916D01*
X90095313Y-118315848D01*
X90019724Y-118243637D01*
X89926591Y-118161565D01*
X89825904Y-118077920D01*
X89727654Y-118000986D01*
X89641833Y-117939048D01*
X89578431Y-117900391D01*
X89547440Y-117893302D01*
X89537851Y-117904732D01*
X89533800Y-117929655D01*
X89392743Y-117929655D01*
X89413853Y-117885411D01*
X89452370Y-117823902D01*
X89501880Y-117763418D01*
X89648166Y-117763418D01*
X89662994Y-117785024D01*
X89706149Y-117826886D01*
X89783225Y-117894502D01*
X89899819Y-117993374D01*
X90019617Y-118096957D01*
X90165280Y-118227305D01*
X90315774Y-118365510D01*
X90452625Y-118494811D01*
X90497485Y-118537659D01*
X90502205Y-118542039D01*
X90597469Y-118630440D01*
X90677939Y-118701273D01*
X90731583Y-118743859D01*
X90751089Y-118751901D01*
X90734565Y-118726496D01*
X90680678Y-118667734D01*
X90656833Y-118643872D01*
X90911112Y-118643872D01*
X90996566Y-118738431D01*
X91008922Y-118751901D01*
X91020414Y-118764429D01*
X91068004Y-118813511D01*
X91091125Y-118832990D01*
X91091450Y-118832988D01*
X91098462Y-118823625D01*
X91071773Y-118791381D01*
X91005671Y-118729327D01*
X90911112Y-118643872D01*
X90656833Y-118643872D01*
X90596365Y-118583361D01*
X90488840Y-118479953D01*
X90365319Y-118364086D01*
X90233016Y-118242335D01*
X90099146Y-118121274D01*
X90065108Y-118091066D01*
X90212830Y-118091066D01*
X90298285Y-118185625D01*
X90322132Y-118211623D01*
X90369722Y-118260705D01*
X90392844Y-118280184D01*
X90393169Y-118280182D01*
X90400181Y-118270818D01*
X90373491Y-118238574D01*
X90307389Y-118176520D01*
X90212830Y-118091066D01*
X90065108Y-118091066D01*
X89970925Y-118007480D01*
X89855567Y-117907527D01*
X89851166Y-117903853D01*
X89994838Y-117903853D01*
X90020001Y-117938316D01*
X90046630Y-117969350D01*
X90070917Y-117989233D01*
X90076022Y-117988755D01*
X90076219Y-117969799D01*
X90030986Y-117927331D01*
X90009904Y-117911078D01*
X89994838Y-117903853D01*
X89851166Y-117903853D01*
X89760287Y-117827991D01*
X89692301Y-117775448D01*
X89662167Y-117758367D01*
X89827180Y-117758367D01*
X89834594Y-117785567D01*
X89840571Y-117794180D01*
X89867123Y-117814662D01*
X89871103Y-117812768D01*
X89863689Y-117785567D01*
X89857711Y-117776955D01*
X89831160Y-117756472D01*
X89827180Y-117758367D01*
X89662167Y-117758367D01*
X89658824Y-117756472D01*
X89656069Y-117756567D01*
X89648166Y-117763418D01*
X89501880Y-117763418D01*
X89583477Y-117663736D01*
X89648844Y-117605980D01*
X89808599Y-117605980D01*
X89816788Y-117625928D01*
X89861239Y-117676849D01*
X89935739Y-117748545D01*
X90009310Y-117812768D01*
X90031744Y-117832351D01*
X90047104Y-117845276D01*
X90165264Y-117947621D01*
X90190101Y-117969799D01*
X90306216Y-118073485D01*
X90453602Y-118208115D01*
X90520604Y-118270818D01*
X90591066Y-118336759D01*
X90911112Y-118640896D01*
X90637146Y-118359518D01*
X90755070Y-118359518D01*
X90765708Y-118380329D01*
X90816992Y-118439835D01*
X90910331Y-118538034D01*
X90968805Y-118597540D01*
X91012092Y-118640896D01*
X91045078Y-118673935D01*
X91098905Y-118726283D01*
X91121271Y-118745705D01*
X91131823Y-118741123D01*
X91118665Y-118705996D01*
X91061624Y-118637692D01*
X91038745Y-118614777D01*
X91100230Y-118614777D01*
X91114777Y-118629324D01*
X91129325Y-118614777D01*
X91114777Y-118600229D01*
X91100230Y-118614777D01*
X91038745Y-118614777D01*
X90962028Y-118537941D01*
X90952941Y-118529287D01*
X90856799Y-118440206D01*
X90954754Y-118440206D01*
X90969302Y-118454754D01*
X90983849Y-118440206D01*
X90969302Y-118425659D01*
X90954754Y-118440206D01*
X90856799Y-118440206D01*
X90850096Y-118433995D01*
X90826428Y-118413832D01*
X91057336Y-118413832D01*
X91075692Y-118440206D01*
X91086002Y-118455020D01*
X91089070Y-118457543D01*
X91121434Y-118474937D01*
X91129325Y-118445486D01*
X91119191Y-118404439D01*
X91089468Y-118378314D01*
X91058918Y-118392793D01*
X91057336Y-118413832D01*
X90826428Y-118413832D01*
X90783669Y-118377406D01*
X90755070Y-118359518D01*
X90637146Y-118359518D01*
X90620161Y-118342073D01*
X90554224Y-118274760D01*
X90394328Y-118114863D01*
X90243546Y-117968547D01*
X90107085Y-117840533D01*
X90002929Y-117747019D01*
X90125545Y-117747019D01*
X90386794Y-118013601D01*
X90402695Y-118029811D01*
X90499373Y-118127635D01*
X90579185Y-118207178D01*
X90634226Y-118260631D01*
X90656594Y-118280184D01*
X90657761Y-118280115D01*
X90655588Y-118260024D01*
X90617088Y-118209304D01*
X90549115Y-118135433D01*
X90458523Y-118045886D01*
X90352165Y-117948137D01*
X90125545Y-117747019D01*
X90002929Y-117747019D01*
X89990152Y-117735547D01*
X89897955Y-117658310D01*
X89835702Y-117613547D01*
X89808599Y-117605980D01*
X89648844Y-117605980D01*
X89725488Y-117538259D01*
X89892784Y-117538259D01*
X89978239Y-117632818D01*
X90002086Y-117658816D01*
X90049676Y-117707899D01*
X90072798Y-117727377D01*
X90073123Y-117727375D01*
X90080135Y-117718012D01*
X90053446Y-117685768D01*
X89987343Y-117623714D01*
X89892784Y-117538259D01*
X89725488Y-117538259D01*
X89733854Y-117530867D01*
X89994617Y-117530867D01*
X89994671Y-117531150D01*
X90016795Y-117555775D01*
X90073320Y-117611154D01*
X90155970Y-117689338D01*
X90186943Y-117718012D01*
X90256472Y-117782380D01*
X90264694Y-117789909D01*
X90363495Y-117878724D01*
X90444107Y-117948215D01*
X90498421Y-117991581D01*
X90518328Y-118002018D01*
X90513796Y-117993454D01*
X90476846Y-117951349D01*
X90410762Y-117885089D01*
X90325288Y-117804635D01*
X90293811Y-117775879D01*
X90167682Y-117662865D01*
X90073654Y-117582603D01*
X90014906Y-117537726D01*
X89994617Y-117530867D01*
X89733854Y-117530867D01*
X89739597Y-117525793D01*
X89829655Y-117471322D01*
X90095498Y-117471322D01*
X90101309Y-117484151D01*
X90141048Y-117529193D01*
X90210176Y-117597696D01*
X90300145Y-117680905D01*
X90366506Y-117739194D01*
X90444897Y-117803839D01*
X90498482Y-117842667D01*
X90518328Y-117848804D01*
X90513734Y-117838498D01*
X90477405Y-117795623D01*
X90414312Y-117732631D01*
X90335831Y-117659677D01*
X90253335Y-117586915D01*
X90178198Y-117524499D01*
X90121794Y-117482583D01*
X90095498Y-117471322D01*
X89829655Y-117471322D01*
X89838940Y-117465706D01*
X90258107Y-117465706D01*
X90272936Y-117487855D01*
X90319072Y-117539719D01*
X90387400Y-117610997D01*
X90392103Y-117615763D01*
X90464245Y-117686834D01*
X90519141Y-117737287D01*
X90545236Y-117756472D01*
X90545788Y-117756288D01*
X90530960Y-117734139D01*
X90484823Y-117682275D01*
X90416495Y-117610997D01*
X90411793Y-117606230D01*
X90339651Y-117535160D01*
X90299120Y-117497909D01*
X90415408Y-117497909D01*
X90429910Y-117528880D01*
X90474685Y-117581902D01*
X90494142Y-117601438D01*
X90550626Y-117649819D01*
X90587405Y-117669187D01*
X90592153Y-117665894D01*
X90577651Y-117634924D01*
X90545160Y-117596449D01*
X90634708Y-117596449D01*
X90649256Y-117610997D01*
X90663803Y-117596449D01*
X90649256Y-117581902D01*
X90634708Y-117596449D01*
X90545160Y-117596449D01*
X90532876Y-117581902D01*
X90513419Y-117562366D01*
X90456935Y-117513985D01*
X90420156Y-117494617D01*
X90415408Y-117497909D01*
X90299120Y-117497909D01*
X90284755Y-117484706D01*
X90258660Y-117465521D01*
X90258107Y-117465706D01*
X89838940Y-117465706D01*
X89902220Y-117427431D01*
X90065522Y-117378526D01*
X90261756Y-117369499D01*
X90463927Y-117404125D01*
X90658289Y-117479934D01*
X90831100Y-117594455D01*
X90833275Y-117596449D01*
X90887076Y-117645761D01*
X90901320Y-117665894D01*
X90920572Y-117693107D01*
X90903056Y-117713552D01*
G37*
G36*
X84974426Y-119198802D02*
G01*
X85009014Y-119249827D01*
X85073838Y-119361214D01*
X85146068Y-119499591D01*
X85220701Y-119653787D01*
X85292732Y-119812629D01*
X85357156Y-119964946D01*
X85408968Y-120099564D01*
X85443164Y-120205312D01*
X85454739Y-120271018D01*
X85449616Y-120283979D01*
X85424095Y-120267374D01*
X85381001Y-120210456D01*
X85324580Y-120121001D01*
X85259081Y-120006782D01*
X85188751Y-119875575D01*
X85117837Y-119735152D01*
X85050587Y-119593290D01*
X84991249Y-119457761D01*
X84944070Y-119336341D01*
X84934214Y-119307188D01*
X84912457Y-119219265D01*
X84912839Y-119167663D01*
X84933963Y-119158727D01*
X84974426Y-119198802D01*
G37*
G36*
X89950974Y-118213352D02*
G01*
X89951860Y-118213968D01*
X90030198Y-118276173D01*
X90096450Y-118340734D01*
X90154640Y-118407565D01*
X90067354Y-118347015D01*
X90066469Y-118346399D01*
X89988131Y-118284194D01*
X89921879Y-118219633D01*
X89863689Y-118152802D01*
X89950974Y-118213352D01*
G37*
G36*
X83302750Y-115297938D02*
G01*
X83288202Y-115312486D01*
X83273655Y-115297938D01*
X83288202Y-115283391D01*
X83302750Y-115297938D01*
G37*
G36*
X90756417Y-119864331D02*
G01*
X90807850Y-119909587D01*
X90879401Y-119991713D01*
X90965285Y-120103992D01*
X91059717Y-120239703D01*
X91065589Y-120248574D01*
X91131370Y-120354267D01*
X91203511Y-120479349D01*
X91276003Y-120612246D01*
X91342842Y-120741385D01*
X91398020Y-120855192D01*
X91435532Y-120942093D01*
X91449370Y-120990515D01*
X91447314Y-120998190D01*
X91421328Y-120992058D01*
X91372364Y-120951236D01*
X91309125Y-120884624D01*
X91240317Y-120801120D01*
X91174641Y-120709622D01*
X91153466Y-120676775D01*
X91091235Y-120573679D01*
X91021308Y-120450774D01*
X90948912Y-120318106D01*
X90879270Y-120185721D01*
X90817608Y-120063667D01*
X90769151Y-119961990D01*
X90739125Y-119890737D01*
X90732753Y-119859954D01*
X90756417Y-119864331D01*
G37*
G36*
X90086031Y-119892789D02*
G01*
X90142192Y-119967080D01*
X90210315Y-120068222D01*
X90285441Y-120187870D01*
X90362613Y-120317681D01*
X90436871Y-120449307D01*
X90503259Y-120574405D01*
X90556817Y-120684629D01*
X90592588Y-120771633D01*
X90605613Y-120827074D01*
X90602053Y-120851830D01*
X90583218Y-120855659D01*
X90545112Y-120819873D01*
X90484293Y-120740979D01*
X90397319Y-120615478D01*
X90350725Y-120543724D01*
X90269733Y-120407632D01*
X90192541Y-120265420D01*
X90124537Y-120128193D01*
X90071111Y-120007058D01*
X90037650Y-119913119D01*
X90029543Y-119857482D01*
X90046789Y-119853695D01*
X90086031Y-119892789D01*
G37*
G36*
X88442721Y-123912515D02*
G01*
X88625610Y-123930206D01*
X88774939Y-123974285D01*
X88907537Y-124051285D01*
X89040235Y-124167739D01*
X89043118Y-124170636D01*
X89163020Y-124325079D01*
X89240032Y-124497230D01*
X89267240Y-124671735D01*
X89264713Y-124721696D01*
X89245793Y-124759562D01*
X89197806Y-124768385D01*
X89184270Y-124768007D01*
X89146385Y-124755554D01*
X89124083Y-124714531D01*
X89107752Y-124630184D01*
X89102832Y-124599278D01*
X89063094Y-124441457D01*
X89000893Y-124322773D01*
X88908848Y-124228316D01*
X88834855Y-124176202D01*
X88660247Y-124093087D01*
X88472827Y-124048192D01*
X88288362Y-124044398D01*
X88122621Y-124084589D01*
X88065271Y-124111862D01*
X87918413Y-124216010D01*
X87801956Y-124350171D01*
X87725025Y-124502032D01*
X87696745Y-124659279D01*
X87692119Y-124729207D01*
X87671407Y-124761381D01*
X87623368Y-124768385D01*
X87603040Y-124767841D01*
X87568207Y-124756271D01*
X87553596Y-124717680D01*
X87550630Y-124636523D01*
X87550693Y-124627803D01*
X87581357Y-124442905D01*
X87664141Y-124270006D01*
X87793301Y-124118024D01*
X87963095Y-123995881D01*
X88007171Y-123972151D01*
X88081222Y-123939062D01*
X88155051Y-123920533D01*
X88248107Y-123912621D01*
X88379840Y-123911382D01*
X88442721Y-123912515D01*
G37*
G36*
X99025725Y-116818205D02*
G01*
X98883162Y-116875233D01*
X98808885Y-116904015D01*
X98649920Y-116971968D01*
X98454422Y-117061195D01*
X98231319Y-117167293D01*
X97989542Y-117285860D01*
X97738019Y-117412493D01*
X97485679Y-117542789D01*
X97241450Y-117672346D01*
X97014262Y-117796761D01*
X96881458Y-117872870D01*
X96703146Y-117979765D01*
X96519086Y-118094374D01*
X96340548Y-118209410D01*
X96178806Y-118317587D01*
X96045130Y-118411619D01*
X95950793Y-118484219D01*
X95945383Y-118514452D01*
X95946899Y-118591465D01*
X95955451Y-118702556D01*
X95970357Y-118835485D01*
X95984911Y-118960632D01*
X96004172Y-119156195D01*
X96021197Y-119360516D01*
X96033488Y-119545495D01*
X96054193Y-119923406D01*
X96232137Y-119732019D01*
X96266597Y-119695060D01*
X96356423Y-119599150D01*
X96473438Y-119474568D01*
X96609349Y-119330131D01*
X96755866Y-119174655D01*
X96904697Y-119016953D01*
X96998457Y-118917495D01*
X97136184Y-118770711D01*
X97261092Y-118636795D01*
X97366370Y-118523082D01*
X97445211Y-118436907D01*
X97490804Y-118385604D01*
X97582295Y-118277934D01*
X97781755Y-118296209D01*
X97833374Y-118301224D01*
X97958384Y-118314355D01*
X98117194Y-118331835D01*
X98294708Y-118351989D01*
X98475831Y-118373145D01*
X98504607Y-118376554D01*
X98696555Y-118399185D01*
X98925322Y-118426008D01*
X99173072Y-118454940D01*
X99421970Y-118483898D01*
X99654181Y-118510798D01*
X100337916Y-118589790D01*
X100336454Y-118660474D01*
X100320159Y-118700422D01*
X100285575Y-118760252D01*
X100271153Y-118785202D01*
X100191217Y-118911553D01*
X100082137Y-119076772D01*
X99945702Y-119278152D01*
X99783696Y-119512990D01*
X99597907Y-119778580D01*
X99490756Y-119930779D01*
X99342961Y-120140483D01*
X99207619Y-120332257D01*
X99088230Y-120501153D01*
X98988295Y-120642226D01*
X98911315Y-120750529D01*
X98860792Y-120821115D01*
X98840227Y-120849039D01*
X98838964Y-120849750D01*
X98798472Y-120855312D01*
X98706299Y-120862065D01*
X98568097Y-120869761D01*
X98389514Y-120878147D01*
X98176200Y-120886974D01*
X97933806Y-120895991D01*
X97667981Y-120904947D01*
X97384375Y-120913593D01*
X97186872Y-120919304D01*
X96887064Y-120928141D01*
X96637989Y-120936079D01*
X96434933Y-120943672D01*
X96273179Y-120951475D01*
X96148013Y-120960040D01*
X96054721Y-120969922D01*
X95988586Y-120981673D01*
X95944895Y-120995849D01*
X95918931Y-121013001D01*
X95905981Y-121033684D01*
X95901328Y-121058452D01*
X95900258Y-121087858D01*
X95900209Y-121089146D01*
X95892741Y-121141529D01*
X95874703Y-121236763D01*
X95848712Y-121361727D01*
X95817385Y-121503301D01*
X95736060Y-121860553D01*
X95788514Y-122128845D01*
X95798955Y-122184064D01*
X95820640Y-122312102D01*
X95835869Y-122421299D01*
X95841848Y-122492609D01*
X95841959Y-122498052D01*
X95854549Y-122566440D01*
X95881293Y-122602880D01*
X95884309Y-122603570D01*
X95932760Y-122598163D01*
X96022895Y-122577734D01*
X96142997Y-122545195D01*
X96281350Y-122503459D01*
X96371355Y-122475531D01*
X96557053Y-122422554D01*
X96730807Y-122381384D01*
X96910143Y-122348615D01*
X97112589Y-122320842D01*
X97355671Y-122294656D01*
X97443349Y-122285483D01*
X97578789Y-122269330D01*
X97692459Y-122253456D01*
X97766260Y-122240258D01*
X97778204Y-122237689D01*
X97804297Y-122234713D01*
X97833961Y-122237495D01*
X97871732Y-122248611D01*
X97922143Y-122270636D01*
X97989730Y-122306147D01*
X98079027Y-122357719D01*
X98194569Y-122427927D01*
X98340890Y-122519347D01*
X98522524Y-122634556D01*
X98744006Y-122776128D01*
X99009872Y-122946639D01*
X99266866Y-123112288D01*
X99534527Y-123286845D01*
X99753796Y-123432428D01*
X99924377Y-123548833D01*
X100045975Y-123635858D01*
X100118295Y-123693302D01*
X100137378Y-123716508D01*
X100141041Y-123720962D01*
X100120183Y-123749877D01*
X100059394Y-123797163D01*
X99973947Y-123847600D01*
X99919887Y-123876408D01*
X99811563Y-123935730D01*
X99673876Y-124012275D01*
X99518961Y-124099284D01*
X99358953Y-124190003D01*
X99266841Y-124241951D01*
X99080207Y-124344645D01*
X98890610Y-124446144D01*
X98715765Y-124537027D01*
X98573386Y-124607870D01*
X98243070Y-124766329D01*
X97659808Y-124768385D01*
X97274111Y-124491744D01*
X97189474Y-124431667D01*
X97038240Y-124326603D01*
X96873204Y-124214188D01*
X96701236Y-124098890D01*
X96529208Y-123985172D01*
X96363992Y-123877502D01*
X96212458Y-123780343D01*
X96081478Y-123698161D01*
X95977922Y-123635422D01*
X95908663Y-123596591D01*
X95880572Y-123586134D01*
X95870244Y-123609573D01*
X95849121Y-123675950D01*
X95823676Y-123767798D01*
X95762484Y-123955557D01*
X95685906Y-124117535D01*
X95601611Y-124237400D01*
X95597530Y-124241786D01*
X95548840Y-124284361D01*
X95513344Y-124301817D01*
X95502804Y-124291798D01*
X95528980Y-124251948D01*
X95536642Y-124243115D01*
X95588772Y-124175550D01*
X95613424Y-124115720D01*
X95610246Y-124049062D01*
X95578890Y-123961011D01*
X95519005Y-123837005D01*
X95499326Y-123799153D01*
X95386929Y-123607092D01*
X95248857Y-123400211D01*
X95099178Y-123198709D01*
X94951962Y-123022787D01*
X94844721Y-122904085D01*
X94752993Y-123147938D01*
X94712363Y-123248042D01*
X94598299Y-123475613D01*
X94463035Y-123688090D01*
X94314540Y-123874947D01*
X94160784Y-124025656D01*
X94009737Y-124129690D01*
X93940715Y-124159161D01*
X93801624Y-124196822D01*
X93654789Y-124217284D01*
X93529668Y-124215292D01*
X93413288Y-124198613D01*
X93533585Y-124176010D01*
X93591558Y-124163138D01*
X93639158Y-124138781D01*
X93670331Y-124090705D01*
X93700757Y-124002649D01*
X93712893Y-123955647D01*
X93734168Y-123837109D01*
X93752066Y-123693570D01*
X93763644Y-123546392D01*
X93779655Y-123240894D01*
X93703386Y-123382311D01*
X93697933Y-123392277D01*
X93558723Y-123583967D01*
X93367720Y-123752171D01*
X93127122Y-123894934D01*
X92865818Y-123998292D01*
X92587749Y-124053444D01*
X92306714Y-124052250D01*
X92213834Y-124045421D01*
X92144899Y-124045732D01*
X92118557Y-124053451D01*
X92119426Y-124061109D01*
X92141300Y-124115689D01*
X92181479Y-124183643D01*
X92224985Y-124238878D01*
X92244839Y-124264660D01*
X92264033Y-124320319D01*
X92274965Y-124362455D01*
X92306462Y-124440698D01*
X92351318Y-124535625D01*
X92388517Y-124610814D01*
X92424467Y-124693872D01*
X92433301Y-124741508D01*
X92415899Y-124763077D01*
X92373139Y-124767934D01*
X92370108Y-124767836D01*
X92342713Y-124758831D01*
X92311672Y-124730519D01*
X92272694Y-124676261D01*
X92221490Y-124589420D01*
X92153769Y-124463355D01*
X92065243Y-124291428D01*
X91963311Y-124097198D01*
X91862063Y-123918954D01*
X91777633Y-123787816D01*
X91712174Y-123707340D01*
X91601537Y-123599306D01*
X91521030Y-123700202D01*
X91483083Y-123754303D01*
X91443508Y-123828968D01*
X91403337Y-123927456D01*
X91359575Y-124058015D01*
X91309226Y-124228894D01*
X91249294Y-124448339D01*
X91237341Y-124492956D01*
X91203509Y-124613392D01*
X91177029Y-124690457D01*
X91152770Y-124734313D01*
X91125600Y-124755121D01*
X91090389Y-124763044D01*
X91037597Y-124761399D01*
X91012944Y-124742913D01*
X91013006Y-124741034D01*
X91023241Y-124690687D01*
X91048308Y-124598588D01*
X91084337Y-124476986D01*
X91127458Y-124338131D01*
X91173799Y-124194274D01*
X91219490Y-124057665D01*
X91260661Y-123940553D01*
X91293440Y-123855188D01*
X91333763Y-123767260D01*
X91384901Y-123673452D01*
X91428028Y-123611971D01*
X91429648Y-123610207D01*
X91467490Y-123561933D01*
X91476156Y-123535696D01*
X91465221Y-123528406D01*
X91412892Y-123496710D01*
X91328416Y-123446913D01*
X91223492Y-123385951D01*
X91186177Y-123364430D01*
X91086939Y-123308551D01*
X91022709Y-123277675D01*
X90981650Y-123268514D01*
X90951922Y-123277785D01*
X90921688Y-123302203D01*
X90868354Y-123362055D01*
X90792581Y-123463945D01*
X90701003Y-123597779D01*
X90599719Y-123753937D01*
X90494828Y-123922804D01*
X90392429Y-124094761D01*
X90298620Y-124260191D01*
X90219502Y-124409477D01*
X90156922Y-124532150D01*
X90099854Y-124638593D01*
X90057321Y-124707367D01*
X90023455Y-124746530D01*
X89992386Y-124764141D01*
X89958248Y-124768260D01*
X89903381Y-124763067D01*
X89878236Y-124749105D01*
X89879991Y-124743174D01*
X89901559Y-124695635D01*
X89943840Y-124610024D01*
X90001955Y-124496092D01*
X90071027Y-124363595D01*
X90147953Y-124220953D01*
X90275766Y-123996947D01*
X90405295Y-123784039D01*
X90529925Y-123592620D01*
X90643040Y-123433084D01*
X90738024Y-123315821D01*
X90782293Y-123264800D01*
X90823725Y-123210957D01*
X90835180Y-123186302D01*
X90814584Y-123174424D01*
X90751327Y-123140393D01*
X90656499Y-123090364D01*
X90541136Y-123030198D01*
X90258446Y-122883505D01*
X90010614Y-122960367D01*
X89958245Y-122977368D01*
X89857974Y-123014874D01*
X89788451Y-123047958D01*
X89762319Y-123070984D01*
X89754011Y-123098513D01*
X89711126Y-123167354D01*
X89640256Y-123256769D01*
X89551041Y-123355682D01*
X89453119Y-123453019D01*
X89356128Y-123537704D01*
X89183356Y-123675955D01*
X89239846Y-123767357D01*
X89245866Y-123777366D01*
X89281700Y-123850629D01*
X89296335Y-123905850D01*
X89297123Y-123912176D01*
X89329066Y-123954732D01*
X89393283Y-123993449D01*
X89393880Y-123993700D01*
X89481509Y-124046848D01*
X89556362Y-124117494D01*
X89560349Y-124122579D01*
X89598403Y-124184283D01*
X89612202Y-124252150D01*
X89607235Y-124351427D01*
X89605468Y-124370520D01*
X89606257Y-124484553D01*
X89632348Y-124555092D01*
X89658309Y-124607566D01*
X89673646Y-124688374D01*
X89664066Y-124743739D01*
X89632256Y-124768164D01*
X89591000Y-124746947D01*
X89553770Y-124680925D01*
X89545770Y-124661963D01*
X89492741Y-124598570D01*
X89422759Y-124567138D01*
X89356179Y-124578245D01*
X89343828Y-124583800D01*
X89325430Y-124572710D01*
X89325927Y-124569798D01*
X89354255Y-124537500D01*
X89412715Y-124496610D01*
X89437717Y-124480678D01*
X89487069Y-124426748D01*
X89500000Y-124348785D01*
X89498409Y-124316375D01*
X89461260Y-124205583D01*
X89377592Y-124127485D01*
X89251044Y-124085925D01*
X89117364Y-124065878D01*
X89136491Y-123952667D01*
X89143792Y-123886947D01*
X89130193Y-123825296D01*
X89081823Y-123765662D01*
X89049722Y-123736385D01*
X88975644Y-123698059D01*
X88897260Y-123707809D01*
X88800328Y-123765631D01*
X88700347Y-123839395D01*
X88677169Y-123749947D01*
X88652010Y-123686760D01*
X88590540Y-123630950D01*
X88496192Y-123618654D01*
X88364600Y-123648455D01*
X88329219Y-123661078D01*
X88238084Y-123706906D01*
X88198224Y-123753609D01*
X88188277Y-123788283D01*
X88168545Y-123805725D01*
X88120364Y-123790587D01*
X88095936Y-123772842D01*
X88074342Y-123718404D01*
X88066585Y-123689731D01*
X88020187Y-123652677D01*
X87949591Y-123640853D01*
X87875357Y-123660267D01*
X87844648Y-123679823D01*
X87817290Y-123713685D01*
X87795429Y-123772692D01*
X87771194Y-123872913D01*
X87759625Y-123913026D01*
X87730153Y-123940280D01*
X87667727Y-123934955D01*
X87559168Y-123927542D01*
X87464615Y-123961849D01*
X87404444Y-124042724D01*
X87387937Y-124089289D01*
X87385049Y-124153189D01*
X87414026Y-124230509D01*
X87432943Y-124271726D01*
X87444334Y-124319859D01*
X87425842Y-124362428D01*
X87372313Y-124423255D01*
X87364068Y-124432260D01*
X87307570Y-124517623D01*
X87297557Y-124606428D01*
X87331415Y-124717469D01*
X87338510Y-124746574D01*
X87316240Y-124764173D01*
X87248245Y-124768385D01*
X87204144Y-124767757D01*
X87161469Y-124757053D01*
X87145624Y-124720336D01*
X87143299Y-124641517D01*
X87152967Y-124549250D01*
X87212187Y-124413138D01*
X87248353Y-124351617D01*
X87269990Y-124272745D01*
X87267784Y-124169044D01*
X87268541Y-124067570D01*
X87308478Y-123940715D01*
X87391906Y-123848749D01*
X87515389Y-123796840D01*
X87548006Y-123789174D01*
X87612345Y-123768143D01*
X87637916Y-123749984D01*
X87641388Y-123738623D01*
X87668482Y-123688194D01*
X87713654Y-123617476D01*
X87789392Y-123505870D01*
X87740241Y-123297160D01*
X87691091Y-123088450D01*
X87682295Y-123087248D01*
X87783391Y-123087248D01*
X87783407Y-123087553D01*
X87794264Y-123120638D01*
X87821361Y-123192030D01*
X87859037Y-123286794D01*
X87860720Y-123290947D01*
X87899132Y-123384305D01*
X87928372Y-123452735D01*
X87942228Y-123481683D01*
X87947502Y-123468396D01*
X87957635Y-123411499D01*
X87969254Y-123323954D01*
X87975325Y-123252332D01*
X87975245Y-123174979D01*
X87966075Y-123136140D01*
X87962560Y-123133175D01*
X87920025Y-123112563D01*
X87860051Y-123093774D01*
X87806540Y-123083203D01*
X87783391Y-123087248D01*
X87682295Y-123087248D01*
X87432343Y-123053090D01*
X87397301Y-123048150D01*
X87258667Y-123026138D01*
X87129710Y-123002314D01*
X87034480Y-122981033D01*
X86966786Y-122966617D01*
X86847927Y-122967082D01*
X86741978Y-123010265D01*
X86737184Y-123027419D01*
X86739811Y-123094970D01*
X86752755Y-123205454D01*
X86774528Y-123350608D01*
X86803647Y-123522168D01*
X86838625Y-123711873D01*
X86877978Y-123911459D01*
X86920219Y-124112663D01*
X86963864Y-124307223D01*
X87007426Y-124486874D01*
X87078910Y-124768385D01*
X87000907Y-124768385D01*
X86993072Y-124768330D01*
X86963241Y-124764520D01*
X86939644Y-124748326D01*
X86918329Y-124710907D01*
X86895341Y-124643421D01*
X86866728Y-124537024D01*
X86828535Y-124382875D01*
X86805940Y-124288529D01*
X86757303Y-124071453D01*
X86713039Y-123855523D01*
X86675144Y-123651789D01*
X86645608Y-123471299D01*
X86626425Y-123325106D01*
X86619588Y-123224258D01*
X86619588Y-123112826D01*
X86423196Y-123224968D01*
X86226805Y-123337109D01*
X86236042Y-123507215D01*
X86238450Y-123541095D01*
X86251889Y-123663502D01*
X86272657Y-123809260D01*
X86297367Y-123953723D01*
X86297693Y-123955454D01*
X86333826Y-124229192D01*
X86335487Y-124499256D01*
X86334784Y-124512765D01*
X86327556Y-124634149D01*
X86319099Y-124709393D01*
X86306012Y-124749506D01*
X86284893Y-124765501D01*
X86252341Y-124768385D01*
X86240470Y-124768197D01*
X86202986Y-124758526D01*
X86187843Y-124722661D01*
X86186604Y-124644731D01*
X86187317Y-124625619D01*
X86195780Y-124521427D01*
X86209137Y-124433792D01*
X86212246Y-124395633D01*
X86206658Y-124298219D01*
X86189691Y-124165923D01*
X86162791Y-124011913D01*
X86140764Y-123892287D01*
X86118116Y-123751338D01*
X86102567Y-123632696D01*
X86096615Y-123553666D01*
X86094154Y-123495073D01*
X86083098Y-123445402D01*
X86061107Y-123432557D01*
X86025933Y-123459202D01*
X85975329Y-123528004D01*
X85907047Y-123641628D01*
X85818840Y-123802739D01*
X85708461Y-124014002D01*
X85670129Y-124088960D01*
X85591387Y-124246212D01*
X85519866Y-124393131D01*
X85462193Y-124515997D01*
X85424993Y-124601088D01*
X85386150Y-124692036D01*
X85353863Y-124742914D01*
X85316709Y-124764133D01*
X85262347Y-124768385D01*
X85166902Y-124768385D01*
X85227209Y-124630184D01*
X85233560Y-124615619D01*
X85277775Y-124513966D01*
X85332696Y-124387401D01*
X85387931Y-124259867D01*
X85406973Y-124216525D01*
X85453123Y-124117022D01*
X85490237Y-124044592D01*
X85511649Y-124012559D01*
X85514978Y-124009884D01*
X85545462Y-123969197D01*
X85583589Y-123902442D01*
X85632227Y-123807519D01*
X85551280Y-123778295D01*
X85371636Y-123706270D01*
X85080575Y-123553081D01*
X84835487Y-123372525D01*
X84782895Y-123327062D01*
X84745114Y-123300704D01*
X84730784Y-123308244D01*
X84728628Y-123346986D01*
X84734243Y-123436529D01*
X84751703Y-123558803D01*
X84776984Y-123682372D01*
X84805962Y-123787468D01*
X84834509Y-123854321D01*
X84857395Y-123901884D01*
X84860995Y-124001114D01*
X84841692Y-124078024D01*
X84763229Y-124006331D01*
X84758082Y-124001698D01*
X84691421Y-123946560D01*
X84597753Y-123874201D01*
X84495648Y-123799008D01*
X84492410Y-123796684D01*
X84381700Y-123714906D01*
X84272330Y-123630477D01*
X84187528Y-123561316D01*
X84068527Y-123459255D01*
X83816566Y-123505993D01*
X83564605Y-123552730D01*
X83564605Y-123753227D01*
X83564613Y-123758689D01*
X83567787Y-123857153D01*
X83575596Y-123927108D01*
X83586427Y-123953721D01*
X83589272Y-123954484D01*
X83601534Y-123986037D01*
X83605210Y-124045358D01*
X83600267Y-124106877D01*
X83586671Y-124145021D01*
X83566485Y-124148929D01*
X83516522Y-124131719D01*
X83509158Y-124127737D01*
X83441282Y-124094029D01*
X83358132Y-124055770D01*
X83287820Y-124016027D01*
X83192004Y-123948753D01*
X83096277Y-123870956D01*
X82939061Y-123732390D01*
X81629783Y-123986545D01*
X81408331Y-124029537D01*
X81149775Y-124079742D01*
X80911711Y-124125979D01*
X80700242Y-124167061D01*
X80521476Y-124201802D01*
X80381517Y-124229016D01*
X80286471Y-124247517D01*
X80242443Y-124256118D01*
X80228823Y-124257606D01*
X80203590Y-124253339D01*
X80171399Y-124237358D01*
X80128138Y-124205825D01*
X80069699Y-124154903D01*
X79991970Y-124080755D01*
X79890842Y-123979543D01*
X79762204Y-123847429D01*
X79601947Y-123680578D01*
X79405960Y-123475150D01*
X79383210Y-123451250D01*
X79214395Y-123273169D01*
X79059497Y-123108515D01*
X78922908Y-122962050D01*
X78809025Y-122838535D01*
X78722239Y-122742732D01*
X78678155Y-122692240D01*
X78852816Y-122692240D01*
X78861142Y-122704956D01*
X78904919Y-122754458D01*
X78981892Y-122836632D01*
X79087400Y-122946630D01*
X79216784Y-123079607D01*
X79365387Y-123230717D01*
X79528547Y-123395113D01*
X80217212Y-124085969D01*
X80676189Y-124009870D01*
X80705578Y-124004950D01*
X80912551Y-123968317D01*
X81137898Y-123925660D01*
X81356314Y-123881886D01*
X81542498Y-123841901D01*
X81720770Y-123802408D01*
X81943213Y-123754417D01*
X82167696Y-123707078D01*
X82365536Y-123666505D01*
X82429162Y-123653592D01*
X82569672Y-123624079D01*
X82684482Y-123598578D01*
X82763119Y-123579464D01*
X82795113Y-123569111D01*
X82795396Y-123555631D01*
X82776338Y-123502869D01*
X82738640Y-123427162D01*
X82685617Y-123307482D01*
X82632587Y-123146670D01*
X82585008Y-122964315D01*
X82547665Y-122778786D01*
X82525345Y-122608454D01*
X82508806Y-122412440D01*
X82384629Y-122338946D01*
X82681770Y-122338946D01*
X82682094Y-122417830D01*
X82694769Y-122694282D01*
X82728324Y-122927554D01*
X82786362Y-123127732D01*
X82872489Y-123304903D01*
X82990311Y-123469152D01*
X83072347Y-123555631D01*
X83143431Y-123630564D01*
X83210016Y-123692384D01*
X83295496Y-123767200D01*
X83360245Y-123818378D01*
X83393875Y-123837343D01*
X83403505Y-123831633D01*
X83412676Y-123790704D01*
X83411805Y-123704997D01*
X83401061Y-123568213D01*
X83385802Y-123334979D01*
X83385699Y-123312136D01*
X83535286Y-123312136D01*
X83538855Y-123377500D01*
X83556738Y-123412544D01*
X83599772Y-123422890D01*
X83678793Y-123414162D01*
X83804640Y-123391983D01*
X83878196Y-123377218D01*
X83945731Y-123359051D01*
X83971682Y-123345291D01*
X83971425Y-123344167D01*
X83944447Y-123318656D01*
X83883246Y-123274054D01*
X83802334Y-123219826D01*
X83716220Y-123165434D01*
X83639414Y-123120344D01*
X83586427Y-123094018D01*
X83563120Y-123088846D01*
X83545327Y-123104273D01*
X83537351Y-123154953D01*
X83535510Y-123252328D01*
X83535286Y-123312136D01*
X83385699Y-123312136D01*
X83384131Y-122964456D01*
X83392037Y-122825833D01*
X83567476Y-122825833D01*
X83571024Y-122873871D01*
X83594285Y-122931846D01*
X83649151Y-122989537D01*
X83692759Y-123017070D01*
X83706193Y-123016470D01*
X83687652Y-122978324D01*
X83659886Y-122932915D01*
X83609524Y-122862658D01*
X83581397Y-122828897D01*
X83567476Y-122825833D01*
X83392037Y-122825833D01*
X83406214Y-122577241D01*
X83451276Y-122194593D01*
X83480278Y-122009679D01*
X83507491Y-121857108D01*
X83531224Y-121752518D01*
X83552918Y-121690736D01*
X83574013Y-121666592D01*
X83595948Y-121674916D01*
X83599119Y-121678669D01*
X83609587Y-121737484D01*
X83592562Y-121846951D01*
X83589809Y-121859828D01*
X83573898Y-121966150D01*
X83561523Y-122100545D01*
X83555166Y-122237114D01*
X83554732Y-122261866D01*
X83555693Y-122384736D01*
X83565578Y-122473394D01*
X83588132Y-122548296D01*
X83627101Y-122629897D01*
X83627168Y-122630025D01*
X83691749Y-122740012D01*
X83775686Y-122865007D01*
X83872419Y-122997154D01*
X83887551Y-123016470D01*
X83975387Y-123128597D01*
X84078027Y-123251482D01*
X84162393Y-123345291D01*
X84173780Y-123357952D01*
X84256085Y-123440153D01*
X84318379Y-123490227D01*
X84354101Y-123500321D01*
X84361944Y-123496941D01*
X84379267Y-123514099D01*
X84379439Y-123516054D01*
X84402904Y-123550761D01*
X84453896Y-123598457D01*
X84515143Y-123645712D01*
X84569372Y-123679099D01*
X84599312Y-123685186D01*
X84600897Y-123680954D01*
X84599027Y-123634316D01*
X84586840Y-123549516D01*
X84566302Y-123441095D01*
X84562248Y-123420257D01*
X84545882Y-123298350D01*
X84535020Y-123151241D01*
X84529527Y-122990817D01*
X84529271Y-122828966D01*
X84534118Y-122677575D01*
X84543934Y-122548532D01*
X84558585Y-122453724D01*
X84577939Y-122405040D01*
X84582784Y-122400729D01*
X84600484Y-122402799D01*
X84610297Y-122448110D01*
X84614152Y-122544067D01*
X84614632Y-122576422D01*
X84621998Y-122752844D01*
X84639437Y-122886207D01*
X84670607Y-122989335D01*
X84719170Y-123075059D01*
X84788783Y-123156204D01*
X84827339Y-123192942D01*
X84939360Y-123285420D01*
X85076217Y-123385819D01*
X85220836Y-123482482D01*
X85356148Y-123563752D01*
X85465079Y-123617973D01*
X85565463Y-123657793D01*
X85637536Y-123676994D01*
X85686245Y-123667539D01*
X85727527Y-123625878D01*
X85777319Y-123548466D01*
X85788654Y-123530286D01*
X85823959Y-123478541D01*
X85864131Y-123430813D01*
X85916470Y-123381114D01*
X85988273Y-123323456D01*
X86086838Y-123251847D01*
X86219463Y-123160301D01*
X86393446Y-123042826D01*
X86447679Y-123005945D01*
X86535225Y-122944204D01*
X86595493Y-122898664D01*
X86617809Y-122877205D01*
X86614807Y-122874428D01*
X86572558Y-122855425D01*
X86488194Y-122823380D01*
X86371673Y-122781973D01*
X86232955Y-122734890D01*
X86044980Y-122669769D01*
X85592651Y-122489297D01*
X85179565Y-122289139D01*
X84808811Y-122071423D01*
X84483478Y-121838276D01*
X84206655Y-121591823D01*
X83981430Y-121334190D01*
X83810894Y-121067506D01*
X83808442Y-121062828D01*
X83705045Y-120831505D01*
X83637440Y-120595978D01*
X83604087Y-120344778D01*
X83603794Y-120217317D01*
X83775835Y-120217317D01*
X83782026Y-120352884D01*
X83844009Y-120644998D01*
X83958296Y-120926520D01*
X84126222Y-121194866D01*
X84349966Y-121454263D01*
X84431715Y-121535598D01*
X84656431Y-121740577D01*
X84888070Y-121922340D01*
X85135128Y-122085739D01*
X85406099Y-122235630D01*
X85709476Y-122376865D01*
X86053755Y-122514299D01*
X86447429Y-122652784D01*
X86817075Y-122768192D01*
X87213243Y-122870076D01*
X87587469Y-122940136D01*
X87952450Y-122980683D01*
X88320887Y-122994031D01*
X88449165Y-122995996D01*
X88593657Y-123005491D01*
X88681392Y-123022776D01*
X88712057Y-123047779D01*
X88685338Y-123080425D01*
X88674001Y-123085380D01*
X88609317Y-123097571D01*
X88508786Y-123106155D01*
X88388831Y-123109520D01*
X88340011Y-123110013D01*
X88233151Y-123114276D01*
X88156290Y-123121928D01*
X88123520Y-123131787D01*
X88116029Y-123159657D01*
X88104154Y-123231754D01*
X88101587Y-123252332D01*
X88092126Y-123328179D01*
X88085371Y-123398955D01*
X88084790Y-123470172D01*
X88098604Y-123511059D01*
X88129746Y-123537988D01*
X88151707Y-123549739D01*
X88204755Y-123555709D01*
X88277551Y-123527711D01*
X88284044Y-123524569D01*
X88380139Y-123489706D01*
X88482795Y-123466904D01*
X88561674Y-123462777D01*
X88619054Y-123484373D01*
X88681838Y-123542645D01*
X88734888Y-123598763D01*
X88769549Y-123625532D01*
X88798880Y-123623854D01*
X88841358Y-123600421D01*
X88906935Y-123582729D01*
X88989935Y-123584252D01*
X89017559Y-123587553D01*
X89057238Y-123583835D01*
X89100360Y-123563617D01*
X89156134Y-123520525D01*
X89233769Y-123448184D01*
X89342472Y-123340220D01*
X89600620Y-123080871D01*
X89470299Y-123080425D01*
X89435796Y-123079848D01*
X89339938Y-123070251D01*
X89296433Y-123050295D01*
X89307159Y-123021810D01*
X89373992Y-122986625D01*
X89390074Y-122980502D01*
X89500601Y-122946273D01*
X89612033Y-122921281D01*
X89662781Y-122911146D01*
X89780043Y-122880950D01*
X89923545Y-122838114D01*
X90008408Y-122810568D01*
X90461105Y-122810568D01*
X90569728Y-122855042D01*
X90579532Y-122859067D01*
X90685715Y-122903429D01*
X90790426Y-122948182D01*
X90839581Y-122968086D01*
X90882622Y-122977357D01*
X90886318Y-122958847D01*
X90881310Y-122945951D01*
X90859747Y-122881968D01*
X90833673Y-122797194D01*
X90822531Y-122762214D01*
X90796621Y-122698708D01*
X90777038Y-122673540D01*
X90755904Y-122679523D01*
X90693580Y-122704408D01*
X90608986Y-122742054D01*
X90461105Y-122810568D01*
X90008408Y-122810568D01*
X90084198Y-122785967D01*
X90252916Y-122727840D01*
X90420611Y-122667061D01*
X90437342Y-122660680D01*
X90838374Y-122660680D01*
X90838443Y-122660984D01*
X90866372Y-122674780D01*
X90935153Y-122699696D01*
X91030557Y-122730561D01*
X91132075Y-122757681D01*
X91250978Y-122780683D01*
X91343329Y-122789281D01*
X91463918Y-122788642D01*
X91333818Y-122729627D01*
X91300763Y-122713853D01*
X91198066Y-122657514D01*
X91113534Y-122601826D01*
X91023350Y-122533040D01*
X90930862Y-122591600D01*
X90914812Y-122601922D01*
X90860360Y-122639969D01*
X90838374Y-122660680D01*
X90437342Y-122660680D01*
X90578194Y-122606962D01*
X90716578Y-122550872D01*
X90826676Y-122502120D01*
X90899399Y-122464037D01*
X90925659Y-122439953D01*
X90909638Y-122411414D01*
X90863939Y-122352249D01*
X90798966Y-122276629D01*
X90737983Y-122205557D01*
X90643554Y-122071741D01*
X90586047Y-121943203D01*
X90556828Y-121803057D01*
X90552491Y-121754702D01*
X90556031Y-121675365D01*
X90575701Y-121647527D01*
X90607386Y-121673378D01*
X90646969Y-121755106D01*
X90682843Y-121831850D01*
X90738857Y-121893996D01*
X90829965Y-121945993D01*
X90965848Y-121986474D01*
X91104789Y-121975375D01*
X91233808Y-121908504D01*
X91350859Y-121786959D01*
X91453898Y-121611834D01*
X91475194Y-121564440D01*
X91509330Y-121467387D01*
X91528893Y-121365217D01*
X91534915Y-121244900D01*
X91528429Y-121093403D01*
X91510466Y-120897692D01*
X91497716Y-120797235D01*
X91473994Y-120696490D01*
X91433367Y-120606589D01*
X91366054Y-120500639D01*
X91364174Y-120497876D01*
X91288481Y-120375871D01*
X91207804Y-120228868D01*
X91131335Y-120075302D01*
X91068265Y-119933608D01*
X91027787Y-119822223D01*
X91018365Y-119786959D01*
X91020925Y-119767945D01*
X91051126Y-119793127D01*
X91052257Y-119794277D01*
X91085298Y-119837894D01*
X91139937Y-119919773D01*
X91208844Y-120028617D01*
X91284689Y-120153126D01*
X91473825Y-120469482D01*
X91491438Y-120327697D01*
X91516983Y-120154430D01*
X91589647Y-119838334D01*
X91692389Y-119562872D01*
X91827728Y-119320504D01*
X91844824Y-119294753D01*
X91899397Y-119205560D01*
X91929142Y-119132391D01*
X91941519Y-119050523D01*
X91943987Y-118935238D01*
X91933069Y-118767033D01*
X91899152Y-118562285D01*
X91847235Y-118355584D01*
X91782421Y-118166957D01*
X91709814Y-118016432D01*
X91560810Y-117807052D01*
X91362379Y-117604584D01*
X91136989Y-117437479D01*
X90893629Y-117311271D01*
X90641289Y-117231489D01*
X90388958Y-117203666D01*
X90182603Y-117217124D01*
X89911283Y-117279064D01*
X89635885Y-117394014D01*
X89619766Y-117402108D01*
X89520473Y-117449018D01*
X89440486Y-117482096D01*
X89395851Y-117494617D01*
X89384081Y-117493391D01*
X89356823Y-117464344D01*
X89361397Y-117404714D01*
X89392675Y-117325266D01*
X89445529Y-117236760D01*
X89514833Y-117149960D01*
X89595459Y-117075628D01*
X89665562Y-117028513D01*
X89799126Y-116966083D01*
X89967451Y-116917491D01*
X90182093Y-116878862D01*
X90423368Y-116843977D01*
X90224476Y-116567133D01*
X89884059Y-116728003D01*
X89851701Y-116743285D01*
X89691958Y-116818245D01*
X89574873Y-116871880D01*
X89492149Y-116907622D01*
X89435489Y-116928903D01*
X89396598Y-116939155D01*
X89367179Y-116941810D01*
X89334173Y-116935964D01*
X89328873Y-116910524D01*
X89368627Y-116870674D01*
X89449084Y-116822738D01*
X89482267Y-116805380D01*
X89568834Y-116754349D01*
X89630928Y-116709958D01*
X89648353Y-116696137D01*
X89716400Y-116648491D01*
X89812839Y-116585441D01*
X89922764Y-116516849D01*
X89965448Y-116490836D01*
X90371331Y-116490836D01*
X90448905Y-116607217D01*
X90507017Y-116693736D01*
X90544163Y-116742776D01*
X90562018Y-116749780D01*
X90562766Y-116710952D01*
X90548588Y-116622494D01*
X90521666Y-116480610D01*
X90518423Y-116463789D01*
X90504091Y-116409902D01*
X90482156Y-116403623D01*
X90437151Y-116436968D01*
X90371331Y-116490836D01*
X89965448Y-116490836D01*
X90134820Y-116387614D01*
X90670254Y-116387614D01*
X90677447Y-116474714D01*
X90694518Y-116608059D01*
X90703636Y-116677048D01*
X90708463Y-116710952D01*
X90717990Y-116777876D01*
X90736350Y-116845621D01*
X90768578Y-116891563D01*
X90824535Y-116926984D01*
X90914081Y-116963165D01*
X91047079Y-117011386D01*
X91171704Y-117067278D01*
X91358776Y-117181546D01*
X91545786Y-117327296D01*
X91716659Y-117492966D01*
X91833473Y-117638122D01*
X91954207Y-117828920D01*
X92057840Y-118035900D01*
X92139881Y-118247290D01*
X92195840Y-118451318D01*
X92221224Y-118636212D01*
X92211544Y-118790200D01*
X92203152Y-118830374D01*
X92190752Y-118894547D01*
X92187548Y-118919530D01*
X92210274Y-118905815D01*
X92269288Y-118868694D01*
X92351318Y-118816484D01*
X92411608Y-118775528D01*
X92483346Y-118711882D01*
X92501949Y-118664479D01*
X92487892Y-118602099D01*
X92457203Y-118486970D01*
X92417159Y-118348880D01*
X92372642Y-118203663D01*
X92328537Y-118067151D01*
X92289726Y-117955179D01*
X92261094Y-117883580D01*
X92211557Y-117804145D01*
X92130845Y-117724415D01*
X92008527Y-117637197D01*
X91870733Y-117538269D01*
X91703168Y-117398172D01*
X91528253Y-117235062D01*
X91355002Y-117058553D01*
X91192428Y-116878259D01*
X91049544Y-116703797D01*
X90935364Y-116544781D01*
X90858901Y-116410825D01*
X90827738Y-116347599D01*
X90787294Y-116290553D01*
X90746977Y-116276846D01*
X90696082Y-116299136D01*
X90685724Y-116307712D01*
X90672994Y-116335650D01*
X90670254Y-116387614D01*
X90134820Y-116387614D01*
X90156410Y-116374456D01*
X90102225Y-116156243D01*
X90060009Y-115926737D01*
X90035467Y-115654780D01*
X90030062Y-115362669D01*
X90044110Y-115068100D01*
X90077924Y-114788775D01*
X90103656Y-114645567D01*
X90136302Y-114487981D01*
X90169182Y-114349957D01*
X90198054Y-114250516D01*
X90199747Y-114245613D01*
X90222546Y-114179471D01*
X90235874Y-114134727D01*
X90235671Y-114114633D01*
X90217881Y-114122444D01*
X90178446Y-114161414D01*
X90113309Y-114234798D01*
X90018411Y-114345850D01*
X89889695Y-114497824D01*
X89758380Y-114654412D01*
X89631476Y-114811068D01*
X89529992Y-114944618D01*
X89446233Y-115065721D01*
X89372507Y-115185036D01*
X89301118Y-115313221D01*
X89167287Y-115596246D01*
X89027946Y-116005435D01*
X88940791Y-116433533D01*
X88907626Y-116873390D01*
X88905600Y-116971485D01*
X88898897Y-117095129D01*
X88887938Y-117163646D01*
X88872509Y-117178888D01*
X88871723Y-117178410D01*
X88716195Y-117068483D01*
X88588162Y-116947908D01*
X88501834Y-116830058D01*
X88497324Y-116821495D01*
X88447453Y-116690542D01*
X88406150Y-116513954D01*
X88375549Y-116303002D01*
X88357784Y-116068958D01*
X88357407Y-116060450D01*
X88353743Y-115992522D01*
X88349348Y-115965627D01*
X88342482Y-115983928D01*
X88331405Y-116051586D01*
X88314376Y-116172761D01*
X88309331Y-116212162D01*
X88293371Y-116378833D01*
X88282209Y-116561442D01*
X88278007Y-116727022D01*
X88277980Y-116746078D01*
X88274464Y-116892715D01*
X88262750Y-116991228D01*
X88239559Y-117050544D01*
X88201611Y-117079588D01*
X88145626Y-117087286D01*
X88131243Y-117086247D01*
X88046752Y-117054277D01*
X87947287Y-116985211D01*
X87845789Y-116889335D01*
X87755199Y-116776938D01*
X87741977Y-116757791D01*
X87690292Y-116686795D01*
X87654960Y-116654577D01*
X87622380Y-116653271D01*
X87578951Y-116675010D01*
X87533565Y-116697658D01*
X87482256Y-116701883D01*
X87414719Y-116674539D01*
X87357485Y-116649052D01*
X87321881Y-116649173D01*
X87295134Y-116680583D01*
X87279360Y-116716682D01*
X87295051Y-116761878D01*
X87305443Y-116782057D01*
X87267155Y-116777625D01*
X87228838Y-116774604D01*
X87188509Y-116793800D01*
X87183186Y-116799457D01*
X87133221Y-116817964D01*
X87055782Y-116825430D01*
X86942603Y-116825430D01*
X86984761Y-116926328D01*
X87002141Y-116971427D01*
X87027624Y-117079260D01*
X87018049Y-117146814D01*
X86977687Y-117170323D01*
X86910810Y-117146021D01*
X86821687Y-117070140D01*
X86800395Y-117048903D01*
X86635291Y-116926240D01*
X86433339Y-116831978D01*
X86208106Y-116768990D01*
X85973158Y-116740147D01*
X85742062Y-116748320D01*
X85528385Y-116796382D01*
X85437719Y-116833110D01*
X85254452Y-116938252D01*
X85226588Y-116960718D01*
X85088612Y-117071966D01*
X84960568Y-117219087D01*
X84810839Y-117479229D01*
X84686093Y-117794959D01*
X84596484Y-118149256D01*
X84592951Y-118167571D01*
X84567915Y-118291289D01*
X84547140Y-118383739D01*
X84532700Y-118436263D01*
X84526674Y-118440206D01*
X84521492Y-118404809D01*
X84496767Y-118339189D01*
X84491023Y-118330490D01*
X84468952Y-118315787D01*
X84448672Y-118353737D01*
X84439804Y-118374222D01*
X84401440Y-118445282D01*
X84350323Y-118527492D01*
X84327236Y-118562734D01*
X84225608Y-118728052D01*
X84123943Y-118907677D01*
X84030478Y-119086036D01*
X83953452Y-119247556D01*
X83901103Y-119376663D01*
X83868766Y-119488150D01*
X83832413Y-119661308D01*
X83803295Y-119852945D01*
X83783680Y-120044476D01*
X83775835Y-120217317D01*
X83603794Y-120217317D01*
X83603447Y-120066437D01*
X83633979Y-119749485D01*
X83654218Y-119622163D01*
X83729689Y-119328201D01*
X83846905Y-119047726D01*
X84012304Y-118763962D01*
X84083973Y-118652090D01*
X84199759Y-118449625D01*
X84282841Y-118264752D01*
X84339483Y-118082376D01*
X84375945Y-117887400D01*
X84378838Y-117866693D01*
X84402706Y-117708216D01*
X84430110Y-117541893D01*
X84455680Y-117400518D01*
X84477021Y-117255551D01*
X84494096Y-117035459D01*
X84494441Y-117022483D01*
X84641123Y-117022483D01*
X84641139Y-117036358D01*
X84642278Y-117135607D01*
X84644864Y-117205382D01*
X84648397Y-117231326D01*
X84656011Y-117220958D01*
X84683575Y-117171509D01*
X84722654Y-117095304D01*
X84789637Y-116960718D01*
X84715380Y-116886462D01*
X84643774Y-116814856D01*
X84912077Y-116814856D01*
X84912445Y-116814961D01*
X84939008Y-116798342D01*
X84997907Y-116754532D01*
X85077252Y-116692349D01*
X85163404Y-116629685D01*
X85283418Y-116555605D01*
X85390059Y-116502538D01*
X85543140Y-116440407D01*
X85502624Y-116394262D01*
X86262753Y-116394262D01*
X86285799Y-116417605D01*
X86340125Y-116431101D01*
X86375396Y-116440127D01*
X86376191Y-116440407D01*
X86469521Y-116473263D01*
X86568672Y-116516734D01*
X86622804Y-116543027D01*
X86683146Y-116571528D01*
X86706435Y-116581296D01*
X86681067Y-116491615D01*
X86600292Y-116361969D01*
X86474279Y-116243652D01*
X86394606Y-116186477D01*
X86335232Y-116148132D01*
X86309101Y-116136986D01*
X86304950Y-116146452D01*
X86291309Y-116198987D01*
X86274694Y-116279841D01*
X86263484Y-116343728D01*
X86262829Y-116389004D01*
X86262753Y-116394262D01*
X85502624Y-116394262D01*
X85455766Y-116340894D01*
X85346232Y-116192375D01*
X85244145Y-115972076D01*
X85196052Y-115734365D01*
X85185534Y-115605867D01*
X85340571Y-115605867D01*
X85348327Y-115699304D01*
X85367032Y-115806063D01*
X85394775Y-115911837D01*
X85429643Y-116002319D01*
X85461460Y-116059373D01*
X85537418Y-116168308D01*
X85620792Y-116264591D01*
X85658776Y-116302182D01*
X85716377Y-116351868D01*
X85770307Y-116377700D01*
X85841187Y-116387478D01*
X85949636Y-116389004D01*
X86154067Y-116389004D01*
X86154067Y-116019828D01*
X86047221Y-115948653D01*
X86360128Y-115948653D01*
X86461776Y-116037901D01*
X86493712Y-116065362D01*
X86549023Y-116109665D01*
X86576958Y-116127148D01*
X86582052Y-116100838D01*
X86586111Y-116027520D01*
X86588632Y-115918547D01*
X86589207Y-115785281D01*
X86587921Y-115443414D01*
X86531489Y-115550245D01*
X86512347Y-115588125D01*
X86463270Y-115694253D01*
X86417593Y-115802864D01*
X86360128Y-115948653D01*
X86047221Y-115948653D01*
X85776016Y-115767990D01*
X85700729Y-115718275D01*
X85576402Y-115638213D01*
X85472871Y-115574120D01*
X85399248Y-115531573D01*
X85364644Y-115516151D01*
X85345679Y-115540058D01*
X85340571Y-115605867D01*
X85185534Y-115605867D01*
X85179382Y-115530699D01*
X85095510Y-115821650D01*
X85069950Y-115916983D01*
X85028194Y-116095498D01*
X84989279Y-116286149D01*
X84959133Y-116461141D01*
X84958307Y-116466630D01*
X84938662Y-116600479D01*
X84923408Y-116710650D01*
X84914047Y-116785868D01*
X84912077Y-116814856D01*
X84643774Y-116814856D01*
X84641123Y-116812205D01*
X84641123Y-117022483D01*
X84494441Y-117022483D01*
X84500880Y-116780364D01*
X84497095Y-116502583D01*
X84482463Y-116214433D01*
X84476413Y-116086089D01*
X84486464Y-115836665D01*
X84530317Y-115613310D01*
X84610527Y-115399771D01*
X84671230Y-115268843D01*
X84655835Y-115399771D01*
X84648727Y-115475521D01*
X84639810Y-115596028D01*
X84630554Y-115741715D01*
X84622107Y-115895681D01*
X84619815Y-115942616D01*
X84614414Y-116090900D01*
X84615385Y-116202420D01*
X84624107Y-116294017D01*
X84641956Y-116382530D01*
X84670312Y-116484796D01*
X84699061Y-116577616D01*
X84737586Y-116682588D01*
X84766645Y-116730926D01*
X84787068Y-116722964D01*
X84799684Y-116659038D01*
X84805322Y-116539485D01*
X84808683Y-116469342D01*
X84833783Y-116272123D01*
X84880682Y-116041221D01*
X84946514Y-115789592D01*
X85028418Y-115530193D01*
X85098574Y-115326022D01*
X84882091Y-115142139D01*
X84822785Y-115090760D01*
X84744887Y-115019416D01*
X84694160Y-114967737D01*
X84679479Y-114944386D01*
X84684554Y-114943601D01*
X84729108Y-114957660D01*
X84807648Y-114992038D01*
X84907271Y-115041250D01*
X84940215Y-115058297D01*
X85035733Y-115107646D01*
X85106289Y-115143983D01*
X85138531Y-115160428D01*
X85145099Y-115160852D01*
X85178177Y-115132473D01*
X85221593Y-115069835D01*
X85266676Y-114988182D01*
X85304756Y-114902754D01*
X85327165Y-114828795D01*
X85328023Y-114824259D01*
X85364336Y-114691591D01*
X85425568Y-114525708D01*
X85504727Y-114341262D01*
X85594819Y-114152903D01*
X85688852Y-113975282D01*
X85779832Y-113823051D01*
X85860767Y-113710861D01*
X85872775Y-113696771D01*
X85896334Y-113673020D01*
X85900797Y-113682385D01*
X85885509Y-113731910D01*
X85849817Y-113828637D01*
X85832206Y-113874488D01*
X85780435Y-114003674D01*
X85719101Y-114151462D01*
X85658000Y-114294077D01*
X85626639Y-114369740D01*
X85573923Y-114512614D01*
X85523093Y-114667459D01*
X85476612Y-114824713D01*
X85436943Y-114974815D01*
X85406548Y-115108205D01*
X85387892Y-115215320D01*
X85383436Y-115286601D01*
X85395645Y-115312486D01*
X85407215Y-115316918D01*
X85461267Y-115347125D01*
X85549875Y-115401201D01*
X85664030Y-115473589D01*
X85794726Y-115558731D01*
X85888363Y-115620089D01*
X86007421Y-115695786D01*
X86089859Y-115743690D01*
X86142550Y-115767249D01*
X86172365Y-115769910D01*
X86186177Y-115755123D01*
X86195960Y-115714878D01*
X86212460Y-115627308D01*
X86232506Y-115508014D01*
X86253696Y-115370676D01*
X86290723Y-115141101D01*
X86350605Y-114846604D01*
X86417769Y-114602935D01*
X86493682Y-114405818D01*
X86579809Y-114250977D01*
X86677617Y-114134135D01*
X86769185Y-114046850D01*
X86651497Y-114294158D01*
X86633735Y-114332306D01*
X86574238Y-114470817D01*
X86522111Y-114606956D01*
X86486979Y-114716037D01*
X86471031Y-114788991D01*
X86453870Y-114896689D01*
X86438814Y-115018711D01*
X86426840Y-115143065D01*
X86418926Y-115257755D01*
X86416049Y-115350786D01*
X86419185Y-115410164D01*
X86429313Y-115423895D01*
X86433721Y-115417710D01*
X86457084Y-115367595D01*
X86491175Y-115281240D01*
X86530269Y-115172886D01*
X86538575Y-115149260D01*
X86585027Y-115027174D01*
X86631695Y-114918107D01*
X86669616Y-114843263D01*
X86693691Y-114798529D01*
X86739782Y-114694921D01*
X86779971Y-114585109D01*
X86801543Y-114520782D01*
X86840302Y-114416023D01*
X86873576Y-114337801D01*
X86875514Y-114333846D01*
X86928445Y-114238427D01*
X87000183Y-114124516D01*
X87081056Y-114005838D01*
X87161396Y-113896116D01*
X87231531Y-113809077D01*
X87281791Y-113758444D01*
X87355904Y-113702797D01*
X87276861Y-113831181D01*
X87264721Y-113851225D01*
X87174709Y-114016185D01*
X87080740Y-114212399D01*
X86992732Y-114418133D01*
X86920607Y-114611656D01*
X86881730Y-114737285D01*
X86823599Y-114971693D01*
X86776636Y-115221353D01*
X86742589Y-115472277D01*
X86723208Y-115710481D01*
X86722158Y-115785281D01*
X86720240Y-115921978D01*
X86735435Y-116092784D01*
X86750067Y-116173763D01*
X86770279Y-116245985D01*
X86802906Y-116300268D01*
X86859347Y-116354200D01*
X86951004Y-116425373D01*
X86972621Y-116441647D01*
X87057800Y-116503665D01*
X87122075Y-116547167D01*
X87152912Y-116563574D01*
X87160577Y-116551632D01*
X87169800Y-116496192D01*
X87174106Y-116410825D01*
X87174995Y-116362413D01*
X87179608Y-116302849D01*
X87190441Y-116289834D01*
X87210474Y-116315567D01*
X87224952Y-116338187D01*
X87290673Y-116420941D01*
X87365233Y-116493400D01*
X87434543Y-116543119D01*
X87484516Y-116557651D01*
X87487306Y-116557068D01*
X87513036Y-116546946D01*
X87527475Y-116522962D01*
X87531695Y-116474140D01*
X87526768Y-116389503D01*
X87513765Y-116258076D01*
X87495388Y-116083505D01*
X87552377Y-116210611D01*
X87565158Y-116239039D01*
X87614364Y-116347544D01*
X87658350Y-116443372D01*
X87676388Y-116474623D01*
X87727263Y-116543195D01*
X87759546Y-116581296D01*
X87796524Y-116624938D01*
X87874877Y-116710223D01*
X87953031Y-116789420D01*
X88021694Y-116852899D01*
X88071573Y-116891032D01*
X88093376Y-116894188D01*
X88093429Y-116893982D01*
X88098488Y-116855732D01*
X88107189Y-116771943D01*
X88118325Y-116654830D01*
X88130689Y-116516606D01*
X88138409Y-116435202D01*
X88181989Y-116104638D01*
X88243536Y-115774986D01*
X88319695Y-115460521D01*
X88407114Y-115175517D01*
X88502439Y-114934250D01*
X88542417Y-114847360D01*
X88634126Y-114653745D01*
X88710669Y-114502665D01*
X88776642Y-114385780D01*
X88836642Y-114294744D01*
X88895264Y-114221214D01*
X88943637Y-114167652D01*
X89019927Y-114091611D01*
X89064988Y-114059702D01*
X89077012Y-114071810D01*
X89054189Y-114127817D01*
X88994714Y-114227609D01*
X88977949Y-114253754D01*
X88865587Y-114439575D01*
X88777315Y-114611131D01*
X88701896Y-114792307D01*
X88628094Y-115006988D01*
X88597891Y-115110335D01*
X88553831Y-115298893D01*
X88518914Y-115496028D01*
X88495383Y-115685772D01*
X88485484Y-115852156D01*
X88491461Y-115979212D01*
X88494074Y-115997871D01*
X88506104Y-116088857D01*
X88521495Y-116210185D01*
X88537571Y-116340872D01*
X88575367Y-116555863D01*
X88637134Y-116747937D01*
X88718431Y-116891109D01*
X88730286Y-116904250D01*
X88744879Y-116905277D01*
X88753854Y-116872472D01*
X88758805Y-116797717D01*
X88761330Y-116672896D01*
X88767163Y-116537693D01*
X88816131Y-116191248D01*
X88910816Y-115835403D01*
X89046854Y-115482253D01*
X89219879Y-115143893D01*
X89425526Y-114832417D01*
X89472640Y-114770894D01*
X89578802Y-114638210D01*
X89703137Y-114488569D01*
X89839500Y-114328835D01*
X89981746Y-114165868D01*
X90123730Y-114006531D01*
X90259308Y-113857687D01*
X90382334Y-113726197D01*
X90486663Y-113618924D01*
X90566151Y-113542730D01*
X90614652Y-113504478D01*
X90622716Y-113500091D01*
X90650130Y-113489221D01*
X90648637Y-113508772D01*
X90618927Y-113569167D01*
X90608589Y-113589364D01*
X90516585Y-113785590D01*
X90427318Y-114002534D01*
X90347316Y-114222382D01*
X90283109Y-114427322D01*
X90241227Y-114599541D01*
X90219398Y-114720899D01*
X90170031Y-115104569D01*
X90157985Y-115457703D01*
X90183294Y-115791210D01*
X90245991Y-116115999D01*
X90292130Y-116299679D01*
X90405229Y-116235235D01*
X90437463Y-116215129D01*
X90476376Y-116182398D01*
X90935274Y-116182398D01*
X90946785Y-116226144D01*
X90984137Y-116303725D01*
X91029354Y-116382651D01*
X91128789Y-116526156D01*
X91258553Y-116690225D01*
X91410302Y-116864489D01*
X91575691Y-117038584D01*
X91636163Y-117098855D01*
X91786344Y-117241132D01*
X91930215Y-117363593D01*
X92086992Y-117481975D01*
X92275891Y-117612016D01*
X92368903Y-117670153D01*
X92551230Y-117765418D01*
X92721958Y-117832261D01*
X92937953Y-117898903D01*
X92806344Y-117783056D01*
X92772761Y-117752132D01*
X92667681Y-117644534D01*
X92546479Y-117508943D01*
X92421355Y-117359740D01*
X92304512Y-117211303D01*
X92208150Y-117078015D01*
X92170998Y-117018792D01*
X92102912Y-116898610D01*
X92022137Y-116746909D01*
X91935008Y-116576380D01*
X91847867Y-116399718D01*
X91767050Y-116229614D01*
X91698898Y-116078761D01*
X91649747Y-115959851D01*
X91612074Y-115868726D01*
X91579095Y-115803065D01*
X91558314Y-115778007D01*
X91552515Y-115779740D01*
X91507082Y-115803093D01*
X91428921Y-115847912D01*
X91330206Y-115906779D01*
X91223111Y-115972277D01*
X91211792Y-115979368D01*
X91119812Y-116036991D01*
X91032482Y-116093502D01*
X90973297Y-116134395D01*
X90948469Y-116154763D01*
X90935274Y-116182398D01*
X90476376Y-116182398D01*
X90490569Y-116170460D01*
X90505877Y-116137505D01*
X90505320Y-116135313D01*
X90503057Y-116089396D01*
X90503330Y-115996147D01*
X90505224Y-115901661D01*
X90637585Y-115901661D01*
X90638749Y-115970461D01*
X90648130Y-116042154D01*
X90664717Y-116068958D01*
X90701213Y-116047621D01*
X90707842Y-115979368D01*
X90681517Y-115865292D01*
X90640462Y-115734365D01*
X90637585Y-115901661D01*
X90505224Y-115901661D01*
X90505959Y-115864976D01*
X90510763Y-115705293D01*
X90517563Y-115526508D01*
X90519916Y-115471829D01*
X90531732Y-115246136D01*
X90545997Y-115060988D01*
X90564320Y-114901838D01*
X90588306Y-114754139D01*
X90619564Y-114603345D01*
X90650908Y-114466994D01*
X90680276Y-114344301D01*
X90703695Y-114251708D01*
X90717887Y-114202582D01*
X90721701Y-114204180D01*
X90727015Y-114250193D01*
X90731521Y-114342442D01*
X90734987Y-114473710D01*
X90737181Y-114636782D01*
X90737871Y-114824438D01*
X90737865Y-114833055D01*
X90738699Y-115070945D01*
X90741805Y-115260234D01*
X90747694Y-115410189D01*
X90756879Y-115530074D01*
X90769871Y-115629154D01*
X90787184Y-115716692D01*
X90791640Y-115735748D01*
X90817116Y-115837691D01*
X90838654Y-115913090D01*
X90851990Y-115946797D01*
X90855970Y-115947404D01*
X90898402Y-115933700D01*
X90976154Y-115900346D01*
X91076927Y-115853427D01*
X91188420Y-115799029D01*
X91298332Y-115743238D01*
X91394365Y-115692140D01*
X91464217Y-115651819D01*
X91495589Y-115628363D01*
X91496831Y-115616723D01*
X91488008Y-115558307D01*
X91466416Y-115464803D01*
X91435047Y-115349971D01*
X91420618Y-115297666D01*
X91387958Y-115163340D01*
X91353872Y-115005936D01*
X91320816Y-114838740D01*
X91291247Y-114675040D01*
X91267618Y-114528126D01*
X91252387Y-114411283D01*
X91248008Y-114337801D01*
X91248022Y-114337434D01*
X91249081Y-114313646D01*
X91251452Y-114301692D01*
X91257168Y-114307892D01*
X91268262Y-114338567D01*
X91286766Y-114400036D01*
X91314713Y-114498620D01*
X91354134Y-114640641D01*
X91407064Y-114832417D01*
X91429453Y-114913030D01*
X91491812Y-115131102D01*
X91545002Y-115306932D01*
X91587866Y-115436948D01*
X91619249Y-115517576D01*
X91637991Y-115545247D01*
X91648281Y-115541886D01*
X91701894Y-115521470D01*
X91790324Y-115486645D01*
X91901373Y-115442183D01*
X91963529Y-115417844D01*
X92071446Y-115379198D01*
X92154179Y-115354282D01*
X92197549Y-115347624D01*
X92194309Y-115361330D01*
X92150600Y-115399080D01*
X92072188Y-115454398D01*
X91967377Y-115521029D01*
X91883466Y-115573438D01*
X91778682Y-115645861D01*
X91720703Y-115698495D01*
X91705784Y-115734391D01*
X91707201Y-115740604D01*
X91729669Y-115804102D01*
X91772816Y-115906805D01*
X91831595Y-116038012D01*
X91900959Y-116187020D01*
X91975861Y-116343129D01*
X92051255Y-116495636D01*
X92122093Y-116633840D01*
X92183330Y-116747039D01*
X92198512Y-116773656D01*
X92363510Y-117031073D01*
X92553511Y-117278484D01*
X92762997Y-117511913D01*
X92986448Y-117727389D01*
X93191946Y-117898903D01*
X93218345Y-117920936D01*
X93453168Y-118088580D01*
X93685397Y-118226349D01*
X93909514Y-118330267D01*
X94119999Y-118396361D01*
X94311332Y-118420657D01*
X94477995Y-118399181D01*
X94574688Y-118360352D01*
X94687249Y-118273925D01*
X94764795Y-118149311D01*
X94809674Y-117982230D01*
X94824237Y-117768400D01*
X94807071Y-117535698D01*
X94739839Y-117239300D01*
X94627209Y-116948468D01*
X94475037Y-116675233D01*
X94289174Y-116431624D01*
X94075475Y-116229669D01*
X93977943Y-116156379D01*
X93768652Y-116024081D01*
X93581149Y-115942574D01*
X93417148Y-115912683D01*
X93267813Y-115908935D01*
X93257952Y-116025315D01*
X93266884Y-116214120D01*
X93323618Y-116413130D01*
X93423205Y-116597232D01*
X93463808Y-116655654D01*
X93523227Y-116744567D01*
X93547281Y-116788464D01*
X93535652Y-116788393D01*
X93488023Y-116745402D01*
X93404079Y-116660542D01*
X93348765Y-116599989D01*
X93213640Y-116408760D01*
X93129337Y-116210822D01*
X93099276Y-116013437D01*
X93102575Y-115941548D01*
X93125910Y-115873299D01*
X93181421Y-115813501D01*
X93210572Y-115789791D01*
X93263714Y-115760569D01*
X93328374Y-115751941D01*
X93427416Y-115758825D01*
X93490384Y-115767736D01*
X93712172Y-115832872D01*
X93936386Y-115946393D01*
X94155578Y-116101680D01*
X94362299Y-116292113D01*
X94549100Y-116511071D01*
X94708531Y-116751936D01*
X94833143Y-117008086D01*
X94891788Y-117174832D01*
X94954362Y-117425053D01*
X94988530Y-117670506D01*
X94990622Y-117890617D01*
X94983822Y-117959286D01*
X94936033Y-118173461D01*
X94850800Y-118343628D01*
X94727559Y-118470666D01*
X94565747Y-118555457D01*
X94478804Y-118577029D01*
X94368978Y-118591721D01*
X94252620Y-118598940D01*
X94145724Y-118598224D01*
X94064281Y-118589110D01*
X94024285Y-118571134D01*
X94011494Y-118558232D01*
X93960157Y-118542039D01*
X93954363Y-118541763D01*
X93885940Y-118522933D01*
X93783882Y-118479377D01*
X93661166Y-118417919D01*
X93530765Y-118345378D01*
X93405653Y-118268576D01*
X93298804Y-118194334D01*
X93199917Y-118124659D01*
X93073072Y-118056822D01*
X92945766Y-118017913D01*
X92887012Y-118004643D01*
X92747280Y-117967760D01*
X92619533Y-117928226D01*
X92548378Y-117904399D01*
X92475195Y-117881645D01*
X92439177Y-117872853D01*
X92438157Y-117873185D01*
X92439076Y-117903525D01*
X92455972Y-117973445D01*
X92485606Y-118069244D01*
X92495023Y-118097417D01*
X92571827Y-118336866D01*
X92628760Y-118538633D01*
X92656838Y-118664479D01*
X92668560Y-118717018D01*
X92693963Y-118886320D01*
X92707706Y-119060837D01*
X92712526Y-119254869D01*
X92712667Y-119312207D01*
X92708396Y-119522097D01*
X92696259Y-119675399D01*
X92676293Y-119771574D01*
X92673946Y-119778088D01*
X92639869Y-119847936D01*
X92614237Y-119863087D01*
X92603850Y-119826808D01*
X92615508Y-119742366D01*
X92637964Y-119576826D01*
X92632902Y-119340040D01*
X92593451Y-119063417D01*
X92544633Y-118808756D01*
X92382511Y-118919465D01*
X92359617Y-118935238D01*
X92355128Y-118938331D01*
X92235824Y-119028070D01*
X92148506Y-119113873D01*
X92076463Y-119214670D01*
X92002983Y-119349394D01*
X91951558Y-119444616D01*
X91890566Y-119545007D01*
X91839949Y-119615872D01*
X91824186Y-119635664D01*
X91740536Y-119787015D01*
X91680241Y-119985352D01*
X91644238Y-120224850D01*
X91633466Y-120499679D01*
X91648860Y-120804015D01*
X91659313Y-120923116D01*
X91673838Y-121125963D01*
X91678172Y-121287206D01*
X91670668Y-121417594D01*
X91649680Y-121527878D01*
X91613562Y-121628806D01*
X91560667Y-121731128D01*
X91489351Y-121845595D01*
X91462448Y-121884240D01*
X91331931Y-122018488D01*
X91178903Y-122102703D01*
X91009373Y-122133285D01*
X90992006Y-122133599D01*
X90920050Y-122138433D01*
X90894760Y-122151292D01*
X90906344Y-122176261D01*
X90937309Y-122207517D01*
X91050707Y-122272357D01*
X91200465Y-122309721D01*
X91374682Y-122317481D01*
X91561456Y-122293507D01*
X91584163Y-122288383D01*
X91744134Y-122233864D01*
X91881306Y-122148180D01*
X92002456Y-122024614D01*
X92114357Y-121856450D01*
X92223786Y-121636971D01*
X92326064Y-121407904D01*
X92314775Y-121571593D01*
X92285352Y-121733403D01*
X92220646Y-121904602D01*
X92139044Y-122045912D01*
X91988138Y-122219661D01*
X91804389Y-122345442D01*
X91588325Y-122422925D01*
X91340475Y-122451782D01*
X91326495Y-122452028D01*
X91226808Y-122454510D01*
X91156325Y-122457521D01*
X91129535Y-122460465D01*
X91151966Y-122475933D01*
X91212050Y-122512230D01*
X91296621Y-122561367D01*
X91329067Y-122579270D01*
X91490754Y-122644667D01*
X91647314Y-122662094D01*
X91811199Y-122631390D01*
X91994861Y-122552395D01*
X92017926Y-122540401D01*
X92110795Y-122494171D01*
X92163617Y-122473852D01*
X92185245Y-122477066D01*
X92184533Y-122501434D01*
X92181023Y-122512165D01*
X92131163Y-122584928D01*
X92039097Y-122667879D01*
X91915436Y-122752576D01*
X91848556Y-122788642D01*
X91770794Y-122830576D01*
X91702397Y-122861633D01*
X91597699Y-122898790D01*
X91494071Y-122916183D01*
X91362085Y-122920270D01*
X91276830Y-122918137D01*
X91143477Y-122901900D01*
X91048156Y-122868008D01*
X90952440Y-122816324D01*
X91040579Y-122937996D01*
X91057023Y-122958847D01*
X91100502Y-123013979D01*
X91226231Y-123130790D01*
X91371218Y-123207843D01*
X91546597Y-123250139D01*
X91763504Y-123262679D01*
X91842444Y-123261125D01*
X91951775Y-123249341D01*
X92051460Y-123220075D01*
X92170835Y-123166392D01*
X92302131Y-123091060D01*
X92479679Y-122952947D01*
X92635704Y-122789646D01*
X92761732Y-122611888D01*
X92849288Y-122430403D01*
X92889898Y-122255923D01*
X92896111Y-122197210D01*
X92911926Y-122079934D01*
X92931094Y-121960710D01*
X92942249Y-121888091D01*
X92956683Y-121755092D01*
X92962591Y-121640665D01*
X92964096Y-121588343D01*
X92974117Y-121501683D01*
X92990733Y-121450656D01*
X93010661Y-121442751D01*
X93030618Y-121485456D01*
X93040992Y-121535534D01*
X93049202Y-121618843D01*
X93050178Y-121632682D01*
X93067836Y-121674524D01*
X93094171Y-121685494D01*
X93111427Y-121655212D01*
X93117845Y-121618358D01*
X93132742Y-121571559D01*
X93163308Y-121495189D01*
X93186714Y-121431285D01*
X93197676Y-121393047D01*
X93323884Y-121393047D01*
X93339697Y-121381037D01*
X93389880Y-121341483D01*
X93462150Y-121283941D01*
X93620246Y-121135700D01*
X93796857Y-120913309D01*
X93954521Y-120649239D01*
X93995714Y-120567417D01*
X94047314Y-120445986D01*
X94065317Y-120354195D01*
X94048559Y-120279627D01*
X93995879Y-120209867D01*
X93906113Y-120132497D01*
X93818346Y-120066438D01*
X93715745Y-119994810D01*
X93633948Y-119943474D01*
X93523598Y-119881454D01*
X93503348Y-120222800D01*
X93487306Y-120451602D01*
X93458689Y-120729431D01*
X93421162Y-120971791D01*
X93372968Y-121191730D01*
X93370050Y-121203233D01*
X93345940Y-121299409D01*
X93329407Y-121367373D01*
X93323884Y-121393047D01*
X93197676Y-121393047D01*
X93227895Y-121287630D01*
X93267605Y-121114954D01*
X93303473Y-120927432D01*
X93333126Y-120739241D01*
X93354197Y-120564556D01*
X93364312Y-120417553D01*
X93361103Y-120312408D01*
X93360570Y-120308092D01*
X93356883Y-120230044D01*
X93357409Y-120109719D01*
X93361484Y-119959675D01*
X93368442Y-119792468D01*
X93377620Y-119620655D01*
X93388352Y-119456793D01*
X93399974Y-119313440D01*
X93411823Y-119203153D01*
X93423232Y-119138488D01*
X93428626Y-119121766D01*
X93438791Y-119105526D01*
X93448077Y-119119539D01*
X93457354Y-119169373D01*
X93467494Y-119260594D01*
X93479368Y-119398768D01*
X93493849Y-119589462D01*
X93498371Y-119631331D01*
X93505805Y-119639206D01*
X93517775Y-119598723D01*
X93536593Y-119505329D01*
X93537685Y-119499582D01*
X93561416Y-119385653D01*
X93581064Y-119321114D01*
X93600083Y-119297997D01*
X93621923Y-119308330D01*
X93625722Y-119320087D01*
X93623345Y-119377056D01*
X93609800Y-119462847D01*
X93588315Y-119559149D01*
X93562117Y-119647652D01*
X93564075Y-119670579D01*
X93609136Y-119722874D01*
X93707827Y-119793127D01*
X93719913Y-119800959D01*
X93823374Y-119877743D01*
X93939090Y-119976368D01*
X94044212Y-120077519D01*
X94115244Y-120152520D01*
X94171742Y-120218818D01*
X94199975Y-120268034D01*
X94207084Y-120313480D01*
X94201990Y-120354195D01*
X94200204Y-120368469D01*
X94199351Y-120373141D01*
X94148248Y-120546347D01*
X94060767Y-120735619D01*
X93945584Y-120928941D01*
X93811377Y-121114296D01*
X93666824Y-121279666D01*
X93520603Y-121413035D01*
X93381392Y-121502385D01*
X93371463Y-121507294D01*
X93304368Y-121554165D01*
X93244951Y-121627561D01*
X93181003Y-121742086D01*
X93132842Y-121849413D01*
X93090077Y-121967848D01*
X93066364Y-122062543D01*
X93035727Y-122237874D01*
X92973786Y-122472220D01*
X92889449Y-122670372D01*
X92776949Y-122844839D01*
X92630520Y-123008133D01*
X92622824Y-123015595D01*
X92508237Y-123115201D01*
X92379690Y-123211062D01*
X92263578Y-123283382D01*
X92198296Y-123317142D01*
X92114151Y-123353542D01*
X92031530Y-123375637D01*
X91930527Y-123388167D01*
X91791238Y-123395872D01*
X91713158Y-123399840D01*
X91607368Y-123407967D01*
X91534876Y-123417171D01*
X91508118Y-123426122D01*
X91509041Y-123428392D01*
X91540689Y-123455218D01*
X91608293Y-123500609D01*
X91699438Y-123556126D01*
X91761395Y-123594366D01*
X91883646Y-123690185D01*
X91966185Y-123793489D01*
X91998489Y-123844557D01*
X92044593Y-123896499D01*
X92103019Y-123923040D01*
X92196650Y-123938586D01*
X92223264Y-123941415D01*
X92417911Y-123938933D01*
X92632698Y-123903299D01*
X92852035Y-123839818D01*
X93060330Y-123753798D01*
X93241994Y-123650543D01*
X93381437Y-123535359D01*
X93430991Y-123485361D01*
X93467566Y-123454204D01*
X93473158Y-123459107D01*
X93471711Y-123462692D01*
X93486004Y-123457983D01*
X93530875Y-123419329D01*
X93598257Y-123353538D01*
X93607422Y-123344306D01*
X93680100Y-123276293D01*
X93736017Y-123232705D01*
X93763712Y-123222610D01*
X93767268Y-123223956D01*
X93770464Y-123196217D01*
X93761786Y-123131787D01*
X93756921Y-123101482D01*
X93756442Y-123038759D01*
X93773574Y-123026135D01*
X93801594Y-123062293D01*
X93833782Y-123145913D01*
X93865966Y-123293346D01*
X93885123Y-123499480D01*
X93881709Y-123709374D01*
X93854945Y-123895362D01*
X93833340Y-123990885D01*
X93819164Y-124060505D01*
X93815599Y-124088668D01*
X93818551Y-124089700D01*
X93855826Y-124074226D01*
X93921739Y-124031420D01*
X94003947Y-123970723D01*
X94090104Y-123901574D01*
X94167866Y-123833415D01*
X94224887Y-123775684D01*
X94282325Y-123704884D01*
X94392941Y-123545982D01*
X94494805Y-123372089D01*
X94582261Y-123195179D01*
X94649653Y-123027230D01*
X94691328Y-122880217D01*
X94701629Y-122766116D01*
X94700234Y-122717700D01*
X94713373Y-122663269D01*
X94748863Y-122652968D01*
X94809212Y-122687850D01*
X94896932Y-122768969D01*
X95014533Y-122897376D01*
X95148828Y-123054708D01*
X95330316Y-123285278D01*
X95476491Y-123497961D01*
X95594594Y-123702811D01*
X95693448Y-123892464D01*
X95715907Y-123726702D01*
X95731395Y-123580841D01*
X95742678Y-123266056D01*
X95730314Y-122917315D01*
X95724457Y-122855384D01*
X95896032Y-122855384D01*
X95897049Y-122865654D01*
X95899031Y-122924105D01*
X95900404Y-123019767D01*
X95900917Y-123138143D01*
X95900917Y-123399081D01*
X96053666Y-123511757D01*
X96093929Y-123540323D01*
X96186080Y-123603365D01*
X96315030Y-123690100D01*
X96473860Y-123795922D01*
X96655652Y-123916227D01*
X96853486Y-124046408D01*
X97060443Y-124181862D01*
X97234180Y-124294979D01*
X97420451Y-124415584D01*
X97586366Y-124522291D01*
X97726267Y-124611494D01*
X97834495Y-124679588D01*
X97905390Y-124722967D01*
X97933295Y-124738026D01*
X97933534Y-124738008D01*
X97977353Y-124724964D01*
X98061997Y-124692347D01*
X98175744Y-124645217D01*
X98306872Y-124588628D01*
X98443661Y-124527640D01*
X98574390Y-124467308D01*
X98687336Y-124412691D01*
X98706527Y-124403012D01*
X98818983Y-124344076D01*
X98954611Y-124270226D01*
X99105178Y-124186244D01*
X99262450Y-124096915D01*
X99418191Y-124007021D01*
X99564169Y-123921346D01*
X99692147Y-123844674D01*
X99793894Y-123781788D01*
X99861173Y-123737472D01*
X99885751Y-123716508D01*
X99884165Y-123713626D01*
X99849485Y-123684283D01*
X99774628Y-123629225D01*
X99666482Y-123553074D01*
X99531933Y-123460450D01*
X99377865Y-123355975D01*
X99211166Y-123244269D01*
X99038722Y-123129955D01*
X98867417Y-123017652D01*
X98704140Y-122911983D01*
X98555774Y-122817568D01*
X98429207Y-122739029D01*
X98400047Y-122721273D01*
X98216879Y-122610536D01*
X98073345Y-122526645D01*
X97960854Y-122466208D01*
X97870813Y-122425829D01*
X97794628Y-122402115D01*
X97723708Y-122391673D01*
X97649460Y-122391108D01*
X97563292Y-122397028D01*
X97490281Y-122405093D01*
X97353905Y-122424431D01*
X97186195Y-122451407D01*
X97001796Y-122483639D01*
X96815351Y-122518743D01*
X96689491Y-122543819D01*
X96513527Y-122581465D01*
X96377016Y-122615389D01*
X96268575Y-122648869D01*
X96176819Y-122685186D01*
X96090363Y-122727620D01*
X96067635Y-122739866D01*
X95978735Y-122791278D01*
X95917484Y-122832447D01*
X95896032Y-122855384D01*
X95724457Y-122855384D01*
X95695278Y-122546820D01*
X95638544Y-122166771D01*
X95561088Y-121789371D01*
X95541979Y-121706190D01*
X95515656Y-121575317D01*
X95503092Y-121474528D01*
X95502608Y-121386712D01*
X95512522Y-121294754D01*
X95538467Y-121116953D01*
X95599441Y-121335166D01*
X95660416Y-121553379D01*
X95696337Y-121422914D01*
X95704495Y-121391834D01*
X95727287Y-121288784D01*
X95740377Y-121204701D01*
X95742832Y-121182752D01*
X95757865Y-121088178D01*
X95778721Y-120986025D01*
X95800779Y-120886128D01*
X95815685Y-120806055D01*
X95952913Y-120806055D01*
X96312425Y-120804831D01*
X96390065Y-120804157D01*
X96523859Y-120801604D01*
X96687254Y-120797039D01*
X96884324Y-120790302D01*
X97119139Y-120781235D01*
X97395772Y-120769677D01*
X97718295Y-120755470D01*
X98090780Y-120738453D01*
X98517299Y-120718467D01*
X98704243Y-120709622D01*
X99037249Y-120273196D01*
X99154256Y-120116793D01*
X99298092Y-119919053D01*
X99450186Y-119705449D01*
X99598462Y-119492945D01*
X99730847Y-119298511D01*
X100091440Y-118760252D01*
X100011012Y-118740304D01*
X99908671Y-118718510D01*
X99743527Y-118690571D01*
X99547723Y-118662843D01*
X99336304Y-118637268D01*
X99124317Y-118615788D01*
X98926805Y-118600346D01*
X98766679Y-118589379D01*
X98570852Y-118574401D01*
X98383135Y-118558608D01*
X98228523Y-118544017D01*
X98144358Y-118535419D01*
X98001442Y-118520992D01*
X97876427Y-118508572D01*
X97789303Y-118500154D01*
X97655581Y-118487652D01*
X97311421Y-118856713D01*
X97238281Y-118934259D01*
X97078537Y-119099646D01*
X96901875Y-119278538D01*
X96725064Y-119454030D01*
X96564874Y-119609219D01*
X96553199Y-119620344D01*
X96392480Y-119773601D01*
X96268305Y-119893816D01*
X96214911Y-119948117D01*
X96175724Y-119987970D01*
X96109784Y-120063041D01*
X96065536Y-120126010D01*
X96038027Y-120183855D01*
X96022307Y-120243558D01*
X96013423Y-120312096D01*
X96006426Y-120396451D01*
X96004305Y-120421826D01*
X95992585Y-120545089D01*
X95980343Y-120651743D01*
X95969910Y-120721070D01*
X95952913Y-120806055D01*
X95815685Y-120806055D01*
X95827567Y-120742231D01*
X95846536Y-120598949D01*
X95859090Y-120441593D01*
X95866637Y-120255469D01*
X95870580Y-120025888D01*
X95871036Y-119948117D01*
X95851664Y-119353880D01*
X95790837Y-118762954D01*
X95687198Y-118169714D01*
X95539390Y-117568536D01*
X95346056Y-116953796D01*
X95105839Y-116319870D01*
X94817382Y-115661135D01*
X94773015Y-115560406D01*
X94704196Y-115389338D01*
X94636288Y-115206153D01*
X94579052Y-115036431D01*
X94488500Y-114779832D01*
X94730015Y-114779832D01*
X94779258Y-114976187D01*
X94779327Y-114976459D01*
X94801871Y-115081045D01*
X94813715Y-115166655D01*
X94812294Y-115214779D01*
X94812436Y-115234359D01*
X94831517Y-115300871D01*
X94870056Y-115397329D01*
X94922997Y-115510238D01*
X95076090Y-115830823D01*
X95242851Y-116214414D01*
X95400035Y-116611312D01*
X95543198Y-117009109D01*
X95667901Y-117395394D01*
X95769700Y-117757759D01*
X95844154Y-118083792D01*
X95844551Y-118085819D01*
X95868513Y-118184242D01*
X95894299Y-118253809D01*
X95916618Y-118280184D01*
X95940275Y-118272406D01*
X96001626Y-118237308D01*
X96078577Y-118183509D01*
X96112583Y-118158228D01*
X96295352Y-118032228D01*
X96520121Y-117889797D01*
X96777441Y-117736117D01*
X97057864Y-117576375D01*
X97351941Y-117415754D01*
X97650225Y-117259437D01*
X97943267Y-117112610D01*
X98221618Y-116980457D01*
X98475831Y-116868161D01*
X98544876Y-116838708D01*
X98649392Y-116792519D01*
X98726151Y-116756513D01*
X98762127Y-116736672D01*
X98765350Y-116721794D01*
X98730238Y-116681337D01*
X98648537Y-116623764D01*
X98524890Y-116551902D01*
X98363940Y-116468574D01*
X98170333Y-116376608D01*
X98157798Y-116370869D01*
X97945389Y-116272480D01*
X97726793Y-116169307D01*
X97509385Y-116065003D01*
X97300538Y-115963220D01*
X97107627Y-115867611D01*
X96938028Y-115781830D01*
X96799114Y-115709530D01*
X96698260Y-115654362D01*
X96642841Y-115619981D01*
X96589510Y-115581490D01*
X96472708Y-115502013D01*
X96323079Y-115403826D01*
X96151103Y-115293514D01*
X95967259Y-115177663D01*
X95782028Y-115062857D01*
X95605890Y-114955680D01*
X95449323Y-114862719D01*
X95322809Y-114790557D01*
X95245164Y-114747797D01*
X95126710Y-114684912D01*
X95041567Y-114647712D01*
X94977981Y-114634780D01*
X94924199Y-114644699D01*
X94868466Y-114676053D01*
X94799028Y-114727425D01*
X94730015Y-114779832D01*
X94488500Y-114779832D01*
X94471790Y-114732481D01*
X94331780Y-114426409D01*
X94163562Y-114147256D01*
X93958050Y-113880179D01*
X93706161Y-113610338D01*
X93638070Y-113543642D01*
X93548413Y-113460717D01*
X93460933Y-113388334D01*
X93364924Y-113318910D01*
X93249682Y-113244864D01*
X93104500Y-113158611D01*
X92918672Y-113052571D01*
X92767903Y-112968242D01*
X92591914Y-112873807D01*
X92441055Y-112799958D01*
X92301192Y-112740868D01*
X92158189Y-112690708D01*
X91997912Y-112643649D01*
X91806224Y-112593862D01*
X91751827Y-112583102D01*
X91648648Y-112569662D01*
X91525945Y-112558713D01*
X91396619Y-112550828D01*
X91273573Y-112546578D01*
X91169709Y-112546532D01*
X91097928Y-112551262D01*
X91071135Y-112561338D01*
X91072925Y-112567447D01*
X91094583Y-112611166D01*
X91132932Y-112678961D01*
X91147592Y-112704355D01*
X91179883Y-112770462D01*
X91177527Y-112791631D01*
X91141615Y-112768462D01*
X91073236Y-112701551D01*
X90973481Y-112591496D01*
X90899167Y-112508459D01*
X90681076Y-112288913D01*
X90492650Y-112134240D01*
X90781488Y-112134240D01*
X90796392Y-112160165D01*
X90841157Y-112217653D01*
X90905142Y-112291789D01*
X91027492Y-112427907D01*
X91405728Y-112442691D01*
X91427854Y-112443572D01*
X91606483Y-112452737D01*
X91754452Y-112466164D01*
X91888795Y-112487074D01*
X92026546Y-112518686D01*
X92184741Y-112564218D01*
X92380413Y-112626890D01*
X92445447Y-112649009D01*
X92839920Y-112814828D01*
X93222414Y-113028209D01*
X93582045Y-113281619D01*
X93907929Y-113567528D01*
X94189181Y-113878404D01*
X94202258Y-113895042D01*
X94293275Y-114018521D01*
X94390584Y-114160728D01*
X94475235Y-114294120D01*
X94613340Y-114523905D01*
X94842524Y-114380264D01*
X95021450Y-114254979D01*
X95218313Y-114094776D01*
X95416705Y-113914319D01*
X95601149Y-113727691D01*
X95756169Y-113548971D01*
X95828513Y-113452271D01*
X95944483Y-113280971D01*
X96069196Y-113081582D01*
X96193884Y-112868732D01*
X96309780Y-112657051D01*
X96408116Y-112461169D01*
X96442904Y-112382806D01*
X96541402Y-112088298D01*
X96610094Y-111751582D01*
X96647465Y-111379509D01*
X96666058Y-111039773D01*
X96555234Y-111018982D01*
X96520019Y-111014822D01*
X96420070Y-111010212D01*
X96276419Y-111008297D01*
X96098072Y-111008817D01*
X95894036Y-111011513D01*
X95673318Y-111016127D01*
X95444926Y-111022400D01*
X95217865Y-111030074D01*
X95001143Y-111038888D01*
X94803767Y-111048586D01*
X94634743Y-111058907D01*
X94503078Y-111069594D01*
X94417780Y-111080387D01*
X94186059Y-111122663D01*
X93950533Y-111166252D01*
X93744433Y-111205734D01*
X93560061Y-111243140D01*
X93389717Y-111280501D01*
X93225703Y-111319848D01*
X93060320Y-111363210D01*
X92885868Y-111412618D01*
X92694650Y-111470103D01*
X92478966Y-111537695D01*
X92231118Y-111617426D01*
X91943406Y-111711325D01*
X91608132Y-111821422D01*
X91498424Y-111857567D01*
X91276840Y-111931322D01*
X91103503Y-111990441D01*
X90973297Y-112036860D01*
X90881108Y-112072513D01*
X90821820Y-112099337D01*
X90790319Y-112119267D01*
X90781488Y-112134240D01*
X90492650Y-112134240D01*
X90465193Y-112111701D01*
X90238918Y-111967273D01*
X89989650Y-111846084D01*
X89736061Y-111755556D01*
X89419286Y-111692762D01*
X89095803Y-111685318D01*
X88758076Y-111732530D01*
X88695439Y-111746232D01*
X88557661Y-111779522D01*
X88429031Y-111816670D01*
X88297303Y-111862091D01*
X88150231Y-111920205D01*
X87975566Y-111995428D01*
X87761063Y-112092179D01*
X87567852Y-112182815D01*
X87403503Y-112267119D01*
X87260011Y-112351583D01*
X87121653Y-112446226D01*
X86972705Y-112561066D01*
X86797441Y-112706121D01*
X86728259Y-112764197D01*
X86606418Y-112865184D01*
X86493462Y-112957377D01*
X86407074Y-113026277D01*
X86260732Y-113140412D01*
X86350097Y-113011730D01*
X86479622Y-112853099D01*
X86657061Y-112679495D01*
X86870737Y-112501459D01*
X87111168Y-112326352D01*
X87368876Y-112161538D01*
X87634379Y-112014378D01*
X88052722Y-111800872D01*
X87896235Y-111782605D01*
X87736076Y-111766056D01*
X87451912Y-111746948D01*
X87183990Y-111741618D01*
X86945713Y-111750180D01*
X86750484Y-111772750D01*
X86605722Y-111802271D01*
X86329991Y-111876275D01*
X86033711Y-111974568D01*
X85729896Y-112091656D01*
X85431563Y-112222050D01*
X85151726Y-112360256D01*
X84903400Y-112500783D01*
X84699601Y-112638140D01*
X84460164Y-112829755D01*
X84146461Y-113118009D01*
X84116475Y-113150266D01*
X83847262Y-113439865D01*
X83555250Y-113803359D01*
X83263113Y-114216529D01*
X83260967Y-114219741D01*
X83104670Y-114466999D01*
X82978150Y-114700195D01*
X82878724Y-114929501D01*
X82803710Y-115165088D01*
X82750424Y-115417129D01*
X82716183Y-115695795D01*
X82698303Y-116011259D01*
X82694103Y-116373693D01*
X82696452Y-116898168D01*
X82751259Y-116587020D01*
X82783482Y-116414184D01*
X82870844Y-116030396D01*
X82975774Y-115681709D01*
X83103370Y-115352451D01*
X83258731Y-115026950D01*
X83263074Y-115018638D01*
X83326743Y-114904654D01*
X83393316Y-114797478D01*
X83457277Y-114704266D01*
X83513112Y-114632175D01*
X83555308Y-114588363D01*
X83578350Y-114579987D01*
X83576723Y-114614204D01*
X83558881Y-114661892D01*
X83519432Y-114751700D01*
X83465153Y-114867651D01*
X83402175Y-114996323D01*
X83343579Y-115117503D01*
X83297964Y-115219657D01*
X83270073Y-115291623D01*
X83264437Y-115322665D01*
X83265640Y-115332248D01*
X83252591Y-115385348D01*
X83221982Y-115472448D01*
X83178132Y-115580639D01*
X83160630Y-115622136D01*
X83049783Y-115933063D01*
X82984493Y-116227813D01*
X82962453Y-116521011D01*
X82981355Y-116827278D01*
X83011583Y-117015482D01*
X83098828Y-117344914D01*
X83224518Y-117659732D01*
X83382998Y-117946779D01*
X83568609Y-118192898D01*
X83685347Y-118323826D01*
X83667284Y-118193974D01*
X83644614Y-118011672D01*
X83626571Y-117820322D01*
X83616422Y-117650223D01*
X83614862Y-117513400D01*
X83622588Y-117421879D01*
X83645199Y-117305499D01*
X83649560Y-117407331D01*
X83654589Y-117464274D01*
X83669885Y-117574948D01*
X83692794Y-117714094D01*
X83720913Y-117869436D01*
X83751839Y-118028698D01*
X83783168Y-118179605D01*
X83812498Y-118309881D01*
X83837425Y-118407251D01*
X83855545Y-118459440D01*
X83865038Y-118480798D01*
X83861609Y-118517963D01*
X83825437Y-118525449D01*
X83768860Y-118503751D01*
X83704215Y-118453364D01*
X83680353Y-118429785D01*
X83633969Y-118390599D01*
X83605935Y-118387881D01*
X83580620Y-118417035D01*
X83568004Y-118441673D01*
X83535942Y-118517158D01*
X83528730Y-118535456D01*
X83491458Y-118630025D01*
X83438632Y-118769838D01*
X83381546Y-118926161D01*
X83371810Y-118953389D01*
X83227167Y-119387070D01*
X83095211Y-119837243D01*
X82977938Y-120294164D01*
X82877348Y-120748090D01*
X82795439Y-121189275D01*
X82734207Y-121607976D01*
X82695652Y-121994448D01*
X82681770Y-122338946D01*
X82384629Y-122338946D01*
X82127485Y-122186756D01*
X81977465Y-122099525D01*
X81808172Y-122004247D01*
X81641369Y-121913228D01*
X81485040Y-121830607D01*
X81347171Y-121760522D01*
X81235747Y-121707110D01*
X81158752Y-121674508D01*
X81124171Y-121666854D01*
X81119158Y-121669257D01*
X81071650Y-121689424D01*
X80983729Y-121725589D01*
X80865693Y-121773536D01*
X80727836Y-121829054D01*
X80657152Y-121857752D01*
X80483635Y-121930353D01*
X80289933Y-122013772D01*
X80083407Y-122104620D01*
X79871417Y-122199510D01*
X79661325Y-122295051D01*
X79460490Y-122387857D01*
X79276275Y-122474538D01*
X79116039Y-122551705D01*
X78987144Y-122615970D01*
X78896949Y-122663945D01*
X78852816Y-122692240D01*
X78678155Y-122692240D01*
X78666945Y-122679401D01*
X78647538Y-122653305D01*
X78648520Y-122650945D01*
X78683934Y-122625556D01*
X78766187Y-122580030D01*
X78889810Y-122516949D01*
X79049336Y-122438894D01*
X79239297Y-122348444D01*
X79454225Y-122248181D01*
X79688651Y-122140685D01*
X79937109Y-122028538D01*
X80194129Y-121914319D01*
X80454245Y-121800609D01*
X81169886Y-121490505D01*
X81821713Y-121834330D01*
X81970842Y-121912699D01*
X82135695Y-121998589D01*
X82277711Y-122071765D01*
X82389752Y-122128580D01*
X82464682Y-122165387D01*
X82495361Y-122178539D01*
X82510677Y-122154321D01*
X82517183Y-122094308D01*
X82522873Y-121989156D01*
X82538970Y-121836852D01*
X82564001Y-121647273D01*
X82596490Y-121430262D01*
X82634964Y-121195665D01*
X82677949Y-120953330D01*
X82723970Y-120713100D01*
X82732162Y-120671908D01*
X82765653Y-120500788D01*
X82793856Y-120352340D01*
X82815199Y-120235154D01*
X82828108Y-120157817D01*
X82831008Y-120128918D01*
X82804886Y-120123828D01*
X82728326Y-120111117D01*
X82608997Y-120092078D01*
X82454547Y-120067919D01*
X82272623Y-120039844D01*
X82070872Y-120009060D01*
X81883883Y-119980327D01*
X81698516Y-119951074D01*
X81539413Y-119925154D01*
X81414399Y-119903869D01*
X81331297Y-119888521D01*
X81297931Y-119880413D01*
X81292646Y-119874880D01*
X81258088Y-119829705D01*
X81196359Y-119744349D01*
X81111238Y-119624307D01*
X81006500Y-119475076D01*
X80885925Y-119302150D01*
X80753289Y-119111024D01*
X80612369Y-118907194D01*
X80466943Y-118696154D01*
X80320788Y-118483401D01*
X80177681Y-118274429D01*
X80041400Y-118074734D01*
X79915721Y-117889810D01*
X79804423Y-117725154D01*
X79711283Y-117586259D01*
X79656819Y-117503931D01*
X79821742Y-117503931D01*
X79842582Y-117552174D01*
X79900455Y-117639534D01*
X79993975Y-117763746D01*
X80056516Y-117844916D01*
X80176651Y-118005080D01*
X80299523Y-118173154D01*
X80406487Y-118323826D01*
X80478228Y-118426033D01*
X80577361Y-118564639D01*
X80670215Y-118691854D01*
X80743520Y-118789347D01*
X80755912Y-118805558D01*
X80828593Y-118904286D01*
X80920538Y-119033356D01*
X81021230Y-119177863D01*
X81120147Y-119322905D01*
X81157819Y-119378077D01*
X81245672Y-119501024D01*
X81324095Y-119603244D01*
X81385705Y-119675354D01*
X81423120Y-119707970D01*
X81459665Y-119719035D01*
X81547117Y-119740348D01*
X81672285Y-119768271D01*
X81824595Y-119800456D01*
X81993471Y-119834557D01*
X82120066Y-119859184D01*
X82299655Y-119892978D01*
X82464809Y-119922814D01*
X82601332Y-119946144D01*
X82695028Y-119960422D01*
X82887421Y-119985778D01*
X82977503Y-119649419D01*
X83009367Y-119528584D01*
X83047644Y-119378839D01*
X83080006Y-119247345D01*
X83101715Y-119153036D01*
X83103659Y-119144145D01*
X83132655Y-119032481D01*
X83173664Y-118896719D01*
X83218466Y-118764234D01*
X83301087Y-118535456D01*
X82989147Y-118222196D01*
X82677206Y-117908936D01*
X82357160Y-117834260D01*
X82257897Y-117811540D01*
X82104741Y-117777924D01*
X81965918Y-117749007D01*
X81862543Y-117729273D01*
X81851922Y-117727524D01*
X81775152Y-117716634D01*
X81654043Y-117700974D01*
X81497104Y-117681524D01*
X81312846Y-117659266D01*
X81109775Y-117635183D01*
X80896401Y-117610256D01*
X80681232Y-117585468D01*
X80472777Y-117561799D01*
X80279546Y-117540231D01*
X80110045Y-117521748D01*
X79972785Y-117507329D01*
X79876274Y-117497958D01*
X79829021Y-117494617D01*
X79821742Y-117503931D01*
X79656819Y-117503931D01*
X79640077Y-117478623D01*
X79594584Y-117407738D01*
X79578580Y-117379102D01*
X79585379Y-117366006D01*
X79633127Y-117355855D01*
X79731329Y-117361856D01*
X80017187Y-117393562D01*
X80410029Y-117437457D01*
X80751537Y-117476080D01*
X81045666Y-117509906D01*
X81296375Y-117539410D01*
X81507621Y-117565067D01*
X81683360Y-117587354D01*
X81827551Y-117606744D01*
X81944150Y-117623713D01*
X82037114Y-117638736D01*
X82128413Y-117653914D01*
X82291779Y-117678919D01*
X82445930Y-117700177D01*
X82566865Y-117714267D01*
X82776570Y-117734653D01*
X83030294Y-118014692D01*
X83042284Y-118027925D01*
X83140024Y-118135828D01*
X83224937Y-118229608D01*
X83288273Y-118299600D01*
X83321283Y-118336139D01*
X83339122Y-118352951D01*
X83363451Y-118350286D01*
X83388593Y-118298523D01*
X83397137Y-118271737D01*
X83398672Y-118230687D01*
X83380207Y-118181651D01*
X83336253Y-118112175D01*
X83261321Y-118009807D01*
X83250472Y-117995253D01*
X83136507Y-117827340D01*
X83039957Y-117651220D01*
X82952685Y-117450372D01*
X82866554Y-117208277D01*
X82839204Y-117126903D01*
X82807948Y-117046820D01*
X82785340Y-117018820D01*
X82767761Y-117044357D01*
X82751594Y-117124884D01*
X82733221Y-117261856D01*
X82716192Y-117370379D01*
X82697820Y-117443434D01*
X82681086Y-117474182D01*
X82668743Y-117457613D01*
X82663543Y-117388713D01*
X82661508Y-117351837D01*
X82648748Y-117248593D01*
X82626937Y-117118595D01*
X82599162Y-116981382D01*
X82578890Y-116883486D01*
X82560738Y-116772307D01*
X82548439Y-116655728D01*
X82541015Y-116520559D01*
X82537486Y-116353612D01*
X82536876Y-116141696D01*
X82538061Y-115963566D01*
X82542599Y-115768585D01*
X82551670Y-115605125D01*
X82566526Y-115458046D01*
X82588416Y-115312205D01*
X82618592Y-115152463D01*
X82618782Y-115151518D01*
X82622359Y-115108346D01*
X82610732Y-115063929D01*
X82577833Y-115007887D01*
X82517600Y-114929842D01*
X82423965Y-114819414D01*
X82375369Y-114763570D01*
X82248758Y-114620636D01*
X82116027Y-114473562D01*
X81999013Y-114346643D01*
X81930342Y-114270876D01*
X81859795Y-114186264D01*
X81825616Y-114138673D01*
X82054243Y-114138673D01*
X82216432Y-114296427D01*
X82230249Y-114310017D01*
X82332479Y-114416682D01*
X82444537Y-114541601D01*
X82544547Y-114660499D01*
X82710473Y-114866816D01*
X82758016Y-114733236D01*
X82760773Y-114725685D01*
X82812898Y-114611247D01*
X82894928Y-114461777D01*
X83000570Y-114286618D01*
X83123529Y-114095115D01*
X83257510Y-113896610D01*
X83396220Y-113700449D01*
X83533363Y-113515974D01*
X83662646Y-113352530D01*
X83777773Y-113219460D01*
X83802610Y-113192347D01*
X83838273Y-113150266D01*
X83835909Y-113142629D01*
X83797366Y-113164235D01*
X83666423Y-113243003D01*
X83495646Y-113342909D01*
X83298521Y-113456254D01*
X83087553Y-113575944D01*
X82875248Y-113694884D01*
X82674113Y-113805980D01*
X82496652Y-113902137D01*
X82054243Y-114138673D01*
X81825616Y-114138673D01*
X81814808Y-114123623D01*
X81802952Y-114092760D01*
X81805651Y-114090005D01*
X81846649Y-114063430D01*
X81929600Y-114015898D01*
X82046510Y-113951811D01*
X82189380Y-113875569D01*
X82350217Y-113791572D01*
X82361443Y-113785765D01*
X82647008Y-113635514D01*
X82937603Y-113478143D01*
X83223679Y-113319099D01*
X83495686Y-113163831D01*
X83744072Y-113017787D01*
X83959288Y-112886417D01*
X84131783Y-112775168D01*
X84218897Y-112717579D01*
X84316759Y-112655347D01*
X84389382Y-112612067D01*
X84425398Y-112594725D01*
X84433444Y-112592050D01*
X84483993Y-112564818D01*
X84564346Y-112515008D01*
X84661219Y-112450730D01*
X84865103Y-112311422D01*
X84883221Y-111928048D01*
X84888742Y-111828741D01*
X85052041Y-111828741D01*
X85054525Y-111922979D01*
X85054541Y-111923172D01*
X85078773Y-112059737D01*
X85124413Y-112142728D01*
X85143012Y-112160948D01*
X85176924Y-112183213D01*
X85215650Y-112176627D01*
X85281899Y-112140930D01*
X85352248Y-112102459D01*
X85541971Y-112011838D01*
X85760812Y-111921429D01*
X85997160Y-111834890D01*
X86239407Y-111755881D01*
X86475944Y-111688060D01*
X86695162Y-111635086D01*
X86885452Y-111600619D01*
X87035205Y-111588316D01*
X87040266Y-111588339D01*
X87139586Y-111593060D01*
X87280084Y-111604802D01*
X87446509Y-111621806D01*
X87623611Y-111642313D01*
X87796140Y-111664564D01*
X87948846Y-111686800D01*
X88066479Y-111707262D01*
X88079547Y-111709818D01*
X88162235Y-111721345D01*
X88239749Y-111719474D01*
X88332091Y-111702176D01*
X88459262Y-111667421D01*
X88466229Y-111665392D01*
X88616074Y-111623331D01*
X88777984Y-111580201D01*
X88918099Y-111545034D01*
X88938628Y-111540064D01*
X89042841Y-111512695D01*
X89121717Y-111488526D01*
X89159528Y-111472295D01*
X89159368Y-111458628D01*
X89126353Y-111411798D01*
X89059145Y-111340548D01*
X88965134Y-111251748D01*
X88851711Y-111152266D01*
X88726268Y-111048974D01*
X88596197Y-110948739D01*
X88553088Y-110917342D01*
X88376321Y-110796637D01*
X88162838Y-110660396D01*
X87924881Y-110515933D01*
X87674691Y-110370565D01*
X87424509Y-110231607D01*
X87186578Y-110106373D01*
X86941606Y-109986043D01*
X86569976Y-109821357D01*
X86223409Y-109690235D01*
X85907672Y-109594786D01*
X85628535Y-109537117D01*
X85495786Y-109517594D01*
X85405755Y-109716472D01*
X85390687Y-109750887D01*
X85312188Y-109971546D01*
X85241752Y-110244425D01*
X85179105Y-110570913D01*
X85123975Y-110952398D01*
X85076087Y-111390265D01*
X85063978Y-111539793D01*
X85055438Y-111694932D01*
X85052041Y-111828741D01*
X84888742Y-111828741D01*
X84892484Y-111761431D01*
X84927633Y-111334340D01*
X84978249Y-110901333D01*
X85042041Y-110478352D01*
X85116713Y-110081338D01*
X85199973Y-109726232D01*
X85220086Y-109650404D01*
X85259952Y-109505864D01*
X85291698Y-109406095D01*
X85319502Y-109342850D01*
X85347540Y-109307884D01*
X85379989Y-109292951D01*
X85421025Y-109289806D01*
X85469132Y-109292849D01*
X85606294Y-109318898D01*
X85783985Y-109369183D01*
X85995245Y-109440799D01*
X86233113Y-109530840D01*
X86490626Y-109636398D01*
X86760825Y-109754568D01*
X87036747Y-109882444D01*
X87311431Y-110017118D01*
X87577916Y-110155685D01*
X87829241Y-110295239D01*
X87847333Y-110305699D01*
X88053870Y-110429843D01*
X88267625Y-110565963D01*
X88476945Y-110706078D01*
X88670174Y-110842209D01*
X88835657Y-110966377D01*
X88961742Y-111070603D01*
X88964585Y-111073142D01*
X89069814Y-111164569D01*
X89178388Y-111255013D01*
X89267240Y-111325249D01*
X89315183Y-111362123D01*
X89409694Y-111438171D01*
X89449512Y-111472295D01*
X89485453Y-111503097D01*
X89495607Y-111511896D01*
X89583040Y-111568768D01*
X89671857Y-111603169D01*
X89711314Y-111613713D01*
X89811425Y-111647994D01*
X89939974Y-111697522D01*
X90083125Y-111756393D01*
X90227041Y-111818702D01*
X90357887Y-111878546D01*
X90461825Y-111930021D01*
X90525020Y-111967222D01*
X90604450Y-112025625D01*
X90948022Y-111882080D01*
X91083863Y-111826752D01*
X91241430Y-111765501D01*
X91384703Y-111712627D01*
X91494136Y-111675524D01*
X91504305Y-111672354D01*
X91615543Y-111637234D01*
X91762061Y-111590435D01*
X91925991Y-111537686D01*
X92089462Y-111484712D01*
X92103255Y-111480236D01*
X92646148Y-111320600D01*
X93235719Y-111177129D01*
X93862520Y-111051534D01*
X94517103Y-110945529D01*
X95190020Y-110860825D01*
X95871822Y-110799136D01*
X95962747Y-110793240D01*
X96216744Y-110784080D01*
X96454699Y-110785819D01*
X96662848Y-110798149D01*
X96827431Y-110820756D01*
X96919244Y-110839118D01*
X96919073Y-111031873D01*
X96918961Y-111039773D01*
X96918449Y-111076000D01*
X96902615Y-111298085D01*
X96868042Y-111552474D01*
X96818218Y-111821936D01*
X96756630Y-112089240D01*
X96686766Y-112337156D01*
X96612113Y-112548454D01*
X96587798Y-112606852D01*
X96496962Y-112806519D01*
X96393276Y-113012807D01*
X96287381Y-113205183D01*
X96189917Y-113363116D01*
X96181623Y-113375380D01*
X96059758Y-113539323D01*
X95907912Y-113721369D01*
X95740821Y-113905249D01*
X95573219Y-114074693D01*
X95419841Y-114213432D01*
X95361683Y-114262585D01*
X95279799Y-114334310D01*
X95223545Y-114386937D01*
X95202635Y-114411605D01*
X95204632Y-114414746D01*
X95240170Y-114443677D01*
X95313331Y-114495844D01*
X95415212Y-114565029D01*
X95536907Y-114645014D01*
X95604650Y-114689007D01*
X95766038Y-114794391D01*
X95949127Y-114914527D01*
X96136184Y-115037767D01*
X96309475Y-115152463D01*
X96353902Y-115181983D01*
X96467515Y-115257557D01*
X96563670Y-115321022D01*
X96648711Y-115375788D01*
X96728987Y-115425264D01*
X96810844Y-115472859D01*
X96900628Y-115521983D01*
X97004688Y-115576045D01*
X97129370Y-115638454D01*
X97281021Y-115712620D01*
X97465988Y-115801953D01*
X97690617Y-115909861D01*
X97961256Y-116039755D01*
X98007638Y-116062053D01*
X98236166Y-116172678D01*
X98449700Y-116277263D01*
X98641979Y-116372654D01*
X98806737Y-116455702D01*
X98937714Y-116523256D01*
X99028646Y-116572163D01*
X99073270Y-116599273D01*
X99090638Y-116613325D01*
X99143745Y-116670446D01*
X99152783Y-116720505D01*
X99151749Y-116721794D01*
X99114521Y-116768194D01*
X99025725Y-116818205D01*
G37*
G36*
X89760765Y-119894960D02*
G01*
X89777834Y-119914019D01*
X89824201Y-119981947D01*
X89882682Y-120080020D01*
X89946236Y-120194919D01*
X90007820Y-120313322D01*
X90060395Y-120421908D01*
X90096919Y-120507356D01*
X90110350Y-120556345D01*
X90101234Y-120564322D01*
X90069726Y-120535230D01*
X90021447Y-120472386D01*
X89962395Y-120385390D01*
X89898563Y-120283839D01*
X89835950Y-120177332D01*
X89780549Y-120075466D01*
X89738358Y-119987842D01*
X89715372Y-119924055D01*
X89694953Y-119836770D01*
X89760765Y-119894960D01*
G37*
G36*
X89542000Y-121459807D02*
G01*
X89476930Y-121692491D01*
X89389264Y-121913222D01*
X89286730Y-122099101D01*
X89273310Y-122118744D01*
X89106397Y-122313021D01*
X88899126Y-122483046D01*
X88666491Y-122618244D01*
X88423483Y-122708038D01*
X88342339Y-122726010D01*
X88147061Y-122751572D01*
X87931323Y-122761445D01*
X87714295Y-122755799D01*
X87515147Y-122734802D01*
X87353049Y-122698622D01*
X87188297Y-122640605D01*
X86854968Y-122483280D01*
X86563863Y-122286148D01*
X86315520Y-122049772D01*
X86110477Y-121774714D01*
X85949273Y-121461536D01*
X85853707Y-121174627D01*
X86008592Y-121174627D01*
X86014940Y-121198836D01*
X86042871Y-121268422D01*
X86087948Y-121367900D01*
X86144567Y-121484495D01*
X86151726Y-121498651D01*
X86326567Y-121778455D01*
X86544748Y-122021450D01*
X86802128Y-122224344D01*
X87094569Y-122383847D01*
X87417930Y-122496669D01*
X87578492Y-122528732D01*
X87791482Y-122550484D01*
X88011900Y-122555002D01*
X88218845Y-122541977D01*
X88391410Y-122511099D01*
X88574032Y-122443063D01*
X88787541Y-122317282D01*
X88983132Y-122153605D01*
X89148092Y-121962958D01*
X89269706Y-121756269D01*
X89344209Y-121576172D01*
X89410071Y-121351166D01*
X89435893Y-121134381D01*
X89423371Y-120907909D01*
X89374202Y-120653842D01*
X89352153Y-120569119D01*
X89313866Y-120452235D01*
X89280131Y-120391537D01*
X89251344Y-120387597D01*
X89244741Y-120402633D01*
X89227898Y-120440991D01*
X89200617Y-120508182D01*
X89149986Y-120591665D01*
X89089329Y-120670891D01*
X89030866Y-120730034D01*
X88986816Y-120753265D01*
X88945425Y-120736677D01*
X88881595Y-120686932D01*
X88815780Y-120620390D01*
X88764314Y-120553793D01*
X88743529Y-120503885D01*
X88740315Y-120491306D01*
X88711329Y-120473928D01*
X88644048Y-120464900D01*
X88528612Y-120462314D01*
X88414435Y-120453830D01*
X88868395Y-120453830D01*
X88869327Y-120478596D01*
X88903390Y-120520326D01*
X88928536Y-120546655D01*
X88971741Y-120573680D01*
X89011588Y-120556002D01*
X89064105Y-120490664D01*
X89126789Y-120402633D01*
X89000623Y-120421975D01*
X88998424Y-120422312D01*
X88908719Y-120437808D01*
X88868395Y-120453830D01*
X88414435Y-120453830D01*
X88325733Y-120447239D01*
X88070364Y-120388737D01*
X88061415Y-120386045D01*
X87909232Y-120343139D01*
X87743857Y-120300638D01*
X87599542Y-120267372D01*
X87372050Y-120219584D01*
X87176866Y-120321452D01*
X87107168Y-120357828D01*
X87014628Y-120407692D01*
X86837463Y-120510845D01*
X86660630Y-120622591D01*
X86491307Y-120737592D01*
X86336672Y-120850512D01*
X86203905Y-120956013D01*
X86100183Y-121048757D01*
X86032686Y-121123407D01*
X86008592Y-121174627D01*
X85853707Y-121174627D01*
X85832447Y-121110800D01*
X85815243Y-121035436D01*
X85784898Y-120821742D01*
X85777277Y-120604868D01*
X85792425Y-120403711D01*
X85820712Y-120279605D01*
X86198100Y-120279605D01*
X86228913Y-120330521D01*
X86274205Y-120387996D01*
X86313046Y-120399232D01*
X86355583Y-120363072D01*
X86364517Y-120351520D01*
X86373229Y-120321452D01*
X86341966Y-120299110D01*
X86261936Y-120276354D01*
X86261278Y-120276196D01*
X86206476Y-120265452D01*
X86198100Y-120279605D01*
X85820712Y-120279605D01*
X85830385Y-120237168D01*
X85883038Y-120084760D01*
X85814887Y-120040106D01*
X85808737Y-120035979D01*
X85758431Y-119989228D01*
X85750309Y-119953096D01*
X85787359Y-119938603D01*
X85798244Y-119940347D01*
X85857354Y-119960421D01*
X85948347Y-119998200D01*
X86056488Y-120047709D01*
X86116814Y-120076262D01*
X86205132Y-120114663D01*
X86280274Y-120138206D01*
X86360080Y-120150361D01*
X86462389Y-120154597D01*
X86605041Y-120154382D01*
X86704092Y-120152087D01*
X86847107Y-120143803D01*
X86969746Y-120131136D01*
X87053106Y-120115716D01*
X87156098Y-120092451D01*
X87393051Y-120077152D01*
X87658063Y-120108258D01*
X87954325Y-120186019D01*
X88061372Y-120219765D01*
X88239629Y-120269180D01*
X88393673Y-120298636D01*
X88542807Y-120310208D01*
X88706332Y-120305969D01*
X88903551Y-120287992D01*
X88999794Y-120277637D01*
X89150854Y-120262033D01*
X89285737Y-120248815D01*
X89383620Y-120240063D01*
X89543643Y-120227193D01*
X89456358Y-120275855D01*
X89447956Y-120280551D01*
X89388976Y-120314292D01*
X89359843Y-120332332D01*
X89362155Y-120347459D01*
X89383939Y-120402068D01*
X89421538Y-120481242D01*
X89427240Y-120492721D01*
X89520565Y-120736195D01*
X89571742Y-120992344D01*
X89574492Y-121134381D01*
X89576546Y-121240463D01*
X89542000Y-121459807D01*
G37*
G36*
X84626332Y-119256993D02*
G01*
X84661980Y-119310430D01*
X84720892Y-119414020D01*
X84788300Y-119544100D01*
X84858136Y-119687744D01*
X84924337Y-119832027D01*
X84980834Y-119964023D01*
X85021563Y-120070805D01*
X85040457Y-120139449D01*
X85043980Y-120169874D01*
X85044243Y-120233121D01*
X85027260Y-120245975D01*
X84992027Y-120207491D01*
X84937537Y-120116729D01*
X84862787Y-119972743D01*
X84836654Y-119919827D01*
X84754259Y-119745726D01*
X84684383Y-119587068D01*
X84628782Y-119449167D01*
X84589211Y-119337337D01*
X84567425Y-119256891D01*
X84565179Y-119213143D01*
X84584230Y-119211406D01*
X84626332Y-119256993D01*
G37*
G36*
X84042133Y-119296684D02*
G01*
X84099461Y-119365478D01*
X84167675Y-119491182D01*
X84241014Y-119666699D01*
X84317615Y-119888034D01*
X84344635Y-119973411D01*
X84377523Y-120079985D01*
X84400023Y-120156305D01*
X84408362Y-120189821D01*
X84399389Y-120202915D01*
X84368823Y-120173078D01*
X84319813Y-120100054D01*
X84255719Y-119988919D01*
X84179901Y-119844749D01*
X84130963Y-119742977D01*
X84073717Y-119607463D01*
X84030843Y-119486041D01*
X84004294Y-119386480D01*
X83996024Y-119316553D01*
X84007986Y-119284030D01*
X84042133Y-119296684D01*
G37*
G36*
X84290328Y-119195656D02*
G01*
X84301018Y-119204889D01*
X84342959Y-119263046D01*
X84398998Y-119360359D01*
X84464021Y-119485742D01*
X84532917Y-119628108D01*
X84600572Y-119776370D01*
X84661874Y-119919440D01*
X84711711Y-120046233D01*
X84744969Y-120145660D01*
X84756535Y-120206635D01*
X84753763Y-120220896D01*
X84732566Y-120217828D01*
X84694115Y-120172651D01*
X84642665Y-120093082D01*
X84582468Y-119986841D01*
X84517779Y-119861646D01*
X84452852Y-119725216D01*
X84391940Y-119585270D01*
X84339297Y-119449526D01*
X84317345Y-119387700D01*
X84281669Y-119280052D01*
X84266139Y-119216645D01*
X84269458Y-119190755D01*
X84290328Y-119195656D01*
G37*
G36*
X85388665Y-119342200D02*
G01*
X85398216Y-119355975D01*
X85438939Y-119426425D01*
X85492194Y-119528647D01*
X85550143Y-119646445D01*
X85604947Y-119763622D01*
X85648769Y-119863982D01*
X85673770Y-119931329D01*
X85679157Y-119973515D01*
X85664341Y-119996793D01*
X85650069Y-119985491D01*
X85613401Y-119932228D01*
X85563601Y-119846020D01*
X85506606Y-119738827D01*
X85448355Y-119622607D01*
X85394789Y-119509319D01*
X85351846Y-119410922D01*
X85325465Y-119339374D01*
X85321584Y-119306633D01*
X85347865Y-119306398D01*
X85388665Y-119342200D01*
G37*
G36*
X90345787Y-119869007D02*
G01*
X90411380Y-119946782D01*
X90495331Y-120059452D01*
X90593631Y-120202296D01*
X90635660Y-120267158D01*
X90717971Y-120402879D01*
X90798276Y-120545034D01*
X90870796Y-120682474D01*
X90929750Y-120804050D01*
X90969361Y-120898616D01*
X90983849Y-120955024D01*
X90983568Y-120964149D01*
X90977104Y-120980508D01*
X90958211Y-120970924D01*
X90921760Y-120929889D01*
X90862624Y-120851898D01*
X90775677Y-120731444D01*
X90775404Y-120731062D01*
X90707782Y-120630332D01*
X90630449Y-120505538D01*
X90549175Y-120367184D01*
X90469729Y-120225769D01*
X90397881Y-120091795D01*
X90339401Y-119975764D01*
X90300059Y-119888176D01*
X90285626Y-119839534D01*
X90285714Y-119837033D01*
X90302562Y-119830850D01*
X90345787Y-119869007D01*
G37*
G36*
X86461379Y-117128783D02*
G01*
X86437623Y-117124057D01*
X86360701Y-117135225D01*
X86314779Y-117195345D01*
X86303979Y-117272897D01*
X86299542Y-117304758D01*
X86311707Y-117405501D01*
X86358511Y-117517718D01*
X86385686Y-117547453D01*
X86432220Y-117598370D01*
X86524025Y-117634517D01*
X86563114Y-117634525D01*
X86633753Y-117601523D01*
X86669612Y-117523638D01*
X86669268Y-117403137D01*
X86663952Y-117338864D01*
X86671527Y-117297340D01*
X86692468Y-117300911D01*
X86723129Y-117344073D01*
X86759863Y-117421327D01*
X86799022Y-117527171D01*
X86836960Y-117656103D01*
X86851803Y-117723221D01*
X86870659Y-117851829D01*
X86873083Y-117868360D01*
X86881122Y-117997651D01*
X86881444Y-118002824D01*
X86880649Y-118032820D01*
X86879432Y-118043739D01*
X86869856Y-118129626D01*
X86865441Y-118169219D01*
X86837000Y-118318940D01*
X86834706Y-118331015D01*
X86807627Y-118440206D01*
X86793455Y-118497354D01*
X86746699Y-118647384D01*
X86699449Y-118760252D01*
X86613086Y-118880295D01*
X86471338Y-119006512D01*
X86288173Y-119120894D01*
X86185860Y-119168282D01*
X86041722Y-119205720D01*
X85891573Y-119203934D01*
X85715648Y-119164424D01*
X85674308Y-119150387D01*
X85514771Y-119060028D01*
X85376965Y-118922917D01*
X85269890Y-118747474D01*
X85249693Y-118699796D01*
X85231662Y-118640205D01*
X85219730Y-118568216D01*
X85212694Y-118472384D01*
X85211609Y-118429831D01*
X85331283Y-118429831D01*
X85357558Y-118565307D01*
X85410527Y-118695670D01*
X85483494Y-118798032D01*
X85493128Y-118807183D01*
X85582618Y-118870286D01*
X85681268Y-118914657D01*
X85690742Y-118917408D01*
X85832690Y-118943053D01*
X85986252Y-118948003D01*
X86129194Y-118932906D01*
X86239283Y-118898409D01*
X86261383Y-118886446D01*
X86393456Y-118779272D01*
X86488305Y-118636364D01*
X86539843Y-118469915D01*
X86540200Y-118440206D01*
X86677778Y-118440206D01*
X86692326Y-118454754D01*
X86706873Y-118440206D01*
X86692326Y-118425659D01*
X86677778Y-118440206D01*
X86540200Y-118440206D01*
X86541981Y-118292117D01*
X86536618Y-118252994D01*
X86648904Y-118252994D01*
X86674067Y-118287457D01*
X86678066Y-118292117D01*
X86700697Y-118318491D01*
X86724983Y-118338374D01*
X86730089Y-118337896D01*
X86730286Y-118318940D01*
X86685052Y-118276472D01*
X86663971Y-118260219D01*
X86648904Y-118252994D01*
X86536618Y-118252994D01*
X86525572Y-118172405D01*
X86469875Y-118232830D01*
X86406793Y-118301266D01*
X86388540Y-118319841D01*
X86352369Y-118356649D01*
X86274443Y-118425723D01*
X86213766Y-118468095D01*
X86072980Y-118517155D01*
X85925516Y-118529496D01*
X85795875Y-118502568D01*
X85789168Y-118499616D01*
X85698357Y-118436542D01*
X85607892Y-118339908D01*
X85534182Y-118230082D01*
X85493639Y-118127434D01*
X85481124Y-118087103D01*
X85572165Y-118087103D01*
X85573208Y-118090087D01*
X85602485Y-118119693D01*
X85659451Y-118163803D01*
X85675061Y-118174684D01*
X85726134Y-118206099D01*
X85746736Y-118211408D01*
X85745694Y-118208424D01*
X85716416Y-118178819D01*
X85659451Y-118134708D01*
X85643840Y-118123827D01*
X85592768Y-118092413D01*
X85572165Y-118087103D01*
X85481124Y-118087103D01*
X85476555Y-118072380D01*
X85455678Y-118047423D01*
X85446283Y-118051675D01*
X85415430Y-118097784D01*
X85378398Y-118186315D01*
X85339804Y-118306929D01*
X85338398Y-118312128D01*
X85331283Y-118429831D01*
X85211609Y-118429831D01*
X85209351Y-118341265D01*
X85208497Y-118163414D01*
X85208490Y-118016611D01*
X85281215Y-118016611D01*
X85283934Y-118056502D01*
X85297720Y-118073435D01*
X85320474Y-118033807D01*
X85324889Y-118011750D01*
X85309039Y-117973900D01*
X85291957Y-117976045D01*
X85281215Y-118016611D01*
X85208490Y-118016611D01*
X85208485Y-117903842D01*
X85317443Y-117903842D01*
X85324857Y-117931043D01*
X85330835Y-117939655D01*
X85357387Y-117960138D01*
X85361366Y-117958243D01*
X85353952Y-117931043D01*
X85347975Y-117922430D01*
X85321423Y-117901948D01*
X85317443Y-117903842D01*
X85208485Y-117903842D01*
X85208477Y-117712051D01*
X85277978Y-117570719D01*
X85392151Y-117570719D01*
X85402062Y-117591353D01*
X85448919Y-117641704D01*
X85525427Y-117713632D01*
X85623632Y-117799287D01*
X85698375Y-117862639D01*
X85810416Y-117958243D01*
X85829037Y-117974132D01*
X85872796Y-118011750D01*
X85953363Y-118081011D01*
X86052234Y-118166879D01*
X86103054Y-118211408D01*
X86226805Y-118319841D01*
X86095877Y-118180128D01*
X86090171Y-118174067D01*
X86004853Y-118087852D01*
X85901889Y-117989920D01*
X85789827Y-117887672D01*
X85677212Y-117788509D01*
X85572591Y-117699832D01*
X85484510Y-117629040D01*
X85421514Y-117583536D01*
X85392151Y-117570719D01*
X85277978Y-117570719D01*
X85306655Y-117512404D01*
X85507917Y-117512404D01*
X85537401Y-117542206D01*
X85601261Y-117599734D01*
X85648884Y-117642048D01*
X85756545Y-117739712D01*
X85877690Y-117851457D01*
X85994044Y-117960499D01*
X86040902Y-118004744D01*
X86157978Y-118113741D01*
X86240239Y-118187054D01*
X86292566Y-118228677D01*
X86319845Y-118242604D01*
X86326956Y-118232830D01*
X86324630Y-118228339D01*
X86291094Y-118191944D01*
X86224259Y-118127651D01*
X86132512Y-118042916D01*
X86024239Y-117945198D01*
X85907827Y-117841954D01*
X85791663Y-117740641D01*
X85684133Y-117648717D01*
X85593624Y-117573640D01*
X85528523Y-117522865D01*
X85517004Y-117514757D01*
X85507917Y-117512404D01*
X85306655Y-117512404D01*
X85308180Y-117509302D01*
X85372868Y-117393292D01*
X85398141Y-117355348D01*
X85517043Y-117355348D01*
X85528350Y-117385281D01*
X85574740Y-117440873D01*
X85645993Y-117507235D01*
X85646493Y-117507656D01*
X85724142Y-117573785D01*
X85831343Y-117666010D01*
X85954007Y-117772176D01*
X86078051Y-117880126D01*
X86173636Y-117962889D01*
X86283825Y-118055725D01*
X86353434Y-118110833D01*
X86383436Y-118129626D01*
X86374804Y-118113513D01*
X86328510Y-118063907D01*
X86245527Y-117982219D01*
X86126826Y-117869859D01*
X85973382Y-117728239D01*
X85932021Y-117690638D01*
X85802636Y-117575586D01*
X85690015Y-117479277D01*
X85600588Y-117406964D01*
X85540787Y-117363903D01*
X85517043Y-117355348D01*
X85398141Y-117355348D01*
X85455362Y-117269438D01*
X85479528Y-117239417D01*
X85584906Y-117239417D01*
X85585071Y-117241397D01*
X85610531Y-117272147D01*
X85671621Y-117334418D01*
X85762147Y-117422181D01*
X85875916Y-117529406D01*
X86006736Y-117650065D01*
X86036419Y-117677139D01*
X86166307Y-117794771D01*
X86280080Y-117896492D01*
X86371067Y-117976425D01*
X86432592Y-118028694D01*
X86457984Y-118047423D01*
X86471567Y-118043739D01*
X86469195Y-118022353D01*
X86436067Y-117978584D01*
X86368739Y-117908665D01*
X86263764Y-117808829D01*
X86261093Y-117806387D01*
X86533250Y-117806387D01*
X86570599Y-117846393D01*
X86639182Y-117899625D01*
X86779611Y-117997651D01*
X86673778Y-117888093D01*
X86631793Y-117848067D01*
X86571518Y-117802837D01*
X86533349Y-117790068D01*
X86533250Y-117806387D01*
X86261093Y-117806387D01*
X86212758Y-117762203D01*
X86662349Y-117762203D01*
X86668555Y-117786033D01*
X86706695Y-117829048D01*
X86747375Y-117857314D01*
X86765063Y-117851829D01*
X86761883Y-117837708D01*
X86733066Y-117797316D01*
X86692402Y-117765616D01*
X86662349Y-117762203D01*
X86212758Y-117762203D01*
X86117698Y-117675308D01*
X86038305Y-117603694D01*
X85888161Y-117469470D01*
X85773924Y-117369622D01*
X85691037Y-117300421D01*
X85634943Y-117258138D01*
X85601085Y-117239047D01*
X85584906Y-117239417D01*
X85479528Y-117239417D01*
X85534124Y-117171593D01*
X85553895Y-117151459D01*
X85595557Y-117117601D01*
X85753748Y-117117601D01*
X85782401Y-117157698D01*
X85843802Y-117220614D01*
X85930072Y-117297787D01*
X85954632Y-117318612D01*
X86074178Y-117420032D01*
X86156255Y-117489222D01*
X86206948Y-117530586D01*
X86232343Y-117548528D01*
X86238526Y-117547453D01*
X86231581Y-117531764D01*
X86217594Y-117505865D01*
X86179906Y-117455448D01*
X86113231Y-117385867D01*
X86029447Y-117307630D01*
X85940169Y-117230735D01*
X85857009Y-117165178D01*
X85791582Y-117120959D01*
X85755502Y-117108074D01*
X85753748Y-117117601D01*
X85595557Y-117117601D01*
X85670030Y-117057079D01*
X85672206Y-117055755D01*
X85896610Y-117055755D01*
X85920979Y-117090915D01*
X85970253Y-117141617D01*
X86031158Y-117196446D01*
X86090459Y-117244123D01*
X86134926Y-117273366D01*
X86151326Y-117272897D01*
X86135917Y-117248982D01*
X86086718Y-117196595D01*
X86015910Y-117130928D01*
X85953652Y-117079987D01*
X85922564Y-117060085D01*
X86132105Y-117060085D01*
X86139519Y-117087286D01*
X86145497Y-117095898D01*
X86172049Y-117116381D01*
X86176028Y-117114486D01*
X86168614Y-117087286D01*
X86162637Y-117078673D01*
X86136085Y-117058190D01*
X86132105Y-117060085D01*
X85922564Y-117060085D01*
X85908765Y-117051251D01*
X85896610Y-117055755D01*
X85672206Y-117055755D01*
X85760712Y-117001895D01*
X85986630Y-117001895D01*
X85994044Y-117029095D01*
X86000022Y-117037708D01*
X86026573Y-117058190D01*
X86030553Y-117056296D01*
X86023139Y-117029095D01*
X86017162Y-117020483D01*
X85990610Y-117000000D01*
X85986630Y-117001895D01*
X85760712Y-117001895D01*
X85807593Y-116973366D01*
X85946529Y-116911237D01*
X86066782Y-116881610D01*
X86154273Y-116887531D01*
X86279315Y-116927715D01*
X86397074Y-116994135D01*
X86463053Y-117056296D01*
X86483578Y-117075633D01*
X86512216Y-117114486D01*
X86536685Y-117147684D01*
X86461379Y-117128783D01*
G37*
G36*
X87207309Y-119147217D02*
G01*
X87220324Y-119169115D01*
X87219988Y-119225968D01*
X87212776Y-119239584D01*
X87169900Y-119263445D01*
X87120595Y-119249941D01*
X87090567Y-119203530D01*
X87089505Y-119193948D01*
X87110045Y-119148211D01*
X87157789Y-119128545D01*
X87207309Y-119147217D01*
G37*
G36*
X168549041Y-72449369D02*
G01*
X168628490Y-72452034D01*
X168670456Y-72461475D01*
X168686878Y-72481957D01*
X168689698Y-72517745D01*
X168689349Y-72536011D01*
X168681888Y-72564386D01*
X168655452Y-72579373D01*
X168598103Y-72585238D01*
X168497897Y-72586246D01*
X168446753Y-72586121D01*
X168367303Y-72583456D01*
X168325338Y-72574015D01*
X168308916Y-72553533D01*
X168306095Y-72517745D01*
X168306444Y-72499479D01*
X168313906Y-72471105D01*
X168340341Y-72456117D01*
X168397691Y-72450252D01*
X168497897Y-72449245D01*
X168549041Y-72449369D01*
G37*
G36*
X167815271Y-72154263D02*
G01*
X167883330Y-72165685D01*
X167990843Y-72210358D01*
X168061486Y-72279504D01*
X168086894Y-72366583D01*
X168077391Y-72433169D01*
X168040733Y-72494900D01*
X167968543Y-72555155D01*
X167852498Y-72623041D01*
X167769784Y-72671070D01*
X167705198Y-72723925D01*
X167680637Y-72772705D01*
X167690277Y-72850908D01*
X167744841Y-72898817D01*
X167843015Y-72915048D01*
X167878717Y-72913819D01*
X167946534Y-72895358D01*
X167993512Y-72846548D01*
X168023489Y-72807680D01*
X168069889Y-72778893D01*
X168102181Y-72800775D01*
X168114294Y-72872042D01*
X168112735Y-72910355D01*
X168095970Y-72958120D01*
X168052643Y-72977912D01*
X167957333Y-72991077D01*
X167817479Y-72991713D01*
X167696384Y-72970595D01*
X167605408Y-72930129D01*
X167555910Y-72872720D01*
X167539176Y-72788615D01*
X167550906Y-72690110D01*
X167592754Y-72614582D01*
X167620221Y-72591348D01*
X167693996Y-72541566D01*
X167781136Y-72492552D01*
X167838756Y-72460952D01*
X167912195Y-72403682D01*
X167938307Y-72346480D01*
X167921430Y-72282858D01*
X167873247Y-72242381D01*
X167798419Y-72228810D01*
X167718832Y-72243017D01*
X167655833Y-72284843D01*
X167639778Y-72302293D01*
X167587110Y-72336866D01*
X167551790Y-72321701D01*
X167538889Y-72257965D01*
X167538892Y-72256810D01*
X167553137Y-72196987D01*
X167599507Y-72161621D01*
X167684665Y-72148212D01*
X167815271Y-72154263D01*
G37*
G36*
X143481500Y-73278059D02*
G01*
X143397936Y-73306782D01*
X143263646Y-73324030D01*
X143124122Y-73317891D01*
X143004697Y-73287846D01*
X142927082Y-73243349D01*
X142856716Y-73166212D01*
X142826408Y-73080055D01*
X142966885Y-73080055D01*
X142971349Y-73142694D01*
X143021793Y-73201197D01*
X143050536Y-73216184D01*
X143139064Y-73237339D01*
X143244526Y-73242761D01*
X143343856Y-73232203D01*
X143413989Y-73205415D01*
X143432576Y-73190225D01*
X143452659Y-73150652D01*
X143439225Y-73088964D01*
X143439078Y-73088545D01*
X143419853Y-73045570D01*
X143390491Y-73021286D01*
X143336104Y-73009198D01*
X143241809Y-73002807D01*
X143161935Y-73002248D01*
X143072694Y-73009702D01*
X143016308Y-73024322D01*
X143008877Y-73028614D01*
X142966885Y-73080055D01*
X142826408Y-73080055D01*
X142825879Y-73078551D01*
X142837896Y-72991710D01*
X142896090Y-72917037D01*
X142930294Y-72894068D01*
X142986398Y-72873237D01*
X143065997Y-72862985D01*
X143184653Y-72860248D01*
X143266485Y-72859259D01*
X143350320Y-72853177D01*
X143397134Y-72839842D01*
X143417498Y-72817306D01*
X143421266Y-72805268D01*
X143411075Y-72754492D01*
X143355326Y-72724860D01*
X143259456Y-72719729D01*
X143245022Y-72720470D01*
X143148776Y-72714477D01*
X143066678Y-72694265D01*
X143053050Y-72688022D01*
X142972347Y-72620253D01*
X142921622Y-72522951D01*
X142916505Y-72484845D01*
X143050893Y-72484845D01*
X143073422Y-72546521D01*
X143087195Y-72572359D01*
X143133782Y-72618180D01*
X143210037Y-72635582D01*
X143258746Y-72636106D01*
X143329232Y-72611388D01*
X143368941Y-72547528D01*
X143382997Y-72438691D01*
X143381358Y-72380588D01*
X143356732Y-72291300D01*
X143300659Y-72244230D01*
X143209843Y-72235508D01*
X143200906Y-72236303D01*
X143139699Y-72249136D01*
X143103285Y-72283245D01*
X143073228Y-72354719D01*
X143052307Y-72425964D01*
X143050893Y-72484845D01*
X142916505Y-72484845D01*
X142906964Y-72413790D01*
X142934460Y-72310442D01*
X142947186Y-72280998D01*
X142935350Y-72261603D01*
X142879659Y-72257443D01*
X142821170Y-72248580D01*
X142796494Y-72220387D01*
X142800328Y-72211551D01*
X142842771Y-72190987D01*
X142921564Y-72174881D01*
X143023420Y-72163973D01*
X143135050Y-72158999D01*
X143243164Y-72160700D01*
X143334476Y-72169814D01*
X143395696Y-72187079D01*
X143456652Y-72236224D01*
X143509468Y-72328740D01*
X143531465Y-72438248D01*
X143531417Y-72438691D01*
X143519685Y-72547087D01*
X143471169Y-72637595D01*
X143452224Y-72662227D01*
X143449780Y-72696996D01*
X143483698Y-72746832D01*
X143514560Y-72792582D01*
X143534341Y-72871621D01*
X143503783Y-72936606D01*
X143494855Y-72947537D01*
X143493798Y-72983078D01*
X143533440Y-73035305D01*
X143560228Y-73068606D01*
X143587132Y-73147054D01*
X143585792Y-73150652D01*
X143560575Y-73218341D01*
X143481500Y-73278059D01*
G37*
G36*
X156160888Y-72651405D02*
G01*
X156128980Y-72778687D01*
X156066495Y-72886633D01*
X155973357Y-72962595D01*
X155886104Y-72990201D01*
X155757747Y-72990652D01*
X155630344Y-72952817D01*
X155551776Y-72909382D01*
X155517252Y-72871217D01*
X155523833Y-72832948D01*
X155554904Y-72823353D01*
X155619990Y-72846648D01*
X155723016Y-72880886D01*
X155826784Y-72882594D01*
X155916504Y-72854609D01*
X155979575Y-72800913D01*
X156003398Y-72725488D01*
X156005428Y-72695117D01*
X156020030Y-72629587D01*
X156022622Y-72613702D01*
X156008164Y-72599485D01*
X155965416Y-72591150D01*
X155885547Y-72587227D01*
X155759728Y-72586246D01*
X155482794Y-72586246D01*
X155482794Y-72488984D01*
X155484552Y-72462065D01*
X155619795Y-72462065D01*
X155623021Y-72476366D01*
X155648431Y-72493250D01*
X155707847Y-72501723D01*
X155811597Y-72504045D01*
X155855263Y-72503946D01*
X155937947Y-72501448D01*
X155982253Y-72492515D01*
X156000098Y-72473121D01*
X156003398Y-72439240D01*
X156000761Y-72408373D01*
X155961898Y-72319261D01*
X155888174Y-72254838D01*
X155794510Y-72230043D01*
X155737090Y-72234535D01*
X155693616Y-72260958D01*
X155659498Y-72325064D01*
X155654795Y-72336614D01*
X155629930Y-72409869D01*
X155619795Y-72462065D01*
X155484552Y-72462065D01*
X155486773Y-72428062D01*
X155526441Y-72302863D01*
X155602313Y-72212074D01*
X155706544Y-72160461D01*
X155831290Y-72152787D01*
X155968705Y-72193819D01*
X155984288Y-72201845D01*
X156073920Y-72280007D01*
X156133282Y-72389418D01*
X156144574Y-72439240D01*
X156162297Y-72517433D01*
X156160888Y-72651405D01*
G37*
G36*
X152257434Y-67674002D02*
G01*
X152415432Y-68040573D01*
X152561278Y-68378338D01*
X152693805Y-68684596D01*
X152811848Y-68956646D01*
X152914242Y-69191786D01*
X152999821Y-69387315D01*
X153067419Y-69540532D01*
X153115872Y-69648735D01*
X153144013Y-69709223D01*
X153258253Y-69929943D01*
X153394259Y-70166316D01*
X153528985Y-70373819D01*
X153657330Y-70544665D01*
X153774190Y-70671068D01*
X153821054Y-70711763D01*
X153938444Y-70791888D01*
X154080031Y-70859133D01*
X154256017Y-70917875D01*
X154476602Y-70972492D01*
X154595554Y-70996455D01*
X154699857Y-71009719D01*
X154792490Y-71009416D01*
X154895114Y-70996806D01*
X155055493Y-70963145D01*
X155266629Y-70889117D01*
X155441470Y-70789178D01*
X155574641Y-70666644D01*
X155660766Y-70524827D01*
X155668893Y-70504841D01*
X155684801Y-70465561D01*
X155699296Y-70427581D01*
X155712451Y-70388350D01*
X155724336Y-70345320D01*
X155735022Y-70295940D01*
X155744581Y-70237660D01*
X155753085Y-70167930D01*
X155760604Y-70084200D01*
X155767211Y-69983919D01*
X155772976Y-69864539D01*
X155777971Y-69723509D01*
X155782267Y-69558279D01*
X155785937Y-69366299D01*
X155789050Y-69145018D01*
X155791678Y-68891888D01*
X155793894Y-68604357D01*
X155795767Y-68279876D01*
X155797370Y-67915896D01*
X155798774Y-67509865D01*
X155800051Y-67059234D01*
X155801271Y-66561452D01*
X155802507Y-66013971D01*
X155803829Y-65414239D01*
X155813985Y-60831553D01*
X154962304Y-60831553D01*
X154906166Y-60831615D01*
X154680408Y-60833055D01*
X154461354Y-60836208D01*
X154258622Y-60840824D01*
X154081832Y-60846648D01*
X153940602Y-60853429D01*
X153844551Y-60860914D01*
X153686458Y-60883097D01*
X153377687Y-60959142D01*
X153105125Y-61075353D01*
X152866863Y-61232876D01*
X152660991Y-61432858D01*
X152485599Y-61676443D01*
X152444185Y-61751102D01*
X152359734Y-61951247D01*
X152287229Y-62197650D01*
X152225442Y-62494169D01*
X152178070Y-62763268D01*
X152022018Y-62771486D01*
X151865966Y-62779703D01*
X151866215Y-62634485D01*
X151866311Y-62624793D01*
X151868349Y-62553173D01*
X151872803Y-62435354D01*
X151879372Y-62278193D01*
X151887754Y-62088546D01*
X151897648Y-61873270D01*
X151908752Y-61639222D01*
X151920766Y-61393258D01*
X151924263Y-61322512D01*
X151935983Y-61082760D01*
X151946721Y-60859141D01*
X151956181Y-60658089D01*
X151964067Y-60486035D01*
X151970082Y-60349414D01*
X151973931Y-60254657D01*
X151975317Y-60208198D01*
X151975567Y-60119148D01*
X169758307Y-60119148D01*
X169758307Y-60420550D01*
X169491155Y-60421093D01*
X169322404Y-60424796D01*
X169034027Y-60451058D01*
X168791962Y-60503165D01*
X168594477Y-60581907D01*
X168439840Y-60688075D01*
X168326318Y-60822458D01*
X168252178Y-60985846D01*
X168251022Y-60989597D01*
X168236421Y-61039372D01*
X168223141Y-61090977D01*
X168211128Y-61147061D01*
X168200325Y-61210271D01*
X168190677Y-61283258D01*
X168182128Y-61368668D01*
X168174622Y-61469151D01*
X168168105Y-61587355D01*
X168162519Y-61725929D01*
X168157809Y-61887521D01*
X168153920Y-62074779D01*
X168150795Y-62290352D01*
X168148379Y-62536889D01*
X168146617Y-62817038D01*
X168145452Y-63133448D01*
X168144829Y-63488767D01*
X168144692Y-63885643D01*
X168144985Y-64326725D01*
X168145653Y-64814662D01*
X168146640Y-65352102D01*
X168147889Y-65941693D01*
X168148580Y-66244783D01*
X168149974Y-66798390D01*
X168151441Y-67300769D01*
X168153007Y-67754284D01*
X168154697Y-68161301D01*
X168156535Y-68524185D01*
X168158548Y-68845301D01*
X168160759Y-69127014D01*
X168163194Y-69371690D01*
X168165878Y-69581692D01*
X168168836Y-69759386D01*
X168172092Y-69907137D01*
X168175672Y-70027310D01*
X168179601Y-70122271D01*
X168183904Y-70194383D01*
X168188605Y-70246013D01*
X168193730Y-70279525D01*
X168222635Y-70385770D01*
X168311101Y-70569037D01*
X168442439Y-70720604D01*
X168617272Y-70840848D01*
X168836221Y-70930148D01*
X169099907Y-70988880D01*
X169408954Y-71017422D01*
X169758307Y-71031707D01*
X169758307Y-71326005D01*
X165422629Y-71319070D01*
X161086951Y-71312136D01*
X160615712Y-69942125D01*
X160576660Y-69828493D01*
X160488806Y-69572107D01*
X160407234Y-69333027D01*
X160333602Y-69116178D01*
X160269571Y-68926489D01*
X160216801Y-68768885D01*
X160176951Y-68648295D01*
X160151681Y-68569646D01*
X160142652Y-68537864D01*
X160151156Y-68522649D01*
X160202373Y-68508224D01*
X160303487Y-68503614D01*
X160466143Y-68503614D01*
X160605801Y-68751358D01*
X160620692Y-68777683D01*
X160862449Y-69179417D01*
X161101772Y-69527851D01*
X161339907Y-69824274D01*
X161578098Y-70069981D01*
X161817589Y-70266261D01*
X162059624Y-70414406D01*
X162305448Y-70515709D01*
X162395653Y-70542787D01*
X162490762Y-70567478D01*
X162590161Y-70588309D01*
X162698901Y-70605598D01*
X162822032Y-70619663D01*
X162964606Y-70630820D01*
X163131672Y-70639390D01*
X163328282Y-70645688D01*
X163559486Y-70650033D01*
X163830334Y-70652744D01*
X164145877Y-70654137D01*
X164511165Y-70654531D01*
X164656042Y-70654484D01*
X164973530Y-70653947D01*
X165242182Y-70652728D01*
X165466231Y-70650726D01*
X165649908Y-70647842D01*
X165797445Y-70643976D01*
X165913073Y-70639027D01*
X166001024Y-70632896D01*
X166065530Y-70625482D01*
X166110823Y-70616685D01*
X166183661Y-70592772D01*
X166326160Y-70508586D01*
X166433645Y-70388287D01*
X166498287Y-70239498D01*
X166500521Y-70229045D01*
X166507138Y-70175820D01*
X166513132Y-70089964D01*
X166518553Y-69969014D01*
X166523450Y-69810508D01*
X166527873Y-69611980D01*
X166531870Y-69370969D01*
X166535492Y-69085011D01*
X166538789Y-68751643D01*
X166541808Y-68368401D01*
X166544601Y-67932822D01*
X166557267Y-65759118D01*
X165054712Y-65771461D01*
X165039458Y-65771586D01*
X164692432Y-65774626D01*
X164395205Y-65777868D01*
X164142973Y-65781724D01*
X163930930Y-65786609D01*
X163754272Y-65792937D01*
X163608194Y-65801123D01*
X163487890Y-65811579D01*
X163388557Y-65824720D01*
X163305389Y-65840960D01*
X163233581Y-65860713D01*
X163168328Y-65884392D01*
X163104825Y-65912413D01*
X163038268Y-65945188D01*
X162945220Y-65995243D01*
X162815618Y-66080479D01*
X162709694Y-66176614D01*
X162623245Y-66290962D01*
X162552069Y-66430836D01*
X162491966Y-66603548D01*
X162438733Y-66816413D01*
X162388169Y-67076744D01*
X162367806Y-67193568D01*
X162349664Y-67301045D01*
X162337372Y-67377869D01*
X162332848Y-67412397D01*
X162314728Y-67422684D01*
X162255156Y-67431582D01*
X162168447Y-67435005D01*
X162004046Y-67435005D01*
X162004046Y-63544175D01*
X162324064Y-63544175D01*
X162355894Y-63803181D01*
X162382274Y-63974058D01*
X162445610Y-64237076D01*
X162530816Y-64469829D01*
X162634229Y-64661034D01*
X162750287Y-64807038D01*
X162901806Y-64930400D01*
X163089709Y-65021893D01*
X163099688Y-65025628D01*
X163172616Y-65051287D01*
X163245886Y-65073087D01*
X163324451Y-65091337D01*
X163413259Y-65106348D01*
X163517262Y-65118431D01*
X163641409Y-65127896D01*
X163790653Y-65135053D01*
X163969942Y-65140213D01*
X164184228Y-65143686D01*
X164438461Y-65145782D01*
X164737591Y-65146813D01*
X165086570Y-65147087D01*
X166538781Y-65147087D01*
X166552811Y-60772231D01*
X164655181Y-60784643D01*
X164275883Y-60787206D01*
X163932177Y-60789898D01*
X163635029Y-60792937D01*
X163380241Y-60796636D01*
X163163618Y-60801312D01*
X162980961Y-60807279D01*
X162828074Y-60814854D01*
X162700761Y-60824351D01*
X162594824Y-60836085D01*
X162506067Y-60850373D01*
X162430293Y-60867529D01*
X162363305Y-60887869D01*
X162300906Y-60911708D01*
X162238900Y-60939362D01*
X162173088Y-60971146D01*
X162100600Y-61009959D01*
X161923333Y-61137818D01*
X161769040Y-61303049D01*
X161635912Y-61508778D01*
X161522136Y-61758131D01*
X161425903Y-62054235D01*
X161345403Y-62400216D01*
X161344615Y-62404187D01*
X161323122Y-62495512D01*
X161301583Y-62560448D01*
X161284548Y-62585167D01*
X161282532Y-62585479D01*
X161269493Y-62613856D01*
X161269025Y-62674218D01*
X161277940Y-62763268D01*
X161121248Y-62771460D01*
X161045716Y-62774287D01*
X160990349Y-62769775D01*
X160963998Y-62752098D01*
X160952516Y-62716660D01*
X160947870Y-62691017D01*
X160934438Y-62612982D01*
X160916310Y-62505010D01*
X160896063Y-62382354D01*
X160885063Y-62320112D01*
X160803217Y-62007675D01*
X160683667Y-61725897D01*
X160529300Y-61478146D01*
X160343001Y-61267791D01*
X160127656Y-61098199D01*
X159886151Y-60972738D01*
X159621371Y-60894776D01*
X159602746Y-60891442D01*
X159507282Y-60879266D01*
X159375110Y-60868742D01*
X159202614Y-60859705D01*
X158986176Y-60851992D01*
X158722179Y-60845439D01*
X158407005Y-60839883D01*
X157399284Y-60824819D01*
X157408021Y-65451972D01*
X157408488Y-65696901D01*
X157409632Y-66269540D01*
X157410770Y-66790895D01*
X157411931Y-67263478D01*
X157413143Y-67689798D01*
X157414435Y-68072365D01*
X157415835Y-68413688D01*
X157417372Y-68716278D01*
X157419074Y-68982645D01*
X157420971Y-69215297D01*
X157423090Y-69416746D01*
X157425460Y-69589501D01*
X157428110Y-69736071D01*
X157431068Y-69858968D01*
X157434363Y-69960699D01*
X157438023Y-70043777D01*
X157442077Y-70110709D01*
X157446554Y-70164007D01*
X157451482Y-70206179D01*
X157456889Y-70239737D01*
X157462804Y-70267189D01*
X157528118Y-70467698D01*
X157621141Y-70635468D01*
X157744932Y-70769359D01*
X157903451Y-70871922D01*
X158100658Y-70945709D01*
X158340511Y-70993269D01*
X158626969Y-71017154D01*
X158990022Y-71032205D01*
X158990022Y-71325836D01*
X151153560Y-71325836D01*
X151153560Y-71027791D01*
X151283711Y-71010995D01*
X151319012Y-71006393D01*
X151566155Y-70970656D01*
X151766463Y-70934020D01*
X151926985Y-70894476D01*
X152054768Y-70850013D01*
X152156862Y-70798623D01*
X152240313Y-70738297D01*
X152275716Y-70706373D01*
X152372239Y-70588504D01*
X152425211Y-70454851D01*
X152441370Y-70290402D01*
X152438512Y-70217234D01*
X152427799Y-70130262D01*
X152407552Y-70031612D01*
X152376116Y-69916514D01*
X152331838Y-69780196D01*
X152273063Y-69617887D01*
X152198137Y-69424817D01*
X152105406Y-69196213D01*
X151993216Y-68927304D01*
X151859912Y-68613320D01*
X151415154Y-67572006D01*
X147077386Y-67572006D01*
X146665424Y-68565264D01*
X146608461Y-68702829D01*
X146491565Y-68987210D01*
X146393913Y-69228769D01*
X146313726Y-69432715D01*
X146249226Y-69604254D01*
X146198635Y-69748596D01*
X146160176Y-69870947D01*
X146132069Y-69976515D01*
X146112538Y-70070509D01*
X146099805Y-70158136D01*
X146092090Y-70244604D01*
X146086852Y-70352008D01*
X146089815Y-70439778D01*
X146104538Y-70507488D01*
X146133309Y-70573407D01*
X146188083Y-70666070D01*
X146264389Y-70756407D01*
X146360031Y-70829233D01*
X146482101Y-70887833D01*
X146637688Y-70935494D01*
X146833883Y-70975501D01*
X147077778Y-71011142D01*
X147207929Y-71027791D01*
X147207929Y-71325836D01*
X142769094Y-71325836D01*
X142769094Y-71027791D01*
X142899245Y-71009824D01*
X143164901Y-70962395D01*
X143400387Y-70894291D01*
X143607340Y-70801254D01*
X143791879Y-70678408D01*
X143960123Y-70520878D01*
X144118190Y-70323787D01*
X144272198Y-70082261D01*
X144428267Y-69791424D01*
X144450517Y-69743327D01*
X144493480Y-69645913D01*
X144555408Y-69503070D01*
X144635186Y-69317428D01*
X144731702Y-69091616D01*
X144843842Y-68828266D01*
X144970494Y-68530005D01*
X145110543Y-68199466D01*
X145262878Y-67839277D01*
X145426384Y-67452068D01*
X145599948Y-67040470D01*
X145653042Y-66914401D01*
X147346287Y-66914401D01*
X149238507Y-66914401D01*
X149412553Y-66914307D01*
X149729152Y-66913627D01*
X150023596Y-66912336D01*
X150291805Y-66910485D01*
X150529697Y-66908126D01*
X150733193Y-66905310D01*
X150898211Y-66902089D01*
X151020671Y-66898515D01*
X151096492Y-66894640D01*
X151121593Y-66890516D01*
X151120051Y-66886500D01*
X151089219Y-66809449D01*
X151040528Y-66691522D01*
X150975853Y-66537064D01*
X150897069Y-66350423D01*
X150806049Y-66135945D01*
X150704669Y-65897976D01*
X150594804Y-65640864D01*
X150478328Y-65368955D01*
X150357115Y-65086596D01*
X150233041Y-64798133D01*
X150107980Y-64507913D01*
X149983806Y-64220283D01*
X149862394Y-63939589D01*
X149745620Y-63670178D01*
X149635357Y-63416397D01*
X149533480Y-63182592D01*
X149441864Y-62973110D01*
X149362384Y-62792298D01*
X149296914Y-62644502D01*
X149247328Y-62534069D01*
X149215502Y-62465346D01*
X149203310Y-62442679D01*
X149203299Y-62442691D01*
X149191084Y-62469547D01*
X149159778Y-62542570D01*
X149111231Y-62657317D01*
X149047289Y-62809341D01*
X148969799Y-62994197D01*
X148880611Y-63207441D01*
X148781571Y-63444628D01*
X148674527Y-63701311D01*
X148561327Y-63973045D01*
X148443819Y-64255387D01*
X148323849Y-64543890D01*
X148203267Y-64834109D01*
X148083919Y-65121599D01*
X147967654Y-65401915D01*
X147856318Y-65670611D01*
X147751760Y-65923243D01*
X147655828Y-66155366D01*
X147570368Y-66362533D01*
X147497229Y-66540301D01*
X147438259Y-66684223D01*
X147395305Y-66789854D01*
X147370214Y-66852751D01*
X147346287Y-66914401D01*
X145653042Y-66914401D01*
X145782458Y-66607112D01*
X145972800Y-66154624D01*
X146169860Y-65685637D01*
X146372526Y-65202780D01*
X146579685Y-64708684D01*
X148600476Y-59886246D01*
X148760459Y-59879014D01*
X148920443Y-59871782D01*
X150947887Y-64619251D01*
X151119509Y-65020937D01*
X151325947Y-65503612D01*
X151527226Y-65973690D01*
X151722179Y-66428470D01*
X151909642Y-66865249D01*
X151920500Y-66890516D01*
X152088449Y-67281327D01*
X152257434Y-67674002D01*
G37*
G36*
X153978363Y-72158948D02*
G01*
X154095260Y-72215517D01*
X154128720Y-72237963D01*
X154173636Y-72263762D01*
X154191673Y-72260291D01*
X154194984Y-72229217D01*
X154195012Y-72226279D01*
X154204649Y-72193882D01*
X154241122Y-72178891D01*
X154318285Y-72175242D01*
X154391475Y-72180593D01*
X154435634Y-72196058D01*
X154435850Y-72216817D01*
X154386786Y-72237982D01*
X154379057Y-72240236D01*
X154357525Y-72253041D01*
X154343771Y-72280923D01*
X154336077Y-72333812D01*
X154332721Y-72421635D01*
X154331985Y-72554323D01*
X154331998Y-72568991D01*
X154334246Y-72709047D01*
X154341111Y-72804368D01*
X154353692Y-72864111D01*
X154373086Y-72897434D01*
X154397137Y-72924466D01*
X154414186Y-72954191D01*
X154396075Y-72961314D01*
X154336503Y-72967477D01*
X154249785Y-72969849D01*
X154175002Y-72968340D01*
X154110283Y-72963375D01*
X154085383Y-72956149D01*
X154100370Y-72931771D01*
X154140184Y-72887648D01*
X154168032Y-72841505D01*
X154191539Y-72747465D01*
X154200246Y-72631669D01*
X154194216Y-72511707D01*
X154173511Y-72405167D01*
X154138195Y-72329639D01*
X154131431Y-72321480D01*
X154060729Y-72269317D01*
X153981861Y-72252893D01*
X153911296Y-72272325D01*
X153865503Y-72327727D01*
X153860004Y-72344654D01*
X153845262Y-72428873D01*
X153838270Y-72537224D01*
X153838634Y-72653981D01*
X153845955Y-72763419D01*
X153859836Y-72849812D01*
X153879882Y-72897434D01*
X153889076Y-72906803D01*
X153914439Y-72940331D01*
X153905310Y-72959372D01*
X153854940Y-72967890D01*
X153756581Y-72969849D01*
X153681799Y-72968340D01*
X153617080Y-72963375D01*
X153592179Y-72956149D01*
X153607167Y-72931771D01*
X153646980Y-72887648D01*
X153664043Y-72868203D01*
X153683561Y-72830428D01*
X153695019Y-72774120D01*
X153700424Y-72687203D01*
X153701780Y-72557600D01*
X153701781Y-72552476D01*
X153702843Y-72426997D01*
X153707610Y-72343199D01*
X153718571Y-72288403D01*
X153738216Y-72249928D01*
X153769035Y-72215097D01*
X153781082Y-72203752D01*
X153873080Y-72155026D01*
X153978363Y-72158948D01*
G37*
G36*
X160581614Y-72154263D02*
G01*
X160649673Y-72165685D01*
X160757186Y-72210358D01*
X160827830Y-72279504D01*
X160853237Y-72366583D01*
X160843734Y-72433169D01*
X160807076Y-72494900D01*
X160734886Y-72555155D01*
X160618841Y-72623041D01*
X160536127Y-72671070D01*
X160471541Y-72723925D01*
X160446980Y-72772705D01*
X160456620Y-72850908D01*
X160511184Y-72898817D01*
X160609358Y-72915048D01*
X160645060Y-72913819D01*
X160712877Y-72895358D01*
X160759855Y-72846548D01*
X160789832Y-72807680D01*
X160836233Y-72778893D01*
X160868524Y-72800775D01*
X160880637Y-72872042D01*
X160879078Y-72910355D01*
X160862313Y-72958120D01*
X160818986Y-72977912D01*
X160723676Y-72991077D01*
X160583822Y-72991713D01*
X160462727Y-72970595D01*
X160371751Y-72930129D01*
X160322253Y-72872720D01*
X160305519Y-72788615D01*
X160317249Y-72690110D01*
X160359097Y-72614582D01*
X160386564Y-72591348D01*
X160460339Y-72541566D01*
X160547479Y-72492552D01*
X160605099Y-72460952D01*
X160678538Y-72403682D01*
X160704650Y-72346480D01*
X160687773Y-72282858D01*
X160639590Y-72242381D01*
X160564762Y-72228810D01*
X160485175Y-72243017D01*
X160422176Y-72284843D01*
X160406121Y-72302293D01*
X160353453Y-72336866D01*
X160318133Y-72321701D01*
X160305232Y-72257965D01*
X160305235Y-72256810D01*
X160319480Y-72196987D01*
X160365850Y-72161621D01*
X160451008Y-72148212D01*
X160581614Y-72154263D01*
G37*
G36*
X144086885Y-72158948D02*
G01*
X144203782Y-72215517D01*
X144237242Y-72237963D01*
X144282159Y-72263762D01*
X144300195Y-72260291D01*
X144303506Y-72229217D01*
X144303534Y-72226279D01*
X144313171Y-72193882D01*
X144349644Y-72178891D01*
X144426807Y-72175242D01*
X144499997Y-72180593D01*
X144544156Y-72196058D01*
X144544372Y-72216817D01*
X144495308Y-72237982D01*
X144487579Y-72240236D01*
X144466047Y-72253041D01*
X144452293Y-72280923D01*
X144444599Y-72333812D01*
X144441244Y-72421635D01*
X144440507Y-72554323D01*
X144440521Y-72568991D01*
X144442768Y-72709047D01*
X144449633Y-72804368D01*
X144462214Y-72864111D01*
X144481608Y-72897434D01*
X144505659Y-72924466D01*
X144522708Y-72954191D01*
X144504597Y-72961314D01*
X144445025Y-72967477D01*
X144358307Y-72969849D01*
X144283525Y-72968340D01*
X144218806Y-72963375D01*
X144193905Y-72956149D01*
X144208893Y-72931771D01*
X144248706Y-72887648D01*
X144276554Y-72841505D01*
X144300061Y-72747465D01*
X144308768Y-72631669D01*
X144302738Y-72511707D01*
X144282033Y-72405167D01*
X144246717Y-72329639D01*
X144239953Y-72321480D01*
X144169251Y-72269317D01*
X144090383Y-72252893D01*
X144019818Y-72272325D01*
X143974026Y-72327727D01*
X143968526Y-72344654D01*
X143953784Y-72428873D01*
X143946793Y-72537224D01*
X143947156Y-72653981D01*
X143954477Y-72763419D01*
X143968358Y-72849812D01*
X143988404Y-72897434D01*
X143997598Y-72906803D01*
X144022961Y-72940331D01*
X144013832Y-72959372D01*
X143963462Y-72967890D01*
X143865103Y-72969849D01*
X143790321Y-72968340D01*
X143725602Y-72963375D01*
X143700702Y-72956149D01*
X143715689Y-72931771D01*
X143755502Y-72887648D01*
X143772565Y-72868203D01*
X143792083Y-72830428D01*
X143803542Y-72774120D01*
X143808946Y-72687203D01*
X143810302Y-72557600D01*
X143810303Y-72552476D01*
X143811365Y-72426997D01*
X143816132Y-72343199D01*
X143827093Y-72288403D01*
X143846738Y-72249928D01*
X143877557Y-72215097D01*
X143889605Y-72203752D01*
X143981602Y-72155026D01*
X144086885Y-72158948D01*
G37*
G36*
X151332200Y-72863393D02*
G01*
X151273166Y-72940460D01*
X151176712Y-72987361D01*
X151060554Y-72989643D01*
X150941209Y-72942749D01*
X150892789Y-72915356D01*
X150860440Y-72907436D01*
X150852158Y-72929151D01*
X150847401Y-72945886D01*
X150810398Y-72964373D01*
X150728857Y-72969849D01*
X150692077Y-72969223D01*
X150630067Y-72964322D01*
X150605556Y-72956149D01*
X150620543Y-72931771D01*
X150660356Y-72887648D01*
X150680223Y-72864291D01*
X150698336Y-72825792D01*
X150708938Y-72767781D01*
X150713079Y-72693529D01*
X150852158Y-72693529D01*
X150862547Y-72757002D01*
X150919413Y-72847793D01*
X150923450Y-72851743D01*
X151006362Y-72903287D01*
X151092058Y-72910536D01*
X151165303Y-72871991D01*
X151195804Y-72828901D01*
X151201975Y-72760779D01*
X151164172Y-72697847D01*
X151088541Y-72648484D01*
X150981228Y-72621067D01*
X150852158Y-72606519D01*
X150852158Y-72693529D01*
X150713079Y-72693529D01*
X150713917Y-72678505D01*
X150715157Y-72546213D01*
X150716159Y-72416721D01*
X150720579Y-72328551D01*
X150730496Y-72271569D01*
X150747985Y-72233910D01*
X150775124Y-72203710D01*
X150815705Y-72177697D01*
X150902473Y-72156232D01*
X151004855Y-72156115D01*
X151108854Y-72174435D01*
X151200470Y-72208280D01*
X151265705Y-72254741D01*
X151290561Y-72310904D01*
X151285985Y-72339476D01*
X151254466Y-72365006D01*
X151201575Y-72351088D01*
X151137460Y-72298543D01*
X151134802Y-72295726D01*
X151074515Y-72249241D01*
X151017867Y-72230043D01*
X150996884Y-72231886D01*
X150924354Y-72268623D01*
X150872175Y-72341392D01*
X150852158Y-72435545D01*
X150854901Y-72488314D01*
X150872526Y-72523290D01*
X150915685Y-72531445D01*
X150958679Y-72534325D01*
X151059718Y-72555213D01*
X151163519Y-72590384D01*
X151251039Y-72632769D01*
X151303238Y-72675301D01*
X151303323Y-72675422D01*
X151338567Y-72760779D01*
X151342728Y-72770856D01*
X151332200Y-72863393D01*
G37*
G36*
X169626472Y-71874907D02*
G01*
X169609231Y-71892359D01*
X169592009Y-71918474D01*
X169580160Y-71956061D01*
X169572686Y-72013787D01*
X169568585Y-72100315D01*
X169566859Y-72224313D01*
X169566505Y-72394444D01*
X169566685Y-72527921D01*
X169567987Y-72662300D01*
X169571421Y-72757111D01*
X169577986Y-72821020D01*
X169588683Y-72862691D01*
X169604511Y-72890789D01*
X169626472Y-72913981D01*
X169686439Y-72969849D01*
X168881500Y-72969849D01*
X168881500Y-72819148D01*
X168883099Y-72768218D01*
X168897015Y-72692211D01*
X168922830Y-72667827D01*
X168957615Y-72696096D01*
X168998440Y-72778047D01*
X169041493Y-72887648D01*
X169402104Y-72887648D01*
X169402104Y-72421844D01*
X169278216Y-72421844D01*
X169276263Y-72421846D01*
X169196258Y-72426771D01*
X169151480Y-72446835D01*
X169123116Y-72490345D01*
X169106675Y-72522576D01*
X169071348Y-72561965D01*
X169043433Y-72549943D01*
X169025095Y-72488780D01*
X169018501Y-72380744D01*
X169019689Y-72330044D01*
X169031454Y-72241319D01*
X169054057Y-72200414D01*
X169085333Y-72209599D01*
X169123116Y-72271143D01*
X169123610Y-72272223D01*
X169152108Y-72315218D01*
X169197372Y-72334922D01*
X169278216Y-72339644D01*
X169402104Y-72339644D01*
X169402104Y-71898737D01*
X169217413Y-71906838D01*
X169203650Y-71907456D01*
X169109177Y-71913929D01*
X169053050Y-71926167D01*
X169020489Y-71949758D01*
X168996716Y-71990291D01*
X168955102Y-72053325D01*
X168917877Y-72065843D01*
X168891510Y-72028086D01*
X168881500Y-71942341D01*
X168881500Y-71819040D01*
X169686439Y-71819040D01*
X169626472Y-71874907D01*
G37*
G36*
X165022759Y-72180593D02*
G01*
X165066918Y-72196058D01*
X165067133Y-72216817D01*
X165018069Y-72237982D01*
X165010341Y-72240236D01*
X164988808Y-72253041D01*
X164975055Y-72280923D01*
X164967360Y-72333812D01*
X164964005Y-72421635D01*
X164963269Y-72554323D01*
X164963282Y-72568991D01*
X164965529Y-72709047D01*
X164972395Y-72804368D01*
X164984976Y-72864111D01*
X165004369Y-72897434D01*
X165028421Y-72924466D01*
X165045470Y-72954191D01*
X165027359Y-72961314D01*
X164967787Y-72967477D01*
X164881068Y-72969849D01*
X164806286Y-72968340D01*
X164741567Y-72963375D01*
X164716667Y-72956149D01*
X164731654Y-72931771D01*
X164771467Y-72887648D01*
X164777623Y-72881264D01*
X164799224Y-72850992D01*
X164813355Y-72808867D01*
X164821551Y-72744156D01*
X164825344Y-72646126D01*
X164826268Y-72504045D01*
X164826268Y-72175242D01*
X164949569Y-72175242D01*
X165022759Y-72180593D01*
G37*
G36*
X148228814Y-72753761D02*
G01*
X148181931Y-72870565D01*
X148108934Y-72952568D01*
X148007280Y-72992371D01*
X147891496Y-72984543D01*
X147773457Y-72929574D01*
X147739997Y-72907128D01*
X147695081Y-72881329D01*
X147677044Y-72884801D01*
X147673733Y-72915874D01*
X147673705Y-72918813D01*
X147664068Y-72951209D01*
X147627595Y-72966200D01*
X147550432Y-72969849D01*
X147513652Y-72969223D01*
X147451642Y-72964322D01*
X147427131Y-72956149D01*
X147442118Y-72931771D01*
X147481931Y-72887648D01*
X147483592Y-72885974D01*
X147502114Y-72863427D01*
X147515763Y-72833631D01*
X147525278Y-72788661D01*
X147531395Y-72720592D01*
X147534851Y-72621500D01*
X147536121Y-72507184D01*
X147670733Y-72507184D01*
X147675609Y-72629489D01*
X147695705Y-72738920D01*
X147730522Y-72815452D01*
X147804188Y-72872857D01*
X147894017Y-72892499D01*
X147981328Y-72873731D01*
X148047894Y-72816494D01*
X148074206Y-72758834D01*
X148095697Y-72647322D01*
X148097107Y-72522926D01*
X148078740Y-72407054D01*
X148040897Y-72321111D01*
X148030518Y-72308299D01*
X147955087Y-72252906D01*
X147865894Y-72230147D01*
X147780733Y-72241762D01*
X147717402Y-72289490D01*
X147708640Y-72304049D01*
X147681577Y-72392029D01*
X147670733Y-72507184D01*
X147536121Y-72507184D01*
X147536384Y-72483458D01*
X147536732Y-72298543D01*
X147536732Y-71764239D01*
X147660033Y-71764239D01*
X147696881Y-71765497D01*
X147758844Y-71775299D01*
X147783334Y-71791639D01*
X147779706Y-71803265D01*
X147745165Y-71819040D01*
X147731513Y-71820670D01*
X147698088Y-71850002D01*
X147679490Y-71920801D01*
X147673733Y-72039191D01*
X147673733Y-72172661D01*
X147806465Y-72156940D01*
X147871371Y-72152905D01*
X148010749Y-72175258D01*
X148120490Y-72241939D01*
X148197211Y-72351265D01*
X148235743Y-72473622D01*
X148239782Y-72522926D01*
X148247459Y-72616624D01*
X148228814Y-72753761D01*
G37*
G36*
X158873509Y-72651405D02*
G01*
X158841601Y-72778687D01*
X158779116Y-72886633D01*
X158685978Y-72962595D01*
X158598726Y-72990201D01*
X158470368Y-72990652D01*
X158342966Y-72952817D01*
X158264398Y-72909382D01*
X158229873Y-72871217D01*
X158236454Y-72832948D01*
X158267526Y-72823353D01*
X158332611Y-72846648D01*
X158435637Y-72880886D01*
X158539406Y-72882594D01*
X158629125Y-72854609D01*
X158692196Y-72800913D01*
X158716020Y-72725488D01*
X158718049Y-72695117D01*
X158732651Y-72629587D01*
X158735243Y-72613702D01*
X158720785Y-72599485D01*
X158678037Y-72591150D01*
X158598169Y-72587227D01*
X158472349Y-72586246D01*
X158195416Y-72586246D01*
X158195416Y-72488984D01*
X158197174Y-72462065D01*
X158332417Y-72462065D01*
X158335643Y-72476366D01*
X158361052Y-72493250D01*
X158420468Y-72501723D01*
X158524218Y-72504045D01*
X158567885Y-72503946D01*
X158650568Y-72501448D01*
X158694874Y-72492515D01*
X158712719Y-72473121D01*
X158716020Y-72439240D01*
X158713382Y-72408373D01*
X158674519Y-72319261D01*
X158600796Y-72254838D01*
X158507131Y-72230043D01*
X158449711Y-72234535D01*
X158406238Y-72260958D01*
X158372119Y-72325064D01*
X158367416Y-72336614D01*
X158342551Y-72409869D01*
X158332417Y-72462065D01*
X158197174Y-72462065D01*
X158199394Y-72428062D01*
X158239062Y-72302863D01*
X158314934Y-72212074D01*
X158419165Y-72160461D01*
X158543911Y-72152787D01*
X158681327Y-72193819D01*
X158696909Y-72201845D01*
X158786541Y-72280007D01*
X158845903Y-72389418D01*
X158857195Y-72439240D01*
X158874918Y-72517433D01*
X158873509Y-72651405D01*
G37*
G36*
X159784628Y-71969741D02*
G01*
X159783342Y-72017138D01*
X159770316Y-72094807D01*
X159744862Y-72120101D01*
X159708966Y-72092340D01*
X159664618Y-72010841D01*
X159653963Y-71987208D01*
X159620213Y-71929896D01*
X159578570Y-71906016D01*
X159508644Y-71901240D01*
X159401025Y-71901240D01*
X159401025Y-72380512D01*
X159401219Y-72517411D01*
X159402508Y-72654399D01*
X159405768Y-72750887D01*
X159411865Y-72814984D01*
X159421663Y-72854798D01*
X159436028Y-72878436D01*
X159455826Y-72894007D01*
X159490086Y-72920001D01*
X159510626Y-72949040D01*
X159510475Y-72949868D01*
X159481864Y-72959966D01*
X159413361Y-72967127D01*
X159318825Y-72969849D01*
X159259723Y-72968599D01*
X159174881Y-72960161D01*
X159130412Y-72945632D01*
X159131123Y-72927214D01*
X159181823Y-72907109D01*
X159182369Y-72906966D01*
X159201664Y-72899121D01*
X159215749Y-72882242D01*
X159225442Y-72848699D01*
X159231559Y-72790867D01*
X159234917Y-72701117D01*
X159236333Y-72571822D01*
X159236624Y-72395355D01*
X159236624Y-71897932D01*
X159133873Y-71906436D01*
X159069658Y-71917195D01*
X159021899Y-71949218D01*
X158980915Y-72017691D01*
X158961494Y-72054529D01*
X158917146Y-72112421D01*
X158882903Y-72117068D01*
X158860837Y-72069249D01*
X158853021Y-71969741D01*
X158853021Y-71819040D01*
X159784628Y-71819040D01*
X159784628Y-71969741D01*
G37*
G36*
X153432468Y-72180593D02*
G01*
X153476626Y-72196058D01*
X153476842Y-72216817D01*
X153427778Y-72237982D01*
X153420050Y-72240236D01*
X153398517Y-72253041D01*
X153384764Y-72280923D01*
X153377069Y-72333812D01*
X153373714Y-72421635D01*
X153372978Y-72554323D01*
X153372991Y-72568991D01*
X153375238Y-72709047D01*
X153382104Y-72804368D01*
X153394685Y-72864111D01*
X153414078Y-72897434D01*
X153438129Y-72924466D01*
X153455178Y-72954191D01*
X153437068Y-72961314D01*
X153377495Y-72967477D01*
X153290777Y-72969849D01*
X153215995Y-72968340D01*
X153151276Y-72963375D01*
X153126376Y-72956149D01*
X153141363Y-72931771D01*
X153181176Y-72887648D01*
X153187332Y-72881264D01*
X153208932Y-72850992D01*
X153223064Y-72808867D01*
X153231260Y-72744156D01*
X153235053Y-72646126D01*
X153235977Y-72504045D01*
X153235977Y-72175242D01*
X153359278Y-72175242D01*
X153432468Y-72180593D01*
G37*
G36*
X150040902Y-72762527D02*
G01*
X150083598Y-72850137D01*
X150112091Y-72892040D01*
X150148410Y-72926086D01*
X150167152Y-72953691D01*
X150143909Y-72961647D01*
X150079760Y-72967581D01*
X149989051Y-72969849D01*
X149901349Y-72967740D01*
X149835947Y-72961920D01*
X149810950Y-72953691D01*
X149825522Y-72931113D01*
X149867744Y-72891543D01*
X149886509Y-72875347D01*
X149908560Y-72842708D01*
X149909476Y-72795948D01*
X149891892Y-72715900D01*
X149859244Y-72586246D01*
X149660191Y-72586246D01*
X149627783Y-72586314D01*
X149536630Y-72588766D01*
X149484180Y-72597427D01*
X149457740Y-72615927D01*
X149444617Y-72647896D01*
X149433496Y-72700834D01*
X149427813Y-72794026D01*
X149439976Y-72867664D01*
X149468447Y-72905140D01*
X149480778Y-72910226D01*
X149511331Y-72933827D01*
X149491771Y-72952735D01*
X149425957Y-72965294D01*
X149317746Y-72969849D01*
X149317560Y-72969849D01*
X149219211Y-72966216D01*
X149151287Y-72956504D01*
X149125944Y-72942449D01*
X149126706Y-72935928D01*
X149152380Y-72915048D01*
X149154329Y-72914979D01*
X149179597Y-72900753D01*
X149207337Y-72857564D01*
X149240127Y-72779332D01*
X149280547Y-72659974D01*
X149327943Y-72504045D01*
X149486015Y-72504045D01*
X149648482Y-72504045D01*
X149721466Y-72501851D01*
X149786070Y-72494434D01*
X149810950Y-72483588D01*
X149805910Y-72457568D01*
X149786507Y-72390154D01*
X149757356Y-72299080D01*
X149723639Y-72199551D01*
X149690538Y-72106772D01*
X149663236Y-72035946D01*
X149646913Y-72002279D01*
X149646571Y-72001915D01*
X149627603Y-72009500D01*
X149610276Y-72057079D01*
X149595514Y-72117785D01*
X149569948Y-72213215D01*
X149539941Y-72319094D01*
X149486015Y-72504045D01*
X149327943Y-72504045D01*
X149331176Y-72493410D01*
X149374632Y-72345638D01*
X149427312Y-72166714D01*
X149468005Y-72030654D01*
X149499005Y-71931724D01*
X149522606Y-71864193D01*
X149541102Y-71822325D01*
X149556788Y-71800388D01*
X149571959Y-71792649D01*
X149588908Y-71793374D01*
X149609929Y-71796829D01*
X149612681Y-71797192D01*
X149637361Y-71804524D01*
X149660543Y-71823440D01*
X149685493Y-71860632D01*
X149715478Y-71922788D01*
X149753766Y-72016599D01*
X149803623Y-72148754D01*
X149868316Y-72325944D01*
X149923929Y-72475794D01*
X149926993Y-72483588D01*
X149986760Y-72635611D01*
X150040902Y-72762527D01*
G37*
G36*
X156551805Y-71956083D02*
G01*
X156594566Y-71977846D01*
X156619903Y-72045091D01*
X156654022Y-72125845D01*
X156711131Y-72195657D01*
X156784305Y-72257171D01*
X156633603Y-72257443D01*
X156633603Y-72560091D01*
X156633530Y-72614820D01*
X156631918Y-72731501D01*
X156626544Y-72809537D01*
X156615257Y-72860751D01*
X156595908Y-72896963D01*
X156566348Y-72929994D01*
X156505767Y-72973940D01*
X156419342Y-72997249D01*
X156391253Y-72994455D01*
X156322644Y-72971282D01*
X156259494Y-72933360D01*
X156217342Y-72891289D01*
X156211732Y-72855666D01*
X156223772Y-72844082D01*
X156258573Y-72857860D01*
X156296098Y-72877310D01*
X156362401Y-72887648D01*
X156399461Y-72881621D01*
X156444638Y-72844977D01*
X156474697Y-72770428D01*
X156491424Y-72652634D01*
X156496602Y-72486256D01*
X156496602Y-72257443D01*
X156359601Y-72257443D01*
X156288046Y-72254813D01*
X156237267Y-72242189D01*
X156222600Y-72216343D01*
X156231367Y-72194876D01*
X156273446Y-72179642D01*
X156359601Y-72175242D01*
X156496602Y-72175242D01*
X156496602Y-72065642D01*
X156499389Y-72005386D01*
X156514634Y-71966042D01*
X156549226Y-71956041D01*
X156551805Y-71956083D01*
G37*
G36*
X167367576Y-72651405D02*
G01*
X167335668Y-72778687D01*
X167273183Y-72886633D01*
X167180045Y-72962595D01*
X167092793Y-72990201D01*
X166964435Y-72990652D01*
X166837033Y-72952817D01*
X166758464Y-72909382D01*
X166723940Y-72871217D01*
X166730521Y-72832948D01*
X166761592Y-72823353D01*
X166826678Y-72846648D01*
X166929704Y-72880886D01*
X167033473Y-72882594D01*
X167123192Y-72854609D01*
X167186263Y-72800913D01*
X167210087Y-72725488D01*
X167212116Y-72695117D01*
X167226718Y-72629587D01*
X167229310Y-72613702D01*
X167214852Y-72599485D01*
X167172104Y-72591150D01*
X167092235Y-72587227D01*
X166966416Y-72586246D01*
X166689483Y-72586246D01*
X166689483Y-72488984D01*
X166691241Y-72462065D01*
X166826484Y-72462065D01*
X166829710Y-72476366D01*
X166855119Y-72493250D01*
X166914535Y-72501723D01*
X167018285Y-72504045D01*
X167061952Y-72503946D01*
X167144635Y-72501448D01*
X167188941Y-72492515D01*
X167206786Y-72473121D01*
X167210087Y-72439240D01*
X167207449Y-72408373D01*
X167168586Y-72319261D01*
X167094863Y-72254838D01*
X167001198Y-72230043D01*
X166943778Y-72234535D01*
X166900305Y-72260958D01*
X166866186Y-72325064D01*
X166861483Y-72336614D01*
X166836618Y-72409869D01*
X166826484Y-72462065D01*
X166691241Y-72462065D01*
X166693461Y-72428062D01*
X166733129Y-72302863D01*
X166809001Y-72212074D01*
X166913232Y-72160461D01*
X167037978Y-72152787D01*
X167175393Y-72193819D01*
X167190976Y-72201845D01*
X167280608Y-72280007D01*
X167339970Y-72389418D01*
X167351262Y-72439240D01*
X167368985Y-72517433D01*
X167367576Y-72651405D01*
G37*
G36*
X165456875Y-71956083D02*
G01*
X165499637Y-71977846D01*
X165524973Y-72045091D01*
X165559092Y-72125845D01*
X165616201Y-72195657D01*
X165689375Y-72257171D01*
X165614024Y-72257307D01*
X165538674Y-72257443D01*
X165538674Y-72560091D01*
X165538600Y-72614820D01*
X165536989Y-72731501D01*
X165531614Y-72809537D01*
X165520327Y-72860751D01*
X165500978Y-72896963D01*
X165471418Y-72929994D01*
X165410838Y-72973940D01*
X165324412Y-72997249D01*
X165296323Y-72994455D01*
X165227714Y-72971282D01*
X165164564Y-72933360D01*
X165122413Y-72891289D01*
X165116802Y-72855666D01*
X165128842Y-72844082D01*
X165163643Y-72857860D01*
X165201168Y-72877310D01*
X165267471Y-72887648D01*
X165304531Y-72881621D01*
X165349708Y-72844977D01*
X165379767Y-72770428D01*
X165396494Y-72652634D01*
X165401672Y-72486256D01*
X165401672Y-72257443D01*
X165264671Y-72257443D01*
X165193116Y-72254813D01*
X165142337Y-72242189D01*
X165127670Y-72216343D01*
X165136437Y-72194876D01*
X165178516Y-72179642D01*
X165264671Y-72175242D01*
X165401672Y-72175242D01*
X165401672Y-72065642D01*
X165404459Y-72005386D01*
X165419704Y-71966042D01*
X165454296Y-71956041D01*
X165456875Y-71956083D01*
G37*
G36*
X152163116Y-71765497D02*
G01*
X152225079Y-71775299D01*
X152249569Y-71791639D01*
X152245941Y-71803265D01*
X152211400Y-71819040D01*
X152189942Y-71822964D01*
X152171100Y-71841077D01*
X152157606Y-71880200D01*
X152148603Y-71947090D01*
X152143234Y-72048502D01*
X152140642Y-72191193D01*
X152139968Y-72381918D01*
X152140201Y-72534182D01*
X152141609Y-72666325D01*
X152145155Y-72759566D01*
X152151800Y-72822428D01*
X152162505Y-72863436D01*
X152178230Y-72891112D01*
X152199935Y-72913981D01*
X152259902Y-72969849D01*
X152076118Y-72969849D01*
X151984043Y-72967959D01*
X151918399Y-72963039D01*
X151893366Y-72956149D01*
X151908353Y-72931771D01*
X151948166Y-72887648D01*
X151965271Y-72867727D01*
X151994363Y-72799448D01*
X152002967Y-72695847D01*
X152002783Y-72667978D01*
X151997688Y-72598459D01*
X151981714Y-72566527D01*
X151949674Y-72558846D01*
X151906157Y-72579225D01*
X151847510Y-72635041D01*
X151785943Y-72711681D01*
X151732025Y-72794485D01*
X151696325Y-72868787D01*
X151689412Y-72919926D01*
X151693084Y-72944684D01*
X151676268Y-72961001D01*
X151626627Y-72968221D01*
X151533195Y-72969849D01*
X151361132Y-72969849D01*
X151448374Y-72894498D01*
X151506382Y-72837482D01*
X151582760Y-72751933D01*
X151657627Y-72659465D01*
X151779638Y-72499782D01*
X151635544Y-72371762D01*
X151557258Y-72304059D01*
X151485728Y-72245547D01*
X151438956Y-72211104D01*
X151420416Y-72195260D01*
X151432509Y-72184596D01*
X151485015Y-72179021D01*
X151585114Y-72176854D01*
X151642693Y-72176784D01*
X151731774Y-72180552D01*
X151773691Y-72191600D01*
X151773594Y-72212234D01*
X151736634Y-72244765D01*
X151716517Y-72263067D01*
X151713496Y-72288407D01*
X151740210Y-72327327D01*
X151801911Y-72391637D01*
X151856025Y-72444288D01*
X151914255Y-72491967D01*
X151954723Y-72505361D01*
X151980629Y-72480373D01*
X151995172Y-72412905D01*
X152001551Y-72298861D01*
X152002967Y-72134142D01*
X152002967Y-71764239D01*
X152126268Y-71764239D01*
X152163116Y-71765497D01*
G37*
G36*
X161403821Y-72158948D02*
G01*
X161520718Y-72215517D01*
X161554179Y-72237963D01*
X161599095Y-72263762D01*
X161617131Y-72260291D01*
X161620443Y-72229217D01*
X161620470Y-72226279D01*
X161630107Y-72193882D01*
X161666580Y-72178891D01*
X161743744Y-72175242D01*
X161816934Y-72180593D01*
X161861092Y-72196058D01*
X161861308Y-72216817D01*
X161812244Y-72237982D01*
X161804516Y-72240236D01*
X161782983Y-72253041D01*
X161769230Y-72280923D01*
X161761535Y-72333812D01*
X161758180Y-72421635D01*
X161757444Y-72554323D01*
X161757457Y-72568991D01*
X161759704Y-72709047D01*
X161766570Y-72804368D01*
X161779151Y-72864111D01*
X161798544Y-72897434D01*
X161822595Y-72924466D01*
X161839644Y-72954191D01*
X161821534Y-72961314D01*
X161761961Y-72967477D01*
X161675243Y-72969849D01*
X161600461Y-72968340D01*
X161535742Y-72963375D01*
X161510842Y-72956149D01*
X161525829Y-72931771D01*
X161565642Y-72887648D01*
X161593491Y-72841505D01*
X161616997Y-72747465D01*
X161625704Y-72631669D01*
X161619674Y-72511707D01*
X161598970Y-72405167D01*
X161563654Y-72329639D01*
X161556889Y-72321480D01*
X161486188Y-72269317D01*
X161407319Y-72252893D01*
X161336754Y-72272325D01*
X161290962Y-72327727D01*
X161285463Y-72344654D01*
X161270720Y-72428873D01*
X161263729Y-72537224D01*
X161264092Y-72653981D01*
X161271413Y-72763419D01*
X161285295Y-72849812D01*
X161305340Y-72897434D01*
X161314534Y-72906803D01*
X161339897Y-72940331D01*
X161330769Y-72959372D01*
X161280399Y-72967890D01*
X161182039Y-72969849D01*
X161107257Y-72968340D01*
X161042538Y-72963375D01*
X161017638Y-72956149D01*
X161032625Y-72931771D01*
X161072438Y-72887648D01*
X161089501Y-72868203D01*
X161109019Y-72830428D01*
X161120478Y-72774120D01*
X161125883Y-72687203D01*
X161127239Y-72557600D01*
X161127239Y-72552476D01*
X161128302Y-72426997D01*
X161133068Y-72343199D01*
X161144029Y-72288403D01*
X161163675Y-72249928D01*
X161194494Y-72215097D01*
X161206541Y-72203752D01*
X161298538Y-72155026D01*
X161403821Y-72158948D01*
G37*
G36*
X146381671Y-71765497D02*
G01*
X146443633Y-71775299D01*
X146468123Y-71791639D01*
X146464495Y-71803265D01*
X146429955Y-71819040D01*
X146408496Y-71822964D01*
X146389654Y-71841077D01*
X146376160Y-71880200D01*
X146367158Y-71947090D01*
X146361789Y-72048502D01*
X146359196Y-72191193D01*
X146358522Y-72381918D01*
X146358756Y-72534182D01*
X146360164Y-72666325D01*
X146363710Y-72759566D01*
X146370355Y-72822428D01*
X146381059Y-72863436D01*
X146396784Y-72891112D01*
X146418490Y-72913981D01*
X146478457Y-72969849D01*
X146294673Y-72969849D01*
X146202598Y-72967959D01*
X146136953Y-72963039D01*
X146111921Y-72956149D01*
X146126908Y-72931771D01*
X146166721Y-72887648D01*
X146168382Y-72885974D01*
X146186903Y-72863427D01*
X146200553Y-72833631D01*
X146210067Y-72788661D01*
X146216184Y-72720592D01*
X146219641Y-72621500D01*
X146221174Y-72483458D01*
X146221521Y-72298543D01*
X146221521Y-71764239D01*
X146344822Y-71764239D01*
X146381671Y-71765497D01*
G37*
G36*
X166466029Y-71765497D02*
G01*
X166527992Y-71775299D01*
X166552481Y-71791639D01*
X166548854Y-71803265D01*
X166514313Y-71819040D01*
X166492854Y-71822964D01*
X166474012Y-71841077D01*
X166460518Y-71880200D01*
X166451516Y-71947090D01*
X166446147Y-72048502D01*
X166443554Y-72191193D01*
X166442881Y-72381918D01*
X166443114Y-72534182D01*
X166444522Y-72666325D01*
X166448068Y-72759566D01*
X166454713Y-72822428D01*
X166465418Y-72863436D01*
X166481142Y-72891112D01*
X166502848Y-72913981D01*
X166562815Y-72969849D01*
X166379031Y-72969849D01*
X166286956Y-72967959D01*
X166221312Y-72963039D01*
X166196279Y-72956149D01*
X166211266Y-72931771D01*
X166251079Y-72887648D01*
X166268183Y-72867727D01*
X166297275Y-72799448D01*
X166305880Y-72695847D01*
X166305696Y-72667978D01*
X166300601Y-72598459D01*
X166284627Y-72566527D01*
X166252587Y-72558846D01*
X166209070Y-72579225D01*
X166150423Y-72635041D01*
X166088856Y-72711681D01*
X166034938Y-72794485D01*
X165999238Y-72868787D01*
X165992325Y-72919926D01*
X165995997Y-72944684D01*
X165979180Y-72961001D01*
X165929540Y-72968221D01*
X165836107Y-72969849D01*
X165664045Y-72969849D01*
X165751287Y-72894498D01*
X165809295Y-72837482D01*
X165885673Y-72751933D01*
X165960539Y-72659465D01*
X166082550Y-72499782D01*
X165938457Y-72371762D01*
X165860171Y-72304059D01*
X165788641Y-72245547D01*
X165741869Y-72211104D01*
X165723328Y-72195260D01*
X165735421Y-72184596D01*
X165787927Y-72179021D01*
X165888026Y-72176854D01*
X165945606Y-72176784D01*
X166034687Y-72180552D01*
X166076604Y-72191600D01*
X166076507Y-72212234D01*
X166039546Y-72244765D01*
X166019430Y-72263067D01*
X166016409Y-72288407D01*
X166043123Y-72327327D01*
X166104823Y-72391637D01*
X166158938Y-72444288D01*
X166217168Y-72491967D01*
X166257636Y-72505361D01*
X166283542Y-72480373D01*
X166298084Y-72412905D01*
X166304464Y-72298861D01*
X166305880Y-72134142D01*
X166305880Y-71764239D01*
X166429181Y-71764239D01*
X166466029Y-71765497D01*
G37*
G36*
X162682139Y-72651405D02*
G01*
X162650231Y-72778687D01*
X162587746Y-72886633D01*
X162494608Y-72962595D01*
X162407356Y-72990201D01*
X162278998Y-72990652D01*
X162151596Y-72952817D01*
X162073028Y-72909382D01*
X162038503Y-72871217D01*
X162045084Y-72832948D01*
X162076156Y-72823353D01*
X162141241Y-72846648D01*
X162244267Y-72880886D01*
X162348036Y-72882594D01*
X162437755Y-72854609D01*
X162500826Y-72800913D01*
X162524650Y-72725488D01*
X162526679Y-72695117D01*
X162541281Y-72629587D01*
X162543873Y-72613702D01*
X162529415Y-72599485D01*
X162486667Y-72591150D01*
X162406799Y-72587227D01*
X162280979Y-72586246D01*
X162004046Y-72586246D01*
X162004046Y-72488984D01*
X162005804Y-72462065D01*
X162141047Y-72462065D01*
X162144273Y-72476366D01*
X162169682Y-72493250D01*
X162229098Y-72501723D01*
X162332848Y-72504045D01*
X162376515Y-72503946D01*
X162459198Y-72501448D01*
X162503504Y-72492515D01*
X162521349Y-72473121D01*
X162524650Y-72439240D01*
X162522012Y-72408373D01*
X162483149Y-72319261D01*
X162409426Y-72254838D01*
X162315761Y-72230043D01*
X162258341Y-72234535D01*
X162214868Y-72260958D01*
X162180749Y-72325064D01*
X162176046Y-72336614D01*
X162151181Y-72409869D01*
X162141047Y-72462065D01*
X162005804Y-72462065D01*
X162008024Y-72428062D01*
X162047692Y-72302863D01*
X162123564Y-72212074D01*
X162227795Y-72160461D01*
X162352541Y-72152787D01*
X162489957Y-72193819D01*
X162505539Y-72201845D01*
X162595171Y-72280007D01*
X162654533Y-72389418D01*
X162665825Y-72439240D01*
X162683548Y-72517433D01*
X162682139Y-72651405D01*
G37*
G36*
X144993201Y-72180593D02*
G01*
X145037360Y-72196058D01*
X145037576Y-72216817D01*
X144988512Y-72237982D01*
X144980783Y-72240236D01*
X144959251Y-72253041D01*
X144945497Y-72280923D01*
X144937803Y-72333812D01*
X144934447Y-72421635D01*
X144933711Y-72554323D01*
X144933724Y-72568991D01*
X144935972Y-72709047D01*
X144942837Y-72804368D01*
X144955418Y-72864111D01*
X144974812Y-72897434D01*
X144998863Y-72924466D01*
X145015912Y-72954191D01*
X144997801Y-72961314D01*
X144938229Y-72967477D01*
X144851511Y-72969849D01*
X144776728Y-72968340D01*
X144712009Y-72963375D01*
X144687109Y-72956149D01*
X144702096Y-72931771D01*
X144741910Y-72887648D01*
X144748065Y-72881264D01*
X144769666Y-72850992D01*
X144783798Y-72808867D01*
X144791993Y-72744156D01*
X144795787Y-72646126D01*
X144796710Y-72504045D01*
X144796710Y-72175242D01*
X144920011Y-72175242D01*
X144993201Y-72180593D01*
G37*
G36*
X157971962Y-71765497D02*
G01*
X158033925Y-71775299D01*
X158058415Y-71791639D01*
X158054787Y-71803265D01*
X158020246Y-71819040D01*
X157998787Y-71822964D01*
X157979945Y-71841077D01*
X157966452Y-71880200D01*
X157957449Y-71947090D01*
X157952080Y-72048502D01*
X157949487Y-72191193D01*
X157948814Y-72381918D01*
X157949047Y-72534182D01*
X157950455Y-72666325D01*
X157954001Y-72759566D01*
X157960646Y-72822428D01*
X157971351Y-72863436D01*
X157987075Y-72891112D01*
X158008781Y-72913981D01*
X158068748Y-72969849D01*
X157884964Y-72969849D01*
X157792889Y-72967959D01*
X157727245Y-72963039D01*
X157702212Y-72956149D01*
X157717199Y-72931771D01*
X157757012Y-72887648D01*
X157758673Y-72885974D01*
X157777195Y-72863427D01*
X157790844Y-72833631D01*
X157800359Y-72788661D01*
X157806476Y-72720592D01*
X157809932Y-72621500D01*
X157811465Y-72483458D01*
X157811813Y-72298543D01*
X157811813Y-71764239D01*
X157935114Y-71764239D01*
X157971962Y-71765497D01*
G37*
G36*
X152662952Y-72154263D02*
G01*
X152731011Y-72165685D01*
X152838524Y-72210358D01*
X152909167Y-72279504D01*
X152934574Y-72366583D01*
X152925072Y-72433169D01*
X152888413Y-72494900D01*
X152816224Y-72555155D01*
X152700179Y-72623041D01*
X152617464Y-72671070D01*
X152552879Y-72723925D01*
X152528318Y-72772705D01*
X152537958Y-72850908D01*
X152592522Y-72898817D01*
X152690696Y-72915048D01*
X152726398Y-72913819D01*
X152794214Y-72895358D01*
X152841193Y-72846548D01*
X152871169Y-72807680D01*
X152917570Y-72778893D01*
X152949862Y-72800775D01*
X152961974Y-72872042D01*
X152960416Y-72910355D01*
X152943651Y-72958120D01*
X152900324Y-72977912D01*
X152805013Y-72991077D01*
X152665159Y-72991713D01*
X152544065Y-72970595D01*
X152453089Y-72930129D01*
X152403590Y-72872720D01*
X152386857Y-72788615D01*
X152398587Y-72690110D01*
X152440435Y-72614582D01*
X152467902Y-72591348D01*
X152541677Y-72541566D01*
X152628817Y-72492552D01*
X152686436Y-72460952D01*
X152759876Y-72403682D01*
X152785987Y-72346480D01*
X152769111Y-72282858D01*
X152720927Y-72242381D01*
X152646099Y-72228810D01*
X152566513Y-72243017D01*
X152503513Y-72284843D01*
X152487458Y-72302293D01*
X152434791Y-72336866D01*
X152399471Y-72321701D01*
X152386570Y-72257965D01*
X152386573Y-72256810D01*
X152400817Y-72196987D01*
X152447188Y-72161621D01*
X152532345Y-72148212D01*
X152662952Y-72154263D01*
G37*
G36*
X147283218Y-72651405D02*
G01*
X147251310Y-72778687D01*
X147188825Y-72886633D01*
X147095687Y-72962595D01*
X147008434Y-72990201D01*
X146880077Y-72990652D01*
X146752674Y-72952817D01*
X146674106Y-72909382D01*
X146639582Y-72871217D01*
X146646163Y-72832948D01*
X146677234Y-72823353D01*
X146742320Y-72846648D01*
X146845346Y-72880886D01*
X146949114Y-72882594D01*
X147038834Y-72854609D01*
X147101905Y-72800913D01*
X147125729Y-72725488D01*
X147127758Y-72695117D01*
X147142360Y-72629587D01*
X147144952Y-72613702D01*
X147130494Y-72599485D01*
X147087746Y-72591150D01*
X147007877Y-72587227D01*
X146882058Y-72586246D01*
X146605124Y-72586246D01*
X146605124Y-72488984D01*
X146606882Y-72462065D01*
X146742126Y-72462065D01*
X146745352Y-72476366D01*
X146770761Y-72493250D01*
X146830177Y-72501723D01*
X146933927Y-72504045D01*
X146977593Y-72503946D01*
X147060277Y-72501448D01*
X147104583Y-72492515D01*
X147122428Y-72473121D01*
X147125729Y-72439240D01*
X147123091Y-72408373D01*
X147084228Y-72319261D01*
X147010504Y-72254838D01*
X146916840Y-72230043D01*
X146859420Y-72234535D01*
X146815946Y-72260958D01*
X146781828Y-72325064D01*
X146777125Y-72336614D01*
X146752260Y-72409869D01*
X146742126Y-72462065D01*
X146606882Y-72462065D01*
X146609103Y-72428062D01*
X146648771Y-72302863D01*
X146724643Y-72212074D01*
X146828874Y-72160461D01*
X146953620Y-72152787D01*
X147091035Y-72193819D01*
X147106618Y-72201845D01*
X147196250Y-72280007D01*
X147255612Y-72389418D01*
X147266904Y-72439240D01*
X147284627Y-72517433D01*
X147283218Y-72651405D01*
G37*
G36*
X163212236Y-72158948D02*
G01*
X163329133Y-72215517D01*
X163362593Y-72237963D01*
X163407509Y-72263762D01*
X163425546Y-72260291D01*
X163428857Y-72229217D01*
X163428885Y-72226279D01*
X163438522Y-72193882D01*
X163474994Y-72178891D01*
X163552158Y-72175242D01*
X163625348Y-72180593D01*
X163669507Y-72196058D01*
X163669722Y-72216817D01*
X163620658Y-72237982D01*
X163612930Y-72240236D01*
X163591397Y-72253041D01*
X163577644Y-72280923D01*
X163569949Y-72333812D01*
X163566594Y-72421635D01*
X163565858Y-72554323D01*
X163565871Y-72568991D01*
X163568118Y-72709047D01*
X163574984Y-72804368D01*
X163587565Y-72864111D01*
X163606958Y-72897434D01*
X163631010Y-72924466D01*
X163648059Y-72954191D01*
X163629948Y-72961314D01*
X163570376Y-72967477D01*
X163483657Y-72969849D01*
X163408875Y-72968340D01*
X163344156Y-72963375D01*
X163319256Y-72956149D01*
X163334243Y-72931771D01*
X163374056Y-72887648D01*
X163401905Y-72841505D01*
X163425412Y-72747465D01*
X163434119Y-72631669D01*
X163428089Y-72511707D01*
X163407384Y-72405167D01*
X163372068Y-72329639D01*
X163365304Y-72321480D01*
X163294602Y-72269317D01*
X163215734Y-72252893D01*
X163145169Y-72272325D01*
X163099376Y-72327727D01*
X163093877Y-72344654D01*
X163079134Y-72428873D01*
X163072143Y-72537224D01*
X163072506Y-72653981D01*
X163079827Y-72763419D01*
X163093709Y-72849812D01*
X163113754Y-72897434D01*
X163122948Y-72906803D01*
X163148312Y-72940331D01*
X163139183Y-72959372D01*
X163088813Y-72967890D01*
X162990453Y-72969849D01*
X162915671Y-72968340D01*
X162850952Y-72963375D01*
X162826052Y-72956149D01*
X162841039Y-72931771D01*
X162880853Y-72887648D01*
X162897915Y-72868203D01*
X162917433Y-72830428D01*
X162928892Y-72774120D01*
X162934297Y-72687203D01*
X162935653Y-72557600D01*
X162935654Y-72552476D01*
X162936716Y-72426997D01*
X162941483Y-72343199D01*
X162952444Y-72288403D01*
X162972089Y-72249928D01*
X163002908Y-72215097D01*
X163014955Y-72203752D01*
X163106952Y-72155026D01*
X163212236Y-72158948D01*
G37*
G36*
X164517809Y-72771484D02*
G01*
X164453405Y-72884495D01*
X164357823Y-72962595D01*
X164324567Y-72976925D01*
X164204730Y-72996243D01*
X164079203Y-72978210D01*
X163966299Y-72927264D01*
X163884329Y-72847844D01*
X163867909Y-72816381D01*
X163838665Y-72728033D01*
X163820502Y-72628847D01*
X163819811Y-72614611D01*
X163962632Y-72614611D01*
X163980600Y-72733667D01*
X164020684Y-72823980D01*
X164078535Y-72879144D01*
X164165860Y-72912284D01*
X164253801Y-72902428D01*
X164326762Y-72848336D01*
X164337013Y-72834284D01*
X164383517Y-72729263D01*
X164403339Y-72603143D01*
X164397043Y-72473462D01*
X164365190Y-72357757D01*
X164308342Y-72273567D01*
X164272464Y-72249581D01*
X164185677Y-72232976D01*
X164096064Y-72256920D01*
X164022673Y-72318421D01*
X163992704Y-72375722D01*
X163966694Y-72488176D01*
X163962632Y-72614611D01*
X163819811Y-72614611D01*
X163816312Y-72542535D01*
X163837806Y-72391278D01*
X163897232Y-72273703D01*
X163992078Y-72193781D01*
X164119833Y-72155484D01*
X164184401Y-72151706D01*
X164320543Y-72174424D01*
X164426196Y-72242616D01*
X164501656Y-72356437D01*
X164541695Y-72488722D01*
X164546755Y-72603143D01*
X164548188Y-72635560D01*
X164517809Y-72771484D01*
G37*
G36*
X148986574Y-72175337D02*
G01*
X149085200Y-72181294D01*
X149142677Y-72195119D01*
X149154467Y-72214842D01*
X149116030Y-72238499D01*
X149109332Y-72244376D01*
X149081627Y-72291627D01*
X149042304Y-72377438D01*
X148995601Y-72492166D01*
X148945751Y-72626169D01*
X148907951Y-72731257D01*
X148854849Y-72867840D01*
X148810564Y-72953922D01*
X148770046Y-72989518D01*
X148728243Y-72974644D01*
X148680104Y-72909314D01*
X148620579Y-72793543D01*
X148544615Y-72627346D01*
X148524494Y-72582953D01*
X148465018Y-72456919D01*
X148411721Y-72351203D01*
X148369782Y-72275805D01*
X148344378Y-72240722D01*
X148312983Y-72212196D01*
X148313043Y-72189919D01*
X148358791Y-72178475D01*
X148454639Y-72175242D01*
X148542987Y-72177763D01*
X148593469Y-72188187D01*
X148597479Y-72209334D01*
X148559264Y-72243993D01*
X148547421Y-72253506D01*
X148532549Y-72276785D01*
X148533335Y-72314065D01*
X148551272Y-72377668D01*
X148587854Y-72479916D01*
X148593083Y-72494003D01*
X148634013Y-72599762D01*
X148671775Y-72690531D01*
X148698785Y-72747985D01*
X148701592Y-72752988D01*
X148715808Y-72772544D01*
X148730030Y-72774643D01*
X148746917Y-72753456D01*
X148769126Y-72703156D01*
X148799314Y-72617914D01*
X148840140Y-72491901D01*
X148894260Y-72319290D01*
X148885012Y-72280195D01*
X148845840Y-72230239D01*
X148786808Y-72175242D01*
X148970076Y-72175242D01*
X148986574Y-72175337D01*
G37*
G36*
X145539096Y-72158948D02*
G01*
X145655993Y-72215517D01*
X145689454Y-72237963D01*
X145734370Y-72263762D01*
X145752407Y-72260291D01*
X145755718Y-72229217D01*
X145755745Y-72226279D01*
X145765383Y-72193882D01*
X145801855Y-72178891D01*
X145879019Y-72175242D01*
X145952209Y-72180593D01*
X145996367Y-72196058D01*
X145996583Y-72216817D01*
X145947519Y-72237982D01*
X145939791Y-72240236D01*
X145918258Y-72253041D01*
X145904505Y-72280923D01*
X145896810Y-72333812D01*
X145893455Y-72421635D01*
X145892719Y-72554323D01*
X145892732Y-72568991D01*
X145894979Y-72709047D01*
X145901845Y-72804368D01*
X145914426Y-72864111D01*
X145933819Y-72897434D01*
X145957871Y-72924466D01*
X145974919Y-72954191D01*
X145956809Y-72961314D01*
X145897237Y-72967477D01*
X145810518Y-72969849D01*
X145735736Y-72968340D01*
X145671017Y-72963375D01*
X145646117Y-72956149D01*
X145661104Y-72931771D01*
X145700917Y-72887648D01*
X145728766Y-72841505D01*
X145752273Y-72747465D01*
X145760980Y-72631669D01*
X145754949Y-72511707D01*
X145734245Y-72405167D01*
X145698929Y-72329639D01*
X145692165Y-72321480D01*
X145621463Y-72269317D01*
X145542595Y-72252893D01*
X145472030Y-72272325D01*
X145426237Y-72327727D01*
X145420738Y-72344654D01*
X145405995Y-72428873D01*
X145399004Y-72537224D01*
X145399367Y-72653981D01*
X145406688Y-72763419D01*
X145420570Y-72849812D01*
X145440615Y-72897434D01*
X145449809Y-72906803D01*
X145475172Y-72940331D01*
X145466044Y-72959372D01*
X145415674Y-72967890D01*
X145317314Y-72969849D01*
X145242532Y-72968340D01*
X145177813Y-72963375D01*
X145152913Y-72956149D01*
X145167900Y-72931771D01*
X145207713Y-72887648D01*
X145224776Y-72868203D01*
X145244294Y-72830428D01*
X145255753Y-72774120D01*
X145261158Y-72687203D01*
X145262514Y-72557600D01*
X145262515Y-72552476D01*
X145263577Y-72426997D01*
X145268343Y-72343199D01*
X145279305Y-72288403D01*
X145298950Y-72249928D01*
X145329769Y-72215097D01*
X145341816Y-72203752D01*
X145433813Y-72155026D01*
X145539096Y-72158948D01*
G37*
G36*
X157558299Y-72651405D02*
G01*
X157526391Y-72778687D01*
X157463906Y-72886633D01*
X157370768Y-72962595D01*
X157283515Y-72990201D01*
X157155158Y-72990652D01*
X157027755Y-72952817D01*
X156949187Y-72909382D01*
X156914663Y-72871217D01*
X156921244Y-72832948D01*
X156952315Y-72823353D01*
X157017401Y-72846648D01*
X157120427Y-72880886D01*
X157224195Y-72882594D01*
X157313915Y-72854609D01*
X157376986Y-72800913D01*
X157400809Y-72725488D01*
X157402839Y-72695117D01*
X157417441Y-72629587D01*
X157420033Y-72613702D01*
X157405575Y-72599485D01*
X157362827Y-72591150D01*
X157282958Y-72587227D01*
X157157139Y-72586246D01*
X156880205Y-72586246D01*
X156880205Y-72488984D01*
X156881963Y-72462065D01*
X157017206Y-72462065D01*
X157020432Y-72476366D01*
X157045842Y-72493250D01*
X157105258Y-72501723D01*
X157209008Y-72504045D01*
X157252674Y-72503946D01*
X157335358Y-72501448D01*
X157379664Y-72492515D01*
X157397509Y-72473121D01*
X157400809Y-72439240D01*
X157398172Y-72408373D01*
X157359309Y-72319261D01*
X157285585Y-72254838D01*
X157191921Y-72230043D01*
X157134501Y-72234535D01*
X157091027Y-72260958D01*
X157056909Y-72325064D01*
X157052206Y-72336614D01*
X157027341Y-72409869D01*
X157017206Y-72462065D01*
X156881963Y-72462065D01*
X156884184Y-72428062D01*
X156923852Y-72302863D01*
X156999724Y-72212074D01*
X157103955Y-72160461D01*
X157228701Y-72152787D01*
X157366116Y-72193819D01*
X157381699Y-72201845D01*
X157471331Y-72280007D01*
X157530693Y-72389418D01*
X157541985Y-72439240D01*
X157559708Y-72517433D01*
X157558299Y-72651405D01*
G37*
G36*
X144894999Y-71848403D02*
G01*
X144926339Y-71869894D01*
X144933711Y-71928641D01*
X144932075Y-71964386D01*
X144914166Y-72001994D01*
X144865211Y-72010841D01*
X144835423Y-72008878D01*
X144804083Y-71987387D01*
X144796710Y-71928641D01*
X144798346Y-71892895D01*
X144816255Y-71855287D01*
X144865211Y-71846440D01*
X144894999Y-71848403D01*
G37*
G36*
X155259341Y-71765497D02*
G01*
X155321303Y-71775299D01*
X155345793Y-71791639D01*
X155342165Y-71803265D01*
X155307624Y-71819040D01*
X155286166Y-71822964D01*
X155267324Y-71841077D01*
X155253830Y-71880200D01*
X155244828Y-71947090D01*
X155239459Y-72048502D01*
X155236866Y-72191193D01*
X155236192Y-72381918D01*
X155236426Y-72534182D01*
X155237834Y-72666325D01*
X155241380Y-72759566D01*
X155248025Y-72822428D01*
X155258729Y-72863436D01*
X155274454Y-72891112D01*
X155296159Y-72913981D01*
X155356126Y-72969849D01*
X155172342Y-72969849D01*
X155080268Y-72967959D01*
X155014623Y-72963039D01*
X154989590Y-72956149D01*
X155004578Y-72931771D01*
X155044391Y-72887648D01*
X155061495Y-72867727D01*
X155090587Y-72799448D01*
X155099191Y-72695847D01*
X155099008Y-72667978D01*
X155093913Y-72598459D01*
X155077939Y-72566527D01*
X155045899Y-72558846D01*
X155002382Y-72579225D01*
X154943735Y-72635041D01*
X154882168Y-72711681D01*
X154828250Y-72794485D01*
X154792550Y-72868787D01*
X154785637Y-72919926D01*
X154789309Y-72944684D01*
X154772492Y-72961001D01*
X154722852Y-72968221D01*
X154629419Y-72969849D01*
X154457356Y-72969849D01*
X154544598Y-72894498D01*
X154602607Y-72837482D01*
X154678985Y-72751933D01*
X154753851Y-72659465D01*
X154875862Y-72499782D01*
X154731769Y-72371762D01*
X154653483Y-72304059D01*
X154581952Y-72245547D01*
X154535181Y-72211104D01*
X154516640Y-72195260D01*
X154528733Y-72184596D01*
X154581239Y-72179021D01*
X154681338Y-72176854D01*
X154738917Y-72176784D01*
X154827999Y-72180552D01*
X154869915Y-72191600D01*
X154869818Y-72212234D01*
X154832858Y-72244765D01*
X154812742Y-72263067D01*
X154809720Y-72288407D01*
X154836435Y-72327327D01*
X154898135Y-72391637D01*
X154952250Y-72444288D01*
X155010479Y-72491967D01*
X155050947Y-72505361D01*
X155076853Y-72480373D01*
X155091396Y-72412905D01*
X155097776Y-72298861D01*
X155099191Y-72134142D01*
X155099191Y-71764239D01*
X155222492Y-71764239D01*
X155259341Y-71765497D01*
G37*
G36*
X153334265Y-71848403D02*
G01*
X153365605Y-71869894D01*
X153372978Y-71928641D01*
X153371342Y-71964386D01*
X153353433Y-72001994D01*
X153304477Y-72010841D01*
X153274689Y-72008878D01*
X153243349Y-71987387D01*
X153235977Y-71928641D01*
X153237613Y-71892895D01*
X153255522Y-71855287D01*
X153304477Y-71846440D01*
X153334265Y-71848403D01*
G37*
G36*
X164924557Y-71848403D02*
G01*
X164955896Y-71869894D01*
X164963269Y-71928641D01*
X164961633Y-71964386D01*
X164943724Y-72001994D01*
X164894768Y-72010841D01*
X164864980Y-72008878D01*
X164833640Y-71987387D01*
X164826268Y-71928641D01*
X164827904Y-71892895D01*
X164845813Y-71855287D01*
X164894768Y-71846440D01*
X164924557Y-71848403D01*
G37*
%TD*%
M02*
