%TF.GenerationSoftware,KiCad,Pcbnew,(6.0.0)*%
%TF.CreationDate,2022-06-20T15:54:39+02:00*%
%TF.ProjectId,PulseOximeter,50756c73-654f-4786-996d-657465722e6b,rev?*%
%TF.SameCoordinates,Original*%
%TF.FileFunction,Legend,Top*%
%TF.FilePolarity,Positive*%
%FSLAX46Y46*%
G04 Gerber Fmt 4.6, Leading zero omitted, Abs format (unit mm)*
G04 Created by KiCad (PCBNEW (6.0.0)) date 2022-06-20 15:54:39*
%MOMM*%
%LPD*%
G01*
G04 APERTURE LIST*
%ADD10C,0.150000*%
%ADD11C,0.120000*%
G04 APERTURE END LIST*
D10*
%TO.C,R8*%
X128052380Y-99166666D02*
X127576190Y-99500000D01*
X128052380Y-99738095D02*
X127052380Y-99738095D01*
X127052380Y-99357142D01*
X127100000Y-99261904D01*
X127147619Y-99214285D01*
X127242857Y-99166666D01*
X127385714Y-99166666D01*
X127480952Y-99214285D01*
X127528571Y-99261904D01*
X127576190Y-99357142D01*
X127576190Y-99738095D01*
X127480952Y-98595238D02*
X127433333Y-98690476D01*
X127385714Y-98738095D01*
X127290476Y-98785714D01*
X127242857Y-98785714D01*
X127147619Y-98738095D01*
X127100000Y-98690476D01*
X127052380Y-98595238D01*
X127052380Y-98404761D01*
X127100000Y-98309523D01*
X127147619Y-98261904D01*
X127242857Y-98214285D01*
X127290476Y-98214285D01*
X127385714Y-98261904D01*
X127433333Y-98309523D01*
X127480952Y-98404761D01*
X127480952Y-98595238D01*
X127528571Y-98690476D01*
X127576190Y-98738095D01*
X127671428Y-98785714D01*
X127861904Y-98785714D01*
X127957142Y-98738095D01*
X128004761Y-98690476D01*
X128052380Y-98595238D01*
X128052380Y-98404761D01*
X128004761Y-98309523D01*
X127957142Y-98261904D01*
X127861904Y-98214285D01*
X127671428Y-98214285D01*
X127576190Y-98261904D01*
X127528571Y-98309523D01*
X127480952Y-98404761D01*
%TO.C,Q7*%
X154904761Y-126547619D02*
X154809523Y-126500000D01*
X154714285Y-126404761D01*
X154571428Y-126261904D01*
X154476190Y-126214285D01*
X154380952Y-126214285D01*
X154428571Y-126452380D02*
X154333333Y-126404761D01*
X154238095Y-126309523D01*
X154190476Y-126119047D01*
X154190476Y-125785714D01*
X154238095Y-125595238D01*
X154333333Y-125500000D01*
X154428571Y-125452380D01*
X154619047Y-125452380D01*
X154714285Y-125500000D01*
X154809523Y-125595238D01*
X154857142Y-125785714D01*
X154857142Y-126119047D01*
X154809523Y-126309523D01*
X154714285Y-126404761D01*
X154619047Y-126452380D01*
X154428571Y-126452380D01*
X155190476Y-125452380D02*
X155857142Y-125452380D01*
X155428571Y-126452380D01*
%TO.C,R2*%
X81852380Y-99166666D02*
X81376190Y-99500000D01*
X81852380Y-99738095D02*
X80852380Y-99738095D01*
X80852380Y-99357142D01*
X80900000Y-99261904D01*
X80947619Y-99214285D01*
X81042857Y-99166666D01*
X81185714Y-99166666D01*
X81280952Y-99214285D01*
X81328571Y-99261904D01*
X81376190Y-99357142D01*
X81376190Y-99738095D01*
X80947619Y-98785714D02*
X80900000Y-98738095D01*
X80852380Y-98642857D01*
X80852380Y-98404761D01*
X80900000Y-98309523D01*
X80947619Y-98261904D01*
X81042857Y-98214285D01*
X81138095Y-98214285D01*
X81280952Y-98261904D01*
X81852380Y-98833333D01*
X81852380Y-98214285D01*
%TO.C,U4*%
X103038095Y-65852380D02*
X103038095Y-66661904D01*
X103085714Y-66757142D01*
X103133333Y-66804761D01*
X103228571Y-66852380D01*
X103419047Y-66852380D01*
X103514285Y-66804761D01*
X103561904Y-66757142D01*
X103609523Y-66661904D01*
X103609523Y-65852380D01*
X104514285Y-66185714D02*
X104514285Y-66852380D01*
X104276190Y-65804761D02*
X104038095Y-66519047D01*
X104657142Y-66519047D01*
%TO.C,R13*%
X157357142Y-126452380D02*
X157023809Y-125976190D01*
X156785714Y-126452380D02*
X156785714Y-125452380D01*
X157166666Y-125452380D01*
X157261904Y-125500000D01*
X157309523Y-125547619D01*
X157357142Y-125642857D01*
X157357142Y-125785714D01*
X157309523Y-125880952D01*
X157261904Y-125928571D01*
X157166666Y-125976190D01*
X156785714Y-125976190D01*
X158309523Y-126452380D02*
X157738095Y-126452380D01*
X158023809Y-126452380D02*
X158023809Y-125452380D01*
X157928571Y-125595238D01*
X157833333Y-125690476D01*
X157738095Y-125738095D01*
X158642857Y-125452380D02*
X159261904Y-125452380D01*
X158928571Y-125833333D01*
X159071428Y-125833333D01*
X159166666Y-125880952D01*
X159214285Y-125928571D01*
X159261904Y-126023809D01*
X159261904Y-126261904D01*
X159214285Y-126357142D01*
X159166666Y-126404761D01*
X159071428Y-126452380D01*
X158785714Y-126452380D01*
X158690476Y-126404761D01*
X158642857Y-126357142D01*
%TO.C,U2*%
X147238095Y-86852380D02*
X147238095Y-87661904D01*
X147285714Y-87757142D01*
X147333333Y-87804761D01*
X147428571Y-87852380D01*
X147619047Y-87852380D01*
X147714285Y-87804761D01*
X147761904Y-87757142D01*
X147809523Y-87661904D01*
X147809523Y-86852380D01*
X148238095Y-86947619D02*
X148285714Y-86900000D01*
X148380952Y-86852380D01*
X148619047Y-86852380D01*
X148714285Y-86900000D01*
X148761904Y-86947619D01*
X148809523Y-87042857D01*
X148809523Y-87138095D01*
X148761904Y-87280952D01*
X148190476Y-87852380D01*
X148809523Y-87852380D01*
%TO.C,U3*%
X77638095Y-66052380D02*
X77638095Y-66861904D01*
X77685714Y-66957142D01*
X77733333Y-67004761D01*
X77828571Y-67052380D01*
X78019047Y-67052380D01*
X78114285Y-67004761D01*
X78161904Y-66957142D01*
X78209523Y-66861904D01*
X78209523Y-66052380D01*
X78590476Y-66052380D02*
X79209523Y-66052380D01*
X78876190Y-66433333D01*
X79019047Y-66433333D01*
X79114285Y-66480952D01*
X79161904Y-66528571D01*
X79209523Y-66623809D01*
X79209523Y-66861904D01*
X79161904Y-66957142D01*
X79114285Y-67004761D01*
X79019047Y-67052380D01*
X78733333Y-67052380D01*
X78638095Y-67004761D01*
X78590476Y-66957142D01*
%TO.C,Q6*%
X144904761Y-126547619D02*
X144809523Y-126500000D01*
X144714285Y-126404761D01*
X144571428Y-126261904D01*
X144476190Y-126214285D01*
X144380952Y-126214285D01*
X144428571Y-126452380D02*
X144333333Y-126404761D01*
X144238095Y-126309523D01*
X144190476Y-126119047D01*
X144190476Y-125785714D01*
X144238095Y-125595238D01*
X144333333Y-125500000D01*
X144428571Y-125452380D01*
X144619047Y-125452380D01*
X144714285Y-125500000D01*
X144809523Y-125595238D01*
X144857142Y-125785714D01*
X144857142Y-126119047D01*
X144809523Y-126309523D01*
X144714285Y-126404761D01*
X144619047Y-126452380D01*
X144428571Y-126452380D01*
X145714285Y-125452380D02*
X145523809Y-125452380D01*
X145428571Y-125500000D01*
X145380952Y-125547619D01*
X145285714Y-125690476D01*
X145238095Y-125880952D01*
X145238095Y-126261904D01*
X145285714Y-126357142D01*
X145333333Y-126404761D01*
X145428571Y-126452380D01*
X145619047Y-126452380D01*
X145714285Y-126404761D01*
X145761904Y-126357142D01*
X145809523Y-126261904D01*
X145809523Y-126023809D01*
X145761904Y-125928571D01*
X145714285Y-125880952D01*
X145619047Y-125833333D01*
X145428571Y-125833333D01*
X145333333Y-125880952D01*
X145285714Y-125928571D01*
X145238095Y-126023809D01*
%TO.C,Q4*%
X116304761Y-62347619D02*
X116209523Y-62300000D01*
X116114285Y-62204761D01*
X115971428Y-62061904D01*
X115876190Y-62014285D01*
X115780952Y-62014285D01*
X115828571Y-62252380D02*
X115733333Y-62204761D01*
X115638095Y-62109523D01*
X115590476Y-61919047D01*
X115590476Y-61585714D01*
X115638095Y-61395238D01*
X115733333Y-61300000D01*
X115828571Y-61252380D01*
X116019047Y-61252380D01*
X116114285Y-61300000D01*
X116209523Y-61395238D01*
X116257142Y-61585714D01*
X116257142Y-61919047D01*
X116209523Y-62109523D01*
X116114285Y-62204761D01*
X116019047Y-62252380D01*
X115828571Y-62252380D01*
X117114285Y-61585714D02*
X117114285Y-62252380D01*
X116876190Y-61204761D02*
X116638095Y-61919047D01*
X117257142Y-61919047D01*
%TO.C,R10*%
X136357142Y-126452380D02*
X136023809Y-125976190D01*
X135785714Y-126452380D02*
X135785714Y-125452380D01*
X136166666Y-125452380D01*
X136261904Y-125500000D01*
X136309523Y-125547619D01*
X136357142Y-125642857D01*
X136357142Y-125785714D01*
X136309523Y-125880952D01*
X136261904Y-125928571D01*
X136166666Y-125976190D01*
X135785714Y-125976190D01*
X137309523Y-126452380D02*
X136738095Y-126452380D01*
X137023809Y-126452380D02*
X137023809Y-125452380D01*
X136928571Y-125595238D01*
X136833333Y-125690476D01*
X136738095Y-125738095D01*
X137928571Y-125452380D02*
X138023809Y-125452380D01*
X138119047Y-125500000D01*
X138166666Y-125547619D01*
X138214285Y-125642857D01*
X138261904Y-125833333D01*
X138261904Y-126071428D01*
X138214285Y-126261904D01*
X138166666Y-126357142D01*
X138119047Y-126404761D01*
X138023809Y-126452380D01*
X137928571Y-126452380D01*
X137833333Y-126404761D01*
X137785714Y-126357142D01*
X137738095Y-126261904D01*
X137690476Y-126071428D01*
X137690476Y-125833333D01*
X137738095Y-125642857D01*
X137785714Y-125547619D01*
X137833333Y-125500000D01*
X137928571Y-125452380D01*
%TO.C,R11*%
X147357142Y-126452380D02*
X147023809Y-125976190D01*
X146785714Y-126452380D02*
X146785714Y-125452380D01*
X147166666Y-125452380D01*
X147261904Y-125500000D01*
X147309523Y-125547619D01*
X147357142Y-125642857D01*
X147357142Y-125785714D01*
X147309523Y-125880952D01*
X147261904Y-125928571D01*
X147166666Y-125976190D01*
X146785714Y-125976190D01*
X148309523Y-126452380D02*
X147738095Y-126452380D01*
X148023809Y-126452380D02*
X148023809Y-125452380D01*
X147928571Y-125595238D01*
X147833333Y-125690476D01*
X147738095Y-125738095D01*
X149261904Y-126452380D02*
X148690476Y-126452380D01*
X148976190Y-126452380D02*
X148976190Y-125452380D01*
X148880952Y-125595238D01*
X148785714Y-125690476D01*
X148690476Y-125738095D01*
%TO.C,Q3*%
X110904761Y-62347619D02*
X110809523Y-62300000D01*
X110714285Y-62204761D01*
X110571428Y-62061904D01*
X110476190Y-62014285D01*
X110380952Y-62014285D01*
X110428571Y-62252380D02*
X110333333Y-62204761D01*
X110238095Y-62109523D01*
X110190476Y-61919047D01*
X110190476Y-61585714D01*
X110238095Y-61395238D01*
X110333333Y-61300000D01*
X110428571Y-61252380D01*
X110619047Y-61252380D01*
X110714285Y-61300000D01*
X110809523Y-61395238D01*
X110857142Y-61585714D01*
X110857142Y-61919047D01*
X110809523Y-62109523D01*
X110714285Y-62204761D01*
X110619047Y-62252380D01*
X110428571Y-62252380D01*
X111190476Y-61252380D02*
X111809523Y-61252380D01*
X111476190Y-61633333D01*
X111619047Y-61633333D01*
X111714285Y-61680952D01*
X111761904Y-61728571D01*
X111809523Y-61823809D01*
X111809523Y-62061904D01*
X111761904Y-62157142D01*
X111714285Y-62204761D01*
X111619047Y-62252380D01*
X111333333Y-62252380D01*
X111238095Y-62204761D01*
X111190476Y-62157142D01*
%TO.C,Q1*%
X85904761Y-62347619D02*
X85809523Y-62300000D01*
X85714285Y-62204761D01*
X85571428Y-62061904D01*
X85476190Y-62014285D01*
X85380952Y-62014285D01*
X85428571Y-62252380D02*
X85333333Y-62204761D01*
X85238095Y-62109523D01*
X85190476Y-61919047D01*
X85190476Y-61585714D01*
X85238095Y-61395238D01*
X85333333Y-61300000D01*
X85428571Y-61252380D01*
X85619047Y-61252380D01*
X85714285Y-61300000D01*
X85809523Y-61395238D01*
X85857142Y-61585714D01*
X85857142Y-61919047D01*
X85809523Y-62109523D01*
X85714285Y-62204761D01*
X85619047Y-62252380D01*
X85428571Y-62252380D01*
X86809523Y-62252380D02*
X86238095Y-62252380D01*
X86523809Y-62252380D02*
X86523809Y-61252380D01*
X86428571Y-61395238D01*
X86333333Y-61490476D01*
X86238095Y-61538095D01*
%TO.C,R14*%
X160357142Y-126452380D02*
X160023809Y-125976190D01*
X159785714Y-126452380D02*
X159785714Y-125452380D01*
X160166666Y-125452380D01*
X160261904Y-125500000D01*
X160309523Y-125547619D01*
X160357142Y-125642857D01*
X160357142Y-125785714D01*
X160309523Y-125880952D01*
X160261904Y-125928571D01*
X160166666Y-125976190D01*
X159785714Y-125976190D01*
X161309523Y-126452380D02*
X160738095Y-126452380D01*
X161023809Y-126452380D02*
X161023809Y-125452380D01*
X160928571Y-125595238D01*
X160833333Y-125690476D01*
X160738095Y-125738095D01*
X162166666Y-125785714D02*
X162166666Y-126452380D01*
X161928571Y-125404761D02*
X161690476Y-126119047D01*
X162309523Y-126119047D01*
%TO.C,U1*%
X129638095Y-127452380D02*
X129638095Y-128261904D01*
X129685714Y-128357142D01*
X129733333Y-128404761D01*
X129828571Y-128452380D01*
X130019047Y-128452380D01*
X130114285Y-128404761D01*
X130161904Y-128357142D01*
X130209523Y-128261904D01*
X130209523Y-127452380D01*
X131209523Y-128452380D02*
X130638095Y-128452380D01*
X130923809Y-128452380D02*
X130923809Y-127452380D01*
X130828571Y-127595238D01*
X130733333Y-127690476D01*
X130638095Y-127738095D01*
%TO.C,R12*%
X150357142Y-126452380D02*
X150023809Y-125976190D01*
X149785714Y-126452380D02*
X149785714Y-125452380D01*
X150166666Y-125452380D01*
X150261904Y-125500000D01*
X150309523Y-125547619D01*
X150357142Y-125642857D01*
X150357142Y-125785714D01*
X150309523Y-125880952D01*
X150261904Y-125928571D01*
X150166666Y-125976190D01*
X149785714Y-125976190D01*
X151309523Y-126452380D02*
X150738095Y-126452380D01*
X151023809Y-126452380D02*
X151023809Y-125452380D01*
X150928571Y-125595238D01*
X150833333Y-125690476D01*
X150738095Y-125738095D01*
X151690476Y-125547619D02*
X151738095Y-125500000D01*
X151833333Y-125452380D01*
X152071428Y-125452380D01*
X152166666Y-125500000D01*
X152214285Y-125547619D01*
X152261904Y-125642857D01*
X152261904Y-125738095D01*
X152214285Y-125880952D01*
X151642857Y-126452380D01*
X152261904Y-126452380D01*
%TO.C,R5*%
X119652380Y-99166666D02*
X119176190Y-99500000D01*
X119652380Y-99738095D02*
X118652380Y-99738095D01*
X118652380Y-99357142D01*
X118700000Y-99261904D01*
X118747619Y-99214285D01*
X118842857Y-99166666D01*
X118985714Y-99166666D01*
X119080952Y-99214285D01*
X119128571Y-99261904D01*
X119176190Y-99357142D01*
X119176190Y-99738095D01*
X118652380Y-98261904D02*
X118652380Y-98738095D01*
X119128571Y-98785714D01*
X119080952Y-98738095D01*
X119033333Y-98642857D01*
X119033333Y-98404761D01*
X119080952Y-98309523D01*
X119128571Y-98261904D01*
X119223809Y-98214285D01*
X119461904Y-98214285D01*
X119557142Y-98261904D01*
X119604761Y-98309523D01*
X119652380Y-98404761D01*
X119652380Y-98642857D01*
X119604761Y-98738095D01*
X119557142Y-98785714D01*
%TO.C,R3*%
X84652380Y-99166666D02*
X84176190Y-99500000D01*
X84652380Y-99738095D02*
X83652380Y-99738095D01*
X83652380Y-99357142D01*
X83700000Y-99261904D01*
X83747619Y-99214285D01*
X83842857Y-99166666D01*
X83985714Y-99166666D01*
X84080952Y-99214285D01*
X84128571Y-99261904D01*
X84176190Y-99357142D01*
X84176190Y-99738095D01*
X83652380Y-98833333D02*
X83652380Y-98214285D01*
X84033333Y-98547619D01*
X84033333Y-98404761D01*
X84080952Y-98309523D01*
X84128571Y-98261904D01*
X84223809Y-98214285D01*
X84461904Y-98214285D01*
X84557142Y-98261904D01*
X84604761Y-98309523D01*
X84652380Y-98404761D01*
X84652380Y-98690476D01*
X84604761Y-98785714D01*
X84557142Y-98833333D01*
%TO.C,R4*%
X116852380Y-99166666D02*
X116376190Y-99500000D01*
X116852380Y-99738095D02*
X115852380Y-99738095D01*
X115852380Y-99357142D01*
X115900000Y-99261904D01*
X115947619Y-99214285D01*
X116042857Y-99166666D01*
X116185714Y-99166666D01*
X116280952Y-99214285D01*
X116328571Y-99261904D01*
X116376190Y-99357142D01*
X116376190Y-99738095D01*
X116185714Y-98309523D02*
X116852380Y-98309523D01*
X115804761Y-98547619D02*
X116519047Y-98785714D01*
X116519047Y-98166666D01*
%TO.C,R6*%
X122452380Y-99166666D02*
X121976190Y-99500000D01*
X122452380Y-99738095D02*
X121452380Y-99738095D01*
X121452380Y-99357142D01*
X121500000Y-99261904D01*
X121547619Y-99214285D01*
X121642857Y-99166666D01*
X121785714Y-99166666D01*
X121880952Y-99214285D01*
X121928571Y-99261904D01*
X121976190Y-99357142D01*
X121976190Y-99738095D01*
X121452380Y-98309523D02*
X121452380Y-98500000D01*
X121500000Y-98595238D01*
X121547619Y-98642857D01*
X121690476Y-98738095D01*
X121880952Y-98785714D01*
X122261904Y-98785714D01*
X122357142Y-98738095D01*
X122404761Y-98690476D01*
X122452380Y-98595238D01*
X122452380Y-98404761D01*
X122404761Y-98309523D01*
X122357142Y-98261904D01*
X122261904Y-98214285D01*
X122023809Y-98214285D01*
X121928571Y-98261904D01*
X121880952Y-98309523D01*
X121833333Y-98404761D01*
X121833333Y-98595238D01*
X121880952Y-98690476D01*
X121928571Y-98738095D01*
X122023809Y-98785714D01*
%TO.C,R7*%
X125252380Y-99166666D02*
X124776190Y-99500000D01*
X125252380Y-99738095D02*
X124252380Y-99738095D01*
X124252380Y-99357142D01*
X124300000Y-99261904D01*
X124347619Y-99214285D01*
X124442857Y-99166666D01*
X124585714Y-99166666D01*
X124680952Y-99214285D01*
X124728571Y-99261904D01*
X124776190Y-99357142D01*
X124776190Y-99738095D01*
X124252380Y-98833333D02*
X124252380Y-98166666D01*
X125252380Y-98595238D01*
%TO.C,Q5*%
X141104761Y-126547619D02*
X141009523Y-126500000D01*
X140914285Y-126404761D01*
X140771428Y-126261904D01*
X140676190Y-126214285D01*
X140580952Y-126214285D01*
X140628571Y-126452380D02*
X140533333Y-126404761D01*
X140438095Y-126309523D01*
X140390476Y-126119047D01*
X140390476Y-125785714D01*
X140438095Y-125595238D01*
X140533333Y-125500000D01*
X140628571Y-125452380D01*
X140819047Y-125452380D01*
X140914285Y-125500000D01*
X141009523Y-125595238D01*
X141057142Y-125785714D01*
X141057142Y-126119047D01*
X141009523Y-126309523D01*
X140914285Y-126404761D01*
X140819047Y-126452380D01*
X140628571Y-126452380D01*
X141961904Y-125452380D02*
X141485714Y-125452380D01*
X141438095Y-125928571D01*
X141485714Y-125880952D01*
X141580952Y-125833333D01*
X141819047Y-125833333D01*
X141914285Y-125880952D01*
X141961904Y-125928571D01*
X142009523Y-126023809D01*
X142009523Y-126261904D01*
X141961904Y-126357142D01*
X141914285Y-126404761D01*
X141819047Y-126452380D01*
X141580952Y-126452380D01*
X141485714Y-126404761D01*
X141438095Y-126357142D01*
%TO.C,Q2*%
X93504761Y-62347619D02*
X93409523Y-62300000D01*
X93314285Y-62204761D01*
X93171428Y-62061904D01*
X93076190Y-62014285D01*
X92980952Y-62014285D01*
X93028571Y-62252380D02*
X92933333Y-62204761D01*
X92838095Y-62109523D01*
X92790476Y-61919047D01*
X92790476Y-61585714D01*
X92838095Y-61395238D01*
X92933333Y-61300000D01*
X93028571Y-61252380D01*
X93219047Y-61252380D01*
X93314285Y-61300000D01*
X93409523Y-61395238D01*
X93457142Y-61585714D01*
X93457142Y-61919047D01*
X93409523Y-62109523D01*
X93314285Y-62204761D01*
X93219047Y-62252380D01*
X93028571Y-62252380D01*
X93838095Y-61347619D02*
X93885714Y-61300000D01*
X93980952Y-61252380D01*
X94219047Y-61252380D01*
X94314285Y-61300000D01*
X94361904Y-61347619D01*
X94409523Y-61442857D01*
X94409523Y-61538095D01*
X94361904Y-61680952D01*
X93790476Y-62252380D01*
X94409523Y-62252380D01*
%TO.C,R1*%
X79052380Y-99166666D02*
X78576190Y-99500000D01*
X79052380Y-99738095D02*
X78052380Y-99738095D01*
X78052380Y-99357142D01*
X78100000Y-99261904D01*
X78147619Y-99214285D01*
X78242857Y-99166666D01*
X78385714Y-99166666D01*
X78480952Y-99214285D01*
X78528571Y-99261904D01*
X78576190Y-99357142D01*
X78576190Y-99738095D01*
X79052380Y-98214285D02*
X79052380Y-98785714D01*
X79052380Y-98500000D02*
X78052380Y-98500000D01*
X78195238Y-98595238D01*
X78290476Y-98690476D01*
X78338095Y-98785714D01*
%TO.C,R9*%
X133833333Y-126452380D02*
X133500000Y-125976190D01*
X133261904Y-126452380D02*
X133261904Y-125452380D01*
X133642857Y-125452380D01*
X133738095Y-125500000D01*
X133785714Y-125547619D01*
X133833333Y-125642857D01*
X133833333Y-125785714D01*
X133785714Y-125880952D01*
X133738095Y-125928571D01*
X133642857Y-125976190D01*
X133261904Y-125976190D01*
X134309523Y-126452380D02*
X134500000Y-126452380D01*
X134595238Y-126404761D01*
X134642857Y-126357142D01*
X134738095Y-126214285D01*
X134785714Y-126023809D01*
X134785714Y-125642857D01*
X134738095Y-125547619D01*
X134690476Y-125500000D01*
X134595238Y-125452380D01*
X134404761Y-125452380D01*
X134309523Y-125500000D01*
X134261904Y-125547619D01*
X134214285Y-125642857D01*
X134214285Y-125880952D01*
X134261904Y-125976190D01*
X134309523Y-126023809D01*
X134404761Y-126071428D01*
X134595238Y-126071428D01*
X134690476Y-126023809D01*
X134738095Y-125976190D01*
X134785714Y-125880952D01*
D11*
%TO.C,R8*%
X128520000Y-94310000D02*
X128520000Y-90470000D01*
X126680000Y-90470000D02*
X126680000Y-94310000D01*
X127600000Y-89520000D02*
X127600000Y-90470000D01*
X126680000Y-94310000D02*
X128520000Y-94310000D01*
X127600000Y-95260000D02*
X127600000Y-94310000D01*
X128520000Y-90470000D02*
X126680000Y-90470000D01*
%TO.C,Q7*%
X153440000Y-120000000D02*
X153440000Y-121675000D01*
X156560000Y-120000000D02*
X156560000Y-119350000D01*
X156560000Y-120000000D02*
X156560000Y-120650000D01*
X153440000Y-120000000D02*
X153440000Y-119350000D01*
%TO.C,R2*%
X80480000Y-94520000D02*
X82320000Y-94520000D01*
X81400000Y-89730000D02*
X81400000Y-90680000D01*
X81400000Y-95470000D02*
X81400000Y-94520000D01*
X80480000Y-90680000D02*
X80480000Y-94520000D01*
X82320000Y-90680000D02*
X80480000Y-90680000D01*
X82320000Y-94520000D02*
X82320000Y-90680000D01*
%TO.C,U4*%
X102910000Y-67235000D02*
X128160000Y-67235000D01*
X102910000Y-86525000D02*
X102910000Y-67235000D01*
X102660000Y-86780000D02*
X102660000Y-84500000D01*
X128160000Y-86525000D02*
X102910000Y-86525000D01*
X128160000Y-67235000D02*
X128160000Y-86525000D01*
X102660000Y-86780000D02*
X105370000Y-86780000D01*
%TO.C,R13*%
X158000000Y-122870000D02*
X158000000Y-121920000D01*
X158000000Y-117130000D02*
X158000000Y-118080000D01*
X158920000Y-118080000D02*
X157080000Y-118080000D01*
X157080000Y-121920000D02*
X158920000Y-121920000D01*
X158920000Y-121920000D02*
X158920000Y-118080000D01*
X157080000Y-118080000D02*
X157080000Y-121920000D01*
%TO.C,U2*%
X147100000Y-95960000D02*
X150000000Y-95960000D01*
X150000000Y-95960000D02*
X150000000Y-88360000D01*
X150000000Y-88360000D02*
X147100000Y-88360000D01*
X147100000Y-88360000D02*
X147100000Y-95960000D01*
%TO.C,G\u002A\u002A\u002A*%
G36*
X147619649Y-68040351D02*
G01*
X147575088Y-68084912D01*
X147530526Y-68040351D01*
X147575088Y-67995789D01*
X147619649Y-68040351D01*
G37*
G36*
X142522670Y-72005066D02*
G01*
X142547951Y-71719220D01*
X142481166Y-71395575D01*
X142368620Y-70764046D01*
X142386959Y-70103608D01*
X142524138Y-69451238D01*
X142768111Y-68843918D01*
X143106835Y-68318625D01*
X143528265Y-67912340D01*
X143640348Y-67836666D01*
X143938410Y-67596139D01*
X144158220Y-67271648D01*
X144224807Y-67131264D01*
X144398496Y-66822472D01*
X144635135Y-66508346D01*
X144891969Y-66237416D01*
X145126243Y-66058213D01*
X145199922Y-66024441D01*
X145225864Y-65923745D01*
X145165341Y-65669815D01*
X145038837Y-65315931D01*
X144769922Y-64440729D01*
X144662005Y-63619899D01*
X144672845Y-63462362D01*
X144959737Y-63462362D01*
X145025026Y-64255913D01*
X145248244Y-65106142D01*
X145304975Y-65263819D01*
X145414033Y-65529952D01*
X145507006Y-65712573D01*
X145555961Y-65767719D01*
X145632603Y-65696532D01*
X145749809Y-65518105D01*
X145794645Y-65437670D01*
X146022097Y-65048997D01*
X146228215Y-64800906D01*
X146448914Y-64665176D01*
X146720109Y-64613587D01*
X146847747Y-64610180D01*
X147564810Y-64692868D01*
X148296393Y-64922523D01*
X149002724Y-65276340D01*
X149644030Y-65731511D01*
X150180540Y-66265231D01*
X150486269Y-66696604D01*
X150675942Y-67007665D01*
X150868728Y-67306374D01*
X150961842Y-67442030D01*
X151125429Y-67756037D01*
X151260822Y-68169026D01*
X151345548Y-68601823D01*
X151362807Y-68854676D01*
X151375093Y-68993837D01*
X151444251Y-69048178D01*
X151618731Y-69038844D01*
X151741579Y-69019977D01*
X152064734Y-68933196D01*
X152404938Y-68791779D01*
X152491367Y-68745563D01*
X152878753Y-68433632D01*
X153149675Y-68031033D01*
X153287032Y-67578256D01*
X153273723Y-67115786D01*
X153237263Y-66979594D01*
X153106356Y-66737340D01*
X152877451Y-66452645D01*
X152684058Y-66260802D01*
X152400663Y-66021402D01*
X152202373Y-65885913D01*
X152102635Y-65861328D01*
X152114894Y-65954642D01*
X152121538Y-65968246D01*
X152108660Y-65981448D01*
X152008784Y-65880652D01*
X151957349Y-65821850D01*
X151842178Y-65664444D01*
X151655351Y-65382788D01*
X151415588Y-65006268D01*
X151141607Y-64564269D01*
X150859148Y-64097904D01*
X150371728Y-63311333D01*
X149936346Y-62672030D01*
X149537725Y-62162215D01*
X149160591Y-61764111D01*
X148789667Y-61459938D01*
X148409678Y-61231916D01*
X148387026Y-61220647D01*
X147728381Y-60969052D01*
X147114236Y-60881149D01*
X146553451Y-60956007D01*
X146054887Y-61192696D01*
X145702939Y-61502191D01*
X145299545Y-62077460D01*
X145051527Y-62733530D01*
X144959737Y-63462362D01*
X144672845Y-63462362D01*
X144714294Y-62859959D01*
X144925997Y-62167421D01*
X145296323Y-61548803D01*
X145529146Y-61281108D01*
X145848428Y-60984821D01*
X146150523Y-60794998D01*
X146491029Y-60690142D01*
X146925541Y-60648756D01*
X147174035Y-60645114D01*
X147587917Y-60654539D01*
X147893249Y-60691329D01*
X148159191Y-60769063D01*
X148438885Y-60893467D01*
X148881473Y-61140365D01*
X149283553Y-61436744D01*
X149662153Y-61803074D01*
X150034298Y-62259826D01*
X150417017Y-62827470D01*
X150827335Y-63526475D01*
X151191410Y-64202627D01*
X151441318Y-64674766D01*
X151634199Y-65018607D01*
X151792856Y-65265224D01*
X151940093Y-65445688D01*
X152098709Y-65591073D01*
X152291509Y-65732450D01*
X152336735Y-65763357D01*
X152780644Y-66102006D01*
X153137358Y-66448538D01*
X153379189Y-66773210D01*
X153466780Y-66977345D01*
X153491430Y-67198811D01*
X153489863Y-67505607D01*
X153478390Y-67666412D01*
X153461011Y-67936214D01*
X153491583Y-68122468D01*
X153596157Y-68296450D01*
X153789227Y-68516867D01*
X154077863Y-68900636D01*
X154360901Y-69397830D01*
X154607648Y-69945403D01*
X154787408Y-70480311D01*
X154828548Y-70651580D01*
X154888994Y-71015269D01*
X154918276Y-71355651D01*
X154919715Y-71648711D01*
X154896631Y-71870434D01*
X154852346Y-71996805D01*
X154790178Y-72003808D01*
X154713450Y-71867429D01*
X154675884Y-71755649D01*
X154544887Y-71454534D01*
X154358903Y-71186677D01*
X154156861Y-70998838D01*
X153994222Y-70936842D01*
X153872286Y-71007126D01*
X153706734Y-71188059D01*
X153588914Y-71355343D01*
X153323509Y-71773844D01*
X153323509Y-70868511D01*
X153299663Y-70335832D01*
X153233616Y-69843465D01*
X153133602Y-69424116D01*
X153007854Y-69110489D01*
X152864608Y-68935291D01*
X152832678Y-68918995D01*
X152677997Y-68925912D01*
X152464225Y-69004257D01*
X152454262Y-69009335D01*
X152207459Y-69101959D01*
X151883465Y-69180917D01*
X151733235Y-69205511D01*
X151273684Y-69266472D01*
X151273684Y-71792263D01*
X151585339Y-71904958D01*
X151855227Y-72072272D01*
X151966659Y-72320146D01*
X151918795Y-72645905D01*
X151861184Y-72784298D01*
X151756341Y-72970902D01*
X151677669Y-73052918D01*
X151663796Y-73049995D01*
X151673411Y-72950919D01*
X151762858Y-72777932D01*
X151766563Y-72772241D01*
X151870541Y-72486809D01*
X151816254Y-72227624D01*
X151613880Y-72036435D01*
X151583557Y-72021595D01*
X151353998Y-71934015D01*
X151229062Y-71954641D01*
X151159925Y-72100986D01*
X151140919Y-72180376D01*
X151006528Y-72524791D01*
X150793177Y-72774896D01*
X150535862Y-72893009D01*
X150474843Y-72897544D01*
X150238996Y-72860345D01*
X149944275Y-72766870D01*
X149835171Y-72721255D01*
X149311256Y-72572265D01*
X148746121Y-72561156D01*
X148276994Y-72666497D01*
X148039543Y-72769539D01*
X147708970Y-72934343D01*
X147344877Y-73130755D01*
X147226665Y-73197866D01*
X146649291Y-73488735D01*
X146113586Y-73678216D01*
X145649431Y-73757848D01*
X145335660Y-73733396D01*
X145165524Y-73646243D01*
X144909994Y-73462253D01*
X144608707Y-73211629D01*
X144399877Y-73020415D01*
X143996256Y-72656783D01*
X143676524Y-72422950D01*
X143415805Y-72307500D01*
X143189222Y-72299019D01*
X142992069Y-72374447D01*
X142788320Y-72541309D01*
X142712027Y-72752985D01*
X142766745Y-73024511D01*
X142956029Y-73370923D01*
X143283436Y-73807257D01*
X143349936Y-73887687D01*
X143746919Y-74376004D01*
X144114546Y-74859712D01*
X144481863Y-75379838D01*
X144877913Y-75977414D01*
X145298781Y-76640702D01*
X145677165Y-77226922D01*
X145995533Y-77674341D01*
X146271849Y-78004437D01*
X146524080Y-78238689D01*
X146768246Y-78397562D01*
X147056624Y-78479605D01*
X147466421Y-78506097D01*
X147950882Y-78480546D01*
X148463250Y-78406458D01*
X148956767Y-78287340D01*
X149166449Y-78217702D01*
X149661173Y-77999035D01*
X150040964Y-77735408D01*
X150326279Y-77398154D01*
X150537573Y-76958607D01*
X150695304Y-76388100D01*
X150773649Y-75965433D01*
X150860561Y-75427676D01*
X150920101Y-75040983D01*
X150953284Y-74780447D01*
X150961128Y-74621162D01*
X150944648Y-74538222D01*
X150904861Y-74506720D01*
X150842784Y-74501750D01*
X150833379Y-74501754D01*
X150690246Y-74530615D01*
X150584120Y-74636088D01*
X150501862Y-74846505D01*
X150430328Y-75190200D01*
X150388785Y-75460305D01*
X150266574Y-76154250D01*
X150112072Y-76695626D01*
X149909056Y-77109387D01*
X149641301Y-77420484D01*
X149292586Y-77653871D01*
X148846686Y-77834498D01*
X148844726Y-77835135D01*
X148194742Y-77998797D01*
X147618117Y-78048598D01*
X147139503Y-77983617D01*
X146941826Y-77906358D01*
X146778998Y-77812454D01*
X146629553Y-77694267D01*
X146475224Y-77528318D01*
X146297742Y-77291127D01*
X146078838Y-76959215D01*
X145800245Y-76509102D01*
X145610583Y-76195381D01*
X145412155Y-75880706D01*
X145156044Y-75496690D01*
X144900003Y-75125659D01*
X145152754Y-75125659D01*
X145185125Y-75195302D01*
X145294167Y-75383198D01*
X145460121Y-75657696D01*
X145663223Y-75987143D01*
X145883713Y-76339884D01*
X146101829Y-76684269D01*
X146297809Y-76988644D01*
X146451892Y-77221356D01*
X146532652Y-77335894D01*
X146860389Y-77657726D01*
X147257412Y-77840155D01*
X147740923Y-77886959D01*
X148328124Y-77801918D01*
X148480669Y-77763837D01*
X149035746Y-77567873D01*
X149488754Y-77310261D01*
X149806049Y-77011240D01*
X149858685Y-76934888D01*
X149933346Y-76759663D01*
X150021446Y-76471824D01*
X150114107Y-76112686D01*
X150202454Y-75723567D01*
X150277608Y-75345786D01*
X150330694Y-75020659D01*
X150352835Y-74789504D01*
X150339581Y-74696540D01*
X150240234Y-74699012D01*
X150010967Y-74741968D01*
X149693288Y-74817063D01*
X149537513Y-74857782D01*
X148778246Y-75061825D01*
X148777912Y-75427930D01*
X148743590Y-75677873D01*
X148657172Y-75951181D01*
X148542882Y-76192412D01*
X148424944Y-76346125D01*
X148364833Y-76373333D01*
X148275551Y-76316359D01*
X148095534Y-76166154D01*
X147861795Y-75953796D01*
X147834122Y-75927719D01*
X147362950Y-75482105D01*
X146734712Y-75482105D01*
X146061063Y-75421689D01*
X145792198Y-75346901D01*
X147651264Y-75346901D01*
X147658808Y-75418887D01*
X147757583Y-75574234D01*
X147912177Y-75770871D01*
X148087175Y-75966729D01*
X148247164Y-76119741D01*
X148356729Y-76187835D01*
X148359460Y-76188188D01*
X148436369Y-76118983D01*
X148536773Y-75938942D01*
X148559986Y-75886020D01*
X148655118Y-75587744D01*
X148684629Y-75333204D01*
X148647484Y-75166670D01*
X148577719Y-75126111D01*
X148429343Y-75148395D01*
X148179648Y-75203474D01*
X147898561Y-75274683D01*
X147656008Y-75345357D01*
X147651264Y-75346901D01*
X145792198Y-75346901D01*
X145637623Y-75303904D01*
X145379984Y-75206960D01*
X145202998Y-75142220D01*
X145152754Y-75125659D01*
X144900003Y-75125659D01*
X144861951Y-75070517D01*
X144549579Y-74629367D01*
X144238630Y-74200424D01*
X143948805Y-73810870D01*
X143699808Y-73487888D01*
X143511338Y-73258659D01*
X143403900Y-73150877D01*
X143245103Y-73120080D01*
X143171591Y-73131353D01*
X143129402Y-73127892D01*
X143224674Y-73067460D01*
X143518921Y-73007278D01*
X143843843Y-73099881D01*
X144010175Y-73206123D01*
X144121015Y-73297541D01*
X144093260Y-73307243D01*
X143938516Y-73254929D01*
X143688610Y-73165661D01*
X143849393Y-73450451D01*
X143982080Y-73638535D01*
X144204787Y-73907078D01*
X144480020Y-74211997D01*
X144634035Y-74372938D01*
X144977409Y-74707029D01*
X145256713Y-74932757D01*
X145517073Y-75082641D01*
X145738008Y-75168469D01*
X145971438Y-75234123D01*
X146212796Y-75273682D01*
X146483360Y-75284341D01*
X146804411Y-75263295D01*
X147197225Y-75207738D01*
X147683084Y-75114866D01*
X148283265Y-74981874D01*
X149019049Y-74805956D01*
X149624912Y-74656086D01*
X150269689Y-74497945D01*
X150883485Y-74352547D01*
X151437252Y-74226376D01*
X151901943Y-74125917D01*
X152248514Y-74057653D01*
X152432281Y-74029405D01*
X152922456Y-73980971D01*
X152326518Y-74129959D01*
X152016547Y-74215262D01*
X151776455Y-74295758D01*
X151658155Y-74354040D01*
X151658097Y-74354100D01*
X151693328Y-74392370D01*
X151867305Y-74411466D01*
X152141822Y-74413630D01*
X152478670Y-74401105D01*
X152839643Y-74376133D01*
X153186532Y-74340957D01*
X153481130Y-74297820D01*
X153685230Y-74248965D01*
X153724561Y-74232805D01*
X153949956Y-74052365D01*
X154011251Y-73835758D01*
X153903031Y-73611287D01*
X153853070Y-73561047D01*
X153736160Y-73480327D01*
X153572091Y-73425449D01*
X153323593Y-73389835D01*
X152953395Y-73366904D01*
X152702199Y-73357862D01*
X151786597Y-73375492D01*
X150877163Y-73492546D01*
X149915565Y-73717711D01*
X149539324Y-73828784D01*
X149211540Y-73925779D01*
X148956007Y-73993004D01*
X148814282Y-74019843D01*
X148799343Y-74017822D01*
X148856892Y-73972975D01*
X149048047Y-73890334D01*
X149335491Y-73782674D01*
X149681908Y-73662767D01*
X150049980Y-73543389D01*
X150402392Y-73437311D01*
X150701826Y-73357310D01*
X150783509Y-73338625D01*
X151068801Y-73275109D01*
X151273739Y-73225253D01*
X151347098Y-73202630D01*
X151330211Y-73118639D01*
X151251032Y-72940413D01*
X151235172Y-72909241D01*
X151148780Y-72721004D01*
X151158066Y-72621050D01*
X151270718Y-72542651D01*
X151277832Y-72538832D01*
X151487419Y-72476072D01*
X151612565Y-72480517D01*
X151683140Y-72512494D01*
X151580859Y-72529737D01*
X151563333Y-72530714D01*
X151406106Y-72587053D01*
X151362807Y-72758600D01*
X151404365Y-72953642D01*
X151474210Y-73045515D01*
X151605664Y-73075394D01*
X151872466Y-73101201D01*
X152231718Y-73119620D01*
X152521403Y-73126420D01*
X153159514Y-73158011D01*
X153636370Y-73238134D01*
X153963500Y-73371539D01*
X154152434Y-73562979D01*
X154214703Y-73817203D01*
X154214737Y-73824164D01*
X154131276Y-74087151D01*
X153890717Y-74298035D01*
X153507792Y-74452096D01*
X152997233Y-74544618D01*
X152373774Y-74570882D01*
X151941497Y-74552148D01*
X151138784Y-74494181D01*
X150987464Y-75456038D01*
X150861432Y-76184608D01*
X150731232Y-76759388D01*
X150584739Y-77204660D01*
X150409827Y-77544701D01*
X150194371Y-77803792D01*
X149926244Y-78006211D01*
X149639153Y-78155809D01*
X148917824Y-78435307D01*
X148226017Y-78612322D01*
X147592175Y-78683018D01*
X147044745Y-78643557D01*
X146728421Y-78548437D01*
X146520408Y-78443114D01*
X146325174Y-78304012D01*
X146124874Y-78110100D01*
X145901663Y-77840348D01*
X145637696Y-77473724D01*
X145315127Y-76989196D01*
X145034062Y-76551579D01*
X144693477Y-76029802D01*
X144324604Y-75487230D01*
X143961070Y-74971893D01*
X143636502Y-74531822D01*
X143474149Y-74323509D01*
X143197622Y-73973220D01*
X142954376Y-73653288D01*
X142771463Y-73400055D01*
X142678048Y-73254035D01*
X142571378Y-72958754D01*
X142503893Y-72600011D01*
X142491062Y-72363540D01*
X142557758Y-72363540D01*
X142605232Y-72450482D01*
X142619110Y-72451930D01*
X142713377Y-72396985D01*
X142717895Y-72373619D01*
X142791464Y-72289099D01*
X142969811Y-72191051D01*
X142982518Y-72185698D01*
X143334180Y-72133313D01*
X143709687Y-72253090D01*
X144099965Y-72542011D01*
X144124552Y-72565530D01*
X144420338Y-72852216D01*
X144348941Y-72451547D01*
X144298688Y-71988848D01*
X144283628Y-71413092D01*
X144284323Y-71388082D01*
X144436312Y-71388082D01*
X144449898Y-71896036D01*
X144488021Y-72361258D01*
X144546896Y-72746784D01*
X144622739Y-73015649D01*
X144680013Y-73111005D01*
X144738906Y-73137797D01*
X144728723Y-73021610D01*
X144708857Y-72942105D01*
X144662871Y-72658349D01*
X144643180Y-72292519D01*
X144648280Y-71903554D01*
X144676669Y-71550392D01*
X144726842Y-71291968D01*
X144752562Y-71228534D01*
X144939785Y-70988299D01*
X145138095Y-70907598D01*
X145336014Y-70969154D01*
X145522066Y-71155688D01*
X145684772Y-71449923D01*
X145812655Y-71834582D01*
X145894239Y-72292386D01*
X145918044Y-72806059D01*
X145911908Y-72973768D01*
X145876290Y-73604109D01*
X146101829Y-73551832D01*
X146323521Y-73476146D01*
X146599829Y-73351515D01*
X146680095Y-73309952D01*
X146902320Y-73154625D01*
X147066401Y-72944332D01*
X147180057Y-72653223D01*
X147251007Y-72255443D01*
X147286972Y-71725142D01*
X147295526Y-71248772D01*
X147289363Y-70697815D01*
X147260406Y-70263460D01*
X147201995Y-69884797D01*
X147107469Y-69500915D01*
X147102479Y-69483310D01*
X146903867Y-68882922D01*
X146676911Y-68360465D01*
X146435027Y-67937800D01*
X146191635Y-67636788D01*
X145960150Y-67479290D01*
X145861279Y-67461053D01*
X145586112Y-67546977D01*
X145322828Y-67792049D01*
X145079298Y-68177213D01*
X144863394Y-68683417D01*
X144682990Y-69291607D01*
X144545956Y-69982728D01*
X144460166Y-70737728D01*
X144451046Y-70874361D01*
X144436312Y-71388082D01*
X144284323Y-71388082D01*
X144301069Y-70785394D01*
X144348320Y-70166870D01*
X144422689Y-69618634D01*
X144486919Y-69318896D01*
X144714101Y-68600817D01*
X144970713Y-68042068D01*
X145250269Y-67645055D01*
X145546283Y-67412184D01*
X145852271Y-67345862D01*
X146161745Y-67448494D01*
X146468221Y-67722487D01*
X146765213Y-68170247D01*
X146892785Y-68426347D01*
X147256356Y-69408105D01*
X147462804Y-70415483D01*
X147509638Y-71421685D01*
X147394366Y-72399915D01*
X147298533Y-72790670D01*
X147273477Y-72897202D01*
X147298616Y-72937245D01*
X147405813Y-72906925D01*
X147626931Y-72802370D01*
X147764035Y-72734091D01*
X148095896Y-72584909D01*
X148418305Y-72466708D01*
X148613574Y-72415227D01*
X148923084Y-72398072D01*
X149258117Y-72430620D01*
X149304276Y-72440051D01*
X149669474Y-72522105D01*
X149671799Y-72152807D01*
X149682420Y-71706926D01*
X149707146Y-71192410D01*
X149739641Y-70694868D01*
X149853186Y-70694868D01*
X149882718Y-70843474D01*
X149944991Y-70920448D01*
X150042021Y-70952017D01*
X150048172Y-70952924D01*
X150232178Y-71064202D01*
X150365207Y-71320800D01*
X150438974Y-71694984D01*
X150445194Y-72159015D01*
X150437849Y-72257400D01*
X150416395Y-72564403D01*
X150425132Y-72730802D01*
X150470391Y-72792636D01*
X150531769Y-72792137D01*
X150685001Y-72704069D01*
X150840555Y-72541053D01*
X150990959Y-72242810D01*
X151093391Y-71840954D01*
X151150803Y-71364584D01*
X151166151Y-70842804D01*
X151142391Y-70304716D01*
X151082476Y-69779422D01*
X150989361Y-69296024D01*
X150866002Y-68883623D01*
X150715353Y-68571323D01*
X150540368Y-68388225D01*
X150415259Y-68352281D01*
X150249172Y-68440086D01*
X150111078Y-68702460D01*
X150001592Y-69137842D01*
X149940884Y-69557023D01*
X149884285Y-70077868D01*
X149854380Y-70448408D01*
X149853186Y-70694868D01*
X149739641Y-70694868D01*
X149742822Y-70646168D01*
X149786289Y-70105107D01*
X149834390Y-69606136D01*
X149883967Y-69186162D01*
X149931864Y-68882093D01*
X149962086Y-68759716D01*
X150086293Y-68503534D01*
X150240345Y-68309911D01*
X150275398Y-68282553D01*
X150408428Y-68214736D01*
X150524221Y-68238437D01*
X150682946Y-68372279D01*
X150736534Y-68425279D01*
X150904727Y-68623174D01*
X150998985Y-68791724D01*
X151006316Y-68830341D01*
X151055649Y-68983435D01*
X151091580Y-69018317D01*
X151139604Y-68983079D01*
X151147360Y-68819686D01*
X151121316Y-68571994D01*
X151067940Y-68283858D01*
X150993702Y-67999132D01*
X150906759Y-67765285D01*
X150688302Y-67425243D01*
X150437193Y-67246784D01*
X150173456Y-67233222D01*
X149917116Y-67387872D01*
X149766292Y-67576496D01*
X149644869Y-67736398D01*
X149585881Y-67744947D01*
X149581852Y-67715373D01*
X149517889Y-67572187D01*
X149357931Y-67379794D01*
X149265320Y-67292039D01*
X149083305Y-67125815D01*
X149026407Y-67043646D01*
X149082700Y-67015610D01*
X149153916Y-67012473D01*
X149357544Y-67009508D01*
X149147144Y-66834228D01*
X148882779Y-66700679D01*
X148612407Y-66657583D01*
X148414728Y-66645451D01*
X148377898Y-66606429D01*
X148421754Y-66569824D01*
X148602802Y-66508088D01*
X148845088Y-66482066D01*
X149066855Y-66451564D01*
X149120485Y-66370279D01*
X149005034Y-66249223D01*
X148871794Y-66171061D01*
X148475370Y-66047438D01*
X148101164Y-66085497D01*
X147857223Y-66217640D01*
X147625145Y-66400193D01*
X147761302Y-66074323D01*
X147845315Y-65824002D01*
X147840428Y-65706871D01*
X147753847Y-65734072D01*
X147628827Y-65869493D01*
X147433208Y-66058453D01*
X147176944Y-66237660D01*
X147137404Y-66259857D01*
X146897750Y-66427666D01*
X146819821Y-66580145D01*
X146908523Y-66704656D01*
X147011977Y-66820761D01*
X147157031Y-67042002D01*
X147311620Y-67311204D01*
X147443680Y-67571192D01*
X147521147Y-67764789D01*
X147529690Y-67812301D01*
X147489624Y-67807449D01*
X147383178Y-67675519D01*
X147232303Y-67444252D01*
X147212319Y-67411248D01*
X146941710Y-66986904D01*
X146706463Y-66688394D01*
X146470463Y-66478266D01*
X146197597Y-66319066D01*
X146127875Y-66286637D01*
X145696643Y-66175582D01*
X145290728Y-66240753D01*
X144911965Y-66481685D01*
X144763215Y-66633132D01*
X144567413Y-66899101D01*
X144368862Y-67237535D01*
X144196591Y-67590486D01*
X144079628Y-67900007D01*
X144045853Y-68065173D01*
X144023416Y-68119007D01*
X143977224Y-68004208D01*
X143975693Y-67998755D01*
X143914417Y-67778914D01*
X143506471Y-68154945D01*
X143152656Y-68562161D01*
X142862464Y-69050469D01*
X142845131Y-69087769D01*
X142715657Y-69399659D01*
X142638338Y-69678483D01*
X142600176Y-69992940D01*
X142588170Y-70411723D01*
X142587973Y-70446667D01*
X142593674Y-70825666D01*
X142612121Y-71150649D01*
X142639855Y-71369965D01*
X142652911Y-71416868D01*
X142710945Y-71529067D01*
X142785405Y-71521211D01*
X142911393Y-71416868D01*
X143011307Y-71336179D01*
X143019066Y-71361864D01*
X142930976Y-71510897D01*
X142870398Y-71605263D01*
X142701412Y-71903629D01*
X142593508Y-72168822D01*
X142557758Y-72363540D01*
X142491062Y-72363540D01*
X142485156Y-72254683D01*
X142522670Y-72005066D01*
G37*
%TO.C,U3*%
X102270000Y-86505000D02*
X77020000Y-86505000D01*
X102270000Y-67215000D02*
X102270000Y-86505000D01*
X77020000Y-86505000D02*
X77020000Y-67215000D01*
X76770000Y-86760000D02*
X76770000Y-84480000D01*
X77020000Y-67215000D02*
X102270000Y-67215000D01*
X76770000Y-86760000D02*
X79480000Y-86760000D01*
%TO.C,Q6*%
X143440000Y-120000000D02*
X143440000Y-119350000D01*
X143440000Y-120000000D02*
X143440000Y-121675000D01*
X146560000Y-120000000D02*
X146560000Y-119350000D01*
X146560000Y-120000000D02*
X146560000Y-120650000D01*
%TO.C,Q4*%
X116400000Y-62640000D02*
X114725000Y-62640000D01*
X116400000Y-65760000D02*
X117050000Y-65760000D01*
X116400000Y-62640000D02*
X117050000Y-62640000D01*
X116400000Y-65760000D02*
X115750000Y-65760000D01*
%TO.C,R10*%
X137000000Y-117130000D02*
X137000000Y-118080000D01*
X137920000Y-121920000D02*
X137920000Y-118080000D01*
X136080000Y-121920000D02*
X137920000Y-121920000D01*
X137920000Y-118080000D02*
X136080000Y-118080000D01*
X136080000Y-118080000D02*
X136080000Y-121920000D01*
X137000000Y-122870000D02*
X137000000Y-121920000D01*
%TO.C,R11*%
X148000000Y-122870000D02*
X148000000Y-121920000D01*
X147080000Y-121920000D02*
X148920000Y-121920000D01*
X148920000Y-121920000D02*
X148920000Y-118080000D01*
X148000000Y-117130000D02*
X148000000Y-118080000D01*
X148920000Y-118080000D02*
X147080000Y-118080000D01*
X147080000Y-118080000D02*
X147080000Y-121920000D01*
%TO.C,Q3*%
X111000000Y-62640000D02*
X109325000Y-62640000D01*
X111000000Y-65760000D02*
X111650000Y-65760000D01*
X111000000Y-62640000D02*
X111650000Y-62640000D01*
X111000000Y-65760000D02*
X110350000Y-65760000D01*
%TO.C,Q1*%
X86000000Y-65760000D02*
X85350000Y-65760000D01*
X86000000Y-62640000D02*
X86650000Y-62640000D01*
X86000000Y-65760000D02*
X86650000Y-65760000D01*
X86000000Y-62640000D02*
X84325000Y-62640000D01*
%TO.C,R14*%
X161920000Y-118080000D02*
X160080000Y-118080000D01*
X160080000Y-121920000D02*
X161920000Y-121920000D01*
X160080000Y-118080000D02*
X160080000Y-121920000D01*
X161000000Y-122870000D02*
X161000000Y-121920000D01*
X161920000Y-121920000D02*
X161920000Y-118080000D01*
X161000000Y-117130000D02*
X161000000Y-118080000D01*
%TO.C,U1*%
X77500000Y-127500000D02*
X77500000Y-106500000D01*
X90100000Y-106500000D02*
X90500000Y-106500000D01*
X100300000Y-127500000D02*
X100700000Y-127500000D01*
X77500000Y-106500000D02*
X77800000Y-106500000D01*
X123100000Y-106500000D02*
X123500000Y-106500000D01*
X128500000Y-106500000D02*
X128500000Y-113300000D01*
X110400000Y-127500000D02*
X110800000Y-127500000D01*
X125700000Y-106500000D02*
X126100000Y-106500000D01*
X110400000Y-106500000D02*
X110800000Y-106500000D01*
X128500000Y-115900000D02*
X128500000Y-115500000D01*
X102800000Y-106500000D02*
X103200000Y-106500000D01*
X118100000Y-106500000D02*
X118500000Y-106500000D01*
X120600000Y-106500000D02*
X121000000Y-106500000D01*
X105300000Y-127500000D02*
X105700000Y-127500000D01*
X115500000Y-127500000D02*
X115900000Y-127500000D01*
X77500000Y-127500000D02*
X77800000Y-127500000D01*
X92600000Y-106500000D02*
X93000000Y-106500000D01*
X123100000Y-127500000D02*
X123500000Y-127500000D01*
X118100000Y-127500000D02*
X118500000Y-127500000D01*
X100300000Y-106500000D02*
X100700000Y-106500000D01*
X92600000Y-127500000D02*
X93000000Y-127500000D01*
X107900000Y-127500000D02*
X108300000Y-127500000D01*
X113000000Y-127500000D02*
X113400000Y-127500000D01*
X113000000Y-106500000D02*
X113400000Y-106500000D01*
X90100000Y-127500000D02*
X90500000Y-127500000D01*
X97700000Y-106500000D02*
X98100000Y-106500000D01*
X87600000Y-127500000D02*
X88000000Y-127500000D01*
X107900000Y-106500000D02*
X108300000Y-106500000D01*
X128500000Y-118500000D02*
X128500000Y-118100000D01*
X79900000Y-127500000D02*
X80300000Y-127500000D01*
X85000000Y-127500000D02*
X85400000Y-127500000D01*
X128500000Y-120700000D02*
X128500000Y-127500000D01*
X87600000Y-106500000D02*
X88000000Y-106500000D01*
X82500000Y-127500000D02*
X82900000Y-127500000D01*
X102800000Y-127500000D02*
X103200000Y-127500000D01*
X95200000Y-106500000D02*
X95600000Y-106500000D01*
X82500000Y-106500000D02*
X82900000Y-106500000D01*
X125700000Y-127500000D02*
X126100000Y-127500000D01*
X105300000Y-106500000D02*
X105700000Y-106500000D01*
X79900000Y-106500000D02*
X80300000Y-106500000D01*
X80167000Y-127500000D02*
X80167000Y-124493000D01*
X95200000Y-127500000D02*
X95600000Y-127500000D01*
X97700000Y-127500000D02*
X98100000Y-127500000D01*
X120600000Y-127500000D02*
X121000000Y-127500000D01*
X80167000Y-124493000D02*
X77500000Y-124493000D01*
X115500000Y-106500000D02*
X115900000Y-106500000D01*
X85000000Y-106500000D02*
X85400000Y-106500000D01*
%TO.C,R12*%
X150080000Y-118080000D02*
X150080000Y-121920000D01*
X151000000Y-122870000D02*
X151000000Y-121920000D01*
X151920000Y-118080000D02*
X150080000Y-118080000D01*
X151920000Y-121920000D02*
X151920000Y-118080000D01*
X151000000Y-117130000D02*
X151000000Y-118080000D01*
X150080000Y-121920000D02*
X151920000Y-121920000D01*
%TO.C,R5*%
X118280000Y-90480000D02*
X118280000Y-94320000D01*
X119200000Y-89530000D02*
X119200000Y-90480000D01*
X120120000Y-90480000D02*
X118280000Y-90480000D01*
X118280000Y-94320000D02*
X120120000Y-94320000D01*
X120120000Y-94320000D02*
X120120000Y-90480000D01*
X119200000Y-95270000D02*
X119200000Y-94320000D01*
%TO.C,R3*%
X83280000Y-94520000D02*
X85120000Y-94520000D01*
X84200000Y-89730000D02*
X84200000Y-90680000D01*
X85120000Y-90680000D02*
X83280000Y-90680000D01*
X84200000Y-95470000D02*
X84200000Y-94520000D01*
X85120000Y-94520000D02*
X85120000Y-90680000D01*
X83280000Y-90680000D02*
X83280000Y-94520000D01*
%TO.C,R4*%
X115480000Y-94320000D02*
X117320000Y-94320000D01*
X115480000Y-90480000D02*
X115480000Y-94320000D01*
X116400000Y-89530000D02*
X116400000Y-90480000D01*
X117320000Y-90480000D02*
X115480000Y-90480000D01*
X116400000Y-95270000D02*
X116400000Y-94320000D01*
X117320000Y-94320000D02*
X117320000Y-90480000D01*
%TO.C,R6*%
X121080000Y-90480000D02*
X121080000Y-94320000D01*
X122000000Y-89530000D02*
X122000000Y-90480000D01*
X121080000Y-94320000D02*
X122920000Y-94320000D01*
X122920000Y-94320000D02*
X122920000Y-90480000D01*
X122920000Y-90480000D02*
X121080000Y-90480000D01*
X122000000Y-95270000D02*
X122000000Y-94320000D01*
%TO.C,R7*%
X125720000Y-90480000D02*
X123880000Y-90480000D01*
X125720000Y-94320000D02*
X125720000Y-90480000D01*
X124800000Y-95270000D02*
X124800000Y-94320000D01*
X123880000Y-90480000D02*
X123880000Y-94320000D01*
X124800000Y-89530000D02*
X124800000Y-90480000D01*
X123880000Y-94320000D02*
X125720000Y-94320000D01*
%TO.C,Q5*%
X142560000Y-120000000D02*
X142560000Y-120650000D01*
X139440000Y-120000000D02*
X139440000Y-119350000D01*
X139440000Y-120000000D02*
X139440000Y-121675000D01*
X142560000Y-120000000D02*
X142560000Y-119350000D01*
%TO.C,Q2*%
X93600000Y-65760000D02*
X94250000Y-65760000D01*
X93600000Y-65760000D02*
X92950000Y-65760000D01*
X93600000Y-62640000D02*
X94250000Y-62640000D01*
X93600000Y-62640000D02*
X91925000Y-62640000D01*
%TO.C,R1*%
X77680000Y-94520000D02*
X79520000Y-94520000D01*
X79520000Y-94520000D02*
X79520000Y-90680000D01*
X77680000Y-90680000D02*
X77680000Y-94520000D01*
X79520000Y-90680000D02*
X77680000Y-90680000D01*
X78600000Y-95470000D02*
X78600000Y-94520000D01*
X78600000Y-89730000D02*
X78600000Y-90680000D01*
%TO.C,R9*%
X134920000Y-118080000D02*
X133080000Y-118080000D01*
X134920000Y-121920000D02*
X134920000Y-118080000D01*
X133080000Y-121920000D02*
X134920000Y-121920000D01*
X134000000Y-122870000D02*
X134000000Y-121920000D01*
X133080000Y-118080000D02*
X133080000Y-121920000D01*
X134000000Y-117130000D02*
X134000000Y-118080000D01*
%TD*%
M02*
