M48
; DRILL file {KiCad (6.0.0)} date Mon Jun 20 15:54:43 2022
; FORMAT={-:-/ absolute / inch / decimal}
; #@! TF.CreationDate,2022-06-20T15:54:43+02:00
; #@! TF.GenerationSoftware,Kicad,Pcbnew,(6.0.0)
; #@! TF.FileFunction,Plated,1,2,PTH
FMAT,2
INCH
; #@! TA.AperFunction,Plated,PTH,ViaDrill
T1C0.0157
; #@! TA.AperFunction,Plated,PTH,ComponentDrill
T2C0.0276
; #@! TA.AperFunction,Plated,PTH,ComponentDrill
T3C0.0394
; #@! TA.AperFunction,Plated,PTH,ComponentDrill
T4C0.0402
%
G90
G05
T1
X3.2283Y-2.5591
X3.5307Y-2.6244
X3.5827Y-2.5591
X3.7402Y-2.5906
X3.7972Y-3.2449
X4.252Y-2.5591
X4.4409Y-2.622
X4.4882Y-2.5591
X4.5079Y-4.4488
X4.6063Y-4.4094
X4.6378Y-2.6142
X4.7047Y-4.3701
X4.9016Y-4.3307
X5.1098Y-4.1496
X5.1491Y-4.1496
X5.1885Y-4.1491
X5.2283Y-4.1496
X5.5118Y-4.8425
X5.5866Y-4.8425
X5.6693Y-4.8425
X5.7362Y-4.8386
X5.748Y-3.5118
X6.063Y-4.8425
X6.1299Y-4.8465
T2
X3.0945Y-3.4957
X3.0945Y-3.7957
X3.2047Y-3.4957
X3.2047Y-3.7957
X3.315Y-3.4957
X3.315Y-3.7957
X4.5827Y-3.4878
X4.5827Y-3.7878
X4.6929Y-3.4878
X4.6929Y-3.7878
X4.8031Y-3.4878
X4.8031Y-3.7878
X4.9134Y-3.4878
X4.9134Y-3.7878
X5.0236Y-3.4874
X5.0236Y-3.7874
X5.2756Y-4.5744
X5.2756Y-4.8744
X5.3937Y-4.5744
X5.3937Y-4.8744
X5.8268Y-4.5744
X5.8268Y-4.8744
X5.9449Y-4.5744
X5.9449Y-4.8744
X6.2205Y-4.5744
X6.2205Y-4.8744
X6.3386Y-4.5744
X6.3386Y-4.8744
T3
X3.1291Y-2.726
X3.1291Y-3.326
X3.2291Y-2.726
X3.2291Y-3.326
X3.3291Y-2.726
X3.3291Y-3.326
X3.4291Y-2.726
X3.4291Y-3.326
X3.5291Y-2.726
X3.5291Y-3.326
X3.6291Y-2.726
X3.6291Y-3.326
X3.7291Y-2.726
X3.7291Y-3.326
X3.8291Y-2.726
X3.8291Y-3.326
X3.9291Y-2.726
X3.9291Y-3.326
X4.1484Y-2.7268
X4.1484Y-3.3268
X4.2484Y-2.7268
X4.2484Y-3.3268
X4.3484Y-2.7268
X4.3484Y-3.3268
X4.4484Y-2.7268
X4.4484Y-3.3268
X4.5484Y-2.7268
X4.5484Y-3.3268
X4.6484Y-2.7268
X4.6484Y-3.3268
X4.7484Y-2.7268
X4.7484Y-3.3268
X4.8484Y-2.7268
X4.8484Y-3.3268
X4.9484Y-2.7268
X4.9484Y-3.3268
T4
X3.1051Y-4.2563
X3.1051Y-4.9563
X3.2051Y-4.2563
X3.2051Y-4.9563
X3.3051Y-4.2563
X3.3051Y-4.9563
X3.4051Y-4.2563
X3.4051Y-4.9563
X3.5051Y-4.2563
X3.5051Y-4.9563
X3.6051Y-4.2563
X3.6051Y-4.9563
X3.7051Y-4.2563
X3.7051Y-4.9563
X3.8051Y-4.2563
X3.8051Y-4.9563
X3.9051Y-4.2563
X3.9051Y-4.9563
X4.0051Y-4.2563
X4.0051Y-4.9563
X4.1051Y-4.2563
X4.1051Y-4.9563
X4.2051Y-4.2563
X4.2051Y-4.9563
X4.3051Y-4.2563
X4.3051Y-4.9563
X4.4051Y-4.2563
X4.4051Y-4.9563
X4.5051Y-4.2563
X4.5051Y-4.9563
X4.6051Y-4.2563
X4.6051Y-4.9563
X4.7051Y-4.2563
X4.7051Y-4.9563
X4.8051Y-4.2563
X4.8051Y-4.9563
X4.9051Y-4.2563
X4.9051Y-4.9563
X4.9961Y-4.5063
X4.9961Y-4.6063
X4.9961Y-4.7063
X5.0051Y-4.2563
X5.0051Y-4.9563
T0
M30
