M48
; DRILL file {KiCad (6.0.0)} date Fri Aug 12 16:53:41 2022
; FORMAT={-:-/ absolute / inch / decimal}
; #@! TF.CreationDate,2022-08-12T16:53:41+02:00
; #@! TF.GenerationSoftware,Kicad,Pcbnew,(6.0.0)
; #@! TF.FileFunction,Plated,1,2,PTH
FMAT,2
INCH
; #@! TA.AperFunction,Plated,PTH,ViaDrill
T1C0.0157
; #@! TA.AperFunction,Plated,PTH,ComponentDrill
T2C0.0315
; #@! TA.AperFunction,Plated,PTH,ComponentDrill
T3C0.0394
; #@! TA.AperFunction,Plated,PTH,ComponentDrill
T4C0.0402
%
G90
G05
T1
X3.3858Y-2.6378
X3.4252Y-2.4803
X3.5827Y-2.5
X3.7402Y-2.4803
X3.7598Y-3.4646
X3.878Y-2.5
X4.4094Y-2.4803
X4.5163Y-4.6766
X4.5669Y-2.5
X4.6063Y-4.6457
X4.6457Y-2.4803
X4.7047Y-4.6063
X4.7835Y-2.5
X4.8228Y-3.2283
X4.9213Y-4.5669
X5.7677Y-3.563
X5.9646Y-4.9409
X6.0039Y-3.6811
X6.2795Y-4.9409
X6.4567Y-4.9409
T2
X3.1811Y-3.6055
X3.1811Y-4.2055
X3.3268Y-3.6055
X3.3268Y-4.2055
X3.4646Y-3.6055
X3.4646Y-4.2055
X4.4488Y-3.5976
X4.4488Y-4.1976
X4.5866Y-3.5976
X4.5866Y-4.1976
X4.7244Y-3.5976
X4.7244Y-4.1976
X4.8622Y-3.5976
X4.8622Y-4.1976
X5.0039Y-3.5972
X5.0039Y-4.1972
X5.3543Y-4.5228
X5.3543Y-5.1228
X5.4921Y-4.5197
X5.4921Y-5.1197
X5.6299Y-4.5228
X5.6299Y-5.1228
X5.7677Y-4.5228
X5.7677Y-5.1228
X6.0827Y-4.5228
X6.0827Y-5.1228
X6.5748Y-4.5228
X6.5748Y-5.1228
T3
X3.213Y-2.7457
X3.213Y-3.3457
X3.313Y-2.7457
X3.313Y-3.3457
X3.413Y-2.7457
X3.413Y-3.3457
X3.513Y-2.7457
X3.513Y-3.3457
X3.613Y-2.7457
X3.613Y-3.3457
X3.713Y-2.7457
X3.713Y-3.3457
X3.813Y-2.7457
X3.813Y-3.3457
X3.913Y-2.7457
X3.913Y-3.3457
X4.013Y-2.7457
X4.013Y-3.3457
X4.2323Y-2.7465
X4.2323Y-3.3465
X4.3323Y-2.7465
X4.3323Y-3.3465
X4.4323Y-2.7465
X4.4323Y-3.3465
X4.5323Y-2.7465
X4.5323Y-3.3465
X4.6323Y-2.7465
X4.6323Y-3.3465
X4.7323Y-2.7465
X4.7323Y-3.3465
X4.8323Y-2.7465
X4.8323Y-3.3465
X4.9323Y-2.7465
X4.9323Y-3.3465
X5.0323Y-2.7465
X5.0323Y-3.3465
T4
X3.1051Y-4.4728
X3.1051Y-5.1728
X3.2051Y-4.4728
X3.2051Y-5.1728
X3.3051Y-4.4728
X3.3051Y-5.1728
X3.4051Y-4.4728
X3.4051Y-5.1728
X3.5051Y-4.4728
X3.5051Y-5.1728
X3.6051Y-4.4728
X3.6051Y-5.1728
X3.7051Y-4.4728
X3.7051Y-5.1728
X3.8051Y-4.4728
X3.8051Y-5.1728
X3.9051Y-4.4728
X3.9051Y-5.1728
X4.0051Y-4.4728
X4.0051Y-5.1728
X4.1051Y-4.4728
X4.1051Y-5.1728
X4.2051Y-4.4728
X4.2051Y-5.1728
X4.3051Y-4.4728
X4.3051Y-5.1728
X4.4051Y-4.4728
X4.4051Y-5.1728
X4.5051Y-4.4728
X4.5051Y-5.1728
X4.6051Y-4.4728
X4.6051Y-5.1728
X4.7051Y-4.4728
X4.7051Y-5.1728
X4.8051Y-4.4728
X4.8051Y-5.1728
X4.9051Y-4.4728
X4.9051Y-5.1728
X4.9961Y-4.7228
X4.9961Y-4.8228
X4.9961Y-4.9228
X5.0051Y-4.4728
X5.0051Y-5.1728
T0
M30
