%TF.GenerationSoftware,KiCad,Pcbnew,(6.0.0)*%
%TF.CreationDate,2022-08-12T16:53:37+02:00*%
%TF.ProjectId,PulseOximeter,50756c73-654f-4786-996d-657465722e6b,rev?*%
%TF.SameCoordinates,Original*%
%TF.FileFunction,Legend,Bot*%
%TF.FilePolarity,Positive*%
%FSLAX46Y46*%
G04 Gerber Fmt 4.6, Leading zero omitted, Abs format (unit mm)*
G04 Created by KiCad (PCBNEW (6.0.0)) date 2022-08-12 16:53:37*
%MOMM*%
%LPD*%
G01*
G04 APERTURE LIST*
%ADD10C,0.300000*%
%ADD11O,1.600000X1.600000*%
%ADD12C,1.600000*%
%ADD13R,1.500000X1.500000*%
%ADD14C,1.500000*%
%ADD15O,1.700000X1.700000*%
%ADD16R,1.700000X1.700000*%
G04 APERTURE END LIST*
D10*
X168428571Y-133678571D02*
X168428571Y-134750000D01*
X168500000Y-134964285D01*
X168642857Y-135107142D01*
X168857142Y-135178571D01*
X169000000Y-135178571D01*
X167000000Y-135178571D02*
X167714285Y-135178571D01*
X167714285Y-133678571D01*
X165642857Y-135035714D02*
X165714285Y-135107142D01*
X165928571Y-135178571D01*
X166071428Y-135178571D01*
X166285714Y-135107142D01*
X166428571Y-134964285D01*
X166500000Y-134821428D01*
X166571428Y-134535714D01*
X166571428Y-134321428D01*
X166500000Y-134035714D01*
X166428571Y-133892857D01*
X166285714Y-133750000D01*
X166071428Y-133678571D01*
X165928571Y-133678571D01*
X165714285Y-133750000D01*
X165642857Y-133821428D01*
X164571428Y-133678571D02*
X164571428Y-134750000D01*
X164642857Y-134964285D01*
X164785714Y-135107142D01*
X165000000Y-135178571D01*
X165142857Y-135178571D01*
X163142857Y-135178571D02*
X163857142Y-135178571D01*
X163857142Y-133678571D01*
X161785714Y-135035714D02*
X161857142Y-135107142D01*
X162071428Y-135178571D01*
X162214285Y-135178571D01*
X162428571Y-135107142D01*
X162571428Y-134964285D01*
X162642857Y-134821428D01*
X162714285Y-134535714D01*
X162714285Y-134321428D01*
X162642857Y-134035714D01*
X162571428Y-133892857D01*
X162428571Y-133750000D01*
X162214285Y-133678571D01*
X162071428Y-133678571D01*
X161857142Y-133750000D01*
X161785714Y-133821428D01*
X160714285Y-133678571D02*
X160714285Y-134750000D01*
X160785714Y-134964285D01*
X160928571Y-135107142D01*
X161142857Y-135178571D01*
X161285714Y-135178571D01*
X159285714Y-135178571D02*
X160000000Y-135178571D01*
X160000000Y-133678571D01*
X157928571Y-135035714D02*
X158000000Y-135107142D01*
X158214285Y-135178571D01*
X158357142Y-135178571D01*
X158571428Y-135107142D01*
X158714285Y-134964285D01*
X158785714Y-134821428D01*
X158857142Y-134535714D01*
X158857142Y-134321428D01*
X158785714Y-134035714D01*
X158714285Y-133892857D01*
X158571428Y-133750000D01*
X158357142Y-133678571D01*
X158214285Y-133678571D01*
X158000000Y-133750000D01*
X157928571Y-133821428D01*
X156857142Y-133678571D02*
X156857142Y-134750000D01*
X156928571Y-134964285D01*
X157071428Y-135107142D01*
X157285714Y-135178571D01*
X157428571Y-135178571D01*
X155428571Y-135178571D02*
X156142857Y-135178571D01*
X156142857Y-133678571D01*
X154071428Y-135035714D02*
X154142857Y-135107142D01*
X154357142Y-135178571D01*
X154500000Y-135178571D01*
X154714285Y-135107142D01*
X154857142Y-134964285D01*
X154928571Y-134821428D01*
X155000000Y-134535714D01*
X155000000Y-134321428D01*
X154928571Y-134035714D01*
X154857142Y-133892857D01*
X154714285Y-133750000D01*
X154500000Y-133678571D01*
X154357142Y-133678571D01*
X154142857Y-133750000D01*
X154071428Y-133821428D01*
%TO.C,G\u002A\u002A\u002A*%
G36*
X87204874Y-130024606D02*
G01*
X87242923Y-130071968D01*
X87275970Y-130093815D01*
X87282513Y-130094801D01*
X87301719Y-130123781D01*
X87299936Y-130128485D01*
X87269875Y-130123340D01*
X87214450Y-130089226D01*
X87127181Y-130024706D01*
X87040412Y-130107837D01*
X87026429Y-130121627D01*
X86979280Y-130183718D01*
X86981743Y-130224827D01*
X86986708Y-130231700D01*
X86980153Y-130252461D01*
X86922051Y-130258687D01*
X86912255Y-130258598D01*
X86861250Y-130250557D01*
X86864357Y-130228588D01*
X86870589Y-130219024D01*
X86859848Y-130173744D01*
X86801341Y-130102418D01*
X86708227Y-130006348D01*
X86612840Y-130098801D01*
X86567561Y-130146316D01*
X86539408Y-130194505D01*
X86549460Y-130229819D01*
X86555686Y-130237840D01*
X86558503Y-130261999D01*
X86511440Y-130268385D01*
X86453631Y-130251758D01*
X86389549Y-130180587D01*
X86382454Y-130169045D01*
X86342892Y-130119610D01*
X86314741Y-130106969D01*
X86302861Y-130098524D01*
X86305139Y-130051355D01*
X86312518Y-130033096D01*
X86399771Y-130033096D01*
X86412922Y-130059637D01*
X86454661Y-130105375D01*
X86470713Y-130119412D01*
X86503229Y-130135908D01*
X86535420Y-130117859D01*
X86584660Y-130059079D01*
X86628990Y-129996399D01*
X86633662Y-129979128D01*
X86737178Y-129979128D01*
X86825466Y-130067417D01*
X86913754Y-130155705D01*
X87068796Y-129952435D01*
X86992215Y-129892197D01*
X86955920Y-129864368D01*
X86904807Y-129837539D01*
X86862811Y-129850699D01*
X86806307Y-129905544D01*
X86759185Y-129955703D01*
X86737178Y-129979128D01*
X86633662Y-129979128D01*
X86639998Y-129955703D01*
X86619540Y-129922878D01*
X86591973Y-129903015D01*
X86552719Y-129907206D01*
X86489541Y-129946570D01*
X86474472Y-129957621D01*
X86421272Y-130003149D01*
X86399771Y-130033096D01*
X86312518Y-130033096D01*
X86322359Y-130008745D01*
X86353492Y-129994996D01*
X86373171Y-129991597D01*
X86423212Y-129955156D01*
X86482794Y-129891100D01*
X86483865Y-129889770D01*
X86547279Y-129818915D01*
X86595304Y-129779568D01*
X86620580Y-129776068D01*
X86615747Y-129812750D01*
X86615767Y-129842554D01*
X86647422Y-129890434D01*
X86677800Y-129908875D01*
X86715340Y-129900919D01*
X86770072Y-129853119D01*
X86804996Y-129815274D01*
X86826711Y-129771658D01*
X86810847Y-129734639D01*
X86795938Y-129710580D01*
X86812638Y-129696674D01*
X86877444Y-129695062D01*
X86896563Y-129695892D01*
X86951595Y-129706663D01*
X86952873Y-129729771D01*
X86949562Y-129735047D01*
X86961430Y-129778053D01*
X87025190Y-129840370D01*
X87123917Y-129919147D01*
X87168855Y-129854989D01*
X87174551Y-129846753D01*
X87195873Y-129803827D01*
X87184766Y-129765619D01*
X87136223Y-129709866D01*
X87121153Y-129693547D01*
X87081787Y-129642229D01*
X87073204Y-129614349D01*
X87081157Y-129615823D01*
X87122587Y-129645935D01*
X87189614Y-129705431D01*
X87272377Y-129785822D01*
X87308779Y-129821550D01*
X87392810Y-129896377D01*
X87458619Y-129944193D01*
X87495739Y-129956980D01*
X87516538Y-129950375D01*
X87531408Y-129957175D01*
X87509175Y-129994721D01*
X87447659Y-130068051D01*
X87395829Y-130129237D01*
X87366611Y-130177479D01*
X87372603Y-130208832D01*
X87410825Y-130236960D01*
X87434936Y-130255611D01*
X87427090Y-130267500D01*
X87414960Y-130266111D01*
X87372890Y-130236755D01*
X87356831Y-130220860D01*
X87321711Y-130236755D01*
X87305840Y-130249313D01*
X87249993Y-130268385D01*
X87243911Y-130252993D01*
X87270503Y-130204116D01*
X87327560Y-130130742D01*
X87445214Y-129993099D01*
X87290874Y-129832003D01*
X87225201Y-129893701D01*
X87186401Y-129934280D01*
X87181944Y-129952435D01*
X87177052Y-129972366D01*
X87204874Y-130024606D01*
G37*
G36*
X89403056Y-123213552D02*
G01*
X89334546Y-123207700D01*
X89304760Y-123202819D01*
X89241491Y-123210570D01*
X89192962Y-123256288D01*
X89189718Y-123259344D01*
X89170686Y-123287657D01*
X89152192Y-123348804D01*
X89136324Y-123401267D01*
X89150838Y-123502018D01*
X89154503Y-123527455D01*
X89224511Y-123658071D01*
X89244088Y-123683082D01*
X89330485Y-123758512D01*
X89411304Y-123779372D01*
X89478718Y-123748501D01*
X89524905Y-123668735D01*
X89542039Y-123542914D01*
X89543664Y-123494660D01*
X89553327Y-123428071D01*
X89568796Y-123401948D01*
X89581082Y-123410837D01*
X89609671Y-123460821D01*
X89640150Y-123540149D01*
X89700613Y-123780115D01*
X89703634Y-123792104D01*
X89720735Y-123945486D01*
X89733669Y-124061494D01*
X89731815Y-124114777D01*
X89727419Y-124241123D01*
X89724694Y-124319426D01*
X89723865Y-124323625D01*
X89699032Y-124449370D01*
X89696164Y-124463890D01*
X89681794Y-124536655D01*
X89677754Y-124557112D01*
X89593893Y-124765761D01*
X89474157Y-124936584D01*
X89448443Y-124963844D01*
X89327578Y-125070246D01*
X89202109Y-125137514D01*
X89050247Y-125178060D01*
X88912724Y-125195892D01*
X88657407Y-125191709D01*
X88415015Y-125140446D01*
X88195553Y-125044708D01*
X88009028Y-124907098D01*
X87964221Y-124863671D01*
X87867530Y-124755851D01*
X87802316Y-124650474D01*
X87762839Y-124532540D01*
X87745863Y-124405728D01*
X87986279Y-124405728D01*
X87987897Y-124467184D01*
X88008091Y-124582692D01*
X88057856Y-124680305D01*
X88145372Y-124773123D01*
X88278819Y-124874247D01*
X88343928Y-124917956D01*
X88413938Y-124957022D01*
X88482434Y-124979055D01*
X88569317Y-124989844D01*
X88694487Y-124995181D01*
X88863799Y-124993046D01*
X89004445Y-124970724D01*
X89117437Y-124923692D01*
X89217277Y-124847861D01*
X89298223Y-124752305D01*
X89351175Y-124625054D01*
X89361642Y-124521523D01*
X89490066Y-124521523D01*
X89493548Y-124556052D01*
X89502299Y-124560604D01*
X89512944Y-124536655D01*
X89510845Y-124521253D01*
X89493548Y-124517259D01*
X89490066Y-124521523D01*
X89361642Y-124521523D01*
X89367469Y-124463890D01*
X89367469Y-124332990D01*
X89460283Y-124332990D01*
X89464796Y-124349032D01*
X89498397Y-124391180D01*
X89537545Y-124430250D01*
X89565606Y-124449370D01*
X89561092Y-124433328D01*
X89527492Y-124391180D01*
X89488344Y-124352110D01*
X89460283Y-124332990D01*
X89367469Y-124332990D01*
X89367469Y-124300949D01*
X89275569Y-124396348D01*
X89243815Y-124429311D01*
X89121720Y-124534330D01*
X88978381Y-124602522D01*
X88815786Y-124623941D01*
X88690823Y-124604827D01*
X88542580Y-124536612D01*
X88406748Y-124427759D01*
X88294460Y-124287541D01*
X88246634Y-124187515D01*
X88412860Y-124187515D01*
X88417374Y-124203557D01*
X88450974Y-124245705D01*
X88490122Y-124284774D01*
X88518183Y-124303895D01*
X88513670Y-124287853D01*
X88480069Y-124245705D01*
X88440922Y-124206635D01*
X88412860Y-124187515D01*
X88246634Y-124187515D01*
X88216854Y-124125231D01*
X88213079Y-124114777D01*
X88290951Y-124114777D01*
X88305499Y-124129324D01*
X88320046Y-124114777D01*
X88305499Y-124100229D01*
X88290951Y-124114777D01*
X88213079Y-124114777D01*
X88198088Y-124073267D01*
X88168976Y-124008966D01*
X88148495Y-123983849D01*
X88137167Y-123991119D01*
X88101726Y-124035735D01*
X88070668Y-124085682D01*
X88057100Y-124107503D01*
X88033981Y-124152190D01*
X87997417Y-124266151D01*
X87986279Y-124405728D01*
X87745863Y-124405728D01*
X87743362Y-124387045D01*
X87738145Y-124198989D01*
X87742208Y-124085682D01*
X87883620Y-124085682D01*
X87898168Y-124100229D01*
X87912715Y-124085682D01*
X87898168Y-124071134D01*
X87883620Y-124085682D01*
X87742208Y-124085682D01*
X87746676Y-123961103D01*
X87750090Y-123936644D01*
X87883620Y-123936644D01*
X87889530Y-123960291D01*
X87927263Y-123983849D01*
X87947144Y-123982635D01*
X87970905Y-123972864D01*
X87963422Y-123960522D01*
X87927263Y-123925659D01*
X87923033Y-123922193D01*
X87891273Y-123905770D01*
X87883620Y-123936644D01*
X87750090Y-123936644D01*
X87767470Y-123812112D01*
X87929279Y-123812112D01*
X87936583Y-123831423D01*
X87979502Y-123864548D01*
X88015419Y-123885564D01*
X88026075Y-123886480D01*
X87993419Y-123850631D01*
X87956984Y-123819633D01*
X87929279Y-123812112D01*
X87767470Y-123812112D01*
X87776801Y-123745248D01*
X87831538Y-123557932D01*
X87840751Y-123538622D01*
X87970905Y-123538622D01*
X87971692Y-123542019D01*
X88000467Y-123578097D01*
X88062347Y-123636191D01*
X88145955Y-123705461D01*
X88147508Y-123706682D01*
X88239155Y-123781128D01*
X88358421Y-123881300D01*
X88364458Y-123886480D01*
X88465137Y-123972864D01*
X88490042Y-123994233D01*
X88618750Y-124106965D01*
X88622365Y-124110169D01*
X88627612Y-124114777D01*
X88729655Y-124204392D01*
X88795482Y-124259999D01*
X88821075Y-124277854D01*
X88807662Y-124258819D01*
X88756472Y-124203759D01*
X88698438Y-124145432D01*
X88586525Y-124039303D01*
X88459302Y-123923997D01*
X88334594Y-123815900D01*
X88236836Y-123733512D01*
X88139136Y-123651166D01*
X88063771Y-123587637D01*
X88021822Y-123552266D01*
X87988792Y-123531449D01*
X87970905Y-123538622D01*
X87840751Y-123538622D01*
X87892743Y-123429655D01*
X88033800Y-123429655D01*
X88056325Y-123463621D01*
X88112233Y-123515051D01*
X88208331Y-123592369D01*
X88249775Y-123626151D01*
X88351067Y-123713704D01*
X88475209Y-123825406D01*
X88610231Y-123950412D01*
X88744164Y-124077876D01*
X88839678Y-124168685D01*
X88946228Y-124265995D01*
X88960006Y-124277854D01*
X88990260Y-124303895D01*
X89032667Y-124340396D01*
X89091933Y-124385857D01*
X89116967Y-124396348D01*
X89105485Y-124370800D01*
X89058206Y-124314332D01*
X88982515Y-124236330D01*
X88886401Y-124145489D01*
X88796500Y-124060984D01*
X88718810Y-123982233D01*
X88669718Y-123925659D01*
X88732906Y-123925659D01*
X88737420Y-123941701D01*
X88771020Y-123983849D01*
X88810168Y-124022919D01*
X88838229Y-124042039D01*
X88833715Y-124025997D01*
X88800115Y-123983849D01*
X88760967Y-123944779D01*
X88732906Y-123925659D01*
X88669718Y-123925659D01*
X88668810Y-123924613D01*
X88654531Y-123896740D01*
X88643365Y-123869916D01*
X88595313Y-123815848D01*
X88519724Y-123743637D01*
X88426591Y-123661565D01*
X88325904Y-123577920D01*
X88227654Y-123500986D01*
X88141833Y-123439048D01*
X88078431Y-123400391D01*
X88047440Y-123393302D01*
X88037851Y-123404732D01*
X88033800Y-123429655D01*
X87892743Y-123429655D01*
X87913853Y-123385411D01*
X87952370Y-123323902D01*
X88001880Y-123263418D01*
X88148166Y-123263418D01*
X88162994Y-123285024D01*
X88206149Y-123326886D01*
X88283225Y-123394502D01*
X88399819Y-123493374D01*
X88519617Y-123596957D01*
X88665280Y-123727305D01*
X88815774Y-123865510D01*
X88952625Y-123994811D01*
X88997485Y-124037659D01*
X89002205Y-124042039D01*
X89097469Y-124130440D01*
X89177939Y-124201273D01*
X89231583Y-124243859D01*
X89251089Y-124251901D01*
X89234565Y-124226496D01*
X89180678Y-124167734D01*
X89156833Y-124143872D01*
X89411112Y-124143872D01*
X89496566Y-124238431D01*
X89508922Y-124251901D01*
X89520414Y-124264429D01*
X89568004Y-124313511D01*
X89591125Y-124332990D01*
X89591450Y-124332988D01*
X89598462Y-124323625D01*
X89571773Y-124291381D01*
X89505671Y-124229327D01*
X89411112Y-124143872D01*
X89156833Y-124143872D01*
X89096365Y-124083361D01*
X88988840Y-123979953D01*
X88865319Y-123864086D01*
X88733016Y-123742335D01*
X88599146Y-123621274D01*
X88565108Y-123591066D01*
X88712830Y-123591066D01*
X88798285Y-123685625D01*
X88822132Y-123711623D01*
X88869722Y-123760705D01*
X88892844Y-123780184D01*
X88893169Y-123780182D01*
X88900181Y-123770818D01*
X88873491Y-123738574D01*
X88807389Y-123676520D01*
X88712830Y-123591066D01*
X88565108Y-123591066D01*
X88470925Y-123507480D01*
X88355567Y-123407527D01*
X88351166Y-123403853D01*
X88494838Y-123403853D01*
X88520001Y-123438316D01*
X88546630Y-123469350D01*
X88570917Y-123489233D01*
X88576022Y-123488755D01*
X88576219Y-123469799D01*
X88530986Y-123427331D01*
X88509904Y-123411078D01*
X88494838Y-123403853D01*
X88351166Y-123403853D01*
X88260287Y-123327991D01*
X88192301Y-123275448D01*
X88162167Y-123258367D01*
X88327180Y-123258367D01*
X88334594Y-123285567D01*
X88340571Y-123294180D01*
X88367123Y-123314662D01*
X88371103Y-123312768D01*
X88363689Y-123285567D01*
X88357711Y-123276955D01*
X88331160Y-123256472D01*
X88327180Y-123258367D01*
X88162167Y-123258367D01*
X88158824Y-123256472D01*
X88156069Y-123256567D01*
X88148166Y-123263418D01*
X88001880Y-123263418D01*
X88083477Y-123163736D01*
X88148844Y-123105980D01*
X88308599Y-123105980D01*
X88316788Y-123125928D01*
X88361239Y-123176849D01*
X88435739Y-123248545D01*
X88509310Y-123312768D01*
X88531744Y-123332351D01*
X88547104Y-123345276D01*
X88665264Y-123447621D01*
X88690101Y-123469799D01*
X88806216Y-123573485D01*
X88953602Y-123708115D01*
X89020604Y-123770818D01*
X89091066Y-123836759D01*
X89411112Y-124140896D01*
X89137146Y-123859518D01*
X89255070Y-123859518D01*
X89265708Y-123880329D01*
X89316992Y-123939835D01*
X89410331Y-124038034D01*
X89468805Y-124097540D01*
X89512092Y-124140896D01*
X89545078Y-124173935D01*
X89598905Y-124226283D01*
X89621271Y-124245705D01*
X89631823Y-124241123D01*
X89618665Y-124205996D01*
X89561624Y-124137692D01*
X89538745Y-124114777D01*
X89600230Y-124114777D01*
X89614777Y-124129324D01*
X89629325Y-124114777D01*
X89614777Y-124100229D01*
X89600230Y-124114777D01*
X89538745Y-124114777D01*
X89462028Y-124037941D01*
X89452941Y-124029287D01*
X89356799Y-123940206D01*
X89454754Y-123940206D01*
X89469302Y-123954754D01*
X89483849Y-123940206D01*
X89469302Y-123925659D01*
X89454754Y-123940206D01*
X89356799Y-123940206D01*
X89350096Y-123933995D01*
X89326428Y-123913832D01*
X89557336Y-123913832D01*
X89575692Y-123940206D01*
X89586002Y-123955020D01*
X89589070Y-123957543D01*
X89621434Y-123974937D01*
X89629325Y-123945486D01*
X89619191Y-123904439D01*
X89589468Y-123878314D01*
X89558918Y-123892793D01*
X89557336Y-123913832D01*
X89326428Y-123913832D01*
X89283669Y-123877406D01*
X89255070Y-123859518D01*
X89137146Y-123859518D01*
X89120161Y-123842073D01*
X89054224Y-123774760D01*
X88894328Y-123614863D01*
X88743546Y-123468547D01*
X88607085Y-123340533D01*
X88502929Y-123247019D01*
X88625545Y-123247019D01*
X88886794Y-123513601D01*
X88902695Y-123529811D01*
X88999373Y-123627635D01*
X89079185Y-123707178D01*
X89134226Y-123760631D01*
X89156594Y-123780184D01*
X89157761Y-123780115D01*
X89155588Y-123760024D01*
X89117088Y-123709304D01*
X89049115Y-123635433D01*
X88958523Y-123545886D01*
X88852165Y-123448137D01*
X88625545Y-123247019D01*
X88502929Y-123247019D01*
X88490152Y-123235547D01*
X88397955Y-123158310D01*
X88335702Y-123113547D01*
X88308599Y-123105980D01*
X88148844Y-123105980D01*
X88225488Y-123038259D01*
X88392784Y-123038259D01*
X88478239Y-123132818D01*
X88502086Y-123158816D01*
X88549676Y-123207899D01*
X88572798Y-123227377D01*
X88573123Y-123227375D01*
X88580135Y-123218012D01*
X88553446Y-123185768D01*
X88487343Y-123123714D01*
X88392784Y-123038259D01*
X88225488Y-123038259D01*
X88233854Y-123030867D01*
X88494617Y-123030867D01*
X88494671Y-123031150D01*
X88516795Y-123055775D01*
X88573320Y-123111154D01*
X88655970Y-123189338D01*
X88686943Y-123218012D01*
X88756472Y-123282380D01*
X88764694Y-123289909D01*
X88863495Y-123378724D01*
X88944107Y-123448215D01*
X88998421Y-123491581D01*
X89018328Y-123502018D01*
X89013796Y-123493454D01*
X88976846Y-123451349D01*
X88910762Y-123385089D01*
X88825288Y-123304635D01*
X88793811Y-123275879D01*
X88667682Y-123162865D01*
X88573654Y-123082603D01*
X88514906Y-123037726D01*
X88494617Y-123030867D01*
X88233854Y-123030867D01*
X88239597Y-123025793D01*
X88329655Y-122971322D01*
X88595498Y-122971322D01*
X88601309Y-122984151D01*
X88641048Y-123029193D01*
X88710176Y-123097696D01*
X88800145Y-123180905D01*
X88866506Y-123239194D01*
X88944897Y-123303839D01*
X88998482Y-123342667D01*
X89018328Y-123348804D01*
X89013734Y-123338498D01*
X88977405Y-123295623D01*
X88914312Y-123232631D01*
X88835831Y-123159677D01*
X88753335Y-123086915D01*
X88678198Y-123024499D01*
X88621794Y-122982583D01*
X88595498Y-122971322D01*
X88329655Y-122971322D01*
X88338940Y-122965706D01*
X88758107Y-122965706D01*
X88772936Y-122987855D01*
X88819072Y-123039719D01*
X88887400Y-123110997D01*
X88892103Y-123115763D01*
X88964245Y-123186834D01*
X89019141Y-123237287D01*
X89045236Y-123256472D01*
X89045788Y-123256288D01*
X89030960Y-123234139D01*
X88984823Y-123182275D01*
X88916495Y-123110997D01*
X88911793Y-123106230D01*
X88839651Y-123035160D01*
X88799120Y-122997909D01*
X88915408Y-122997909D01*
X88929910Y-123028880D01*
X88974685Y-123081902D01*
X88994142Y-123101438D01*
X89050626Y-123149819D01*
X89087405Y-123169187D01*
X89092153Y-123165894D01*
X89077651Y-123134924D01*
X89045160Y-123096449D01*
X89134708Y-123096449D01*
X89149256Y-123110997D01*
X89163803Y-123096449D01*
X89149256Y-123081902D01*
X89134708Y-123096449D01*
X89045160Y-123096449D01*
X89032876Y-123081902D01*
X89013419Y-123062366D01*
X88956935Y-123013985D01*
X88920156Y-122994617D01*
X88915408Y-122997909D01*
X88799120Y-122997909D01*
X88784755Y-122984706D01*
X88758660Y-122965521D01*
X88758107Y-122965706D01*
X88338940Y-122965706D01*
X88402220Y-122927431D01*
X88565522Y-122878526D01*
X88761756Y-122869499D01*
X88963927Y-122904125D01*
X89158289Y-122979934D01*
X89331100Y-123094455D01*
X89333275Y-123096449D01*
X89387076Y-123145761D01*
X89401320Y-123165894D01*
X89420572Y-123193107D01*
X89403056Y-123213552D01*
G37*
G36*
X83474426Y-124698802D02*
G01*
X83509014Y-124749827D01*
X83573838Y-124861214D01*
X83646068Y-124999591D01*
X83720701Y-125153787D01*
X83792732Y-125312629D01*
X83857156Y-125464946D01*
X83908968Y-125599564D01*
X83943164Y-125705312D01*
X83954739Y-125771018D01*
X83949616Y-125783979D01*
X83924095Y-125767374D01*
X83881001Y-125710456D01*
X83824580Y-125621001D01*
X83759081Y-125506782D01*
X83688751Y-125375575D01*
X83617837Y-125235152D01*
X83550587Y-125093290D01*
X83491249Y-124957761D01*
X83444070Y-124836341D01*
X83434214Y-124807188D01*
X83412457Y-124719265D01*
X83412839Y-124667663D01*
X83433963Y-124658727D01*
X83474426Y-124698802D01*
G37*
G36*
X88450974Y-123713352D02*
G01*
X88451860Y-123713968D01*
X88530198Y-123776173D01*
X88596450Y-123840734D01*
X88654640Y-123907565D01*
X88567354Y-123847015D01*
X88566469Y-123846399D01*
X88488131Y-123784194D01*
X88421879Y-123719633D01*
X88363689Y-123652802D01*
X88450974Y-123713352D01*
G37*
G36*
X81802750Y-120797938D02*
G01*
X81788202Y-120812486D01*
X81773655Y-120797938D01*
X81788202Y-120783391D01*
X81802750Y-120797938D01*
G37*
G36*
X89256417Y-125364331D02*
G01*
X89307850Y-125409587D01*
X89379401Y-125491713D01*
X89465285Y-125603992D01*
X89559717Y-125739703D01*
X89565589Y-125748574D01*
X89631370Y-125854267D01*
X89703511Y-125979349D01*
X89776003Y-126112246D01*
X89842842Y-126241385D01*
X89898020Y-126355192D01*
X89935532Y-126442093D01*
X89949370Y-126490515D01*
X89947314Y-126498190D01*
X89921328Y-126492058D01*
X89872364Y-126451236D01*
X89809125Y-126384624D01*
X89740317Y-126301120D01*
X89674641Y-126209622D01*
X89653466Y-126176775D01*
X89591235Y-126073679D01*
X89521308Y-125950774D01*
X89448912Y-125818106D01*
X89379270Y-125685721D01*
X89317608Y-125563667D01*
X89269151Y-125461990D01*
X89239125Y-125390737D01*
X89232753Y-125359954D01*
X89256417Y-125364331D01*
G37*
G36*
X88586031Y-125392789D02*
G01*
X88642192Y-125467080D01*
X88710315Y-125568222D01*
X88785441Y-125687870D01*
X88862613Y-125817681D01*
X88936871Y-125949307D01*
X89003259Y-126074405D01*
X89056817Y-126184629D01*
X89092588Y-126271633D01*
X89105613Y-126327074D01*
X89102053Y-126351830D01*
X89083218Y-126355659D01*
X89045112Y-126319873D01*
X88984293Y-126240979D01*
X88897319Y-126115478D01*
X88850725Y-126043724D01*
X88769733Y-125907632D01*
X88692541Y-125765420D01*
X88624537Y-125628193D01*
X88571111Y-125507058D01*
X88537650Y-125413119D01*
X88529543Y-125357482D01*
X88546789Y-125353695D01*
X88586031Y-125392789D01*
G37*
G36*
X86942721Y-129412515D02*
G01*
X87125610Y-129430206D01*
X87274939Y-129474285D01*
X87407537Y-129551285D01*
X87540235Y-129667739D01*
X87543118Y-129670636D01*
X87663020Y-129825079D01*
X87740032Y-129997230D01*
X87767240Y-130171735D01*
X87764713Y-130221696D01*
X87745793Y-130259562D01*
X87697806Y-130268385D01*
X87684270Y-130268007D01*
X87646385Y-130255554D01*
X87624083Y-130214531D01*
X87607752Y-130130184D01*
X87602832Y-130099278D01*
X87563094Y-129941457D01*
X87500893Y-129822773D01*
X87408848Y-129728316D01*
X87334855Y-129676202D01*
X87160247Y-129593087D01*
X86972827Y-129548192D01*
X86788362Y-129544398D01*
X86622621Y-129584589D01*
X86565271Y-129611862D01*
X86418413Y-129716010D01*
X86301956Y-129850171D01*
X86225025Y-130002032D01*
X86196745Y-130159279D01*
X86192119Y-130229207D01*
X86171407Y-130261381D01*
X86123368Y-130268385D01*
X86103040Y-130267841D01*
X86068207Y-130256271D01*
X86053596Y-130217680D01*
X86050630Y-130136523D01*
X86050693Y-130127803D01*
X86081357Y-129942905D01*
X86164141Y-129770006D01*
X86293301Y-129618024D01*
X86463095Y-129495881D01*
X86507171Y-129472151D01*
X86581222Y-129439062D01*
X86655051Y-129420533D01*
X86748107Y-129412621D01*
X86879840Y-129411382D01*
X86942721Y-129412515D01*
G37*
G36*
X97525725Y-122318205D02*
G01*
X97383162Y-122375233D01*
X97308885Y-122404015D01*
X97149920Y-122471968D01*
X96954422Y-122561195D01*
X96731319Y-122667293D01*
X96489542Y-122785860D01*
X96238019Y-122912493D01*
X95985679Y-123042789D01*
X95741450Y-123172346D01*
X95514262Y-123296761D01*
X95381458Y-123372870D01*
X95203146Y-123479765D01*
X95019086Y-123594374D01*
X94840548Y-123709410D01*
X94678806Y-123817587D01*
X94545130Y-123911619D01*
X94450793Y-123984219D01*
X94445383Y-124014452D01*
X94446899Y-124091465D01*
X94455451Y-124202556D01*
X94470357Y-124335485D01*
X94484911Y-124460632D01*
X94504172Y-124656195D01*
X94521197Y-124860516D01*
X94533488Y-125045495D01*
X94554193Y-125423406D01*
X94732137Y-125232019D01*
X94766597Y-125195060D01*
X94856423Y-125099150D01*
X94973438Y-124974568D01*
X95109349Y-124830131D01*
X95255866Y-124674655D01*
X95404697Y-124516953D01*
X95498457Y-124417495D01*
X95636184Y-124270711D01*
X95761092Y-124136795D01*
X95866370Y-124023082D01*
X95945211Y-123936907D01*
X95990804Y-123885604D01*
X96082295Y-123777934D01*
X96281755Y-123796209D01*
X96333374Y-123801224D01*
X96458384Y-123814355D01*
X96617194Y-123831835D01*
X96794708Y-123851989D01*
X96975831Y-123873145D01*
X97004607Y-123876554D01*
X97196555Y-123899185D01*
X97425322Y-123926008D01*
X97673072Y-123954940D01*
X97921970Y-123983898D01*
X98154181Y-124010798D01*
X98837916Y-124089790D01*
X98836454Y-124160474D01*
X98820159Y-124200422D01*
X98785575Y-124260252D01*
X98771153Y-124285202D01*
X98691217Y-124411553D01*
X98582137Y-124576772D01*
X98445702Y-124778152D01*
X98283696Y-125012990D01*
X98097907Y-125278580D01*
X97990756Y-125430779D01*
X97842961Y-125640483D01*
X97707619Y-125832257D01*
X97588230Y-126001153D01*
X97488295Y-126142226D01*
X97411315Y-126250529D01*
X97360792Y-126321115D01*
X97340227Y-126349039D01*
X97338964Y-126349750D01*
X97298472Y-126355312D01*
X97206299Y-126362065D01*
X97068097Y-126369761D01*
X96889514Y-126378147D01*
X96676200Y-126386974D01*
X96433806Y-126395991D01*
X96167981Y-126404947D01*
X95884375Y-126413593D01*
X95686872Y-126419304D01*
X95387064Y-126428141D01*
X95137989Y-126436079D01*
X94934933Y-126443672D01*
X94773179Y-126451475D01*
X94648013Y-126460040D01*
X94554721Y-126469922D01*
X94488586Y-126481673D01*
X94444895Y-126495849D01*
X94418931Y-126513001D01*
X94405981Y-126533684D01*
X94401328Y-126558452D01*
X94400258Y-126587858D01*
X94400209Y-126589146D01*
X94392741Y-126641529D01*
X94374703Y-126736763D01*
X94348712Y-126861727D01*
X94317385Y-127003301D01*
X94236060Y-127360553D01*
X94288514Y-127628845D01*
X94298955Y-127684064D01*
X94320640Y-127812102D01*
X94335869Y-127921299D01*
X94341848Y-127992609D01*
X94341959Y-127998052D01*
X94354549Y-128066440D01*
X94381293Y-128102880D01*
X94384309Y-128103570D01*
X94432760Y-128098163D01*
X94522895Y-128077734D01*
X94642997Y-128045195D01*
X94781350Y-128003459D01*
X94871355Y-127975531D01*
X95057053Y-127922554D01*
X95230807Y-127881384D01*
X95410143Y-127848615D01*
X95612589Y-127820842D01*
X95855671Y-127794656D01*
X95943349Y-127785483D01*
X96078789Y-127769330D01*
X96192459Y-127753456D01*
X96266260Y-127740258D01*
X96278204Y-127737689D01*
X96304297Y-127734713D01*
X96333961Y-127737495D01*
X96371732Y-127748611D01*
X96422143Y-127770636D01*
X96489730Y-127806147D01*
X96579027Y-127857719D01*
X96694569Y-127927927D01*
X96840890Y-128019347D01*
X97022524Y-128134556D01*
X97244006Y-128276128D01*
X97509872Y-128446639D01*
X97766866Y-128612288D01*
X98034527Y-128786845D01*
X98253796Y-128932428D01*
X98424377Y-129048833D01*
X98545975Y-129135858D01*
X98618295Y-129193302D01*
X98637378Y-129216508D01*
X98641041Y-129220962D01*
X98620183Y-129249877D01*
X98559394Y-129297163D01*
X98473947Y-129347600D01*
X98419887Y-129376408D01*
X98311563Y-129435730D01*
X98173876Y-129512275D01*
X98018961Y-129599284D01*
X97858953Y-129690003D01*
X97766841Y-129741951D01*
X97580207Y-129844645D01*
X97390610Y-129946144D01*
X97215765Y-130037027D01*
X97073386Y-130107870D01*
X96743070Y-130266329D01*
X96159808Y-130268385D01*
X95774111Y-129991744D01*
X95689474Y-129931667D01*
X95538240Y-129826603D01*
X95373204Y-129714188D01*
X95201236Y-129598890D01*
X95029208Y-129485172D01*
X94863992Y-129377502D01*
X94712458Y-129280343D01*
X94581478Y-129198161D01*
X94477922Y-129135422D01*
X94408663Y-129096591D01*
X94380572Y-129086134D01*
X94370244Y-129109573D01*
X94349121Y-129175950D01*
X94323676Y-129267798D01*
X94262484Y-129455557D01*
X94185906Y-129617535D01*
X94101611Y-129737400D01*
X94097530Y-129741786D01*
X94048840Y-129784361D01*
X94013344Y-129801817D01*
X94002804Y-129791798D01*
X94028980Y-129751948D01*
X94036642Y-129743115D01*
X94088772Y-129675550D01*
X94113424Y-129615720D01*
X94110246Y-129549062D01*
X94078890Y-129461011D01*
X94019005Y-129337005D01*
X93999326Y-129299153D01*
X93886929Y-129107092D01*
X93748857Y-128900211D01*
X93599178Y-128698709D01*
X93451962Y-128522787D01*
X93344721Y-128404085D01*
X93252993Y-128647938D01*
X93212363Y-128748042D01*
X93098299Y-128975613D01*
X92963035Y-129188090D01*
X92814540Y-129374947D01*
X92660784Y-129525656D01*
X92509737Y-129629690D01*
X92440715Y-129659161D01*
X92301624Y-129696822D01*
X92154789Y-129717284D01*
X92029668Y-129715292D01*
X91913288Y-129698613D01*
X92033585Y-129676010D01*
X92091558Y-129663138D01*
X92139158Y-129638781D01*
X92170331Y-129590705D01*
X92200757Y-129502649D01*
X92212893Y-129455647D01*
X92234168Y-129337109D01*
X92252066Y-129193570D01*
X92263644Y-129046392D01*
X92279655Y-128740894D01*
X92203386Y-128882311D01*
X92197933Y-128892277D01*
X92058723Y-129083967D01*
X91867720Y-129252171D01*
X91627122Y-129394934D01*
X91365818Y-129498292D01*
X91087749Y-129553444D01*
X90806714Y-129552250D01*
X90713834Y-129545421D01*
X90644899Y-129545732D01*
X90618557Y-129553451D01*
X90619426Y-129561109D01*
X90641300Y-129615689D01*
X90681479Y-129683643D01*
X90724985Y-129738878D01*
X90744839Y-129764660D01*
X90764033Y-129820319D01*
X90774965Y-129862455D01*
X90806462Y-129940698D01*
X90851318Y-130035625D01*
X90888517Y-130110814D01*
X90924467Y-130193872D01*
X90933301Y-130241508D01*
X90915899Y-130263077D01*
X90873139Y-130267934D01*
X90870108Y-130267836D01*
X90842713Y-130258831D01*
X90811672Y-130230519D01*
X90772694Y-130176261D01*
X90721490Y-130089420D01*
X90653769Y-129963355D01*
X90565243Y-129791428D01*
X90463311Y-129597198D01*
X90362063Y-129418954D01*
X90277633Y-129287816D01*
X90212174Y-129207340D01*
X90101537Y-129099306D01*
X90021030Y-129200202D01*
X89983083Y-129254303D01*
X89943508Y-129328968D01*
X89903337Y-129427456D01*
X89859575Y-129558015D01*
X89809226Y-129728894D01*
X89749294Y-129948339D01*
X89737341Y-129992956D01*
X89703509Y-130113392D01*
X89677029Y-130190457D01*
X89652770Y-130234313D01*
X89625600Y-130255121D01*
X89590389Y-130263044D01*
X89537597Y-130261399D01*
X89512944Y-130242913D01*
X89513006Y-130241034D01*
X89523241Y-130190687D01*
X89548308Y-130098588D01*
X89584337Y-129976986D01*
X89627458Y-129838131D01*
X89673799Y-129694274D01*
X89719490Y-129557665D01*
X89760661Y-129440553D01*
X89793440Y-129355188D01*
X89833763Y-129267260D01*
X89884901Y-129173452D01*
X89928028Y-129111971D01*
X89929648Y-129110207D01*
X89967490Y-129061933D01*
X89976156Y-129035696D01*
X89965221Y-129028406D01*
X89912892Y-128996710D01*
X89828416Y-128946913D01*
X89723492Y-128885951D01*
X89686177Y-128864430D01*
X89586939Y-128808551D01*
X89522709Y-128777675D01*
X89481650Y-128768514D01*
X89451922Y-128777785D01*
X89421688Y-128802203D01*
X89368354Y-128862055D01*
X89292581Y-128963945D01*
X89201003Y-129097779D01*
X89099719Y-129253937D01*
X88994828Y-129422804D01*
X88892429Y-129594761D01*
X88798620Y-129760191D01*
X88719502Y-129909477D01*
X88656922Y-130032150D01*
X88599854Y-130138593D01*
X88557321Y-130207367D01*
X88523455Y-130246530D01*
X88492386Y-130264141D01*
X88458248Y-130268260D01*
X88403381Y-130263067D01*
X88378236Y-130249105D01*
X88379991Y-130243174D01*
X88401559Y-130195635D01*
X88443840Y-130110024D01*
X88501955Y-129996092D01*
X88571027Y-129863595D01*
X88647953Y-129720953D01*
X88775766Y-129496947D01*
X88905295Y-129284039D01*
X89029925Y-129092620D01*
X89143040Y-128933084D01*
X89238024Y-128815821D01*
X89282293Y-128764800D01*
X89323725Y-128710957D01*
X89335180Y-128686302D01*
X89314584Y-128674424D01*
X89251327Y-128640393D01*
X89156499Y-128590364D01*
X89041136Y-128530198D01*
X88758446Y-128383505D01*
X88510614Y-128460367D01*
X88458245Y-128477368D01*
X88357974Y-128514874D01*
X88288451Y-128547958D01*
X88262319Y-128570984D01*
X88254011Y-128598513D01*
X88211126Y-128667354D01*
X88140256Y-128756769D01*
X88051041Y-128855682D01*
X87953119Y-128953019D01*
X87856128Y-129037704D01*
X87683356Y-129175955D01*
X87739846Y-129267357D01*
X87745866Y-129277366D01*
X87781700Y-129350629D01*
X87796335Y-129405850D01*
X87797123Y-129412176D01*
X87829066Y-129454732D01*
X87893283Y-129493449D01*
X87893880Y-129493700D01*
X87981509Y-129546848D01*
X88056362Y-129617494D01*
X88060349Y-129622579D01*
X88098403Y-129684283D01*
X88112202Y-129752150D01*
X88107235Y-129851427D01*
X88105468Y-129870520D01*
X88106257Y-129984553D01*
X88132348Y-130055092D01*
X88158309Y-130107566D01*
X88173646Y-130188374D01*
X88164066Y-130243739D01*
X88132256Y-130268164D01*
X88091000Y-130246947D01*
X88053770Y-130180925D01*
X88045770Y-130161963D01*
X87992741Y-130098570D01*
X87922759Y-130067138D01*
X87856179Y-130078245D01*
X87843828Y-130083800D01*
X87825430Y-130072710D01*
X87825927Y-130069798D01*
X87854255Y-130037500D01*
X87912715Y-129996610D01*
X87937717Y-129980678D01*
X87987069Y-129926748D01*
X88000000Y-129848785D01*
X87998409Y-129816375D01*
X87961260Y-129705583D01*
X87877592Y-129627485D01*
X87751044Y-129585925D01*
X87617364Y-129565878D01*
X87636491Y-129452667D01*
X87643792Y-129386947D01*
X87630193Y-129325296D01*
X87581823Y-129265662D01*
X87549722Y-129236385D01*
X87475644Y-129198059D01*
X87397260Y-129207809D01*
X87300328Y-129265631D01*
X87200347Y-129339395D01*
X87177169Y-129249947D01*
X87152010Y-129186760D01*
X87090540Y-129130950D01*
X86996192Y-129118654D01*
X86864600Y-129148455D01*
X86829219Y-129161078D01*
X86738084Y-129206906D01*
X86698224Y-129253609D01*
X86688277Y-129288283D01*
X86668545Y-129305725D01*
X86620364Y-129290587D01*
X86595936Y-129272842D01*
X86574342Y-129218404D01*
X86566585Y-129189731D01*
X86520187Y-129152677D01*
X86449591Y-129140853D01*
X86375357Y-129160267D01*
X86344648Y-129179823D01*
X86317290Y-129213685D01*
X86295429Y-129272692D01*
X86271194Y-129372913D01*
X86259625Y-129413026D01*
X86230153Y-129440280D01*
X86167727Y-129434955D01*
X86059168Y-129427542D01*
X85964615Y-129461849D01*
X85904444Y-129542724D01*
X85887937Y-129589289D01*
X85885049Y-129653189D01*
X85914026Y-129730509D01*
X85932943Y-129771726D01*
X85944334Y-129819859D01*
X85925842Y-129862428D01*
X85872313Y-129923255D01*
X85864068Y-129932260D01*
X85807570Y-130017623D01*
X85797557Y-130106428D01*
X85831415Y-130217469D01*
X85838510Y-130246574D01*
X85816240Y-130264173D01*
X85748245Y-130268385D01*
X85704144Y-130267757D01*
X85661469Y-130257053D01*
X85645624Y-130220336D01*
X85643299Y-130141517D01*
X85652967Y-130049250D01*
X85712187Y-129913138D01*
X85748353Y-129851617D01*
X85769990Y-129772745D01*
X85767784Y-129669044D01*
X85768541Y-129567570D01*
X85808478Y-129440715D01*
X85891906Y-129348749D01*
X86015389Y-129296840D01*
X86048006Y-129289174D01*
X86112345Y-129268143D01*
X86137916Y-129249984D01*
X86141388Y-129238623D01*
X86168482Y-129188194D01*
X86213654Y-129117476D01*
X86289392Y-129005870D01*
X86240241Y-128797160D01*
X86191091Y-128588450D01*
X86182295Y-128587248D01*
X86283391Y-128587248D01*
X86283407Y-128587553D01*
X86294264Y-128620638D01*
X86321361Y-128692030D01*
X86359037Y-128786794D01*
X86360720Y-128790947D01*
X86399132Y-128884305D01*
X86428372Y-128952735D01*
X86442228Y-128981683D01*
X86447502Y-128968396D01*
X86457635Y-128911499D01*
X86469254Y-128823954D01*
X86475325Y-128752332D01*
X86475245Y-128674979D01*
X86466075Y-128636140D01*
X86462560Y-128633175D01*
X86420025Y-128612563D01*
X86360051Y-128593774D01*
X86306540Y-128583203D01*
X86283391Y-128587248D01*
X86182295Y-128587248D01*
X85932343Y-128553090D01*
X85897301Y-128548150D01*
X85758667Y-128526138D01*
X85629710Y-128502314D01*
X85534480Y-128481033D01*
X85466786Y-128466617D01*
X85347927Y-128467082D01*
X85241978Y-128510265D01*
X85237184Y-128527419D01*
X85239811Y-128594970D01*
X85252755Y-128705454D01*
X85274528Y-128850608D01*
X85303647Y-129022168D01*
X85338625Y-129211873D01*
X85377978Y-129411459D01*
X85420219Y-129612663D01*
X85463864Y-129807223D01*
X85507426Y-129986874D01*
X85578910Y-130268385D01*
X85500907Y-130268385D01*
X85493072Y-130268330D01*
X85463241Y-130264520D01*
X85439644Y-130248326D01*
X85418329Y-130210907D01*
X85395341Y-130143421D01*
X85366728Y-130037024D01*
X85328535Y-129882875D01*
X85305940Y-129788529D01*
X85257303Y-129571453D01*
X85213039Y-129355523D01*
X85175144Y-129151789D01*
X85145608Y-128971299D01*
X85126425Y-128825106D01*
X85119588Y-128724258D01*
X85119588Y-128612826D01*
X84923196Y-128724968D01*
X84726805Y-128837109D01*
X84736042Y-129007215D01*
X84738450Y-129041095D01*
X84751889Y-129163502D01*
X84772657Y-129309260D01*
X84797367Y-129453723D01*
X84797693Y-129455454D01*
X84833826Y-129729192D01*
X84835487Y-129999256D01*
X84834784Y-130012765D01*
X84827556Y-130134149D01*
X84819099Y-130209393D01*
X84806012Y-130249506D01*
X84784893Y-130265501D01*
X84752341Y-130268385D01*
X84740470Y-130268197D01*
X84702986Y-130258526D01*
X84687843Y-130222661D01*
X84686604Y-130144731D01*
X84687317Y-130125619D01*
X84695780Y-130021427D01*
X84709137Y-129933792D01*
X84712246Y-129895633D01*
X84706658Y-129798219D01*
X84689691Y-129665923D01*
X84662791Y-129511913D01*
X84640764Y-129392287D01*
X84618116Y-129251338D01*
X84602567Y-129132696D01*
X84596615Y-129053666D01*
X84594154Y-128995073D01*
X84583098Y-128945402D01*
X84561107Y-128932557D01*
X84525933Y-128959202D01*
X84475329Y-129028004D01*
X84407047Y-129141628D01*
X84318840Y-129302739D01*
X84208461Y-129514002D01*
X84170129Y-129588960D01*
X84091387Y-129746212D01*
X84019866Y-129893131D01*
X83962193Y-130015997D01*
X83924993Y-130101088D01*
X83886150Y-130192036D01*
X83853863Y-130242914D01*
X83816709Y-130264133D01*
X83762347Y-130268385D01*
X83666902Y-130268385D01*
X83727209Y-130130184D01*
X83733560Y-130115619D01*
X83777775Y-130013966D01*
X83832696Y-129887401D01*
X83887931Y-129759867D01*
X83906973Y-129716525D01*
X83953123Y-129617022D01*
X83990237Y-129544592D01*
X84011649Y-129512559D01*
X84014978Y-129509884D01*
X84045462Y-129469197D01*
X84083589Y-129402442D01*
X84132227Y-129307519D01*
X84051280Y-129278295D01*
X83871636Y-129206270D01*
X83580575Y-129053081D01*
X83335487Y-128872525D01*
X83282895Y-128827062D01*
X83245114Y-128800704D01*
X83230784Y-128808244D01*
X83228628Y-128846986D01*
X83234243Y-128936529D01*
X83251703Y-129058803D01*
X83276984Y-129182372D01*
X83305962Y-129287468D01*
X83334509Y-129354321D01*
X83357395Y-129401884D01*
X83360995Y-129501114D01*
X83341692Y-129578024D01*
X83263229Y-129506331D01*
X83258082Y-129501698D01*
X83191421Y-129446560D01*
X83097753Y-129374201D01*
X82995648Y-129299008D01*
X82992410Y-129296684D01*
X82881700Y-129214906D01*
X82772330Y-129130477D01*
X82687528Y-129061316D01*
X82568527Y-128959255D01*
X82316566Y-129005993D01*
X82064605Y-129052730D01*
X82064605Y-129253227D01*
X82064613Y-129258689D01*
X82067787Y-129357153D01*
X82075596Y-129427108D01*
X82086427Y-129453721D01*
X82089272Y-129454484D01*
X82101534Y-129486037D01*
X82105210Y-129545358D01*
X82100267Y-129606877D01*
X82086671Y-129645021D01*
X82066485Y-129648929D01*
X82016522Y-129631719D01*
X82009158Y-129627737D01*
X81941282Y-129594029D01*
X81858132Y-129555770D01*
X81787820Y-129516027D01*
X81692004Y-129448753D01*
X81596277Y-129370956D01*
X81439061Y-129232390D01*
X80129783Y-129486545D01*
X79908331Y-129529537D01*
X79649775Y-129579742D01*
X79411711Y-129625979D01*
X79200242Y-129667061D01*
X79021476Y-129701802D01*
X78881517Y-129729016D01*
X78786471Y-129747517D01*
X78742443Y-129756118D01*
X78728823Y-129757606D01*
X78703590Y-129753339D01*
X78671399Y-129737358D01*
X78628138Y-129705825D01*
X78569699Y-129654903D01*
X78491970Y-129580755D01*
X78390842Y-129479543D01*
X78262204Y-129347429D01*
X78101947Y-129180578D01*
X77905960Y-128975150D01*
X77883210Y-128951250D01*
X77714395Y-128773169D01*
X77559497Y-128608515D01*
X77422908Y-128462050D01*
X77309025Y-128338535D01*
X77222239Y-128242732D01*
X77178155Y-128192240D01*
X77352816Y-128192240D01*
X77361142Y-128204956D01*
X77404919Y-128254458D01*
X77481892Y-128336632D01*
X77587400Y-128446630D01*
X77716784Y-128579607D01*
X77865387Y-128730717D01*
X78028547Y-128895113D01*
X78717212Y-129585969D01*
X79176189Y-129509870D01*
X79205578Y-129504950D01*
X79412551Y-129468317D01*
X79637898Y-129425660D01*
X79856314Y-129381886D01*
X80042498Y-129341901D01*
X80220770Y-129302408D01*
X80443213Y-129254417D01*
X80667696Y-129207078D01*
X80865536Y-129166505D01*
X80929162Y-129153592D01*
X81069672Y-129124079D01*
X81184482Y-129098578D01*
X81263119Y-129079464D01*
X81295113Y-129069111D01*
X81295396Y-129055631D01*
X81276338Y-129002869D01*
X81238640Y-128927162D01*
X81185617Y-128807482D01*
X81132587Y-128646670D01*
X81085008Y-128464315D01*
X81047665Y-128278786D01*
X81025345Y-128108454D01*
X81008806Y-127912440D01*
X80884629Y-127838946D01*
X81181770Y-127838946D01*
X81182094Y-127917830D01*
X81194769Y-128194282D01*
X81228324Y-128427554D01*
X81286362Y-128627732D01*
X81372489Y-128804903D01*
X81490311Y-128969152D01*
X81572347Y-129055631D01*
X81643431Y-129130564D01*
X81710016Y-129192384D01*
X81795496Y-129267200D01*
X81860245Y-129318378D01*
X81893875Y-129337343D01*
X81903505Y-129331633D01*
X81912676Y-129290704D01*
X81911805Y-129204997D01*
X81901061Y-129068213D01*
X81885802Y-128834979D01*
X81885699Y-128812136D01*
X82035286Y-128812136D01*
X82038855Y-128877500D01*
X82056738Y-128912544D01*
X82099772Y-128922890D01*
X82178793Y-128914162D01*
X82304640Y-128891983D01*
X82378196Y-128877218D01*
X82445731Y-128859051D01*
X82471682Y-128845291D01*
X82471425Y-128844167D01*
X82444447Y-128818656D01*
X82383246Y-128774054D01*
X82302334Y-128719826D01*
X82216220Y-128665434D01*
X82139414Y-128620344D01*
X82086427Y-128594018D01*
X82063120Y-128588846D01*
X82045327Y-128604273D01*
X82037351Y-128654953D01*
X82035510Y-128752328D01*
X82035286Y-128812136D01*
X81885699Y-128812136D01*
X81884131Y-128464456D01*
X81892037Y-128325833D01*
X82067476Y-128325833D01*
X82071024Y-128373871D01*
X82094285Y-128431846D01*
X82149151Y-128489537D01*
X82192759Y-128517070D01*
X82206193Y-128516470D01*
X82187652Y-128478324D01*
X82159886Y-128432915D01*
X82109524Y-128362658D01*
X82081397Y-128328897D01*
X82067476Y-128325833D01*
X81892037Y-128325833D01*
X81906214Y-128077241D01*
X81951276Y-127694593D01*
X81980278Y-127509679D01*
X82007491Y-127357108D01*
X82031224Y-127252518D01*
X82052918Y-127190736D01*
X82074013Y-127166592D01*
X82095948Y-127174916D01*
X82099119Y-127178669D01*
X82109587Y-127237484D01*
X82092562Y-127346951D01*
X82089809Y-127359828D01*
X82073898Y-127466150D01*
X82061523Y-127600545D01*
X82055166Y-127737114D01*
X82054732Y-127761866D01*
X82055693Y-127884736D01*
X82065578Y-127973394D01*
X82088132Y-128048296D01*
X82127101Y-128129897D01*
X82127168Y-128130025D01*
X82191749Y-128240012D01*
X82275686Y-128365007D01*
X82372419Y-128497154D01*
X82387551Y-128516470D01*
X82475387Y-128628597D01*
X82578027Y-128751482D01*
X82662393Y-128845291D01*
X82673780Y-128857952D01*
X82756085Y-128940153D01*
X82818379Y-128990227D01*
X82854101Y-129000321D01*
X82861944Y-128996941D01*
X82879267Y-129014099D01*
X82879439Y-129016054D01*
X82902904Y-129050761D01*
X82953896Y-129098457D01*
X83015143Y-129145712D01*
X83069372Y-129179099D01*
X83099312Y-129185186D01*
X83100897Y-129180954D01*
X83099027Y-129134316D01*
X83086840Y-129049516D01*
X83066302Y-128941095D01*
X83062248Y-128920257D01*
X83045882Y-128798350D01*
X83035020Y-128651241D01*
X83029527Y-128490817D01*
X83029271Y-128328966D01*
X83034118Y-128177575D01*
X83043934Y-128048532D01*
X83058585Y-127953724D01*
X83077939Y-127905040D01*
X83082784Y-127900729D01*
X83100484Y-127902799D01*
X83110297Y-127948110D01*
X83114152Y-128044067D01*
X83114632Y-128076422D01*
X83121998Y-128252844D01*
X83139437Y-128386207D01*
X83170607Y-128489335D01*
X83219170Y-128575059D01*
X83288783Y-128656204D01*
X83327339Y-128692942D01*
X83439360Y-128785420D01*
X83576217Y-128885819D01*
X83720836Y-128982482D01*
X83856148Y-129063752D01*
X83965079Y-129117973D01*
X84065463Y-129157793D01*
X84137536Y-129176994D01*
X84186245Y-129167539D01*
X84227527Y-129125878D01*
X84277319Y-129048466D01*
X84288654Y-129030286D01*
X84323959Y-128978541D01*
X84364131Y-128930813D01*
X84416470Y-128881114D01*
X84488273Y-128823456D01*
X84586838Y-128751847D01*
X84719463Y-128660301D01*
X84893446Y-128542826D01*
X84947679Y-128505945D01*
X85035225Y-128444204D01*
X85095493Y-128398664D01*
X85117809Y-128377205D01*
X85114807Y-128374428D01*
X85072558Y-128355425D01*
X84988194Y-128323380D01*
X84871673Y-128281973D01*
X84732955Y-128234890D01*
X84544980Y-128169769D01*
X84092651Y-127989297D01*
X83679565Y-127789139D01*
X83308811Y-127571423D01*
X82983478Y-127338276D01*
X82706655Y-127091823D01*
X82481430Y-126834190D01*
X82310894Y-126567506D01*
X82308442Y-126562828D01*
X82205045Y-126331505D01*
X82137440Y-126095978D01*
X82104087Y-125844778D01*
X82103794Y-125717317D01*
X82275835Y-125717317D01*
X82282026Y-125852884D01*
X82344009Y-126144998D01*
X82458296Y-126426520D01*
X82626222Y-126694866D01*
X82849966Y-126954263D01*
X82931715Y-127035598D01*
X83156431Y-127240577D01*
X83388070Y-127422340D01*
X83635128Y-127585739D01*
X83906099Y-127735630D01*
X84209476Y-127876865D01*
X84553755Y-128014299D01*
X84947429Y-128152784D01*
X85317075Y-128268192D01*
X85713243Y-128370076D01*
X86087469Y-128440136D01*
X86452450Y-128480683D01*
X86820887Y-128494031D01*
X86949165Y-128495996D01*
X87093657Y-128505491D01*
X87181392Y-128522776D01*
X87212057Y-128547779D01*
X87185338Y-128580425D01*
X87174001Y-128585380D01*
X87109317Y-128597571D01*
X87008786Y-128606155D01*
X86888831Y-128609520D01*
X86840011Y-128610013D01*
X86733151Y-128614276D01*
X86656290Y-128621928D01*
X86623520Y-128631787D01*
X86616029Y-128659657D01*
X86604154Y-128731754D01*
X86601587Y-128752332D01*
X86592126Y-128828179D01*
X86585371Y-128898955D01*
X86584790Y-128970172D01*
X86598604Y-129011059D01*
X86629746Y-129037988D01*
X86651707Y-129049739D01*
X86704755Y-129055709D01*
X86777551Y-129027711D01*
X86784044Y-129024569D01*
X86880139Y-128989706D01*
X86982795Y-128966904D01*
X87061674Y-128962777D01*
X87119054Y-128984373D01*
X87181838Y-129042645D01*
X87234888Y-129098763D01*
X87269549Y-129125532D01*
X87298880Y-129123854D01*
X87341358Y-129100421D01*
X87406935Y-129082729D01*
X87489935Y-129084252D01*
X87517559Y-129087553D01*
X87557238Y-129083835D01*
X87600360Y-129063617D01*
X87656134Y-129020525D01*
X87733769Y-128948184D01*
X87842472Y-128840220D01*
X88100620Y-128580871D01*
X87970299Y-128580425D01*
X87935796Y-128579848D01*
X87839938Y-128570251D01*
X87796433Y-128550295D01*
X87807159Y-128521810D01*
X87873992Y-128486625D01*
X87890074Y-128480502D01*
X88000601Y-128446273D01*
X88112033Y-128421281D01*
X88162781Y-128411146D01*
X88280043Y-128380950D01*
X88423545Y-128338114D01*
X88508408Y-128310568D01*
X88961105Y-128310568D01*
X89069728Y-128355042D01*
X89079532Y-128359067D01*
X89185715Y-128403429D01*
X89290426Y-128448182D01*
X89339581Y-128468086D01*
X89382622Y-128477357D01*
X89386318Y-128458847D01*
X89381310Y-128445951D01*
X89359747Y-128381968D01*
X89333673Y-128297194D01*
X89322531Y-128262214D01*
X89296621Y-128198708D01*
X89277038Y-128173540D01*
X89255904Y-128179523D01*
X89193580Y-128204408D01*
X89108986Y-128242054D01*
X88961105Y-128310568D01*
X88508408Y-128310568D01*
X88584198Y-128285967D01*
X88752916Y-128227840D01*
X88920611Y-128167061D01*
X88937342Y-128160680D01*
X89338374Y-128160680D01*
X89338443Y-128160984D01*
X89366372Y-128174780D01*
X89435153Y-128199696D01*
X89530557Y-128230561D01*
X89632075Y-128257681D01*
X89750978Y-128280683D01*
X89843329Y-128289281D01*
X89963918Y-128288642D01*
X89833818Y-128229627D01*
X89800763Y-128213853D01*
X89698066Y-128157514D01*
X89613534Y-128101826D01*
X89523350Y-128033040D01*
X89430862Y-128091600D01*
X89414812Y-128101922D01*
X89360360Y-128139969D01*
X89338374Y-128160680D01*
X88937342Y-128160680D01*
X89078194Y-128106962D01*
X89216578Y-128050872D01*
X89326676Y-128002120D01*
X89399399Y-127964037D01*
X89425659Y-127939953D01*
X89409638Y-127911414D01*
X89363939Y-127852249D01*
X89298966Y-127776629D01*
X89237983Y-127705557D01*
X89143554Y-127571741D01*
X89086047Y-127443203D01*
X89056828Y-127303057D01*
X89052491Y-127254702D01*
X89056031Y-127175365D01*
X89075701Y-127147527D01*
X89107386Y-127173378D01*
X89146969Y-127255106D01*
X89182843Y-127331850D01*
X89238857Y-127393996D01*
X89329965Y-127445993D01*
X89465848Y-127486474D01*
X89604789Y-127475375D01*
X89733808Y-127408504D01*
X89850859Y-127286959D01*
X89953898Y-127111834D01*
X89975194Y-127064440D01*
X90009330Y-126967387D01*
X90028893Y-126865217D01*
X90034915Y-126744900D01*
X90028429Y-126593403D01*
X90010466Y-126397692D01*
X89997716Y-126297235D01*
X89973994Y-126196490D01*
X89933367Y-126106589D01*
X89866054Y-126000639D01*
X89864174Y-125997876D01*
X89788481Y-125875871D01*
X89707804Y-125728868D01*
X89631335Y-125575302D01*
X89568265Y-125433608D01*
X89527787Y-125322223D01*
X89518365Y-125286959D01*
X89520925Y-125267945D01*
X89551126Y-125293127D01*
X89552257Y-125294277D01*
X89585298Y-125337894D01*
X89639937Y-125419773D01*
X89708844Y-125528617D01*
X89784689Y-125653126D01*
X89973825Y-125969482D01*
X89991438Y-125827697D01*
X90016983Y-125654430D01*
X90089647Y-125338334D01*
X90192389Y-125062872D01*
X90327728Y-124820504D01*
X90344824Y-124794753D01*
X90399397Y-124705560D01*
X90429142Y-124632391D01*
X90441519Y-124550523D01*
X90443987Y-124435238D01*
X90433069Y-124267033D01*
X90399152Y-124062285D01*
X90347235Y-123855584D01*
X90282421Y-123666957D01*
X90209814Y-123516432D01*
X90060810Y-123307052D01*
X89862379Y-123104584D01*
X89636989Y-122937479D01*
X89393629Y-122811271D01*
X89141289Y-122731489D01*
X88888958Y-122703666D01*
X88682603Y-122717124D01*
X88411283Y-122779064D01*
X88135885Y-122894014D01*
X88119766Y-122902108D01*
X88020473Y-122949018D01*
X87940486Y-122982096D01*
X87895851Y-122994617D01*
X87884081Y-122993391D01*
X87856823Y-122964344D01*
X87861397Y-122904714D01*
X87892675Y-122825266D01*
X87945529Y-122736760D01*
X88014833Y-122649960D01*
X88095459Y-122575628D01*
X88165562Y-122528513D01*
X88299126Y-122466083D01*
X88467451Y-122417491D01*
X88682093Y-122378862D01*
X88923368Y-122343977D01*
X88724476Y-122067133D01*
X88384059Y-122228003D01*
X88351701Y-122243285D01*
X88191958Y-122318245D01*
X88074873Y-122371880D01*
X87992149Y-122407622D01*
X87935489Y-122428903D01*
X87896598Y-122439155D01*
X87867179Y-122441810D01*
X87834173Y-122435964D01*
X87828873Y-122410524D01*
X87868627Y-122370674D01*
X87949084Y-122322738D01*
X87982267Y-122305380D01*
X88068834Y-122254349D01*
X88130928Y-122209958D01*
X88148353Y-122196137D01*
X88216400Y-122148491D01*
X88312839Y-122085441D01*
X88422764Y-122016849D01*
X88465448Y-121990836D01*
X88871331Y-121990836D01*
X88948905Y-122107217D01*
X89007017Y-122193736D01*
X89044163Y-122242776D01*
X89062018Y-122249780D01*
X89062766Y-122210952D01*
X89048588Y-122122494D01*
X89021666Y-121980610D01*
X89018423Y-121963789D01*
X89004091Y-121909902D01*
X88982156Y-121903623D01*
X88937151Y-121936968D01*
X88871331Y-121990836D01*
X88465448Y-121990836D01*
X88634820Y-121887614D01*
X89170254Y-121887614D01*
X89177447Y-121974714D01*
X89194518Y-122108059D01*
X89203636Y-122177048D01*
X89208463Y-122210952D01*
X89217990Y-122277876D01*
X89236350Y-122345621D01*
X89268578Y-122391563D01*
X89324535Y-122426984D01*
X89414081Y-122463165D01*
X89547079Y-122511386D01*
X89671704Y-122567278D01*
X89858776Y-122681546D01*
X90045786Y-122827296D01*
X90216659Y-122992966D01*
X90333473Y-123138122D01*
X90454207Y-123328920D01*
X90557840Y-123535900D01*
X90639881Y-123747290D01*
X90695840Y-123951318D01*
X90721224Y-124136212D01*
X90711544Y-124290200D01*
X90703152Y-124330374D01*
X90690752Y-124394547D01*
X90687548Y-124419530D01*
X90710274Y-124405815D01*
X90769288Y-124368694D01*
X90851318Y-124316484D01*
X90911608Y-124275528D01*
X90983346Y-124211882D01*
X91001949Y-124164479D01*
X90987892Y-124102099D01*
X90957203Y-123986970D01*
X90917159Y-123848880D01*
X90872642Y-123703663D01*
X90828537Y-123567151D01*
X90789726Y-123455179D01*
X90761094Y-123383580D01*
X90711557Y-123304145D01*
X90630845Y-123224415D01*
X90508527Y-123137197D01*
X90370733Y-123038269D01*
X90203168Y-122898172D01*
X90028253Y-122735062D01*
X89855002Y-122558553D01*
X89692428Y-122378259D01*
X89549544Y-122203797D01*
X89435364Y-122044781D01*
X89358901Y-121910825D01*
X89327738Y-121847599D01*
X89287294Y-121790553D01*
X89246977Y-121776846D01*
X89196082Y-121799136D01*
X89185724Y-121807712D01*
X89172994Y-121835650D01*
X89170254Y-121887614D01*
X88634820Y-121887614D01*
X88656410Y-121874456D01*
X88602225Y-121656243D01*
X88560009Y-121426737D01*
X88535467Y-121154780D01*
X88530062Y-120862669D01*
X88544110Y-120568100D01*
X88577924Y-120288775D01*
X88603656Y-120145567D01*
X88636302Y-119987981D01*
X88669182Y-119849957D01*
X88698054Y-119750516D01*
X88699747Y-119745613D01*
X88722546Y-119679471D01*
X88735874Y-119634727D01*
X88735671Y-119614633D01*
X88717881Y-119622444D01*
X88678446Y-119661414D01*
X88613309Y-119734798D01*
X88518411Y-119845850D01*
X88389695Y-119997824D01*
X88258380Y-120154412D01*
X88131476Y-120311068D01*
X88029992Y-120444618D01*
X87946233Y-120565721D01*
X87872507Y-120685036D01*
X87801118Y-120813221D01*
X87667287Y-121096246D01*
X87527946Y-121505435D01*
X87440791Y-121933533D01*
X87407626Y-122373390D01*
X87405600Y-122471485D01*
X87398897Y-122595129D01*
X87387938Y-122663646D01*
X87372509Y-122678888D01*
X87371723Y-122678410D01*
X87216195Y-122568483D01*
X87088162Y-122447908D01*
X87001834Y-122330058D01*
X86997324Y-122321495D01*
X86947453Y-122190542D01*
X86906150Y-122013954D01*
X86875549Y-121803002D01*
X86857784Y-121568958D01*
X86857407Y-121560450D01*
X86853743Y-121492522D01*
X86849348Y-121465627D01*
X86842482Y-121483928D01*
X86831405Y-121551586D01*
X86814376Y-121672761D01*
X86809331Y-121712162D01*
X86793371Y-121878833D01*
X86782209Y-122061442D01*
X86778007Y-122227022D01*
X86777980Y-122246078D01*
X86774464Y-122392715D01*
X86762750Y-122491228D01*
X86739559Y-122550544D01*
X86701611Y-122579588D01*
X86645626Y-122587286D01*
X86631243Y-122586247D01*
X86546752Y-122554277D01*
X86447287Y-122485211D01*
X86345789Y-122389335D01*
X86255199Y-122276938D01*
X86241977Y-122257791D01*
X86190292Y-122186795D01*
X86154960Y-122154577D01*
X86122380Y-122153271D01*
X86078951Y-122175010D01*
X86033565Y-122197658D01*
X85982256Y-122201883D01*
X85914719Y-122174539D01*
X85857485Y-122149052D01*
X85821881Y-122149173D01*
X85795134Y-122180583D01*
X85779360Y-122216682D01*
X85795051Y-122261878D01*
X85805443Y-122282057D01*
X85767155Y-122277625D01*
X85728838Y-122274604D01*
X85688509Y-122293800D01*
X85683186Y-122299457D01*
X85633221Y-122317964D01*
X85555782Y-122325430D01*
X85442603Y-122325430D01*
X85484761Y-122426328D01*
X85502141Y-122471427D01*
X85527624Y-122579260D01*
X85518049Y-122646814D01*
X85477687Y-122670323D01*
X85410810Y-122646021D01*
X85321687Y-122570140D01*
X85300395Y-122548903D01*
X85135291Y-122426240D01*
X84933339Y-122331978D01*
X84708106Y-122268990D01*
X84473158Y-122240147D01*
X84242062Y-122248320D01*
X84028385Y-122296382D01*
X83937719Y-122333110D01*
X83754452Y-122438252D01*
X83726588Y-122460718D01*
X83588612Y-122571966D01*
X83460568Y-122719087D01*
X83310839Y-122979229D01*
X83186093Y-123294959D01*
X83096484Y-123649256D01*
X83092951Y-123667571D01*
X83067915Y-123791289D01*
X83047140Y-123883739D01*
X83032700Y-123936263D01*
X83026674Y-123940206D01*
X83021492Y-123904809D01*
X82996767Y-123839189D01*
X82991023Y-123830490D01*
X82968952Y-123815787D01*
X82948672Y-123853737D01*
X82939804Y-123874222D01*
X82901440Y-123945282D01*
X82850323Y-124027492D01*
X82827236Y-124062734D01*
X82725608Y-124228052D01*
X82623943Y-124407677D01*
X82530478Y-124586036D01*
X82453452Y-124747556D01*
X82401103Y-124876663D01*
X82368766Y-124988150D01*
X82332413Y-125161308D01*
X82303295Y-125352945D01*
X82283680Y-125544476D01*
X82275835Y-125717317D01*
X82103794Y-125717317D01*
X82103447Y-125566437D01*
X82133979Y-125249485D01*
X82154218Y-125122163D01*
X82229689Y-124828201D01*
X82346905Y-124547726D01*
X82512304Y-124263962D01*
X82583973Y-124152090D01*
X82699759Y-123949625D01*
X82782841Y-123764752D01*
X82839483Y-123582376D01*
X82875945Y-123387400D01*
X82878838Y-123366693D01*
X82902706Y-123208216D01*
X82930110Y-123041893D01*
X82955680Y-122900518D01*
X82977021Y-122755551D01*
X82994096Y-122535459D01*
X82994441Y-122522483D01*
X83141123Y-122522483D01*
X83141139Y-122536358D01*
X83142278Y-122635607D01*
X83144864Y-122705382D01*
X83148397Y-122731326D01*
X83156011Y-122720958D01*
X83183575Y-122671509D01*
X83222654Y-122595304D01*
X83289637Y-122460718D01*
X83215380Y-122386462D01*
X83143774Y-122314856D01*
X83412077Y-122314856D01*
X83412445Y-122314961D01*
X83439008Y-122298342D01*
X83497907Y-122254532D01*
X83577252Y-122192349D01*
X83663404Y-122129685D01*
X83783418Y-122055605D01*
X83890059Y-122002538D01*
X84043140Y-121940407D01*
X84002624Y-121894262D01*
X84762753Y-121894262D01*
X84785799Y-121917605D01*
X84840125Y-121931101D01*
X84875396Y-121940127D01*
X84876191Y-121940407D01*
X84969521Y-121973263D01*
X85068672Y-122016734D01*
X85122804Y-122043027D01*
X85183146Y-122071528D01*
X85206435Y-122081296D01*
X85181067Y-121991615D01*
X85100292Y-121861969D01*
X84974279Y-121743652D01*
X84894606Y-121686477D01*
X84835232Y-121648132D01*
X84809101Y-121636986D01*
X84804950Y-121646452D01*
X84791309Y-121698987D01*
X84774694Y-121779841D01*
X84763484Y-121843728D01*
X84762829Y-121889004D01*
X84762753Y-121894262D01*
X84002624Y-121894262D01*
X83955766Y-121840894D01*
X83846232Y-121692375D01*
X83744145Y-121472076D01*
X83696052Y-121234365D01*
X83685534Y-121105867D01*
X83840571Y-121105867D01*
X83848327Y-121199304D01*
X83867032Y-121306063D01*
X83894775Y-121411837D01*
X83929643Y-121502319D01*
X83961460Y-121559373D01*
X84037418Y-121668308D01*
X84120792Y-121764591D01*
X84158776Y-121802182D01*
X84216377Y-121851868D01*
X84270307Y-121877700D01*
X84341187Y-121887478D01*
X84449636Y-121889004D01*
X84654067Y-121889004D01*
X84654067Y-121519828D01*
X84547221Y-121448653D01*
X84860128Y-121448653D01*
X84961776Y-121537901D01*
X84993712Y-121565362D01*
X85049023Y-121609665D01*
X85076958Y-121627148D01*
X85082052Y-121600838D01*
X85086111Y-121527520D01*
X85088632Y-121418547D01*
X85089207Y-121285281D01*
X85087921Y-120943414D01*
X85031489Y-121050245D01*
X85012347Y-121088125D01*
X84963270Y-121194253D01*
X84917593Y-121302864D01*
X84860128Y-121448653D01*
X84547221Y-121448653D01*
X84276016Y-121267990D01*
X84200729Y-121218275D01*
X84076402Y-121138213D01*
X83972871Y-121074120D01*
X83899248Y-121031573D01*
X83864644Y-121016151D01*
X83845679Y-121040058D01*
X83840571Y-121105867D01*
X83685534Y-121105867D01*
X83679382Y-121030699D01*
X83595510Y-121321650D01*
X83569950Y-121416983D01*
X83528194Y-121595498D01*
X83489279Y-121786149D01*
X83459133Y-121961141D01*
X83458307Y-121966630D01*
X83438662Y-122100479D01*
X83423408Y-122210650D01*
X83414047Y-122285868D01*
X83412077Y-122314856D01*
X83143774Y-122314856D01*
X83141123Y-122312205D01*
X83141123Y-122522483D01*
X82994441Y-122522483D01*
X83000880Y-122280364D01*
X82997095Y-122002583D01*
X82982463Y-121714433D01*
X82976413Y-121586089D01*
X82986464Y-121336665D01*
X83030317Y-121113310D01*
X83110527Y-120899771D01*
X83171230Y-120768843D01*
X83155835Y-120899771D01*
X83148727Y-120975521D01*
X83139810Y-121096028D01*
X83130554Y-121241715D01*
X83122107Y-121395681D01*
X83119815Y-121442616D01*
X83114414Y-121590900D01*
X83115385Y-121702420D01*
X83124107Y-121794017D01*
X83141956Y-121882530D01*
X83170312Y-121984796D01*
X83199061Y-122077616D01*
X83237586Y-122182588D01*
X83266645Y-122230926D01*
X83287068Y-122222964D01*
X83299684Y-122159038D01*
X83305322Y-122039485D01*
X83308683Y-121969342D01*
X83333783Y-121772123D01*
X83380682Y-121541221D01*
X83446514Y-121289592D01*
X83528418Y-121030193D01*
X83598574Y-120826022D01*
X83382091Y-120642139D01*
X83322785Y-120590760D01*
X83244887Y-120519416D01*
X83194160Y-120467737D01*
X83179479Y-120444386D01*
X83184554Y-120443601D01*
X83229108Y-120457660D01*
X83307648Y-120492038D01*
X83407271Y-120541250D01*
X83440215Y-120558297D01*
X83535733Y-120607646D01*
X83606289Y-120643983D01*
X83638531Y-120660428D01*
X83645099Y-120660852D01*
X83678177Y-120632473D01*
X83721593Y-120569835D01*
X83766676Y-120488182D01*
X83804756Y-120402754D01*
X83827165Y-120328795D01*
X83828023Y-120324259D01*
X83864336Y-120191591D01*
X83925568Y-120025708D01*
X84004727Y-119841262D01*
X84094819Y-119652903D01*
X84188852Y-119475282D01*
X84279832Y-119323051D01*
X84360767Y-119210861D01*
X84372775Y-119196771D01*
X84396334Y-119173020D01*
X84400797Y-119182385D01*
X84385509Y-119231910D01*
X84349817Y-119328637D01*
X84332206Y-119374488D01*
X84280435Y-119503674D01*
X84219101Y-119651462D01*
X84158000Y-119794077D01*
X84126639Y-119869740D01*
X84073923Y-120012614D01*
X84023093Y-120167459D01*
X83976612Y-120324713D01*
X83936943Y-120474815D01*
X83906548Y-120608205D01*
X83887892Y-120715320D01*
X83883436Y-120786601D01*
X83895645Y-120812486D01*
X83907215Y-120816918D01*
X83961267Y-120847125D01*
X84049875Y-120901201D01*
X84164030Y-120973589D01*
X84294726Y-121058731D01*
X84388363Y-121120089D01*
X84507421Y-121195786D01*
X84589859Y-121243690D01*
X84642550Y-121267249D01*
X84672365Y-121269910D01*
X84686177Y-121255123D01*
X84695960Y-121214878D01*
X84712460Y-121127308D01*
X84732506Y-121008014D01*
X84753696Y-120870676D01*
X84790723Y-120641101D01*
X84850605Y-120346604D01*
X84917769Y-120102935D01*
X84993682Y-119905818D01*
X85079809Y-119750977D01*
X85177617Y-119634135D01*
X85269185Y-119546850D01*
X85151497Y-119794158D01*
X85133735Y-119832306D01*
X85074238Y-119970817D01*
X85022111Y-120106956D01*
X84986979Y-120216037D01*
X84971031Y-120288991D01*
X84953870Y-120396689D01*
X84938814Y-120518711D01*
X84926840Y-120643065D01*
X84918926Y-120757755D01*
X84916049Y-120850786D01*
X84919185Y-120910164D01*
X84929313Y-120923895D01*
X84933721Y-120917710D01*
X84957084Y-120867595D01*
X84991175Y-120781240D01*
X85030269Y-120672886D01*
X85038575Y-120649260D01*
X85085027Y-120527174D01*
X85131695Y-120418107D01*
X85169616Y-120343263D01*
X85193691Y-120298529D01*
X85239782Y-120194921D01*
X85279971Y-120085109D01*
X85301543Y-120020782D01*
X85340302Y-119916023D01*
X85373576Y-119837801D01*
X85375514Y-119833846D01*
X85428445Y-119738427D01*
X85500183Y-119624516D01*
X85581056Y-119505838D01*
X85661396Y-119396116D01*
X85731531Y-119309077D01*
X85781791Y-119258444D01*
X85855904Y-119202797D01*
X85776861Y-119331181D01*
X85764721Y-119351225D01*
X85674709Y-119516185D01*
X85580740Y-119712399D01*
X85492732Y-119918133D01*
X85420607Y-120111656D01*
X85381730Y-120237285D01*
X85323599Y-120471693D01*
X85276636Y-120721353D01*
X85242589Y-120972277D01*
X85223208Y-121210481D01*
X85222158Y-121285281D01*
X85220240Y-121421978D01*
X85235435Y-121592784D01*
X85250067Y-121673763D01*
X85270279Y-121745985D01*
X85302906Y-121800268D01*
X85359347Y-121854200D01*
X85451004Y-121925373D01*
X85472621Y-121941647D01*
X85557800Y-122003665D01*
X85622075Y-122047167D01*
X85652912Y-122063574D01*
X85660577Y-122051632D01*
X85669800Y-121996192D01*
X85674106Y-121910825D01*
X85674995Y-121862413D01*
X85679608Y-121802849D01*
X85690441Y-121789834D01*
X85710474Y-121815567D01*
X85724952Y-121838187D01*
X85790673Y-121920941D01*
X85865233Y-121993400D01*
X85934543Y-122043119D01*
X85984516Y-122057651D01*
X85987306Y-122057068D01*
X86013036Y-122046946D01*
X86027475Y-122022962D01*
X86031695Y-121974140D01*
X86026768Y-121889503D01*
X86013765Y-121758076D01*
X85995388Y-121583505D01*
X86052377Y-121710611D01*
X86065158Y-121739039D01*
X86114364Y-121847544D01*
X86158350Y-121943372D01*
X86176388Y-121974623D01*
X86227263Y-122043195D01*
X86259546Y-122081296D01*
X86296524Y-122124938D01*
X86374877Y-122210223D01*
X86453031Y-122289420D01*
X86521694Y-122352899D01*
X86571573Y-122391032D01*
X86593376Y-122394188D01*
X86593429Y-122393982D01*
X86598488Y-122355732D01*
X86607189Y-122271943D01*
X86618325Y-122154830D01*
X86630689Y-122016606D01*
X86638409Y-121935202D01*
X86681989Y-121604638D01*
X86743536Y-121274986D01*
X86819695Y-120960521D01*
X86907114Y-120675517D01*
X87002439Y-120434250D01*
X87042417Y-120347360D01*
X87134126Y-120153745D01*
X87210669Y-120002665D01*
X87276642Y-119885780D01*
X87336642Y-119794744D01*
X87395264Y-119721214D01*
X87443637Y-119667652D01*
X87519927Y-119591611D01*
X87564988Y-119559702D01*
X87577012Y-119571810D01*
X87554189Y-119627817D01*
X87494714Y-119727609D01*
X87477949Y-119753754D01*
X87365587Y-119939575D01*
X87277315Y-120111131D01*
X87201896Y-120292307D01*
X87128094Y-120506988D01*
X87097891Y-120610335D01*
X87053831Y-120798893D01*
X87018914Y-120996028D01*
X86995383Y-121185772D01*
X86985484Y-121352156D01*
X86991461Y-121479212D01*
X86994074Y-121497871D01*
X87006104Y-121588857D01*
X87021495Y-121710185D01*
X87037571Y-121840872D01*
X87075367Y-122055863D01*
X87137134Y-122247937D01*
X87218431Y-122391109D01*
X87230286Y-122404250D01*
X87244879Y-122405277D01*
X87253854Y-122372472D01*
X87258805Y-122297717D01*
X87261330Y-122172896D01*
X87267163Y-122037693D01*
X87316131Y-121691248D01*
X87410816Y-121335403D01*
X87546854Y-120982253D01*
X87719879Y-120643893D01*
X87925526Y-120332417D01*
X87972640Y-120270894D01*
X88078802Y-120138210D01*
X88203137Y-119988569D01*
X88339500Y-119828835D01*
X88481746Y-119665868D01*
X88623730Y-119506531D01*
X88759308Y-119357687D01*
X88882334Y-119226197D01*
X88986663Y-119118924D01*
X89066151Y-119042730D01*
X89114652Y-119004478D01*
X89122716Y-119000091D01*
X89150130Y-118989221D01*
X89148637Y-119008772D01*
X89118927Y-119069167D01*
X89108589Y-119089364D01*
X89016585Y-119285590D01*
X88927318Y-119502534D01*
X88847316Y-119722382D01*
X88783109Y-119927322D01*
X88741227Y-120099541D01*
X88719398Y-120220899D01*
X88670031Y-120604569D01*
X88657985Y-120957703D01*
X88683294Y-121291210D01*
X88745991Y-121615999D01*
X88792130Y-121799679D01*
X88905229Y-121735235D01*
X88937463Y-121715129D01*
X88976376Y-121682398D01*
X89435274Y-121682398D01*
X89446785Y-121726144D01*
X89484137Y-121803725D01*
X89529354Y-121882651D01*
X89628789Y-122026156D01*
X89758553Y-122190225D01*
X89910302Y-122364489D01*
X90075691Y-122538584D01*
X90136163Y-122598855D01*
X90286344Y-122741132D01*
X90430215Y-122863593D01*
X90586992Y-122981975D01*
X90775891Y-123112016D01*
X90868903Y-123170153D01*
X91051230Y-123265418D01*
X91221958Y-123332261D01*
X91437953Y-123398903D01*
X91306344Y-123283056D01*
X91272761Y-123252132D01*
X91167681Y-123144534D01*
X91046479Y-123008943D01*
X90921355Y-122859740D01*
X90804512Y-122711303D01*
X90708150Y-122578015D01*
X90670998Y-122518792D01*
X90602912Y-122398610D01*
X90522137Y-122246909D01*
X90435008Y-122076380D01*
X90347867Y-121899718D01*
X90267050Y-121729614D01*
X90198898Y-121578761D01*
X90149747Y-121459851D01*
X90112074Y-121368726D01*
X90079095Y-121303065D01*
X90058314Y-121278007D01*
X90052515Y-121279740D01*
X90007082Y-121303093D01*
X89928921Y-121347912D01*
X89830206Y-121406779D01*
X89723111Y-121472277D01*
X89711792Y-121479368D01*
X89619812Y-121536991D01*
X89532482Y-121593502D01*
X89473297Y-121634395D01*
X89448469Y-121654763D01*
X89435274Y-121682398D01*
X88976376Y-121682398D01*
X88990569Y-121670460D01*
X89005877Y-121637505D01*
X89005320Y-121635313D01*
X89003057Y-121589396D01*
X89003330Y-121496147D01*
X89005224Y-121401661D01*
X89137585Y-121401661D01*
X89138749Y-121470461D01*
X89148130Y-121542154D01*
X89164717Y-121568958D01*
X89201213Y-121547621D01*
X89207842Y-121479368D01*
X89181517Y-121365292D01*
X89140462Y-121234365D01*
X89137585Y-121401661D01*
X89005224Y-121401661D01*
X89005959Y-121364976D01*
X89010763Y-121205293D01*
X89017563Y-121026508D01*
X89019916Y-120971829D01*
X89031732Y-120746136D01*
X89045997Y-120560988D01*
X89064320Y-120401838D01*
X89088306Y-120254139D01*
X89119564Y-120103345D01*
X89150908Y-119966994D01*
X89180276Y-119844301D01*
X89203695Y-119751708D01*
X89217887Y-119702582D01*
X89221701Y-119704180D01*
X89227015Y-119750193D01*
X89231521Y-119842442D01*
X89234987Y-119973710D01*
X89237181Y-120136782D01*
X89237871Y-120324438D01*
X89237865Y-120333055D01*
X89238699Y-120570945D01*
X89241805Y-120760234D01*
X89247694Y-120910189D01*
X89256879Y-121030074D01*
X89269871Y-121129154D01*
X89287184Y-121216692D01*
X89291640Y-121235748D01*
X89317116Y-121337691D01*
X89338654Y-121413090D01*
X89351990Y-121446797D01*
X89355970Y-121447404D01*
X89398402Y-121433700D01*
X89476154Y-121400346D01*
X89576927Y-121353427D01*
X89688420Y-121299029D01*
X89798332Y-121243238D01*
X89894365Y-121192140D01*
X89964217Y-121151819D01*
X89995589Y-121128363D01*
X89996831Y-121116723D01*
X89988008Y-121058307D01*
X89966416Y-120964803D01*
X89935047Y-120849971D01*
X89920618Y-120797666D01*
X89887958Y-120663340D01*
X89853872Y-120505936D01*
X89820816Y-120338740D01*
X89791247Y-120175040D01*
X89767618Y-120028126D01*
X89752387Y-119911283D01*
X89748008Y-119837801D01*
X89748022Y-119837434D01*
X89749081Y-119813646D01*
X89751452Y-119801692D01*
X89757168Y-119807892D01*
X89768262Y-119838567D01*
X89786766Y-119900036D01*
X89814713Y-119998620D01*
X89854134Y-120140641D01*
X89907064Y-120332417D01*
X89929453Y-120413030D01*
X89991812Y-120631102D01*
X90045002Y-120806932D01*
X90087866Y-120936948D01*
X90119249Y-121017576D01*
X90137991Y-121045247D01*
X90148281Y-121041886D01*
X90201894Y-121021470D01*
X90290324Y-120986645D01*
X90401373Y-120942183D01*
X90463529Y-120917844D01*
X90571446Y-120879198D01*
X90654179Y-120854282D01*
X90697549Y-120847624D01*
X90694309Y-120861330D01*
X90650600Y-120899080D01*
X90572188Y-120954398D01*
X90467377Y-121021029D01*
X90383466Y-121073438D01*
X90278682Y-121145861D01*
X90220703Y-121198495D01*
X90205784Y-121234391D01*
X90207201Y-121240604D01*
X90229669Y-121304102D01*
X90272816Y-121406805D01*
X90331595Y-121538012D01*
X90400959Y-121687020D01*
X90475861Y-121843129D01*
X90551255Y-121995636D01*
X90622093Y-122133840D01*
X90683330Y-122247039D01*
X90698512Y-122273656D01*
X90863510Y-122531073D01*
X91053511Y-122778484D01*
X91262997Y-123011913D01*
X91486448Y-123227389D01*
X91691946Y-123398903D01*
X91718345Y-123420936D01*
X91953168Y-123588580D01*
X92185397Y-123726349D01*
X92409514Y-123830267D01*
X92619999Y-123896361D01*
X92811332Y-123920657D01*
X92977995Y-123899181D01*
X93074688Y-123860352D01*
X93187249Y-123773925D01*
X93264795Y-123649311D01*
X93309674Y-123482230D01*
X93324237Y-123268400D01*
X93307071Y-123035698D01*
X93239839Y-122739300D01*
X93127209Y-122448468D01*
X92975037Y-122175233D01*
X92789174Y-121931624D01*
X92575475Y-121729669D01*
X92477943Y-121656379D01*
X92268652Y-121524081D01*
X92081149Y-121442574D01*
X91917148Y-121412683D01*
X91767813Y-121408935D01*
X91757952Y-121525315D01*
X91766884Y-121714120D01*
X91823618Y-121913130D01*
X91923205Y-122097232D01*
X91963808Y-122155654D01*
X92023227Y-122244567D01*
X92047281Y-122288464D01*
X92035652Y-122288393D01*
X91988023Y-122245402D01*
X91904079Y-122160542D01*
X91848765Y-122099989D01*
X91713640Y-121908760D01*
X91629337Y-121710822D01*
X91599276Y-121513437D01*
X91602575Y-121441548D01*
X91625910Y-121373299D01*
X91681421Y-121313501D01*
X91710572Y-121289791D01*
X91763714Y-121260569D01*
X91828374Y-121251941D01*
X91927416Y-121258825D01*
X91990384Y-121267736D01*
X92212172Y-121332872D01*
X92436386Y-121446393D01*
X92655578Y-121601680D01*
X92862299Y-121792113D01*
X93049100Y-122011071D01*
X93208531Y-122251936D01*
X93333143Y-122508086D01*
X93391788Y-122674832D01*
X93454362Y-122925053D01*
X93488530Y-123170506D01*
X93490622Y-123390617D01*
X93483822Y-123459286D01*
X93436033Y-123673461D01*
X93350800Y-123843628D01*
X93227559Y-123970666D01*
X93065747Y-124055457D01*
X92978804Y-124077029D01*
X92868978Y-124091721D01*
X92752620Y-124098940D01*
X92645724Y-124098224D01*
X92564281Y-124089110D01*
X92524285Y-124071134D01*
X92511494Y-124058232D01*
X92460157Y-124042039D01*
X92454363Y-124041763D01*
X92385940Y-124022933D01*
X92283882Y-123979377D01*
X92161166Y-123917919D01*
X92030765Y-123845378D01*
X91905653Y-123768576D01*
X91798804Y-123694334D01*
X91699917Y-123624659D01*
X91573072Y-123556822D01*
X91445766Y-123517913D01*
X91387012Y-123504643D01*
X91247280Y-123467760D01*
X91119533Y-123428226D01*
X91048378Y-123404399D01*
X90975195Y-123381645D01*
X90939177Y-123372853D01*
X90938157Y-123373185D01*
X90939076Y-123403525D01*
X90955972Y-123473445D01*
X90985606Y-123569244D01*
X90995023Y-123597417D01*
X91071827Y-123836866D01*
X91128760Y-124038633D01*
X91156838Y-124164479D01*
X91168560Y-124217018D01*
X91193963Y-124386320D01*
X91207706Y-124560837D01*
X91212526Y-124754869D01*
X91212667Y-124812207D01*
X91208396Y-125022097D01*
X91196259Y-125175399D01*
X91176293Y-125271574D01*
X91173946Y-125278088D01*
X91139869Y-125347936D01*
X91114237Y-125363087D01*
X91103850Y-125326808D01*
X91115508Y-125242366D01*
X91137964Y-125076826D01*
X91132902Y-124840040D01*
X91093451Y-124563417D01*
X91044633Y-124308756D01*
X90882511Y-124419465D01*
X90859617Y-124435238D01*
X90855128Y-124438331D01*
X90735824Y-124528070D01*
X90648506Y-124613873D01*
X90576463Y-124714670D01*
X90502983Y-124849394D01*
X90451558Y-124944616D01*
X90390566Y-125045007D01*
X90339949Y-125115872D01*
X90324186Y-125135664D01*
X90240536Y-125287015D01*
X90180241Y-125485352D01*
X90144238Y-125724850D01*
X90133466Y-125999679D01*
X90148860Y-126304015D01*
X90159313Y-126423116D01*
X90173838Y-126625963D01*
X90178172Y-126787206D01*
X90170668Y-126917594D01*
X90149680Y-127027878D01*
X90113562Y-127128806D01*
X90060667Y-127231128D01*
X89989351Y-127345595D01*
X89962448Y-127384240D01*
X89831931Y-127518488D01*
X89678903Y-127602703D01*
X89509373Y-127633285D01*
X89492006Y-127633599D01*
X89420050Y-127638433D01*
X89394760Y-127651292D01*
X89406344Y-127676261D01*
X89437309Y-127707517D01*
X89550707Y-127772357D01*
X89700465Y-127809721D01*
X89874682Y-127817481D01*
X90061456Y-127793507D01*
X90084163Y-127788383D01*
X90244134Y-127733864D01*
X90381306Y-127648180D01*
X90502456Y-127524614D01*
X90614357Y-127356450D01*
X90723786Y-127136971D01*
X90826064Y-126907904D01*
X90814775Y-127071593D01*
X90785352Y-127233403D01*
X90720646Y-127404602D01*
X90639044Y-127545912D01*
X90488138Y-127719661D01*
X90304389Y-127845442D01*
X90088325Y-127922925D01*
X89840475Y-127951782D01*
X89826495Y-127952028D01*
X89726808Y-127954510D01*
X89656325Y-127957521D01*
X89629535Y-127960465D01*
X89651966Y-127975933D01*
X89712050Y-128012230D01*
X89796621Y-128061367D01*
X89829067Y-128079270D01*
X89990754Y-128144667D01*
X90147314Y-128162094D01*
X90311199Y-128131390D01*
X90494861Y-128052395D01*
X90517926Y-128040401D01*
X90610795Y-127994171D01*
X90663617Y-127973852D01*
X90685245Y-127977066D01*
X90684533Y-128001434D01*
X90681023Y-128012165D01*
X90631163Y-128084928D01*
X90539097Y-128167879D01*
X90415436Y-128252576D01*
X90348556Y-128288642D01*
X90270794Y-128330576D01*
X90202397Y-128361633D01*
X90097699Y-128398790D01*
X89994071Y-128416183D01*
X89862085Y-128420270D01*
X89776830Y-128418137D01*
X89643477Y-128401900D01*
X89548156Y-128368008D01*
X89452440Y-128316324D01*
X89540579Y-128437996D01*
X89557023Y-128458847D01*
X89600502Y-128513979D01*
X89726231Y-128630790D01*
X89871218Y-128707843D01*
X90046597Y-128750139D01*
X90263504Y-128762679D01*
X90342444Y-128761125D01*
X90451775Y-128749341D01*
X90551460Y-128720075D01*
X90670835Y-128666392D01*
X90802131Y-128591060D01*
X90979679Y-128452947D01*
X91135704Y-128289646D01*
X91261732Y-128111888D01*
X91349288Y-127930403D01*
X91389898Y-127755923D01*
X91396111Y-127697210D01*
X91411926Y-127579934D01*
X91431094Y-127460710D01*
X91442249Y-127388091D01*
X91456683Y-127255092D01*
X91462591Y-127140665D01*
X91464096Y-127088343D01*
X91474117Y-127001683D01*
X91490733Y-126950656D01*
X91510661Y-126942751D01*
X91530618Y-126985456D01*
X91540992Y-127035534D01*
X91549202Y-127118843D01*
X91550178Y-127132682D01*
X91567836Y-127174524D01*
X91594171Y-127185494D01*
X91611427Y-127155212D01*
X91617845Y-127118358D01*
X91632742Y-127071559D01*
X91663308Y-126995189D01*
X91686714Y-126931285D01*
X91697676Y-126893047D01*
X91823884Y-126893047D01*
X91839697Y-126881037D01*
X91889880Y-126841483D01*
X91962150Y-126783941D01*
X92120246Y-126635700D01*
X92296857Y-126413309D01*
X92454521Y-126149239D01*
X92495714Y-126067417D01*
X92547314Y-125945986D01*
X92565317Y-125854195D01*
X92548559Y-125779627D01*
X92495879Y-125709867D01*
X92406113Y-125632497D01*
X92318346Y-125566438D01*
X92215745Y-125494810D01*
X92133948Y-125443474D01*
X92023598Y-125381454D01*
X92003348Y-125722800D01*
X91987306Y-125951602D01*
X91958689Y-126229431D01*
X91921162Y-126471791D01*
X91872968Y-126691730D01*
X91870050Y-126703233D01*
X91845940Y-126799409D01*
X91829407Y-126867373D01*
X91823884Y-126893047D01*
X91697676Y-126893047D01*
X91727895Y-126787630D01*
X91767605Y-126614954D01*
X91803473Y-126427432D01*
X91833126Y-126239241D01*
X91854197Y-126064556D01*
X91864312Y-125917553D01*
X91861103Y-125812408D01*
X91860570Y-125808092D01*
X91856883Y-125730044D01*
X91857409Y-125609719D01*
X91861484Y-125459675D01*
X91868442Y-125292468D01*
X91877620Y-125120655D01*
X91888352Y-124956793D01*
X91899974Y-124813440D01*
X91911823Y-124703153D01*
X91923232Y-124638488D01*
X91928626Y-124621766D01*
X91938791Y-124605526D01*
X91948077Y-124619539D01*
X91957354Y-124669373D01*
X91967494Y-124760594D01*
X91979368Y-124898768D01*
X91993849Y-125089462D01*
X91998371Y-125131331D01*
X92005805Y-125139206D01*
X92017775Y-125098723D01*
X92036593Y-125005329D01*
X92037685Y-124999582D01*
X92061416Y-124885653D01*
X92081064Y-124821114D01*
X92100083Y-124797997D01*
X92121923Y-124808330D01*
X92125722Y-124820087D01*
X92123345Y-124877056D01*
X92109800Y-124962847D01*
X92088315Y-125059149D01*
X92062117Y-125147652D01*
X92064075Y-125170579D01*
X92109136Y-125222874D01*
X92207827Y-125293127D01*
X92219913Y-125300959D01*
X92323374Y-125377743D01*
X92439090Y-125476368D01*
X92544212Y-125577519D01*
X92615244Y-125652520D01*
X92671742Y-125718818D01*
X92699975Y-125768034D01*
X92707084Y-125813480D01*
X92701990Y-125854195D01*
X92700204Y-125868469D01*
X92699351Y-125873141D01*
X92648248Y-126046347D01*
X92560767Y-126235619D01*
X92445584Y-126428941D01*
X92311377Y-126614296D01*
X92166824Y-126779666D01*
X92020603Y-126913035D01*
X91881392Y-127002385D01*
X91871463Y-127007294D01*
X91804368Y-127054165D01*
X91744951Y-127127561D01*
X91681003Y-127242086D01*
X91632842Y-127349413D01*
X91590077Y-127467848D01*
X91566364Y-127562543D01*
X91535727Y-127737874D01*
X91473786Y-127972220D01*
X91389449Y-128170372D01*
X91276949Y-128344839D01*
X91130520Y-128508133D01*
X91122824Y-128515595D01*
X91008237Y-128615201D01*
X90879690Y-128711062D01*
X90763578Y-128783382D01*
X90698296Y-128817142D01*
X90614151Y-128853542D01*
X90531530Y-128875637D01*
X90430527Y-128888167D01*
X90291238Y-128895872D01*
X90213158Y-128899840D01*
X90107368Y-128907967D01*
X90034876Y-128917171D01*
X90008118Y-128926122D01*
X90009041Y-128928392D01*
X90040689Y-128955218D01*
X90108293Y-129000609D01*
X90199438Y-129056126D01*
X90261395Y-129094366D01*
X90383646Y-129190185D01*
X90466185Y-129293489D01*
X90498489Y-129344557D01*
X90544593Y-129396499D01*
X90603019Y-129423040D01*
X90696650Y-129438586D01*
X90723264Y-129441415D01*
X90917911Y-129438933D01*
X91132698Y-129403299D01*
X91352035Y-129339818D01*
X91560330Y-129253798D01*
X91741994Y-129150543D01*
X91881437Y-129035359D01*
X91930991Y-128985361D01*
X91967566Y-128954204D01*
X91973158Y-128959107D01*
X91971711Y-128962692D01*
X91986004Y-128957983D01*
X92030875Y-128919329D01*
X92098257Y-128853538D01*
X92107422Y-128844306D01*
X92180100Y-128776293D01*
X92236017Y-128732705D01*
X92263712Y-128722610D01*
X92267268Y-128723956D01*
X92270464Y-128696217D01*
X92261786Y-128631787D01*
X92256921Y-128601482D01*
X92256442Y-128538759D01*
X92273574Y-128526135D01*
X92301594Y-128562293D01*
X92333782Y-128645913D01*
X92365966Y-128793346D01*
X92385123Y-128999480D01*
X92381709Y-129209374D01*
X92354945Y-129395362D01*
X92333340Y-129490885D01*
X92319164Y-129560505D01*
X92315599Y-129588668D01*
X92318551Y-129589700D01*
X92355826Y-129574226D01*
X92421739Y-129531420D01*
X92503947Y-129470723D01*
X92590104Y-129401574D01*
X92667866Y-129333415D01*
X92724887Y-129275684D01*
X92782325Y-129204884D01*
X92892941Y-129045982D01*
X92994805Y-128872089D01*
X93082261Y-128695179D01*
X93149653Y-128527230D01*
X93191328Y-128380217D01*
X93201629Y-128266116D01*
X93200234Y-128217700D01*
X93213373Y-128163269D01*
X93248863Y-128152968D01*
X93309212Y-128187850D01*
X93396932Y-128268969D01*
X93514533Y-128397376D01*
X93648828Y-128554708D01*
X93830316Y-128785278D01*
X93976491Y-128997961D01*
X94094594Y-129202811D01*
X94193448Y-129392464D01*
X94215907Y-129226702D01*
X94231395Y-129080841D01*
X94242678Y-128766056D01*
X94230314Y-128417315D01*
X94224457Y-128355384D01*
X94396032Y-128355384D01*
X94397049Y-128365654D01*
X94399031Y-128424105D01*
X94400404Y-128519767D01*
X94400917Y-128638143D01*
X94400917Y-128899081D01*
X94553666Y-129011757D01*
X94593929Y-129040323D01*
X94686080Y-129103365D01*
X94815030Y-129190100D01*
X94973860Y-129295922D01*
X95155652Y-129416227D01*
X95353486Y-129546408D01*
X95560443Y-129681862D01*
X95734180Y-129794979D01*
X95920451Y-129915584D01*
X96086366Y-130022291D01*
X96226267Y-130111494D01*
X96334495Y-130179588D01*
X96405390Y-130222967D01*
X96433295Y-130238026D01*
X96433534Y-130238008D01*
X96477353Y-130224964D01*
X96561997Y-130192347D01*
X96675744Y-130145217D01*
X96806872Y-130088628D01*
X96943661Y-130027640D01*
X97074390Y-129967308D01*
X97187336Y-129912691D01*
X97206527Y-129903012D01*
X97318983Y-129844076D01*
X97454611Y-129770226D01*
X97605178Y-129686244D01*
X97762450Y-129596915D01*
X97918191Y-129507021D01*
X98064169Y-129421346D01*
X98192147Y-129344674D01*
X98293894Y-129281788D01*
X98361173Y-129237472D01*
X98385751Y-129216508D01*
X98384165Y-129213626D01*
X98349485Y-129184283D01*
X98274628Y-129129225D01*
X98166482Y-129053074D01*
X98031933Y-128960450D01*
X97877865Y-128855975D01*
X97711166Y-128744269D01*
X97538722Y-128629955D01*
X97367417Y-128517652D01*
X97204140Y-128411983D01*
X97055774Y-128317568D01*
X96929207Y-128239029D01*
X96900047Y-128221273D01*
X96716879Y-128110536D01*
X96573345Y-128026645D01*
X96460854Y-127966208D01*
X96370813Y-127925829D01*
X96294628Y-127902115D01*
X96223708Y-127891673D01*
X96149460Y-127891108D01*
X96063292Y-127897028D01*
X95990281Y-127905093D01*
X95853905Y-127924431D01*
X95686195Y-127951407D01*
X95501796Y-127983639D01*
X95315351Y-128018743D01*
X95189491Y-128043819D01*
X95013527Y-128081465D01*
X94877016Y-128115389D01*
X94768575Y-128148869D01*
X94676819Y-128185186D01*
X94590363Y-128227620D01*
X94567635Y-128239866D01*
X94478735Y-128291278D01*
X94417484Y-128332447D01*
X94396032Y-128355384D01*
X94224457Y-128355384D01*
X94195278Y-128046820D01*
X94138544Y-127666771D01*
X94061088Y-127289371D01*
X94041979Y-127206190D01*
X94015656Y-127075317D01*
X94003092Y-126974528D01*
X94002608Y-126886712D01*
X94012522Y-126794754D01*
X94038467Y-126616953D01*
X94099441Y-126835166D01*
X94160416Y-127053379D01*
X94196337Y-126922914D01*
X94204495Y-126891834D01*
X94227287Y-126788784D01*
X94240377Y-126704701D01*
X94242832Y-126682752D01*
X94257865Y-126588178D01*
X94278721Y-126486025D01*
X94300779Y-126386128D01*
X94315685Y-126306055D01*
X94452913Y-126306055D01*
X94812425Y-126304831D01*
X94890065Y-126304157D01*
X95023859Y-126301604D01*
X95187254Y-126297039D01*
X95384324Y-126290302D01*
X95619139Y-126281235D01*
X95895772Y-126269677D01*
X96218295Y-126255470D01*
X96590780Y-126238453D01*
X97017299Y-126218467D01*
X97204243Y-126209622D01*
X97537249Y-125773196D01*
X97654256Y-125616793D01*
X97798092Y-125419053D01*
X97950186Y-125205449D01*
X98098462Y-124992945D01*
X98230847Y-124798511D01*
X98591440Y-124260252D01*
X98511012Y-124240304D01*
X98408671Y-124218510D01*
X98243527Y-124190571D01*
X98047723Y-124162843D01*
X97836304Y-124137268D01*
X97624317Y-124115788D01*
X97426805Y-124100346D01*
X97266679Y-124089379D01*
X97070852Y-124074401D01*
X96883135Y-124058608D01*
X96728523Y-124044017D01*
X96644358Y-124035419D01*
X96501442Y-124020992D01*
X96376427Y-124008572D01*
X96289303Y-124000154D01*
X96155581Y-123987652D01*
X95811421Y-124356713D01*
X95738281Y-124434259D01*
X95578537Y-124599646D01*
X95401875Y-124778538D01*
X95225064Y-124954030D01*
X95064874Y-125109219D01*
X95053199Y-125120344D01*
X94892480Y-125273601D01*
X94768305Y-125393816D01*
X94714911Y-125448117D01*
X94675724Y-125487970D01*
X94609784Y-125563041D01*
X94565536Y-125626010D01*
X94538027Y-125683855D01*
X94522307Y-125743558D01*
X94513423Y-125812096D01*
X94506426Y-125896451D01*
X94504305Y-125921826D01*
X94492585Y-126045089D01*
X94480343Y-126151743D01*
X94469910Y-126221070D01*
X94452913Y-126306055D01*
X94315685Y-126306055D01*
X94327567Y-126242231D01*
X94346536Y-126098949D01*
X94359090Y-125941593D01*
X94366637Y-125755469D01*
X94370580Y-125525888D01*
X94371036Y-125448117D01*
X94351664Y-124853880D01*
X94290837Y-124262954D01*
X94187198Y-123669714D01*
X94039390Y-123068536D01*
X93846056Y-122453796D01*
X93605839Y-121819870D01*
X93317382Y-121161135D01*
X93273015Y-121060406D01*
X93204196Y-120889338D01*
X93136288Y-120706153D01*
X93079052Y-120536431D01*
X92988500Y-120279832D01*
X93230015Y-120279832D01*
X93279258Y-120476187D01*
X93279327Y-120476459D01*
X93301871Y-120581045D01*
X93313715Y-120666655D01*
X93312294Y-120714779D01*
X93312436Y-120734359D01*
X93331517Y-120800871D01*
X93370056Y-120897329D01*
X93422997Y-121010238D01*
X93576090Y-121330823D01*
X93742851Y-121714414D01*
X93900035Y-122111312D01*
X94043198Y-122509109D01*
X94167901Y-122895394D01*
X94269700Y-123257759D01*
X94344154Y-123583792D01*
X94344551Y-123585819D01*
X94368513Y-123684242D01*
X94394299Y-123753809D01*
X94416618Y-123780184D01*
X94440275Y-123772406D01*
X94501626Y-123737308D01*
X94578577Y-123683509D01*
X94612583Y-123658228D01*
X94795352Y-123532228D01*
X95020121Y-123389797D01*
X95277441Y-123236117D01*
X95557864Y-123076375D01*
X95851941Y-122915754D01*
X96150225Y-122759437D01*
X96443267Y-122612610D01*
X96721618Y-122480457D01*
X96975831Y-122368161D01*
X97044876Y-122338708D01*
X97149392Y-122292519D01*
X97226151Y-122256513D01*
X97262127Y-122236672D01*
X97265350Y-122221794D01*
X97230238Y-122181337D01*
X97148537Y-122123764D01*
X97024890Y-122051902D01*
X96863940Y-121968574D01*
X96670333Y-121876608D01*
X96657798Y-121870869D01*
X96445389Y-121772480D01*
X96226793Y-121669307D01*
X96009385Y-121565003D01*
X95800538Y-121463220D01*
X95607627Y-121367611D01*
X95438028Y-121281830D01*
X95299114Y-121209530D01*
X95198260Y-121154362D01*
X95142841Y-121119981D01*
X95089510Y-121081490D01*
X94972708Y-121002013D01*
X94823079Y-120903826D01*
X94651103Y-120793514D01*
X94467259Y-120677663D01*
X94282028Y-120562857D01*
X94105890Y-120455680D01*
X93949323Y-120362719D01*
X93822809Y-120290557D01*
X93745164Y-120247797D01*
X93626710Y-120184912D01*
X93541567Y-120147712D01*
X93477981Y-120134780D01*
X93424199Y-120144699D01*
X93368466Y-120176053D01*
X93299028Y-120227425D01*
X93230015Y-120279832D01*
X92988500Y-120279832D01*
X92971790Y-120232481D01*
X92831780Y-119926409D01*
X92663562Y-119647256D01*
X92458050Y-119380179D01*
X92206161Y-119110338D01*
X92138070Y-119043642D01*
X92048413Y-118960717D01*
X91960933Y-118888334D01*
X91864924Y-118818910D01*
X91749682Y-118744864D01*
X91604500Y-118658611D01*
X91418672Y-118552571D01*
X91267903Y-118468242D01*
X91091914Y-118373807D01*
X90941055Y-118299958D01*
X90801192Y-118240868D01*
X90658189Y-118190708D01*
X90497912Y-118143649D01*
X90306224Y-118093862D01*
X90251827Y-118083102D01*
X90148648Y-118069662D01*
X90025945Y-118058713D01*
X89896619Y-118050828D01*
X89773573Y-118046578D01*
X89669709Y-118046532D01*
X89597928Y-118051262D01*
X89571135Y-118061338D01*
X89572925Y-118067447D01*
X89594583Y-118111166D01*
X89632932Y-118178961D01*
X89647592Y-118204355D01*
X89679883Y-118270462D01*
X89677527Y-118291631D01*
X89641615Y-118268462D01*
X89573236Y-118201551D01*
X89473481Y-118091496D01*
X89399167Y-118008459D01*
X89181076Y-117788913D01*
X88992650Y-117634240D01*
X89281488Y-117634240D01*
X89296392Y-117660165D01*
X89341157Y-117717653D01*
X89405142Y-117791789D01*
X89527492Y-117927907D01*
X89905728Y-117942691D01*
X89927854Y-117943572D01*
X90106483Y-117952737D01*
X90254452Y-117966164D01*
X90388795Y-117987074D01*
X90526546Y-118018686D01*
X90684741Y-118064218D01*
X90880413Y-118126890D01*
X90945447Y-118149009D01*
X91339920Y-118314828D01*
X91722414Y-118528209D01*
X92082045Y-118781619D01*
X92407929Y-119067528D01*
X92689181Y-119378404D01*
X92702258Y-119395042D01*
X92793275Y-119518521D01*
X92890584Y-119660728D01*
X92975235Y-119794120D01*
X93113340Y-120023905D01*
X93342524Y-119880264D01*
X93521450Y-119754979D01*
X93718313Y-119594776D01*
X93916705Y-119414319D01*
X94101149Y-119227691D01*
X94256169Y-119048971D01*
X94328513Y-118952271D01*
X94444483Y-118780971D01*
X94569196Y-118581582D01*
X94693884Y-118368732D01*
X94809780Y-118157051D01*
X94908116Y-117961169D01*
X94942904Y-117882806D01*
X95041402Y-117588298D01*
X95110094Y-117251582D01*
X95147465Y-116879509D01*
X95166058Y-116539773D01*
X95055234Y-116518982D01*
X95020019Y-116514822D01*
X94920070Y-116510212D01*
X94776419Y-116508297D01*
X94598072Y-116508817D01*
X94394036Y-116511513D01*
X94173318Y-116516127D01*
X93944926Y-116522400D01*
X93717865Y-116530074D01*
X93501143Y-116538888D01*
X93303767Y-116548586D01*
X93134743Y-116558907D01*
X93003078Y-116569594D01*
X92917780Y-116580387D01*
X92686059Y-116622663D01*
X92450533Y-116666252D01*
X92244433Y-116705734D01*
X92060061Y-116743140D01*
X91889717Y-116780501D01*
X91725703Y-116819848D01*
X91560320Y-116863210D01*
X91385868Y-116912618D01*
X91194650Y-116970103D01*
X90978966Y-117037695D01*
X90731118Y-117117426D01*
X90443406Y-117211325D01*
X90108132Y-117321422D01*
X89998424Y-117357567D01*
X89776840Y-117431322D01*
X89603503Y-117490441D01*
X89473297Y-117536860D01*
X89381108Y-117572513D01*
X89321820Y-117599337D01*
X89290319Y-117619267D01*
X89281488Y-117634240D01*
X88992650Y-117634240D01*
X88965193Y-117611701D01*
X88738918Y-117467273D01*
X88489650Y-117346084D01*
X88236061Y-117255556D01*
X87919286Y-117192762D01*
X87595803Y-117185318D01*
X87258076Y-117232530D01*
X87195439Y-117246232D01*
X87057661Y-117279522D01*
X86929031Y-117316670D01*
X86797303Y-117362091D01*
X86650231Y-117420205D01*
X86475566Y-117495428D01*
X86261063Y-117592179D01*
X86067852Y-117682815D01*
X85903503Y-117767119D01*
X85760011Y-117851583D01*
X85621653Y-117946226D01*
X85472705Y-118061066D01*
X85297441Y-118206121D01*
X85228259Y-118264197D01*
X85106418Y-118365184D01*
X84993462Y-118457377D01*
X84907074Y-118526277D01*
X84760732Y-118640412D01*
X84850097Y-118511730D01*
X84979622Y-118353099D01*
X85157061Y-118179495D01*
X85370737Y-118001459D01*
X85611168Y-117826352D01*
X85868876Y-117661538D01*
X86134379Y-117514378D01*
X86552722Y-117300872D01*
X86396235Y-117282605D01*
X86236076Y-117266056D01*
X85951912Y-117246948D01*
X85683990Y-117241618D01*
X85445713Y-117250180D01*
X85250484Y-117272750D01*
X85105722Y-117302271D01*
X84829991Y-117376275D01*
X84533711Y-117474568D01*
X84229896Y-117591656D01*
X83931563Y-117722050D01*
X83651726Y-117860256D01*
X83403400Y-118000783D01*
X83199601Y-118138140D01*
X82960164Y-118329755D01*
X82646461Y-118618009D01*
X82616475Y-118650266D01*
X82347262Y-118939865D01*
X82055250Y-119303359D01*
X81763113Y-119716529D01*
X81760967Y-119719741D01*
X81604670Y-119966999D01*
X81478150Y-120200195D01*
X81378724Y-120429501D01*
X81303710Y-120665088D01*
X81250424Y-120917129D01*
X81216183Y-121195795D01*
X81198303Y-121511259D01*
X81194103Y-121873693D01*
X81196452Y-122398168D01*
X81251259Y-122087020D01*
X81283482Y-121914184D01*
X81370844Y-121530396D01*
X81475774Y-121181709D01*
X81603370Y-120852451D01*
X81758731Y-120526950D01*
X81763074Y-120518638D01*
X81826743Y-120404654D01*
X81893316Y-120297478D01*
X81957277Y-120204266D01*
X82013112Y-120132175D01*
X82055308Y-120088363D01*
X82078350Y-120079987D01*
X82076723Y-120114204D01*
X82058881Y-120161892D01*
X82019432Y-120251700D01*
X81965153Y-120367651D01*
X81902175Y-120496323D01*
X81843579Y-120617503D01*
X81797964Y-120719657D01*
X81770073Y-120791623D01*
X81764437Y-120822665D01*
X81765640Y-120832248D01*
X81752591Y-120885348D01*
X81721982Y-120972448D01*
X81678132Y-121080639D01*
X81660630Y-121122136D01*
X81549783Y-121433063D01*
X81484493Y-121727813D01*
X81462453Y-122021011D01*
X81481355Y-122327278D01*
X81511583Y-122515482D01*
X81598828Y-122844914D01*
X81724518Y-123159732D01*
X81882998Y-123446779D01*
X82068609Y-123692898D01*
X82185347Y-123823826D01*
X82167284Y-123693974D01*
X82144614Y-123511672D01*
X82126571Y-123320322D01*
X82116422Y-123150223D01*
X82114862Y-123013400D01*
X82122588Y-122921879D01*
X82145199Y-122805499D01*
X82149560Y-122907331D01*
X82154589Y-122964274D01*
X82169885Y-123074948D01*
X82192794Y-123214094D01*
X82220913Y-123369436D01*
X82251839Y-123528698D01*
X82283168Y-123679605D01*
X82312498Y-123809881D01*
X82337425Y-123907251D01*
X82355545Y-123959440D01*
X82365038Y-123980798D01*
X82361609Y-124017963D01*
X82325437Y-124025449D01*
X82268860Y-124003751D01*
X82204215Y-123953364D01*
X82180353Y-123929785D01*
X82133969Y-123890599D01*
X82105935Y-123887881D01*
X82080620Y-123917035D01*
X82068004Y-123941673D01*
X82035942Y-124017158D01*
X82028730Y-124035456D01*
X81991458Y-124130025D01*
X81938632Y-124269838D01*
X81881546Y-124426161D01*
X81871810Y-124453389D01*
X81727167Y-124887070D01*
X81595211Y-125337243D01*
X81477938Y-125794164D01*
X81377348Y-126248090D01*
X81295439Y-126689275D01*
X81234207Y-127107976D01*
X81195652Y-127494448D01*
X81181770Y-127838946D01*
X80884629Y-127838946D01*
X80627485Y-127686756D01*
X80477465Y-127599525D01*
X80308172Y-127504247D01*
X80141369Y-127413228D01*
X79985040Y-127330607D01*
X79847171Y-127260522D01*
X79735747Y-127207110D01*
X79658752Y-127174508D01*
X79624171Y-127166854D01*
X79619158Y-127169257D01*
X79571650Y-127189424D01*
X79483729Y-127225589D01*
X79365693Y-127273536D01*
X79227836Y-127329054D01*
X79157152Y-127357752D01*
X78983635Y-127430353D01*
X78789933Y-127513772D01*
X78583407Y-127604620D01*
X78371417Y-127699510D01*
X78161325Y-127795051D01*
X77960490Y-127887857D01*
X77776275Y-127974538D01*
X77616039Y-128051705D01*
X77487144Y-128115970D01*
X77396949Y-128163945D01*
X77352816Y-128192240D01*
X77178155Y-128192240D01*
X77166945Y-128179401D01*
X77147538Y-128153305D01*
X77148520Y-128150945D01*
X77183934Y-128125556D01*
X77266187Y-128080030D01*
X77389810Y-128016949D01*
X77549336Y-127938894D01*
X77739297Y-127848444D01*
X77954225Y-127748181D01*
X78188651Y-127640685D01*
X78437109Y-127528538D01*
X78694129Y-127414319D01*
X78954245Y-127300609D01*
X79669886Y-126990505D01*
X80321713Y-127334330D01*
X80470842Y-127412699D01*
X80635695Y-127498589D01*
X80777711Y-127571765D01*
X80889752Y-127628580D01*
X80964682Y-127665387D01*
X80995361Y-127678539D01*
X81010677Y-127654321D01*
X81017183Y-127594308D01*
X81022873Y-127489156D01*
X81038970Y-127336852D01*
X81064001Y-127147273D01*
X81096490Y-126930262D01*
X81134964Y-126695665D01*
X81177949Y-126453330D01*
X81223970Y-126213100D01*
X81232162Y-126171908D01*
X81265653Y-126000788D01*
X81293856Y-125852340D01*
X81315199Y-125735154D01*
X81328108Y-125657817D01*
X81331008Y-125628918D01*
X81304886Y-125623828D01*
X81228326Y-125611117D01*
X81108997Y-125592078D01*
X80954547Y-125567919D01*
X80772623Y-125539844D01*
X80570872Y-125509060D01*
X80383883Y-125480327D01*
X80198516Y-125451074D01*
X80039413Y-125425154D01*
X79914399Y-125403869D01*
X79831297Y-125388521D01*
X79797931Y-125380413D01*
X79792646Y-125374880D01*
X79758088Y-125329705D01*
X79696359Y-125244349D01*
X79611238Y-125124307D01*
X79506500Y-124975076D01*
X79385925Y-124802150D01*
X79253289Y-124611024D01*
X79112369Y-124407194D01*
X78966943Y-124196154D01*
X78820788Y-123983401D01*
X78677681Y-123774429D01*
X78541400Y-123574734D01*
X78415721Y-123389810D01*
X78304423Y-123225154D01*
X78211283Y-123086259D01*
X78156819Y-123003931D01*
X78321742Y-123003931D01*
X78342582Y-123052174D01*
X78400455Y-123139534D01*
X78493975Y-123263746D01*
X78556516Y-123344916D01*
X78676651Y-123505080D01*
X78799523Y-123673154D01*
X78906487Y-123823826D01*
X78978228Y-123926033D01*
X79077361Y-124064639D01*
X79170215Y-124191854D01*
X79243520Y-124289347D01*
X79255912Y-124305558D01*
X79328593Y-124404286D01*
X79420538Y-124533356D01*
X79521230Y-124677863D01*
X79620147Y-124822905D01*
X79657819Y-124878077D01*
X79745672Y-125001024D01*
X79824095Y-125103244D01*
X79885705Y-125175354D01*
X79923120Y-125207970D01*
X79959665Y-125219035D01*
X80047117Y-125240348D01*
X80172285Y-125268271D01*
X80324595Y-125300456D01*
X80493471Y-125334557D01*
X80620066Y-125359184D01*
X80799655Y-125392978D01*
X80964809Y-125422814D01*
X81101332Y-125446144D01*
X81195028Y-125460422D01*
X81387421Y-125485778D01*
X81477503Y-125149419D01*
X81509367Y-125028584D01*
X81547644Y-124878839D01*
X81580006Y-124747345D01*
X81601715Y-124653036D01*
X81603659Y-124644145D01*
X81632655Y-124532481D01*
X81673664Y-124396719D01*
X81718466Y-124264234D01*
X81801087Y-124035456D01*
X81489147Y-123722196D01*
X81177206Y-123408936D01*
X80857160Y-123334260D01*
X80757897Y-123311540D01*
X80604741Y-123277924D01*
X80465918Y-123249007D01*
X80362543Y-123229273D01*
X80351922Y-123227524D01*
X80275152Y-123216634D01*
X80154043Y-123200974D01*
X79997104Y-123181524D01*
X79812846Y-123159266D01*
X79609775Y-123135183D01*
X79396401Y-123110256D01*
X79181232Y-123085468D01*
X78972777Y-123061799D01*
X78779546Y-123040231D01*
X78610045Y-123021748D01*
X78472785Y-123007329D01*
X78376274Y-122997958D01*
X78329021Y-122994617D01*
X78321742Y-123003931D01*
X78156819Y-123003931D01*
X78140077Y-122978623D01*
X78094584Y-122907738D01*
X78078580Y-122879102D01*
X78085379Y-122866006D01*
X78133127Y-122855855D01*
X78231329Y-122861856D01*
X78517187Y-122893562D01*
X78910029Y-122937457D01*
X79251537Y-122976080D01*
X79545666Y-123009906D01*
X79796375Y-123039410D01*
X80007621Y-123065067D01*
X80183360Y-123087354D01*
X80327551Y-123106744D01*
X80444150Y-123123713D01*
X80537114Y-123138736D01*
X80628413Y-123153914D01*
X80791779Y-123178919D01*
X80945930Y-123200177D01*
X81066865Y-123214267D01*
X81276570Y-123234653D01*
X81530294Y-123514692D01*
X81542284Y-123527925D01*
X81640024Y-123635828D01*
X81724937Y-123729608D01*
X81788273Y-123799600D01*
X81821283Y-123836139D01*
X81839122Y-123852951D01*
X81863451Y-123850286D01*
X81888593Y-123798523D01*
X81897137Y-123771737D01*
X81898672Y-123730687D01*
X81880207Y-123681651D01*
X81836253Y-123612175D01*
X81761321Y-123509807D01*
X81750472Y-123495253D01*
X81636507Y-123327340D01*
X81539957Y-123151220D01*
X81452685Y-122950372D01*
X81366554Y-122708277D01*
X81339204Y-122626903D01*
X81307948Y-122546820D01*
X81285340Y-122518820D01*
X81267761Y-122544357D01*
X81251594Y-122624884D01*
X81233221Y-122761856D01*
X81216192Y-122870379D01*
X81197820Y-122943434D01*
X81181086Y-122974182D01*
X81168743Y-122957613D01*
X81163543Y-122888713D01*
X81161508Y-122851837D01*
X81148748Y-122748593D01*
X81126937Y-122618595D01*
X81099162Y-122481382D01*
X81078890Y-122383486D01*
X81060738Y-122272307D01*
X81048439Y-122155728D01*
X81041015Y-122020559D01*
X81037486Y-121853612D01*
X81036876Y-121641696D01*
X81038061Y-121463566D01*
X81042599Y-121268585D01*
X81051670Y-121105125D01*
X81066526Y-120958046D01*
X81088416Y-120812205D01*
X81118592Y-120652463D01*
X81118782Y-120651518D01*
X81122359Y-120608346D01*
X81110732Y-120563929D01*
X81077833Y-120507887D01*
X81017600Y-120429842D01*
X80923965Y-120319414D01*
X80875369Y-120263570D01*
X80748758Y-120120636D01*
X80616027Y-119973562D01*
X80499013Y-119846643D01*
X80430342Y-119770876D01*
X80359795Y-119686264D01*
X80325616Y-119638673D01*
X80554243Y-119638673D01*
X80716432Y-119796427D01*
X80730249Y-119810017D01*
X80832479Y-119916682D01*
X80944537Y-120041601D01*
X81044547Y-120160499D01*
X81210473Y-120366816D01*
X81258016Y-120233236D01*
X81260773Y-120225685D01*
X81312898Y-120111247D01*
X81394928Y-119961777D01*
X81500570Y-119786618D01*
X81623529Y-119595115D01*
X81757510Y-119396610D01*
X81896220Y-119200449D01*
X82033363Y-119015974D01*
X82162646Y-118852530D01*
X82277773Y-118719460D01*
X82302610Y-118692347D01*
X82338273Y-118650266D01*
X82335909Y-118642629D01*
X82297366Y-118664235D01*
X82166423Y-118743003D01*
X81995646Y-118842909D01*
X81798521Y-118956254D01*
X81587553Y-119075944D01*
X81375248Y-119194884D01*
X81174113Y-119305980D01*
X80996652Y-119402137D01*
X80554243Y-119638673D01*
X80325616Y-119638673D01*
X80314808Y-119623623D01*
X80302952Y-119592760D01*
X80305651Y-119590005D01*
X80346649Y-119563430D01*
X80429600Y-119515898D01*
X80546510Y-119451811D01*
X80689380Y-119375569D01*
X80850217Y-119291572D01*
X80861443Y-119285765D01*
X81147008Y-119135514D01*
X81437603Y-118978143D01*
X81723679Y-118819099D01*
X81995686Y-118663831D01*
X82244072Y-118517787D01*
X82459288Y-118386417D01*
X82631783Y-118275168D01*
X82718897Y-118217579D01*
X82816759Y-118155347D01*
X82889382Y-118112067D01*
X82925398Y-118094725D01*
X82933444Y-118092050D01*
X82983993Y-118064818D01*
X83064346Y-118015008D01*
X83161219Y-117950730D01*
X83365103Y-117811422D01*
X83383221Y-117428048D01*
X83388742Y-117328741D01*
X83552041Y-117328741D01*
X83554525Y-117422979D01*
X83554541Y-117423172D01*
X83578773Y-117559737D01*
X83624413Y-117642728D01*
X83643012Y-117660948D01*
X83676924Y-117683213D01*
X83715650Y-117676627D01*
X83781899Y-117640930D01*
X83852248Y-117602459D01*
X84041971Y-117511838D01*
X84260812Y-117421429D01*
X84497160Y-117334890D01*
X84739407Y-117255881D01*
X84975944Y-117188060D01*
X85195162Y-117135086D01*
X85385452Y-117100619D01*
X85535205Y-117088316D01*
X85540266Y-117088339D01*
X85639586Y-117093060D01*
X85780084Y-117104802D01*
X85946509Y-117121806D01*
X86123611Y-117142313D01*
X86296140Y-117164564D01*
X86448846Y-117186800D01*
X86566479Y-117207262D01*
X86579547Y-117209818D01*
X86662235Y-117221345D01*
X86739749Y-117219474D01*
X86832091Y-117202176D01*
X86959262Y-117167421D01*
X86966229Y-117165392D01*
X87116074Y-117123331D01*
X87277984Y-117080201D01*
X87418099Y-117045034D01*
X87438628Y-117040064D01*
X87542841Y-117012695D01*
X87621717Y-116988526D01*
X87659528Y-116972295D01*
X87659368Y-116958628D01*
X87626353Y-116911798D01*
X87559145Y-116840548D01*
X87465134Y-116751748D01*
X87351711Y-116652266D01*
X87226268Y-116548974D01*
X87096197Y-116448739D01*
X87053088Y-116417342D01*
X86876321Y-116296637D01*
X86662838Y-116160396D01*
X86424881Y-116015933D01*
X86174691Y-115870565D01*
X85924509Y-115731607D01*
X85686578Y-115606373D01*
X85441606Y-115486043D01*
X85069976Y-115321357D01*
X84723409Y-115190235D01*
X84407672Y-115094786D01*
X84128535Y-115037117D01*
X83995786Y-115017594D01*
X83905755Y-115216472D01*
X83890687Y-115250887D01*
X83812188Y-115471546D01*
X83741752Y-115744425D01*
X83679105Y-116070913D01*
X83623975Y-116452398D01*
X83576087Y-116890265D01*
X83563978Y-117039793D01*
X83555438Y-117194932D01*
X83552041Y-117328741D01*
X83388742Y-117328741D01*
X83392484Y-117261431D01*
X83427633Y-116834340D01*
X83478249Y-116401333D01*
X83542041Y-115978352D01*
X83616713Y-115581338D01*
X83699973Y-115226232D01*
X83720086Y-115150404D01*
X83759952Y-115005864D01*
X83791698Y-114906095D01*
X83819502Y-114842850D01*
X83847540Y-114807884D01*
X83879989Y-114792951D01*
X83921025Y-114789806D01*
X83969132Y-114792849D01*
X84106294Y-114818898D01*
X84283985Y-114869183D01*
X84495245Y-114940799D01*
X84733113Y-115030840D01*
X84990626Y-115136398D01*
X85260825Y-115254568D01*
X85536747Y-115382444D01*
X85811431Y-115517118D01*
X86077916Y-115655685D01*
X86329241Y-115795239D01*
X86347333Y-115805699D01*
X86553870Y-115929843D01*
X86767625Y-116065963D01*
X86976945Y-116206078D01*
X87170174Y-116342209D01*
X87335657Y-116466377D01*
X87461742Y-116570603D01*
X87464585Y-116573142D01*
X87569814Y-116664569D01*
X87678388Y-116755013D01*
X87767240Y-116825249D01*
X87815183Y-116862123D01*
X87909694Y-116938171D01*
X87949512Y-116972295D01*
X87985453Y-117003097D01*
X87995607Y-117011896D01*
X88083040Y-117068768D01*
X88171857Y-117103169D01*
X88211314Y-117113713D01*
X88311425Y-117147994D01*
X88439974Y-117197522D01*
X88583125Y-117256393D01*
X88727041Y-117318702D01*
X88857887Y-117378546D01*
X88961825Y-117430021D01*
X89025020Y-117467222D01*
X89104450Y-117525625D01*
X89448022Y-117382080D01*
X89583863Y-117326752D01*
X89741430Y-117265501D01*
X89884703Y-117212627D01*
X89994136Y-117175524D01*
X90004305Y-117172354D01*
X90115543Y-117137234D01*
X90262061Y-117090435D01*
X90425991Y-117037686D01*
X90589462Y-116984712D01*
X90603255Y-116980236D01*
X91146148Y-116820600D01*
X91735719Y-116677129D01*
X92362520Y-116551534D01*
X93017103Y-116445529D01*
X93690020Y-116360825D01*
X94371822Y-116299136D01*
X94462747Y-116293240D01*
X94716744Y-116284080D01*
X94954699Y-116285819D01*
X95162848Y-116298149D01*
X95327431Y-116320756D01*
X95419244Y-116339118D01*
X95419073Y-116531873D01*
X95418961Y-116539773D01*
X95418449Y-116576000D01*
X95402615Y-116798085D01*
X95368042Y-117052474D01*
X95318218Y-117321936D01*
X95256630Y-117589240D01*
X95186766Y-117837156D01*
X95112113Y-118048454D01*
X95087798Y-118106852D01*
X94996962Y-118306519D01*
X94893276Y-118512807D01*
X94787381Y-118705183D01*
X94689917Y-118863116D01*
X94681623Y-118875380D01*
X94559758Y-119039323D01*
X94407912Y-119221369D01*
X94240821Y-119405249D01*
X94073219Y-119574693D01*
X93919841Y-119713432D01*
X93861683Y-119762585D01*
X93779799Y-119834310D01*
X93723545Y-119886937D01*
X93702635Y-119911605D01*
X93704632Y-119914746D01*
X93740170Y-119943677D01*
X93813331Y-119995844D01*
X93915212Y-120065029D01*
X94036907Y-120145014D01*
X94104650Y-120189007D01*
X94266038Y-120294391D01*
X94449127Y-120414527D01*
X94636184Y-120537767D01*
X94809475Y-120652463D01*
X94853902Y-120681983D01*
X94967515Y-120757557D01*
X95063670Y-120821022D01*
X95148711Y-120875788D01*
X95228987Y-120925264D01*
X95310844Y-120972859D01*
X95400628Y-121021983D01*
X95504688Y-121076045D01*
X95629370Y-121138454D01*
X95781021Y-121212620D01*
X95965988Y-121301953D01*
X96190617Y-121409861D01*
X96461256Y-121539755D01*
X96507638Y-121562053D01*
X96736166Y-121672678D01*
X96949700Y-121777263D01*
X97141979Y-121872654D01*
X97306737Y-121955702D01*
X97437714Y-122023256D01*
X97528646Y-122072163D01*
X97573270Y-122099273D01*
X97590638Y-122113325D01*
X97643745Y-122170446D01*
X97652783Y-122220505D01*
X97651749Y-122221794D01*
X97614521Y-122268194D01*
X97525725Y-122318205D01*
G37*
G36*
X88260765Y-125394960D02*
G01*
X88277834Y-125414019D01*
X88324201Y-125481947D01*
X88382682Y-125580020D01*
X88446236Y-125694919D01*
X88507820Y-125813322D01*
X88560395Y-125921908D01*
X88596919Y-126007356D01*
X88610350Y-126056345D01*
X88601234Y-126064322D01*
X88569726Y-126035230D01*
X88521447Y-125972386D01*
X88462395Y-125885390D01*
X88398563Y-125783839D01*
X88335950Y-125677332D01*
X88280549Y-125575466D01*
X88238358Y-125487842D01*
X88215372Y-125424055D01*
X88194953Y-125336770D01*
X88260765Y-125394960D01*
G37*
G36*
X88042000Y-126959807D02*
G01*
X87976930Y-127192491D01*
X87889264Y-127413222D01*
X87786730Y-127599101D01*
X87773310Y-127618744D01*
X87606397Y-127813021D01*
X87399126Y-127983046D01*
X87166491Y-128118244D01*
X86923483Y-128208038D01*
X86842339Y-128226010D01*
X86647061Y-128251572D01*
X86431323Y-128261445D01*
X86214295Y-128255799D01*
X86015147Y-128234802D01*
X85853049Y-128198622D01*
X85688297Y-128140605D01*
X85354968Y-127983280D01*
X85063863Y-127786148D01*
X84815520Y-127549772D01*
X84610477Y-127274714D01*
X84449273Y-126961536D01*
X84353707Y-126674627D01*
X84508592Y-126674627D01*
X84514940Y-126698836D01*
X84542871Y-126768422D01*
X84587948Y-126867900D01*
X84644567Y-126984495D01*
X84651726Y-126998651D01*
X84826567Y-127278455D01*
X85044748Y-127521450D01*
X85302128Y-127724344D01*
X85594569Y-127883847D01*
X85917930Y-127996669D01*
X86078492Y-128028732D01*
X86291482Y-128050484D01*
X86511900Y-128055002D01*
X86718845Y-128041977D01*
X86891410Y-128011099D01*
X87074032Y-127943063D01*
X87287541Y-127817282D01*
X87483132Y-127653605D01*
X87648092Y-127462958D01*
X87769706Y-127256269D01*
X87844209Y-127076172D01*
X87910071Y-126851166D01*
X87935893Y-126634381D01*
X87923371Y-126407909D01*
X87874202Y-126153842D01*
X87852153Y-126069119D01*
X87813866Y-125952235D01*
X87780131Y-125891537D01*
X87751344Y-125887597D01*
X87744741Y-125902633D01*
X87727898Y-125940991D01*
X87700617Y-126008182D01*
X87649986Y-126091665D01*
X87589329Y-126170891D01*
X87530866Y-126230034D01*
X87486816Y-126253265D01*
X87445425Y-126236677D01*
X87381595Y-126186932D01*
X87315780Y-126120390D01*
X87264314Y-126053793D01*
X87243529Y-126003885D01*
X87240315Y-125991306D01*
X87211329Y-125973928D01*
X87144048Y-125964900D01*
X87028612Y-125962314D01*
X86914435Y-125953830D01*
X87368395Y-125953830D01*
X87369327Y-125978596D01*
X87403390Y-126020326D01*
X87428536Y-126046655D01*
X87471741Y-126073680D01*
X87511588Y-126056002D01*
X87564105Y-125990664D01*
X87626789Y-125902633D01*
X87500623Y-125921975D01*
X87498424Y-125922312D01*
X87408719Y-125937808D01*
X87368395Y-125953830D01*
X86914435Y-125953830D01*
X86825733Y-125947239D01*
X86570364Y-125888737D01*
X86561415Y-125886045D01*
X86409232Y-125843139D01*
X86243857Y-125800638D01*
X86099542Y-125767372D01*
X85872050Y-125719584D01*
X85676866Y-125821452D01*
X85607168Y-125857828D01*
X85514628Y-125907692D01*
X85337463Y-126010845D01*
X85160630Y-126122591D01*
X84991307Y-126237592D01*
X84836672Y-126350512D01*
X84703905Y-126456013D01*
X84600183Y-126548757D01*
X84532686Y-126623407D01*
X84508592Y-126674627D01*
X84353707Y-126674627D01*
X84332447Y-126610800D01*
X84315243Y-126535436D01*
X84284898Y-126321742D01*
X84277277Y-126104868D01*
X84292425Y-125903711D01*
X84320712Y-125779605D01*
X84698100Y-125779605D01*
X84728913Y-125830521D01*
X84774205Y-125887996D01*
X84813046Y-125899232D01*
X84855583Y-125863072D01*
X84864517Y-125851520D01*
X84873229Y-125821452D01*
X84841966Y-125799110D01*
X84761936Y-125776354D01*
X84761278Y-125776196D01*
X84706476Y-125765452D01*
X84698100Y-125779605D01*
X84320712Y-125779605D01*
X84330385Y-125737168D01*
X84383038Y-125584760D01*
X84314887Y-125540106D01*
X84308737Y-125535979D01*
X84258431Y-125489228D01*
X84250309Y-125453096D01*
X84287359Y-125438603D01*
X84298244Y-125440347D01*
X84357354Y-125460421D01*
X84448347Y-125498200D01*
X84556488Y-125547709D01*
X84616814Y-125576262D01*
X84705132Y-125614663D01*
X84780274Y-125638206D01*
X84860080Y-125650361D01*
X84962389Y-125654597D01*
X85105041Y-125654382D01*
X85204092Y-125652087D01*
X85347107Y-125643803D01*
X85469746Y-125631136D01*
X85553106Y-125615716D01*
X85656098Y-125592451D01*
X85893051Y-125577152D01*
X86158063Y-125608258D01*
X86454325Y-125686019D01*
X86561372Y-125719765D01*
X86739629Y-125769180D01*
X86893673Y-125798636D01*
X87042807Y-125810208D01*
X87206332Y-125805969D01*
X87403551Y-125787992D01*
X87499794Y-125777637D01*
X87650854Y-125762033D01*
X87785737Y-125748815D01*
X87883620Y-125740063D01*
X88043643Y-125727193D01*
X87956358Y-125775855D01*
X87947956Y-125780551D01*
X87888976Y-125814292D01*
X87859843Y-125832332D01*
X87862155Y-125847459D01*
X87883939Y-125902068D01*
X87921538Y-125981242D01*
X87927240Y-125992721D01*
X88020565Y-126236195D01*
X88071742Y-126492344D01*
X88074492Y-126634381D01*
X88076546Y-126740463D01*
X88042000Y-126959807D01*
G37*
G36*
X83126332Y-124756993D02*
G01*
X83161980Y-124810430D01*
X83220892Y-124914020D01*
X83288300Y-125044100D01*
X83358136Y-125187744D01*
X83424337Y-125332027D01*
X83480834Y-125464023D01*
X83521563Y-125570805D01*
X83540457Y-125639449D01*
X83543980Y-125669874D01*
X83544243Y-125733121D01*
X83527260Y-125745975D01*
X83492027Y-125707491D01*
X83437537Y-125616729D01*
X83362787Y-125472743D01*
X83336654Y-125419827D01*
X83254259Y-125245726D01*
X83184383Y-125087068D01*
X83128782Y-124949167D01*
X83089211Y-124837337D01*
X83067425Y-124756891D01*
X83065179Y-124713143D01*
X83084230Y-124711406D01*
X83126332Y-124756993D01*
G37*
G36*
X82542133Y-124796684D02*
G01*
X82599461Y-124865478D01*
X82667675Y-124991182D01*
X82741014Y-125166699D01*
X82817615Y-125388034D01*
X82844635Y-125473411D01*
X82877523Y-125579985D01*
X82900023Y-125656305D01*
X82908362Y-125689821D01*
X82899389Y-125702915D01*
X82868823Y-125673078D01*
X82819813Y-125600054D01*
X82755719Y-125488919D01*
X82679901Y-125344749D01*
X82630963Y-125242977D01*
X82573717Y-125107463D01*
X82530843Y-124986041D01*
X82504294Y-124886480D01*
X82496024Y-124816553D01*
X82507986Y-124784030D01*
X82542133Y-124796684D01*
G37*
G36*
X82790328Y-124695656D02*
G01*
X82801018Y-124704889D01*
X82842959Y-124763046D01*
X82898998Y-124860359D01*
X82964021Y-124985742D01*
X83032917Y-125128108D01*
X83100572Y-125276370D01*
X83161874Y-125419440D01*
X83211711Y-125546233D01*
X83244969Y-125645660D01*
X83256535Y-125706635D01*
X83253763Y-125720896D01*
X83232566Y-125717828D01*
X83194115Y-125672651D01*
X83142665Y-125593082D01*
X83082468Y-125486841D01*
X83017779Y-125361646D01*
X82952852Y-125225216D01*
X82891940Y-125085270D01*
X82839297Y-124949526D01*
X82817345Y-124887700D01*
X82781669Y-124780052D01*
X82766139Y-124716645D01*
X82769458Y-124690755D01*
X82790328Y-124695656D01*
G37*
G36*
X83888665Y-124842200D02*
G01*
X83898216Y-124855975D01*
X83938939Y-124926425D01*
X83992194Y-125028647D01*
X84050143Y-125146445D01*
X84104947Y-125263622D01*
X84148769Y-125363982D01*
X84173770Y-125431329D01*
X84179157Y-125473515D01*
X84164341Y-125496793D01*
X84150069Y-125485491D01*
X84113401Y-125432228D01*
X84063601Y-125346020D01*
X84006606Y-125238827D01*
X83948355Y-125122607D01*
X83894789Y-125009319D01*
X83851846Y-124910922D01*
X83825465Y-124839374D01*
X83821584Y-124806633D01*
X83847865Y-124806398D01*
X83888665Y-124842200D01*
G37*
G36*
X88845787Y-125369007D02*
G01*
X88911380Y-125446782D01*
X88995331Y-125559452D01*
X89093631Y-125702296D01*
X89135660Y-125767158D01*
X89217971Y-125902879D01*
X89298276Y-126045034D01*
X89370796Y-126182474D01*
X89429750Y-126304050D01*
X89469361Y-126398616D01*
X89483849Y-126455024D01*
X89483568Y-126464149D01*
X89477104Y-126480508D01*
X89458211Y-126470924D01*
X89421760Y-126429889D01*
X89362624Y-126351898D01*
X89275677Y-126231444D01*
X89275404Y-126231062D01*
X89207782Y-126130332D01*
X89130449Y-126005538D01*
X89049175Y-125867184D01*
X88969729Y-125725769D01*
X88897881Y-125591795D01*
X88839401Y-125475764D01*
X88800059Y-125388176D01*
X88785626Y-125339534D01*
X88785714Y-125337033D01*
X88802562Y-125330850D01*
X88845787Y-125369007D01*
G37*
G36*
X84961379Y-122628783D02*
G01*
X84937623Y-122624057D01*
X84860701Y-122635225D01*
X84814779Y-122695345D01*
X84803979Y-122772897D01*
X84799542Y-122804758D01*
X84811707Y-122905501D01*
X84858511Y-123017718D01*
X84885686Y-123047453D01*
X84932220Y-123098370D01*
X85024025Y-123134517D01*
X85063114Y-123134525D01*
X85133753Y-123101523D01*
X85169612Y-123023638D01*
X85169268Y-122903137D01*
X85163952Y-122838864D01*
X85171527Y-122797340D01*
X85192468Y-122800911D01*
X85223129Y-122844073D01*
X85259863Y-122921327D01*
X85299022Y-123027171D01*
X85336960Y-123156103D01*
X85351803Y-123223221D01*
X85370659Y-123351829D01*
X85373083Y-123368360D01*
X85381122Y-123497651D01*
X85381444Y-123502824D01*
X85380649Y-123532820D01*
X85379432Y-123543739D01*
X85369856Y-123629626D01*
X85365441Y-123669219D01*
X85337000Y-123818940D01*
X85334706Y-123831015D01*
X85307627Y-123940206D01*
X85293455Y-123997354D01*
X85246699Y-124147384D01*
X85199449Y-124260252D01*
X85113086Y-124380295D01*
X84971338Y-124506512D01*
X84788173Y-124620894D01*
X84685860Y-124668282D01*
X84541722Y-124705720D01*
X84391573Y-124703934D01*
X84215648Y-124664424D01*
X84174308Y-124650387D01*
X84014771Y-124560028D01*
X83876965Y-124422917D01*
X83769890Y-124247474D01*
X83749693Y-124199796D01*
X83731662Y-124140205D01*
X83719730Y-124068216D01*
X83712694Y-123972384D01*
X83711609Y-123929831D01*
X83831283Y-123929831D01*
X83857558Y-124065307D01*
X83910527Y-124195670D01*
X83983494Y-124298032D01*
X83993128Y-124307183D01*
X84082618Y-124370286D01*
X84181268Y-124414657D01*
X84190742Y-124417408D01*
X84332690Y-124443053D01*
X84486252Y-124448003D01*
X84629194Y-124432906D01*
X84739283Y-124398409D01*
X84761383Y-124386446D01*
X84893456Y-124279272D01*
X84988305Y-124136364D01*
X85039843Y-123969915D01*
X85040200Y-123940206D01*
X85177778Y-123940206D01*
X85192326Y-123954754D01*
X85206873Y-123940206D01*
X85192326Y-123925659D01*
X85177778Y-123940206D01*
X85040200Y-123940206D01*
X85041981Y-123792117D01*
X85036618Y-123752994D01*
X85148904Y-123752994D01*
X85174067Y-123787457D01*
X85178066Y-123792117D01*
X85200697Y-123818491D01*
X85224983Y-123838374D01*
X85230089Y-123837896D01*
X85230286Y-123818940D01*
X85185052Y-123776472D01*
X85163971Y-123760219D01*
X85148904Y-123752994D01*
X85036618Y-123752994D01*
X85025572Y-123672405D01*
X84969875Y-123732830D01*
X84906793Y-123801266D01*
X84888540Y-123819841D01*
X84852369Y-123856649D01*
X84774443Y-123925723D01*
X84713766Y-123968095D01*
X84572980Y-124017155D01*
X84425516Y-124029496D01*
X84295875Y-124002568D01*
X84289168Y-123999616D01*
X84198357Y-123936542D01*
X84107892Y-123839908D01*
X84034182Y-123730082D01*
X83993639Y-123627434D01*
X83981124Y-123587103D01*
X84072165Y-123587103D01*
X84073208Y-123590087D01*
X84102485Y-123619693D01*
X84159451Y-123663803D01*
X84175061Y-123674684D01*
X84226134Y-123706099D01*
X84246736Y-123711408D01*
X84245694Y-123708424D01*
X84216416Y-123678819D01*
X84159451Y-123634708D01*
X84143840Y-123623827D01*
X84092768Y-123592413D01*
X84072165Y-123587103D01*
X83981124Y-123587103D01*
X83976555Y-123572380D01*
X83955678Y-123547423D01*
X83946283Y-123551675D01*
X83915430Y-123597784D01*
X83878398Y-123686315D01*
X83839804Y-123806929D01*
X83838398Y-123812128D01*
X83831283Y-123929831D01*
X83711609Y-123929831D01*
X83709351Y-123841265D01*
X83708497Y-123663414D01*
X83708490Y-123516611D01*
X83781215Y-123516611D01*
X83783934Y-123556502D01*
X83797720Y-123573435D01*
X83820474Y-123533807D01*
X83824889Y-123511750D01*
X83809039Y-123473900D01*
X83791957Y-123476045D01*
X83781215Y-123516611D01*
X83708490Y-123516611D01*
X83708485Y-123403842D01*
X83817443Y-123403842D01*
X83824857Y-123431043D01*
X83830835Y-123439655D01*
X83857387Y-123460138D01*
X83861366Y-123458243D01*
X83853952Y-123431043D01*
X83847975Y-123422430D01*
X83821423Y-123401948D01*
X83817443Y-123403842D01*
X83708485Y-123403842D01*
X83708477Y-123212051D01*
X83777978Y-123070719D01*
X83892151Y-123070719D01*
X83902062Y-123091353D01*
X83948919Y-123141704D01*
X84025427Y-123213632D01*
X84123632Y-123299287D01*
X84198375Y-123362639D01*
X84310416Y-123458243D01*
X84329037Y-123474132D01*
X84372796Y-123511750D01*
X84453363Y-123581011D01*
X84552234Y-123666879D01*
X84603054Y-123711408D01*
X84726805Y-123819841D01*
X84595877Y-123680128D01*
X84590171Y-123674067D01*
X84504853Y-123587852D01*
X84401889Y-123489920D01*
X84289827Y-123387672D01*
X84177212Y-123288509D01*
X84072591Y-123199832D01*
X83984510Y-123129040D01*
X83921514Y-123083536D01*
X83892151Y-123070719D01*
X83777978Y-123070719D01*
X83806655Y-123012404D01*
X84007917Y-123012404D01*
X84037401Y-123042206D01*
X84101261Y-123099734D01*
X84148884Y-123142048D01*
X84256545Y-123239712D01*
X84377690Y-123351457D01*
X84494044Y-123460499D01*
X84540902Y-123504744D01*
X84657978Y-123613741D01*
X84740239Y-123687054D01*
X84792566Y-123728677D01*
X84819845Y-123742604D01*
X84826956Y-123732830D01*
X84824630Y-123728339D01*
X84791094Y-123691944D01*
X84724259Y-123627651D01*
X84632512Y-123542916D01*
X84524239Y-123445198D01*
X84407827Y-123341954D01*
X84291663Y-123240641D01*
X84184133Y-123148717D01*
X84093624Y-123073640D01*
X84028523Y-123022865D01*
X84017004Y-123014757D01*
X84007917Y-123012404D01*
X83806655Y-123012404D01*
X83808180Y-123009302D01*
X83872868Y-122893292D01*
X83898141Y-122855348D01*
X84017043Y-122855348D01*
X84028350Y-122885281D01*
X84074740Y-122940873D01*
X84145993Y-123007235D01*
X84146493Y-123007656D01*
X84224142Y-123073785D01*
X84331343Y-123166010D01*
X84454007Y-123272176D01*
X84578051Y-123380126D01*
X84673636Y-123462889D01*
X84783825Y-123555725D01*
X84853434Y-123610833D01*
X84883436Y-123629626D01*
X84874804Y-123613513D01*
X84828510Y-123563907D01*
X84745527Y-123482219D01*
X84626826Y-123369859D01*
X84473382Y-123228239D01*
X84432021Y-123190638D01*
X84302636Y-123075586D01*
X84190015Y-122979277D01*
X84100588Y-122906964D01*
X84040787Y-122863903D01*
X84017043Y-122855348D01*
X83898141Y-122855348D01*
X83955362Y-122769438D01*
X83979528Y-122739417D01*
X84084906Y-122739417D01*
X84085071Y-122741397D01*
X84110531Y-122772147D01*
X84171621Y-122834418D01*
X84262147Y-122922181D01*
X84375916Y-123029406D01*
X84506736Y-123150065D01*
X84536419Y-123177139D01*
X84666307Y-123294771D01*
X84780080Y-123396492D01*
X84871067Y-123476425D01*
X84932592Y-123528694D01*
X84957984Y-123547423D01*
X84971567Y-123543739D01*
X84969195Y-123522353D01*
X84936067Y-123478584D01*
X84868739Y-123408665D01*
X84763764Y-123308829D01*
X84761093Y-123306387D01*
X85033250Y-123306387D01*
X85070599Y-123346393D01*
X85139182Y-123399625D01*
X85279611Y-123497651D01*
X85173778Y-123388093D01*
X85131793Y-123348067D01*
X85071518Y-123302837D01*
X85033349Y-123290068D01*
X85033250Y-123306387D01*
X84761093Y-123306387D01*
X84712758Y-123262203D01*
X85162349Y-123262203D01*
X85168555Y-123286033D01*
X85206695Y-123329048D01*
X85247375Y-123357314D01*
X85265063Y-123351829D01*
X85261883Y-123337708D01*
X85233066Y-123297316D01*
X85192402Y-123265616D01*
X85162349Y-123262203D01*
X84712758Y-123262203D01*
X84617698Y-123175308D01*
X84538305Y-123103694D01*
X84388161Y-122969470D01*
X84273924Y-122869622D01*
X84191037Y-122800421D01*
X84134943Y-122758138D01*
X84101085Y-122739047D01*
X84084906Y-122739417D01*
X83979528Y-122739417D01*
X84034124Y-122671593D01*
X84053895Y-122651459D01*
X84095557Y-122617601D01*
X84253748Y-122617601D01*
X84282401Y-122657698D01*
X84343802Y-122720614D01*
X84430072Y-122797787D01*
X84454632Y-122818612D01*
X84574178Y-122920032D01*
X84656255Y-122989222D01*
X84706948Y-123030586D01*
X84732343Y-123048528D01*
X84738526Y-123047453D01*
X84731581Y-123031764D01*
X84717594Y-123005865D01*
X84679906Y-122955448D01*
X84613231Y-122885867D01*
X84529447Y-122807630D01*
X84440169Y-122730735D01*
X84357009Y-122665178D01*
X84291582Y-122620959D01*
X84255502Y-122608074D01*
X84253748Y-122617601D01*
X84095557Y-122617601D01*
X84170030Y-122557079D01*
X84172206Y-122555755D01*
X84396610Y-122555755D01*
X84420979Y-122590915D01*
X84470253Y-122641617D01*
X84531158Y-122696446D01*
X84590459Y-122744123D01*
X84634926Y-122773366D01*
X84651326Y-122772897D01*
X84635917Y-122748982D01*
X84586718Y-122696595D01*
X84515910Y-122630928D01*
X84453652Y-122579987D01*
X84422564Y-122560085D01*
X84632105Y-122560085D01*
X84639519Y-122587286D01*
X84645497Y-122595898D01*
X84672049Y-122616381D01*
X84676028Y-122614486D01*
X84668614Y-122587286D01*
X84662637Y-122578673D01*
X84636085Y-122558190D01*
X84632105Y-122560085D01*
X84422564Y-122560085D01*
X84408765Y-122551251D01*
X84396610Y-122555755D01*
X84172206Y-122555755D01*
X84260712Y-122501895D01*
X84486630Y-122501895D01*
X84494044Y-122529095D01*
X84500022Y-122537708D01*
X84526573Y-122558190D01*
X84530553Y-122556296D01*
X84523139Y-122529095D01*
X84517162Y-122520483D01*
X84490610Y-122500000D01*
X84486630Y-122501895D01*
X84260712Y-122501895D01*
X84307593Y-122473366D01*
X84446529Y-122411237D01*
X84566782Y-122381610D01*
X84654273Y-122387531D01*
X84779315Y-122427715D01*
X84897074Y-122494135D01*
X84963053Y-122556296D01*
X84983578Y-122575633D01*
X85012216Y-122614486D01*
X85036685Y-122647684D01*
X84961379Y-122628783D01*
G37*
G36*
X85707309Y-124647217D02*
G01*
X85720324Y-124669115D01*
X85719988Y-124725968D01*
X85712776Y-124739584D01*
X85669900Y-124763445D01*
X85620595Y-124749941D01*
X85590567Y-124703530D01*
X85589505Y-124693948D01*
X85610045Y-124648211D01*
X85657789Y-124628545D01*
X85707309Y-124647217D01*
G37*
G36*
X169299041Y-71699369D02*
G01*
X169378490Y-71702034D01*
X169420456Y-71711475D01*
X169436878Y-71731957D01*
X169439698Y-71767745D01*
X169439349Y-71786011D01*
X169431888Y-71814386D01*
X169405452Y-71829373D01*
X169348103Y-71835238D01*
X169247897Y-71836246D01*
X169196753Y-71836121D01*
X169117303Y-71833456D01*
X169075338Y-71824015D01*
X169058916Y-71803533D01*
X169056095Y-71767745D01*
X169056444Y-71749479D01*
X169063906Y-71721105D01*
X169090341Y-71706117D01*
X169147691Y-71700252D01*
X169247897Y-71699245D01*
X169299041Y-71699369D01*
G37*
G36*
X168565271Y-71404263D02*
G01*
X168633330Y-71415685D01*
X168740843Y-71460358D01*
X168811486Y-71529504D01*
X168836894Y-71616583D01*
X168827391Y-71683169D01*
X168790733Y-71744900D01*
X168718543Y-71805155D01*
X168602498Y-71873041D01*
X168519784Y-71921070D01*
X168455198Y-71973925D01*
X168430637Y-72022705D01*
X168440277Y-72100908D01*
X168494841Y-72148817D01*
X168593015Y-72165048D01*
X168628717Y-72163819D01*
X168696534Y-72145358D01*
X168743512Y-72096548D01*
X168773489Y-72057680D01*
X168819889Y-72028893D01*
X168852181Y-72050775D01*
X168864294Y-72122042D01*
X168862735Y-72160355D01*
X168845970Y-72208120D01*
X168802643Y-72227912D01*
X168707333Y-72241077D01*
X168567479Y-72241713D01*
X168446384Y-72220595D01*
X168355408Y-72180129D01*
X168305910Y-72122720D01*
X168289176Y-72038615D01*
X168300906Y-71940110D01*
X168342754Y-71864582D01*
X168370221Y-71841348D01*
X168443996Y-71791566D01*
X168531136Y-71742552D01*
X168588756Y-71710952D01*
X168662195Y-71653682D01*
X168688307Y-71596480D01*
X168671430Y-71532858D01*
X168623247Y-71492381D01*
X168548419Y-71478810D01*
X168468832Y-71493017D01*
X168405833Y-71534843D01*
X168389778Y-71552293D01*
X168337110Y-71586866D01*
X168301790Y-71571701D01*
X168288889Y-71507965D01*
X168288892Y-71506810D01*
X168303137Y-71446987D01*
X168349507Y-71411621D01*
X168434665Y-71398212D01*
X168565271Y-71404263D01*
G37*
G36*
X144231500Y-72528059D02*
G01*
X144147936Y-72556782D01*
X144013646Y-72574030D01*
X143874122Y-72567891D01*
X143754697Y-72537846D01*
X143677082Y-72493349D01*
X143606716Y-72416212D01*
X143576408Y-72330055D01*
X143716885Y-72330055D01*
X143721349Y-72392694D01*
X143771793Y-72451197D01*
X143800536Y-72466184D01*
X143889064Y-72487339D01*
X143994526Y-72492761D01*
X144093856Y-72482203D01*
X144163989Y-72455415D01*
X144182576Y-72440225D01*
X144202659Y-72400652D01*
X144189225Y-72338964D01*
X144189078Y-72338545D01*
X144169853Y-72295570D01*
X144140491Y-72271286D01*
X144086104Y-72259198D01*
X143991809Y-72252807D01*
X143911935Y-72252248D01*
X143822694Y-72259702D01*
X143766308Y-72274322D01*
X143758877Y-72278614D01*
X143716885Y-72330055D01*
X143576408Y-72330055D01*
X143575879Y-72328551D01*
X143587896Y-72241710D01*
X143646090Y-72167037D01*
X143680294Y-72144068D01*
X143736398Y-72123237D01*
X143815997Y-72112985D01*
X143934653Y-72110248D01*
X144016485Y-72109259D01*
X144100320Y-72103177D01*
X144147134Y-72089842D01*
X144167498Y-72067306D01*
X144171266Y-72055268D01*
X144161075Y-72004492D01*
X144105326Y-71974860D01*
X144009456Y-71969729D01*
X143995022Y-71970470D01*
X143898776Y-71964477D01*
X143816678Y-71944265D01*
X143803050Y-71938022D01*
X143722347Y-71870253D01*
X143671622Y-71772951D01*
X143666505Y-71734845D01*
X143800893Y-71734845D01*
X143823422Y-71796521D01*
X143837195Y-71822359D01*
X143883782Y-71868180D01*
X143960037Y-71885582D01*
X144008746Y-71886106D01*
X144079232Y-71861388D01*
X144118941Y-71797528D01*
X144132997Y-71688691D01*
X144131358Y-71630588D01*
X144106732Y-71541300D01*
X144050659Y-71494230D01*
X143959843Y-71485508D01*
X143950906Y-71486303D01*
X143889699Y-71499136D01*
X143853285Y-71533245D01*
X143823228Y-71604719D01*
X143802307Y-71675964D01*
X143800893Y-71734845D01*
X143666505Y-71734845D01*
X143656964Y-71663790D01*
X143684460Y-71560442D01*
X143697186Y-71530998D01*
X143685350Y-71511603D01*
X143629659Y-71507443D01*
X143571170Y-71498580D01*
X143546494Y-71470387D01*
X143550328Y-71461551D01*
X143592771Y-71440987D01*
X143671564Y-71424881D01*
X143773420Y-71413973D01*
X143885050Y-71408999D01*
X143993164Y-71410700D01*
X144084476Y-71419814D01*
X144145696Y-71437079D01*
X144206652Y-71486224D01*
X144259468Y-71578740D01*
X144281465Y-71688248D01*
X144281417Y-71688691D01*
X144269685Y-71797087D01*
X144221169Y-71887595D01*
X144202224Y-71912227D01*
X144199780Y-71946996D01*
X144233698Y-71996832D01*
X144264560Y-72042582D01*
X144284341Y-72121621D01*
X144253783Y-72186606D01*
X144244855Y-72197537D01*
X144243798Y-72233078D01*
X144283440Y-72285305D01*
X144310228Y-72318606D01*
X144337132Y-72397054D01*
X144335792Y-72400652D01*
X144310575Y-72468341D01*
X144231500Y-72528059D01*
G37*
G36*
X156910888Y-71901405D02*
G01*
X156878980Y-72028687D01*
X156816495Y-72136633D01*
X156723357Y-72212595D01*
X156636104Y-72240201D01*
X156507747Y-72240652D01*
X156380344Y-72202817D01*
X156301776Y-72159382D01*
X156267252Y-72121217D01*
X156273833Y-72082948D01*
X156304904Y-72073353D01*
X156369990Y-72096648D01*
X156473016Y-72130886D01*
X156576784Y-72132594D01*
X156666504Y-72104609D01*
X156729575Y-72050913D01*
X156753398Y-71975488D01*
X156755428Y-71945117D01*
X156770030Y-71879587D01*
X156772622Y-71863702D01*
X156758164Y-71849485D01*
X156715416Y-71841150D01*
X156635547Y-71837227D01*
X156509728Y-71836246D01*
X156232794Y-71836246D01*
X156232794Y-71738984D01*
X156234552Y-71712065D01*
X156369795Y-71712065D01*
X156373021Y-71726366D01*
X156398431Y-71743250D01*
X156457847Y-71751723D01*
X156561597Y-71754045D01*
X156605263Y-71753946D01*
X156687947Y-71751448D01*
X156732253Y-71742515D01*
X156750098Y-71723121D01*
X156753398Y-71689240D01*
X156750761Y-71658373D01*
X156711898Y-71569261D01*
X156638174Y-71504838D01*
X156544510Y-71480043D01*
X156487090Y-71484535D01*
X156443616Y-71510958D01*
X156409498Y-71575064D01*
X156404795Y-71586614D01*
X156379930Y-71659869D01*
X156369795Y-71712065D01*
X156234552Y-71712065D01*
X156236773Y-71678062D01*
X156276441Y-71552863D01*
X156352313Y-71462074D01*
X156456544Y-71410461D01*
X156581290Y-71402787D01*
X156718705Y-71443819D01*
X156734288Y-71451845D01*
X156823920Y-71530007D01*
X156883282Y-71639418D01*
X156894574Y-71689240D01*
X156912297Y-71767433D01*
X156910888Y-71901405D01*
G37*
G36*
X153007434Y-66924002D02*
G01*
X153165432Y-67290573D01*
X153311278Y-67628338D01*
X153443805Y-67934596D01*
X153561848Y-68206646D01*
X153664242Y-68441786D01*
X153749821Y-68637315D01*
X153817419Y-68790532D01*
X153865872Y-68898735D01*
X153894013Y-68959223D01*
X154008253Y-69179943D01*
X154144259Y-69416316D01*
X154278985Y-69623819D01*
X154407330Y-69794665D01*
X154524190Y-69921068D01*
X154571054Y-69961763D01*
X154688444Y-70041888D01*
X154830031Y-70109133D01*
X155006017Y-70167875D01*
X155226602Y-70222492D01*
X155345554Y-70246455D01*
X155449857Y-70259719D01*
X155542490Y-70259416D01*
X155645114Y-70246806D01*
X155805493Y-70213145D01*
X156016629Y-70139117D01*
X156191470Y-70039178D01*
X156324641Y-69916644D01*
X156410766Y-69774827D01*
X156418893Y-69754841D01*
X156434801Y-69715561D01*
X156449296Y-69677581D01*
X156462451Y-69638350D01*
X156474336Y-69595320D01*
X156485022Y-69545940D01*
X156494581Y-69487660D01*
X156503085Y-69417930D01*
X156510604Y-69334200D01*
X156517211Y-69233919D01*
X156522976Y-69114539D01*
X156527971Y-68973509D01*
X156532267Y-68808279D01*
X156535937Y-68616299D01*
X156539050Y-68395018D01*
X156541678Y-68141888D01*
X156543894Y-67854357D01*
X156545767Y-67529876D01*
X156547370Y-67165896D01*
X156548774Y-66759865D01*
X156550051Y-66309234D01*
X156551271Y-65811452D01*
X156552507Y-65263971D01*
X156553829Y-64664239D01*
X156563985Y-60081553D01*
X155712304Y-60081553D01*
X155656166Y-60081615D01*
X155430408Y-60083055D01*
X155211354Y-60086208D01*
X155008622Y-60090824D01*
X154831832Y-60096648D01*
X154690602Y-60103429D01*
X154594551Y-60110914D01*
X154436458Y-60133097D01*
X154127687Y-60209142D01*
X153855125Y-60325353D01*
X153616863Y-60482876D01*
X153410991Y-60682858D01*
X153235599Y-60926443D01*
X153194185Y-61001102D01*
X153109734Y-61201247D01*
X153037229Y-61447650D01*
X152975442Y-61744169D01*
X152928070Y-62013268D01*
X152772018Y-62021486D01*
X152615966Y-62029703D01*
X152616215Y-61884485D01*
X152616311Y-61874793D01*
X152618349Y-61803173D01*
X152622803Y-61685354D01*
X152629372Y-61528193D01*
X152637754Y-61338546D01*
X152647648Y-61123270D01*
X152658752Y-60889222D01*
X152670766Y-60643258D01*
X152674263Y-60572512D01*
X152685983Y-60332760D01*
X152696721Y-60109141D01*
X152706181Y-59908089D01*
X152714067Y-59736035D01*
X152720082Y-59599414D01*
X152723931Y-59504657D01*
X152725317Y-59458198D01*
X152725567Y-59369148D01*
X170508307Y-59369148D01*
X170508307Y-59670550D01*
X170241155Y-59671093D01*
X170072404Y-59674796D01*
X169784027Y-59701058D01*
X169541962Y-59753165D01*
X169344477Y-59831907D01*
X169189840Y-59938075D01*
X169076318Y-60072458D01*
X169002178Y-60235846D01*
X169001022Y-60239597D01*
X168986421Y-60289372D01*
X168973141Y-60340977D01*
X168961128Y-60397061D01*
X168950325Y-60460271D01*
X168940677Y-60533258D01*
X168932128Y-60618668D01*
X168924622Y-60719151D01*
X168918105Y-60837355D01*
X168912519Y-60975929D01*
X168907809Y-61137521D01*
X168903920Y-61324779D01*
X168900795Y-61540352D01*
X168898379Y-61786889D01*
X168896617Y-62067038D01*
X168895452Y-62383448D01*
X168894829Y-62738767D01*
X168894692Y-63135643D01*
X168894985Y-63576725D01*
X168895653Y-64064662D01*
X168896640Y-64602102D01*
X168897889Y-65191693D01*
X168898580Y-65494783D01*
X168899974Y-66048390D01*
X168901441Y-66550769D01*
X168903007Y-67004284D01*
X168904697Y-67411301D01*
X168906535Y-67774185D01*
X168908548Y-68095301D01*
X168910759Y-68377014D01*
X168913194Y-68621690D01*
X168915878Y-68831692D01*
X168918836Y-69009386D01*
X168922092Y-69157137D01*
X168925672Y-69277310D01*
X168929601Y-69372271D01*
X168933904Y-69444383D01*
X168938605Y-69496013D01*
X168943730Y-69529525D01*
X168972635Y-69635770D01*
X169061101Y-69819037D01*
X169192439Y-69970604D01*
X169367272Y-70090848D01*
X169586221Y-70180148D01*
X169849907Y-70238880D01*
X170158954Y-70267422D01*
X170508307Y-70281707D01*
X170508307Y-70576005D01*
X166172629Y-70569070D01*
X161836951Y-70562136D01*
X161365712Y-69192125D01*
X161326660Y-69078493D01*
X161238806Y-68822107D01*
X161157234Y-68583027D01*
X161083602Y-68366178D01*
X161019571Y-68176489D01*
X160966801Y-68018885D01*
X160926951Y-67898295D01*
X160901681Y-67819646D01*
X160892652Y-67787864D01*
X160901156Y-67772649D01*
X160952373Y-67758224D01*
X161053487Y-67753614D01*
X161216143Y-67753614D01*
X161355801Y-68001358D01*
X161370692Y-68027683D01*
X161612449Y-68429417D01*
X161851772Y-68777851D01*
X162089907Y-69074274D01*
X162328098Y-69319981D01*
X162567589Y-69516261D01*
X162809624Y-69664406D01*
X163055448Y-69765709D01*
X163145653Y-69792787D01*
X163240762Y-69817478D01*
X163340161Y-69838309D01*
X163448901Y-69855598D01*
X163572032Y-69869663D01*
X163714606Y-69880820D01*
X163881672Y-69889390D01*
X164078282Y-69895688D01*
X164309486Y-69900033D01*
X164580334Y-69902744D01*
X164895877Y-69904137D01*
X165261165Y-69904531D01*
X165406042Y-69904484D01*
X165723530Y-69903947D01*
X165992182Y-69902728D01*
X166216231Y-69900726D01*
X166399908Y-69897842D01*
X166547445Y-69893976D01*
X166663073Y-69889027D01*
X166751024Y-69882896D01*
X166815530Y-69875482D01*
X166860823Y-69866685D01*
X166933661Y-69842772D01*
X167076160Y-69758586D01*
X167183645Y-69638287D01*
X167248287Y-69489498D01*
X167250521Y-69479045D01*
X167257138Y-69425820D01*
X167263132Y-69339964D01*
X167268553Y-69219014D01*
X167273450Y-69060508D01*
X167277873Y-68861980D01*
X167281870Y-68620969D01*
X167285492Y-68335011D01*
X167288789Y-68001643D01*
X167291808Y-67618401D01*
X167294601Y-67182822D01*
X167307267Y-65009118D01*
X165804712Y-65021461D01*
X165789458Y-65021586D01*
X165442432Y-65024626D01*
X165145205Y-65027868D01*
X164892973Y-65031724D01*
X164680930Y-65036609D01*
X164504272Y-65042937D01*
X164358194Y-65051123D01*
X164237890Y-65061579D01*
X164138557Y-65074720D01*
X164055389Y-65090960D01*
X163983581Y-65110713D01*
X163918328Y-65134392D01*
X163854825Y-65162413D01*
X163788268Y-65195188D01*
X163695220Y-65245243D01*
X163565618Y-65330479D01*
X163459694Y-65426614D01*
X163373245Y-65540962D01*
X163302069Y-65680836D01*
X163241966Y-65853548D01*
X163188733Y-66066413D01*
X163138169Y-66326744D01*
X163117806Y-66443568D01*
X163099664Y-66551045D01*
X163087372Y-66627869D01*
X163082848Y-66662397D01*
X163064728Y-66672684D01*
X163005156Y-66681582D01*
X162918447Y-66685005D01*
X162754046Y-66685005D01*
X162754046Y-62794175D01*
X163074064Y-62794175D01*
X163105894Y-63053181D01*
X163132274Y-63224058D01*
X163195610Y-63487076D01*
X163280816Y-63719829D01*
X163384229Y-63911034D01*
X163500287Y-64057038D01*
X163651806Y-64180400D01*
X163839709Y-64271893D01*
X163849688Y-64275628D01*
X163922616Y-64301287D01*
X163995886Y-64323087D01*
X164074451Y-64341337D01*
X164163259Y-64356348D01*
X164267262Y-64368431D01*
X164391409Y-64377896D01*
X164540653Y-64385053D01*
X164719942Y-64390213D01*
X164934228Y-64393686D01*
X165188461Y-64395782D01*
X165487591Y-64396813D01*
X165836570Y-64397087D01*
X167288781Y-64397087D01*
X167302811Y-60022231D01*
X165405181Y-60034643D01*
X165025883Y-60037206D01*
X164682177Y-60039898D01*
X164385029Y-60042937D01*
X164130241Y-60046636D01*
X163913618Y-60051312D01*
X163730961Y-60057279D01*
X163578074Y-60064854D01*
X163450761Y-60074351D01*
X163344824Y-60086085D01*
X163256067Y-60100373D01*
X163180293Y-60117529D01*
X163113305Y-60137869D01*
X163050906Y-60161708D01*
X162988900Y-60189362D01*
X162923088Y-60221146D01*
X162850600Y-60259959D01*
X162673333Y-60387818D01*
X162519040Y-60553049D01*
X162385912Y-60758778D01*
X162272136Y-61008131D01*
X162175903Y-61304235D01*
X162095403Y-61650216D01*
X162094615Y-61654187D01*
X162073122Y-61745512D01*
X162051583Y-61810448D01*
X162034548Y-61835167D01*
X162032532Y-61835479D01*
X162019493Y-61863856D01*
X162019025Y-61924218D01*
X162027940Y-62013268D01*
X161871248Y-62021460D01*
X161795716Y-62024287D01*
X161740349Y-62019775D01*
X161713998Y-62002098D01*
X161702516Y-61966660D01*
X161697870Y-61941017D01*
X161684438Y-61862982D01*
X161666310Y-61755010D01*
X161646063Y-61632354D01*
X161635063Y-61570112D01*
X161553217Y-61257675D01*
X161433667Y-60975897D01*
X161279300Y-60728146D01*
X161093001Y-60517791D01*
X160877656Y-60348199D01*
X160636151Y-60222738D01*
X160371371Y-60144776D01*
X160352746Y-60141442D01*
X160257282Y-60129266D01*
X160125110Y-60118742D01*
X159952614Y-60109705D01*
X159736176Y-60101992D01*
X159472179Y-60095439D01*
X159157005Y-60089883D01*
X158149284Y-60074819D01*
X158158021Y-64701972D01*
X158158488Y-64946901D01*
X158159632Y-65519540D01*
X158160770Y-66040895D01*
X158161931Y-66513478D01*
X158163143Y-66939798D01*
X158164435Y-67322365D01*
X158165835Y-67663688D01*
X158167372Y-67966278D01*
X158169074Y-68232645D01*
X158170971Y-68465297D01*
X158173090Y-68666746D01*
X158175460Y-68839501D01*
X158178110Y-68986071D01*
X158181068Y-69108968D01*
X158184363Y-69210699D01*
X158188023Y-69293777D01*
X158192077Y-69360709D01*
X158196554Y-69414007D01*
X158201482Y-69456179D01*
X158206889Y-69489737D01*
X158212804Y-69517189D01*
X158278118Y-69717698D01*
X158371141Y-69885468D01*
X158494932Y-70019359D01*
X158653451Y-70121922D01*
X158850658Y-70195709D01*
X159090511Y-70243269D01*
X159376969Y-70267154D01*
X159740022Y-70282205D01*
X159740022Y-70575836D01*
X151903560Y-70575836D01*
X151903560Y-70277791D01*
X152033711Y-70260995D01*
X152069012Y-70256393D01*
X152316155Y-70220656D01*
X152516463Y-70184020D01*
X152676985Y-70144476D01*
X152804768Y-70100013D01*
X152906862Y-70048623D01*
X152990313Y-69988297D01*
X153025716Y-69956373D01*
X153122239Y-69838504D01*
X153175211Y-69704851D01*
X153191370Y-69540402D01*
X153188512Y-69467234D01*
X153177799Y-69380262D01*
X153157552Y-69281612D01*
X153126116Y-69166514D01*
X153081838Y-69030196D01*
X153023063Y-68867887D01*
X152948137Y-68674817D01*
X152855406Y-68446213D01*
X152743216Y-68177304D01*
X152609912Y-67863320D01*
X152165154Y-66822006D01*
X147827386Y-66822006D01*
X147415424Y-67815264D01*
X147358461Y-67952829D01*
X147241565Y-68237210D01*
X147143913Y-68478769D01*
X147063726Y-68682715D01*
X146999226Y-68854254D01*
X146948635Y-68998596D01*
X146910176Y-69120947D01*
X146882069Y-69226515D01*
X146862538Y-69320509D01*
X146849805Y-69408136D01*
X146842090Y-69494604D01*
X146836852Y-69602008D01*
X146839815Y-69689778D01*
X146854538Y-69757488D01*
X146883309Y-69823407D01*
X146938083Y-69916070D01*
X147014389Y-70006407D01*
X147110031Y-70079233D01*
X147232101Y-70137833D01*
X147387688Y-70185494D01*
X147583883Y-70225501D01*
X147827778Y-70261142D01*
X147957929Y-70277791D01*
X147957929Y-70575836D01*
X143519094Y-70575836D01*
X143519094Y-70277791D01*
X143649245Y-70259824D01*
X143914901Y-70212395D01*
X144150387Y-70144291D01*
X144357340Y-70051254D01*
X144541879Y-69928408D01*
X144710123Y-69770878D01*
X144868190Y-69573787D01*
X145022198Y-69332261D01*
X145178267Y-69041424D01*
X145200517Y-68993327D01*
X145243480Y-68895913D01*
X145305408Y-68753070D01*
X145385186Y-68567428D01*
X145481702Y-68341616D01*
X145593842Y-68078266D01*
X145720494Y-67780005D01*
X145860543Y-67449466D01*
X146012878Y-67089277D01*
X146176384Y-66702068D01*
X146349948Y-66290470D01*
X146403042Y-66164401D01*
X148096287Y-66164401D01*
X149988507Y-66164401D01*
X150162553Y-66164307D01*
X150479152Y-66163627D01*
X150773596Y-66162336D01*
X151041805Y-66160485D01*
X151279697Y-66158126D01*
X151483193Y-66155310D01*
X151648211Y-66152089D01*
X151770671Y-66148515D01*
X151846492Y-66144640D01*
X151871593Y-66140516D01*
X151870051Y-66136500D01*
X151839219Y-66059449D01*
X151790528Y-65941522D01*
X151725853Y-65787064D01*
X151647069Y-65600423D01*
X151556049Y-65385945D01*
X151454669Y-65147976D01*
X151344804Y-64890864D01*
X151228328Y-64618955D01*
X151107115Y-64336596D01*
X150983041Y-64048133D01*
X150857980Y-63757913D01*
X150733806Y-63470283D01*
X150612394Y-63189589D01*
X150495620Y-62920178D01*
X150385357Y-62666397D01*
X150283480Y-62432592D01*
X150191864Y-62223110D01*
X150112384Y-62042298D01*
X150046914Y-61894502D01*
X149997328Y-61784069D01*
X149965502Y-61715346D01*
X149953310Y-61692679D01*
X149953299Y-61692691D01*
X149941084Y-61719547D01*
X149909778Y-61792570D01*
X149861231Y-61907317D01*
X149797289Y-62059341D01*
X149719799Y-62244197D01*
X149630611Y-62457441D01*
X149531571Y-62694628D01*
X149424527Y-62951311D01*
X149311327Y-63223045D01*
X149193819Y-63505387D01*
X149073849Y-63793890D01*
X148953267Y-64084109D01*
X148833919Y-64371599D01*
X148717654Y-64651915D01*
X148606318Y-64920611D01*
X148501760Y-65173243D01*
X148405828Y-65405366D01*
X148320368Y-65612533D01*
X148247229Y-65790301D01*
X148188259Y-65934223D01*
X148145305Y-66039854D01*
X148120214Y-66102751D01*
X148096287Y-66164401D01*
X146403042Y-66164401D01*
X146532458Y-65857112D01*
X146722800Y-65404624D01*
X146919860Y-64935637D01*
X147122526Y-64452780D01*
X147329685Y-63958684D01*
X149350476Y-59136246D01*
X149510459Y-59129014D01*
X149670443Y-59121782D01*
X151697887Y-63869251D01*
X151869509Y-64270937D01*
X152075947Y-64753612D01*
X152277226Y-65223690D01*
X152472179Y-65678470D01*
X152659642Y-66115249D01*
X152670500Y-66140516D01*
X152838449Y-66531327D01*
X153007434Y-66924002D01*
G37*
G36*
X154728363Y-71408948D02*
G01*
X154845260Y-71465517D01*
X154878720Y-71487963D01*
X154923636Y-71513762D01*
X154941673Y-71510291D01*
X154944984Y-71479217D01*
X154945012Y-71476279D01*
X154954649Y-71443882D01*
X154991122Y-71428891D01*
X155068285Y-71425242D01*
X155141475Y-71430593D01*
X155185634Y-71446058D01*
X155185850Y-71466817D01*
X155136786Y-71487982D01*
X155129057Y-71490236D01*
X155107525Y-71503041D01*
X155093771Y-71530923D01*
X155086077Y-71583812D01*
X155082721Y-71671635D01*
X155081985Y-71804323D01*
X155081998Y-71818991D01*
X155084246Y-71959047D01*
X155091111Y-72054368D01*
X155103692Y-72114111D01*
X155123086Y-72147434D01*
X155147137Y-72174466D01*
X155164186Y-72204191D01*
X155146075Y-72211314D01*
X155086503Y-72217477D01*
X154999785Y-72219849D01*
X154925002Y-72218340D01*
X154860283Y-72213375D01*
X154835383Y-72206149D01*
X154850370Y-72181771D01*
X154890184Y-72137648D01*
X154918032Y-72091505D01*
X154941539Y-71997465D01*
X154950246Y-71881669D01*
X154944216Y-71761707D01*
X154923511Y-71655167D01*
X154888195Y-71579639D01*
X154881431Y-71571480D01*
X154810729Y-71519317D01*
X154731861Y-71502893D01*
X154661296Y-71522325D01*
X154615503Y-71577727D01*
X154610004Y-71594654D01*
X154595262Y-71678873D01*
X154588270Y-71787224D01*
X154588634Y-71903981D01*
X154595955Y-72013419D01*
X154609836Y-72099812D01*
X154629882Y-72147434D01*
X154639076Y-72156803D01*
X154664439Y-72190331D01*
X154655310Y-72209372D01*
X154604940Y-72217890D01*
X154506581Y-72219849D01*
X154431799Y-72218340D01*
X154367080Y-72213375D01*
X154342179Y-72206149D01*
X154357167Y-72181771D01*
X154396980Y-72137648D01*
X154414043Y-72118203D01*
X154433561Y-72080428D01*
X154445019Y-72024120D01*
X154450424Y-71937203D01*
X154451780Y-71807600D01*
X154451781Y-71802476D01*
X154452843Y-71676997D01*
X154457610Y-71593199D01*
X154468571Y-71538403D01*
X154488216Y-71499928D01*
X154519035Y-71465097D01*
X154531082Y-71453752D01*
X154623080Y-71405026D01*
X154728363Y-71408948D01*
G37*
G36*
X161331614Y-71404263D02*
G01*
X161399673Y-71415685D01*
X161507186Y-71460358D01*
X161577830Y-71529504D01*
X161603237Y-71616583D01*
X161593734Y-71683169D01*
X161557076Y-71744900D01*
X161484886Y-71805155D01*
X161368841Y-71873041D01*
X161286127Y-71921070D01*
X161221541Y-71973925D01*
X161196980Y-72022705D01*
X161206620Y-72100908D01*
X161261184Y-72148817D01*
X161359358Y-72165048D01*
X161395060Y-72163819D01*
X161462877Y-72145358D01*
X161509855Y-72096548D01*
X161539832Y-72057680D01*
X161586233Y-72028893D01*
X161618524Y-72050775D01*
X161630637Y-72122042D01*
X161629078Y-72160355D01*
X161612313Y-72208120D01*
X161568986Y-72227912D01*
X161473676Y-72241077D01*
X161333822Y-72241713D01*
X161212727Y-72220595D01*
X161121751Y-72180129D01*
X161072253Y-72122720D01*
X161055519Y-72038615D01*
X161067249Y-71940110D01*
X161109097Y-71864582D01*
X161136564Y-71841348D01*
X161210339Y-71791566D01*
X161297479Y-71742552D01*
X161355099Y-71710952D01*
X161428538Y-71653682D01*
X161454650Y-71596480D01*
X161437773Y-71532858D01*
X161389590Y-71492381D01*
X161314762Y-71478810D01*
X161235175Y-71493017D01*
X161172176Y-71534843D01*
X161156121Y-71552293D01*
X161103453Y-71586866D01*
X161068133Y-71571701D01*
X161055232Y-71507965D01*
X161055235Y-71506810D01*
X161069480Y-71446987D01*
X161115850Y-71411621D01*
X161201008Y-71398212D01*
X161331614Y-71404263D01*
G37*
G36*
X144836885Y-71408948D02*
G01*
X144953782Y-71465517D01*
X144987242Y-71487963D01*
X145032159Y-71513762D01*
X145050195Y-71510291D01*
X145053506Y-71479217D01*
X145053534Y-71476279D01*
X145063171Y-71443882D01*
X145099644Y-71428891D01*
X145176807Y-71425242D01*
X145249997Y-71430593D01*
X145294156Y-71446058D01*
X145294372Y-71466817D01*
X145245308Y-71487982D01*
X145237579Y-71490236D01*
X145216047Y-71503041D01*
X145202293Y-71530923D01*
X145194599Y-71583812D01*
X145191244Y-71671635D01*
X145190507Y-71804323D01*
X145190521Y-71818991D01*
X145192768Y-71959047D01*
X145199633Y-72054368D01*
X145212214Y-72114111D01*
X145231608Y-72147434D01*
X145255659Y-72174466D01*
X145272708Y-72204191D01*
X145254597Y-72211314D01*
X145195025Y-72217477D01*
X145108307Y-72219849D01*
X145033525Y-72218340D01*
X144968806Y-72213375D01*
X144943905Y-72206149D01*
X144958893Y-72181771D01*
X144998706Y-72137648D01*
X145026554Y-72091505D01*
X145050061Y-71997465D01*
X145058768Y-71881669D01*
X145052738Y-71761707D01*
X145032033Y-71655167D01*
X144996717Y-71579639D01*
X144989953Y-71571480D01*
X144919251Y-71519317D01*
X144840383Y-71502893D01*
X144769818Y-71522325D01*
X144724026Y-71577727D01*
X144718526Y-71594654D01*
X144703784Y-71678873D01*
X144696793Y-71787224D01*
X144697156Y-71903981D01*
X144704477Y-72013419D01*
X144718358Y-72099812D01*
X144738404Y-72147434D01*
X144747598Y-72156803D01*
X144772961Y-72190331D01*
X144763832Y-72209372D01*
X144713462Y-72217890D01*
X144615103Y-72219849D01*
X144540321Y-72218340D01*
X144475602Y-72213375D01*
X144450702Y-72206149D01*
X144465689Y-72181771D01*
X144505502Y-72137648D01*
X144522565Y-72118203D01*
X144542083Y-72080428D01*
X144553542Y-72024120D01*
X144558946Y-71937203D01*
X144560302Y-71807600D01*
X144560303Y-71802476D01*
X144561365Y-71676997D01*
X144566132Y-71593199D01*
X144577093Y-71538403D01*
X144596738Y-71499928D01*
X144627557Y-71465097D01*
X144639605Y-71453752D01*
X144731602Y-71405026D01*
X144836885Y-71408948D01*
G37*
G36*
X152082200Y-72113393D02*
G01*
X152023166Y-72190460D01*
X151926712Y-72237361D01*
X151810554Y-72239643D01*
X151691209Y-72192749D01*
X151642789Y-72165356D01*
X151610440Y-72157436D01*
X151602158Y-72179151D01*
X151597401Y-72195886D01*
X151560398Y-72214373D01*
X151478857Y-72219849D01*
X151442077Y-72219223D01*
X151380067Y-72214322D01*
X151355556Y-72206149D01*
X151370543Y-72181771D01*
X151410356Y-72137648D01*
X151430223Y-72114291D01*
X151448336Y-72075792D01*
X151458938Y-72017781D01*
X151463079Y-71943529D01*
X151602158Y-71943529D01*
X151612547Y-72007002D01*
X151669413Y-72097793D01*
X151673450Y-72101743D01*
X151756362Y-72153287D01*
X151842058Y-72160536D01*
X151915303Y-72121991D01*
X151945804Y-72078901D01*
X151951975Y-72010779D01*
X151914172Y-71947847D01*
X151838541Y-71898484D01*
X151731228Y-71871067D01*
X151602158Y-71856519D01*
X151602158Y-71943529D01*
X151463079Y-71943529D01*
X151463917Y-71928505D01*
X151465157Y-71796213D01*
X151466159Y-71666721D01*
X151470579Y-71578551D01*
X151480496Y-71521569D01*
X151497985Y-71483910D01*
X151525124Y-71453710D01*
X151565705Y-71427697D01*
X151652473Y-71406232D01*
X151754855Y-71406115D01*
X151858854Y-71424435D01*
X151950470Y-71458280D01*
X152015705Y-71504741D01*
X152040561Y-71560904D01*
X152035985Y-71589476D01*
X152004466Y-71615006D01*
X151951575Y-71601088D01*
X151887460Y-71548543D01*
X151884802Y-71545726D01*
X151824515Y-71499241D01*
X151767867Y-71480043D01*
X151746884Y-71481886D01*
X151674354Y-71518623D01*
X151622175Y-71591392D01*
X151602158Y-71685545D01*
X151604901Y-71738314D01*
X151622526Y-71773290D01*
X151665685Y-71781445D01*
X151708679Y-71784325D01*
X151809718Y-71805213D01*
X151913519Y-71840384D01*
X152001039Y-71882769D01*
X152053238Y-71925301D01*
X152053323Y-71925422D01*
X152088567Y-72010779D01*
X152092728Y-72020856D01*
X152082200Y-72113393D01*
G37*
G36*
X170376472Y-71124907D02*
G01*
X170359231Y-71142359D01*
X170342009Y-71168474D01*
X170330160Y-71206061D01*
X170322686Y-71263787D01*
X170318585Y-71350315D01*
X170316859Y-71474313D01*
X170316505Y-71644444D01*
X170316685Y-71777921D01*
X170317987Y-71912300D01*
X170321421Y-72007111D01*
X170327986Y-72071020D01*
X170338683Y-72112691D01*
X170354511Y-72140789D01*
X170376472Y-72163981D01*
X170436439Y-72219849D01*
X169631500Y-72219849D01*
X169631500Y-72069148D01*
X169633099Y-72018218D01*
X169647015Y-71942211D01*
X169672830Y-71917827D01*
X169707615Y-71946096D01*
X169748440Y-72028047D01*
X169791493Y-72137648D01*
X170152104Y-72137648D01*
X170152104Y-71671844D01*
X170028216Y-71671844D01*
X170026263Y-71671846D01*
X169946258Y-71676771D01*
X169901480Y-71696835D01*
X169873116Y-71740345D01*
X169856675Y-71772576D01*
X169821348Y-71811965D01*
X169793433Y-71799943D01*
X169775095Y-71738780D01*
X169768501Y-71630744D01*
X169769689Y-71580044D01*
X169781454Y-71491319D01*
X169804057Y-71450414D01*
X169835333Y-71459599D01*
X169873116Y-71521143D01*
X169873610Y-71522223D01*
X169902108Y-71565218D01*
X169947372Y-71584922D01*
X170028216Y-71589644D01*
X170152104Y-71589644D01*
X170152104Y-71148737D01*
X169967413Y-71156838D01*
X169953650Y-71157456D01*
X169859177Y-71163929D01*
X169803050Y-71176167D01*
X169770489Y-71199758D01*
X169746716Y-71240291D01*
X169705102Y-71303325D01*
X169667877Y-71315843D01*
X169641510Y-71278086D01*
X169631500Y-71192341D01*
X169631500Y-71069040D01*
X170436439Y-71069040D01*
X170376472Y-71124907D01*
G37*
G36*
X165772759Y-71430593D02*
G01*
X165816918Y-71446058D01*
X165817133Y-71466817D01*
X165768069Y-71487982D01*
X165760341Y-71490236D01*
X165738808Y-71503041D01*
X165725055Y-71530923D01*
X165717360Y-71583812D01*
X165714005Y-71671635D01*
X165713269Y-71804323D01*
X165713282Y-71818991D01*
X165715529Y-71959047D01*
X165722395Y-72054368D01*
X165734976Y-72114111D01*
X165754369Y-72147434D01*
X165778421Y-72174466D01*
X165795470Y-72204191D01*
X165777359Y-72211314D01*
X165717787Y-72217477D01*
X165631068Y-72219849D01*
X165556286Y-72218340D01*
X165491567Y-72213375D01*
X165466667Y-72206149D01*
X165481654Y-72181771D01*
X165521467Y-72137648D01*
X165527623Y-72131264D01*
X165549224Y-72100992D01*
X165563355Y-72058867D01*
X165571551Y-71994156D01*
X165575344Y-71896126D01*
X165576268Y-71754045D01*
X165576268Y-71425242D01*
X165699569Y-71425242D01*
X165772759Y-71430593D01*
G37*
G36*
X148978814Y-72003761D02*
G01*
X148931931Y-72120565D01*
X148858934Y-72202568D01*
X148757280Y-72242371D01*
X148641496Y-72234543D01*
X148523457Y-72179574D01*
X148489997Y-72157128D01*
X148445081Y-72131329D01*
X148427044Y-72134801D01*
X148423733Y-72165874D01*
X148423705Y-72168813D01*
X148414068Y-72201209D01*
X148377595Y-72216200D01*
X148300432Y-72219849D01*
X148263652Y-72219223D01*
X148201642Y-72214322D01*
X148177131Y-72206149D01*
X148192118Y-72181771D01*
X148231931Y-72137648D01*
X148233592Y-72135974D01*
X148252114Y-72113427D01*
X148265763Y-72083631D01*
X148275278Y-72038661D01*
X148281395Y-71970592D01*
X148284851Y-71871500D01*
X148286121Y-71757184D01*
X148420733Y-71757184D01*
X148425609Y-71879489D01*
X148445705Y-71988920D01*
X148480522Y-72065452D01*
X148554188Y-72122857D01*
X148644017Y-72142499D01*
X148731328Y-72123731D01*
X148797894Y-72066494D01*
X148824206Y-72008834D01*
X148845697Y-71897322D01*
X148847107Y-71772926D01*
X148828740Y-71657054D01*
X148790897Y-71571111D01*
X148780518Y-71558299D01*
X148705087Y-71502906D01*
X148615894Y-71480147D01*
X148530733Y-71491762D01*
X148467402Y-71539490D01*
X148458640Y-71554049D01*
X148431577Y-71642029D01*
X148420733Y-71757184D01*
X148286121Y-71757184D01*
X148286384Y-71733458D01*
X148286732Y-71548543D01*
X148286732Y-71014239D01*
X148410033Y-71014239D01*
X148446881Y-71015497D01*
X148508844Y-71025299D01*
X148533334Y-71041639D01*
X148529706Y-71053265D01*
X148495165Y-71069040D01*
X148481513Y-71070670D01*
X148448088Y-71100002D01*
X148429490Y-71170801D01*
X148423733Y-71289191D01*
X148423733Y-71422661D01*
X148556465Y-71406940D01*
X148621371Y-71402905D01*
X148760749Y-71425258D01*
X148870490Y-71491939D01*
X148947211Y-71601265D01*
X148985743Y-71723622D01*
X148989782Y-71772926D01*
X148997459Y-71866624D01*
X148978814Y-72003761D01*
G37*
G36*
X159623509Y-71901405D02*
G01*
X159591601Y-72028687D01*
X159529116Y-72136633D01*
X159435978Y-72212595D01*
X159348726Y-72240201D01*
X159220368Y-72240652D01*
X159092966Y-72202817D01*
X159014398Y-72159382D01*
X158979873Y-72121217D01*
X158986454Y-72082948D01*
X159017526Y-72073353D01*
X159082611Y-72096648D01*
X159185637Y-72130886D01*
X159289406Y-72132594D01*
X159379125Y-72104609D01*
X159442196Y-72050913D01*
X159466020Y-71975488D01*
X159468049Y-71945117D01*
X159482651Y-71879587D01*
X159485243Y-71863702D01*
X159470785Y-71849485D01*
X159428037Y-71841150D01*
X159348169Y-71837227D01*
X159222349Y-71836246D01*
X158945416Y-71836246D01*
X158945416Y-71738984D01*
X158947174Y-71712065D01*
X159082417Y-71712065D01*
X159085643Y-71726366D01*
X159111052Y-71743250D01*
X159170468Y-71751723D01*
X159274218Y-71754045D01*
X159317885Y-71753946D01*
X159400568Y-71751448D01*
X159444874Y-71742515D01*
X159462719Y-71723121D01*
X159466020Y-71689240D01*
X159463382Y-71658373D01*
X159424519Y-71569261D01*
X159350796Y-71504838D01*
X159257131Y-71480043D01*
X159199711Y-71484535D01*
X159156238Y-71510958D01*
X159122119Y-71575064D01*
X159117416Y-71586614D01*
X159092551Y-71659869D01*
X159082417Y-71712065D01*
X158947174Y-71712065D01*
X158949394Y-71678062D01*
X158989062Y-71552863D01*
X159064934Y-71462074D01*
X159169165Y-71410461D01*
X159293911Y-71402787D01*
X159431327Y-71443819D01*
X159446909Y-71451845D01*
X159536541Y-71530007D01*
X159595903Y-71639418D01*
X159607195Y-71689240D01*
X159624918Y-71767433D01*
X159623509Y-71901405D01*
G37*
G36*
X160534628Y-71219741D02*
G01*
X160533342Y-71267138D01*
X160520316Y-71344807D01*
X160494862Y-71370101D01*
X160458966Y-71342340D01*
X160414618Y-71260841D01*
X160403963Y-71237208D01*
X160370213Y-71179896D01*
X160328570Y-71156016D01*
X160258644Y-71151240D01*
X160151025Y-71151240D01*
X160151025Y-71630512D01*
X160151219Y-71767411D01*
X160152508Y-71904399D01*
X160155768Y-72000887D01*
X160161865Y-72064984D01*
X160171663Y-72104798D01*
X160186028Y-72128436D01*
X160205826Y-72144007D01*
X160240086Y-72170001D01*
X160260626Y-72199040D01*
X160260475Y-72199868D01*
X160231864Y-72209966D01*
X160163361Y-72217127D01*
X160068825Y-72219849D01*
X160009723Y-72218599D01*
X159924881Y-72210161D01*
X159880412Y-72195632D01*
X159881123Y-72177214D01*
X159931823Y-72157109D01*
X159932369Y-72156966D01*
X159951664Y-72149121D01*
X159965749Y-72132242D01*
X159975442Y-72098699D01*
X159981559Y-72040867D01*
X159984917Y-71951117D01*
X159986333Y-71821822D01*
X159986624Y-71645355D01*
X159986624Y-71147932D01*
X159883873Y-71156436D01*
X159819658Y-71167195D01*
X159771899Y-71199218D01*
X159730915Y-71267691D01*
X159711494Y-71304529D01*
X159667146Y-71362421D01*
X159632903Y-71367068D01*
X159610837Y-71319249D01*
X159603021Y-71219741D01*
X159603021Y-71069040D01*
X160534628Y-71069040D01*
X160534628Y-71219741D01*
G37*
G36*
X154182468Y-71430593D02*
G01*
X154226626Y-71446058D01*
X154226842Y-71466817D01*
X154177778Y-71487982D01*
X154170050Y-71490236D01*
X154148517Y-71503041D01*
X154134764Y-71530923D01*
X154127069Y-71583812D01*
X154123714Y-71671635D01*
X154122978Y-71804323D01*
X154122991Y-71818991D01*
X154125238Y-71959047D01*
X154132104Y-72054368D01*
X154144685Y-72114111D01*
X154164078Y-72147434D01*
X154188129Y-72174466D01*
X154205178Y-72204191D01*
X154187068Y-72211314D01*
X154127495Y-72217477D01*
X154040777Y-72219849D01*
X153965995Y-72218340D01*
X153901276Y-72213375D01*
X153876376Y-72206149D01*
X153891363Y-72181771D01*
X153931176Y-72137648D01*
X153937332Y-72131264D01*
X153958932Y-72100992D01*
X153973064Y-72058867D01*
X153981260Y-71994156D01*
X153985053Y-71896126D01*
X153985977Y-71754045D01*
X153985977Y-71425242D01*
X154109278Y-71425242D01*
X154182468Y-71430593D01*
G37*
G36*
X150790902Y-72012527D02*
G01*
X150833598Y-72100137D01*
X150862091Y-72142040D01*
X150898410Y-72176086D01*
X150917152Y-72203691D01*
X150893909Y-72211647D01*
X150829760Y-72217581D01*
X150739051Y-72219849D01*
X150651349Y-72217740D01*
X150585947Y-72211920D01*
X150560950Y-72203691D01*
X150575522Y-72181113D01*
X150617744Y-72141543D01*
X150636509Y-72125347D01*
X150658560Y-72092708D01*
X150659476Y-72045948D01*
X150641892Y-71965900D01*
X150609244Y-71836246D01*
X150410191Y-71836246D01*
X150377783Y-71836314D01*
X150286630Y-71838766D01*
X150234180Y-71847427D01*
X150207740Y-71865927D01*
X150194617Y-71897896D01*
X150183496Y-71950834D01*
X150177813Y-72044026D01*
X150189976Y-72117664D01*
X150218447Y-72155140D01*
X150230778Y-72160226D01*
X150261331Y-72183827D01*
X150241771Y-72202735D01*
X150175957Y-72215294D01*
X150067746Y-72219849D01*
X150067560Y-72219849D01*
X149969211Y-72216216D01*
X149901287Y-72206504D01*
X149875944Y-72192449D01*
X149876706Y-72185928D01*
X149902380Y-72165048D01*
X149904329Y-72164979D01*
X149929597Y-72150753D01*
X149957337Y-72107564D01*
X149990127Y-72029332D01*
X150030547Y-71909974D01*
X150077943Y-71754045D01*
X150236015Y-71754045D01*
X150398482Y-71754045D01*
X150471466Y-71751851D01*
X150536070Y-71744434D01*
X150560950Y-71733588D01*
X150555910Y-71707568D01*
X150536507Y-71640154D01*
X150507356Y-71549080D01*
X150473639Y-71449551D01*
X150440538Y-71356772D01*
X150413236Y-71285946D01*
X150396913Y-71252279D01*
X150396571Y-71251915D01*
X150377603Y-71259500D01*
X150360276Y-71307079D01*
X150345514Y-71367785D01*
X150319948Y-71463215D01*
X150289941Y-71569094D01*
X150236015Y-71754045D01*
X150077943Y-71754045D01*
X150081176Y-71743410D01*
X150124632Y-71595638D01*
X150177312Y-71416714D01*
X150218005Y-71280654D01*
X150249005Y-71181724D01*
X150272606Y-71114193D01*
X150291102Y-71072325D01*
X150306788Y-71050388D01*
X150321959Y-71042649D01*
X150338908Y-71043374D01*
X150359929Y-71046829D01*
X150362681Y-71047192D01*
X150387361Y-71054524D01*
X150410543Y-71073440D01*
X150435493Y-71110632D01*
X150465478Y-71172788D01*
X150503766Y-71266599D01*
X150553623Y-71398754D01*
X150618316Y-71575944D01*
X150673929Y-71725794D01*
X150676993Y-71733588D01*
X150736760Y-71885611D01*
X150790902Y-72012527D01*
G37*
G36*
X157301805Y-71206083D02*
G01*
X157344566Y-71227846D01*
X157369903Y-71295091D01*
X157404022Y-71375845D01*
X157461131Y-71445657D01*
X157534305Y-71507171D01*
X157383603Y-71507443D01*
X157383603Y-71810091D01*
X157383530Y-71864820D01*
X157381918Y-71981501D01*
X157376544Y-72059537D01*
X157365257Y-72110751D01*
X157345908Y-72146963D01*
X157316348Y-72179994D01*
X157255767Y-72223940D01*
X157169342Y-72247249D01*
X157141253Y-72244455D01*
X157072644Y-72221282D01*
X157009494Y-72183360D01*
X156967342Y-72141289D01*
X156961732Y-72105666D01*
X156973772Y-72094082D01*
X157008573Y-72107860D01*
X157046098Y-72127310D01*
X157112401Y-72137648D01*
X157149461Y-72131621D01*
X157194638Y-72094977D01*
X157224697Y-72020428D01*
X157241424Y-71902634D01*
X157246602Y-71736256D01*
X157246602Y-71507443D01*
X157109601Y-71507443D01*
X157038046Y-71504813D01*
X156987267Y-71492189D01*
X156972600Y-71466343D01*
X156981367Y-71444876D01*
X157023446Y-71429642D01*
X157109601Y-71425242D01*
X157246602Y-71425242D01*
X157246602Y-71315642D01*
X157249389Y-71255386D01*
X157264634Y-71216042D01*
X157299226Y-71206041D01*
X157301805Y-71206083D01*
G37*
G36*
X168117576Y-71901405D02*
G01*
X168085668Y-72028687D01*
X168023183Y-72136633D01*
X167930045Y-72212595D01*
X167842793Y-72240201D01*
X167714435Y-72240652D01*
X167587033Y-72202817D01*
X167508464Y-72159382D01*
X167473940Y-72121217D01*
X167480521Y-72082948D01*
X167511592Y-72073353D01*
X167576678Y-72096648D01*
X167679704Y-72130886D01*
X167783473Y-72132594D01*
X167873192Y-72104609D01*
X167936263Y-72050913D01*
X167960087Y-71975488D01*
X167962116Y-71945117D01*
X167976718Y-71879587D01*
X167979310Y-71863702D01*
X167964852Y-71849485D01*
X167922104Y-71841150D01*
X167842235Y-71837227D01*
X167716416Y-71836246D01*
X167439483Y-71836246D01*
X167439483Y-71738984D01*
X167441241Y-71712065D01*
X167576484Y-71712065D01*
X167579710Y-71726366D01*
X167605119Y-71743250D01*
X167664535Y-71751723D01*
X167768285Y-71754045D01*
X167811952Y-71753946D01*
X167894635Y-71751448D01*
X167938941Y-71742515D01*
X167956786Y-71723121D01*
X167960087Y-71689240D01*
X167957449Y-71658373D01*
X167918586Y-71569261D01*
X167844863Y-71504838D01*
X167751198Y-71480043D01*
X167693778Y-71484535D01*
X167650305Y-71510958D01*
X167616186Y-71575064D01*
X167611483Y-71586614D01*
X167586618Y-71659869D01*
X167576484Y-71712065D01*
X167441241Y-71712065D01*
X167443461Y-71678062D01*
X167483129Y-71552863D01*
X167559001Y-71462074D01*
X167663232Y-71410461D01*
X167787978Y-71402787D01*
X167925393Y-71443819D01*
X167940976Y-71451845D01*
X168030608Y-71530007D01*
X168089970Y-71639418D01*
X168101262Y-71689240D01*
X168118985Y-71767433D01*
X168117576Y-71901405D01*
G37*
G36*
X166206875Y-71206083D02*
G01*
X166249637Y-71227846D01*
X166274973Y-71295091D01*
X166309092Y-71375845D01*
X166366201Y-71445657D01*
X166439375Y-71507171D01*
X166364024Y-71507307D01*
X166288674Y-71507443D01*
X166288674Y-71810091D01*
X166288600Y-71864820D01*
X166286989Y-71981501D01*
X166281614Y-72059537D01*
X166270327Y-72110751D01*
X166250978Y-72146963D01*
X166221418Y-72179994D01*
X166160838Y-72223940D01*
X166074412Y-72247249D01*
X166046323Y-72244455D01*
X165977714Y-72221282D01*
X165914564Y-72183360D01*
X165872413Y-72141289D01*
X165866802Y-72105666D01*
X165878842Y-72094082D01*
X165913643Y-72107860D01*
X165951168Y-72127310D01*
X166017471Y-72137648D01*
X166054531Y-72131621D01*
X166099708Y-72094977D01*
X166129767Y-72020428D01*
X166146494Y-71902634D01*
X166151672Y-71736256D01*
X166151672Y-71507443D01*
X166014671Y-71507443D01*
X165943116Y-71504813D01*
X165892337Y-71492189D01*
X165877670Y-71466343D01*
X165886437Y-71444876D01*
X165928516Y-71429642D01*
X166014671Y-71425242D01*
X166151672Y-71425242D01*
X166151672Y-71315642D01*
X166154459Y-71255386D01*
X166169704Y-71216042D01*
X166204296Y-71206041D01*
X166206875Y-71206083D01*
G37*
G36*
X152913116Y-71015497D02*
G01*
X152975079Y-71025299D01*
X152999569Y-71041639D01*
X152995941Y-71053265D01*
X152961400Y-71069040D01*
X152939942Y-71072964D01*
X152921100Y-71091077D01*
X152907606Y-71130200D01*
X152898603Y-71197090D01*
X152893234Y-71298502D01*
X152890642Y-71441193D01*
X152889968Y-71631918D01*
X152890201Y-71784182D01*
X152891609Y-71916325D01*
X152895155Y-72009566D01*
X152901800Y-72072428D01*
X152912505Y-72113436D01*
X152928230Y-72141112D01*
X152949935Y-72163981D01*
X153009902Y-72219849D01*
X152826118Y-72219849D01*
X152734043Y-72217959D01*
X152668399Y-72213039D01*
X152643366Y-72206149D01*
X152658353Y-72181771D01*
X152698166Y-72137648D01*
X152715271Y-72117727D01*
X152744363Y-72049448D01*
X152752967Y-71945847D01*
X152752783Y-71917978D01*
X152747688Y-71848459D01*
X152731714Y-71816527D01*
X152699674Y-71808846D01*
X152656157Y-71829225D01*
X152597510Y-71885041D01*
X152535943Y-71961681D01*
X152482025Y-72044485D01*
X152446325Y-72118787D01*
X152439412Y-72169926D01*
X152443084Y-72194684D01*
X152426268Y-72211001D01*
X152376627Y-72218221D01*
X152283195Y-72219849D01*
X152111132Y-72219849D01*
X152198374Y-72144498D01*
X152256382Y-72087482D01*
X152332760Y-72001933D01*
X152407627Y-71909465D01*
X152529638Y-71749782D01*
X152385544Y-71621762D01*
X152307258Y-71554059D01*
X152235728Y-71495547D01*
X152188956Y-71461104D01*
X152170416Y-71445260D01*
X152182509Y-71434596D01*
X152235015Y-71429021D01*
X152335114Y-71426854D01*
X152392693Y-71426784D01*
X152481774Y-71430552D01*
X152523691Y-71441600D01*
X152523594Y-71462234D01*
X152486634Y-71494765D01*
X152466517Y-71513067D01*
X152463496Y-71538407D01*
X152490210Y-71577327D01*
X152551911Y-71641637D01*
X152606025Y-71694288D01*
X152664255Y-71741967D01*
X152704723Y-71755361D01*
X152730629Y-71730373D01*
X152745172Y-71662905D01*
X152751551Y-71548861D01*
X152752967Y-71384142D01*
X152752967Y-71014239D01*
X152876268Y-71014239D01*
X152913116Y-71015497D01*
G37*
G36*
X162153821Y-71408948D02*
G01*
X162270718Y-71465517D01*
X162304179Y-71487963D01*
X162349095Y-71513762D01*
X162367131Y-71510291D01*
X162370443Y-71479217D01*
X162370470Y-71476279D01*
X162380107Y-71443882D01*
X162416580Y-71428891D01*
X162493744Y-71425242D01*
X162566934Y-71430593D01*
X162611092Y-71446058D01*
X162611308Y-71466817D01*
X162562244Y-71487982D01*
X162554516Y-71490236D01*
X162532983Y-71503041D01*
X162519230Y-71530923D01*
X162511535Y-71583812D01*
X162508180Y-71671635D01*
X162507444Y-71804323D01*
X162507457Y-71818991D01*
X162509704Y-71959047D01*
X162516570Y-72054368D01*
X162529151Y-72114111D01*
X162548544Y-72147434D01*
X162572595Y-72174466D01*
X162589644Y-72204191D01*
X162571534Y-72211314D01*
X162511961Y-72217477D01*
X162425243Y-72219849D01*
X162350461Y-72218340D01*
X162285742Y-72213375D01*
X162260842Y-72206149D01*
X162275829Y-72181771D01*
X162315642Y-72137648D01*
X162343491Y-72091505D01*
X162366997Y-71997465D01*
X162375704Y-71881669D01*
X162369674Y-71761707D01*
X162348970Y-71655167D01*
X162313654Y-71579639D01*
X162306889Y-71571480D01*
X162236188Y-71519317D01*
X162157319Y-71502893D01*
X162086754Y-71522325D01*
X162040962Y-71577727D01*
X162035463Y-71594654D01*
X162020720Y-71678873D01*
X162013729Y-71787224D01*
X162014092Y-71903981D01*
X162021413Y-72013419D01*
X162035295Y-72099812D01*
X162055340Y-72147434D01*
X162064534Y-72156803D01*
X162089897Y-72190331D01*
X162080769Y-72209372D01*
X162030399Y-72217890D01*
X161932039Y-72219849D01*
X161857257Y-72218340D01*
X161792538Y-72213375D01*
X161767638Y-72206149D01*
X161782625Y-72181771D01*
X161822438Y-72137648D01*
X161839501Y-72118203D01*
X161859019Y-72080428D01*
X161870478Y-72024120D01*
X161875883Y-71937203D01*
X161877239Y-71807600D01*
X161877239Y-71802476D01*
X161878302Y-71676997D01*
X161883068Y-71593199D01*
X161894029Y-71538403D01*
X161913675Y-71499928D01*
X161944494Y-71465097D01*
X161956541Y-71453752D01*
X162048538Y-71405026D01*
X162153821Y-71408948D01*
G37*
G36*
X147131671Y-71015497D02*
G01*
X147193633Y-71025299D01*
X147218123Y-71041639D01*
X147214495Y-71053265D01*
X147179955Y-71069040D01*
X147158496Y-71072964D01*
X147139654Y-71091077D01*
X147126160Y-71130200D01*
X147117158Y-71197090D01*
X147111789Y-71298502D01*
X147109196Y-71441193D01*
X147108522Y-71631918D01*
X147108756Y-71784182D01*
X147110164Y-71916325D01*
X147113710Y-72009566D01*
X147120355Y-72072428D01*
X147131059Y-72113436D01*
X147146784Y-72141112D01*
X147168490Y-72163981D01*
X147228457Y-72219849D01*
X147044673Y-72219849D01*
X146952598Y-72217959D01*
X146886953Y-72213039D01*
X146861921Y-72206149D01*
X146876908Y-72181771D01*
X146916721Y-72137648D01*
X146918382Y-72135974D01*
X146936903Y-72113427D01*
X146950553Y-72083631D01*
X146960067Y-72038661D01*
X146966184Y-71970592D01*
X146969641Y-71871500D01*
X146971174Y-71733458D01*
X146971521Y-71548543D01*
X146971521Y-71014239D01*
X147094822Y-71014239D01*
X147131671Y-71015497D01*
G37*
G36*
X167216029Y-71015497D02*
G01*
X167277992Y-71025299D01*
X167302481Y-71041639D01*
X167298854Y-71053265D01*
X167264313Y-71069040D01*
X167242854Y-71072964D01*
X167224012Y-71091077D01*
X167210518Y-71130200D01*
X167201516Y-71197090D01*
X167196147Y-71298502D01*
X167193554Y-71441193D01*
X167192881Y-71631918D01*
X167193114Y-71784182D01*
X167194522Y-71916325D01*
X167198068Y-72009566D01*
X167204713Y-72072428D01*
X167215418Y-72113436D01*
X167231142Y-72141112D01*
X167252848Y-72163981D01*
X167312815Y-72219849D01*
X167129031Y-72219849D01*
X167036956Y-72217959D01*
X166971312Y-72213039D01*
X166946279Y-72206149D01*
X166961266Y-72181771D01*
X167001079Y-72137648D01*
X167018183Y-72117727D01*
X167047275Y-72049448D01*
X167055880Y-71945847D01*
X167055696Y-71917978D01*
X167050601Y-71848459D01*
X167034627Y-71816527D01*
X167002587Y-71808846D01*
X166959070Y-71829225D01*
X166900423Y-71885041D01*
X166838856Y-71961681D01*
X166784938Y-72044485D01*
X166749238Y-72118787D01*
X166742325Y-72169926D01*
X166745997Y-72194684D01*
X166729180Y-72211001D01*
X166679540Y-72218221D01*
X166586107Y-72219849D01*
X166414045Y-72219849D01*
X166501287Y-72144498D01*
X166559295Y-72087482D01*
X166635673Y-72001933D01*
X166710539Y-71909465D01*
X166832550Y-71749782D01*
X166688457Y-71621762D01*
X166610171Y-71554059D01*
X166538641Y-71495547D01*
X166491869Y-71461104D01*
X166473328Y-71445260D01*
X166485421Y-71434596D01*
X166537927Y-71429021D01*
X166638026Y-71426854D01*
X166695606Y-71426784D01*
X166784687Y-71430552D01*
X166826604Y-71441600D01*
X166826507Y-71462234D01*
X166789546Y-71494765D01*
X166769430Y-71513067D01*
X166766409Y-71538407D01*
X166793123Y-71577327D01*
X166854823Y-71641637D01*
X166908938Y-71694288D01*
X166967168Y-71741967D01*
X167007636Y-71755361D01*
X167033542Y-71730373D01*
X167048084Y-71662905D01*
X167054464Y-71548861D01*
X167055880Y-71384142D01*
X167055880Y-71014239D01*
X167179181Y-71014239D01*
X167216029Y-71015497D01*
G37*
G36*
X163432139Y-71901405D02*
G01*
X163400231Y-72028687D01*
X163337746Y-72136633D01*
X163244608Y-72212595D01*
X163157356Y-72240201D01*
X163028998Y-72240652D01*
X162901596Y-72202817D01*
X162823028Y-72159382D01*
X162788503Y-72121217D01*
X162795084Y-72082948D01*
X162826156Y-72073353D01*
X162891241Y-72096648D01*
X162994267Y-72130886D01*
X163098036Y-72132594D01*
X163187755Y-72104609D01*
X163250826Y-72050913D01*
X163274650Y-71975488D01*
X163276679Y-71945117D01*
X163291281Y-71879587D01*
X163293873Y-71863702D01*
X163279415Y-71849485D01*
X163236667Y-71841150D01*
X163156799Y-71837227D01*
X163030979Y-71836246D01*
X162754046Y-71836246D01*
X162754046Y-71738984D01*
X162755804Y-71712065D01*
X162891047Y-71712065D01*
X162894273Y-71726366D01*
X162919682Y-71743250D01*
X162979098Y-71751723D01*
X163082848Y-71754045D01*
X163126515Y-71753946D01*
X163209198Y-71751448D01*
X163253504Y-71742515D01*
X163271349Y-71723121D01*
X163274650Y-71689240D01*
X163272012Y-71658373D01*
X163233149Y-71569261D01*
X163159426Y-71504838D01*
X163065761Y-71480043D01*
X163008341Y-71484535D01*
X162964868Y-71510958D01*
X162930749Y-71575064D01*
X162926046Y-71586614D01*
X162901181Y-71659869D01*
X162891047Y-71712065D01*
X162755804Y-71712065D01*
X162758024Y-71678062D01*
X162797692Y-71552863D01*
X162873564Y-71462074D01*
X162977795Y-71410461D01*
X163102541Y-71402787D01*
X163239957Y-71443819D01*
X163255539Y-71451845D01*
X163345171Y-71530007D01*
X163404533Y-71639418D01*
X163415825Y-71689240D01*
X163433548Y-71767433D01*
X163432139Y-71901405D01*
G37*
G36*
X145743201Y-71430593D02*
G01*
X145787360Y-71446058D01*
X145787576Y-71466817D01*
X145738512Y-71487982D01*
X145730783Y-71490236D01*
X145709251Y-71503041D01*
X145695497Y-71530923D01*
X145687803Y-71583812D01*
X145684447Y-71671635D01*
X145683711Y-71804323D01*
X145683724Y-71818991D01*
X145685972Y-71959047D01*
X145692837Y-72054368D01*
X145705418Y-72114111D01*
X145724812Y-72147434D01*
X145748863Y-72174466D01*
X145765912Y-72204191D01*
X145747801Y-72211314D01*
X145688229Y-72217477D01*
X145601511Y-72219849D01*
X145526728Y-72218340D01*
X145462009Y-72213375D01*
X145437109Y-72206149D01*
X145452096Y-72181771D01*
X145491910Y-72137648D01*
X145498065Y-72131264D01*
X145519666Y-72100992D01*
X145533798Y-72058867D01*
X145541993Y-71994156D01*
X145545787Y-71896126D01*
X145546710Y-71754045D01*
X145546710Y-71425242D01*
X145670011Y-71425242D01*
X145743201Y-71430593D01*
G37*
G36*
X158721962Y-71015497D02*
G01*
X158783925Y-71025299D01*
X158808415Y-71041639D01*
X158804787Y-71053265D01*
X158770246Y-71069040D01*
X158748787Y-71072964D01*
X158729945Y-71091077D01*
X158716452Y-71130200D01*
X158707449Y-71197090D01*
X158702080Y-71298502D01*
X158699487Y-71441193D01*
X158698814Y-71631918D01*
X158699047Y-71784182D01*
X158700455Y-71916325D01*
X158704001Y-72009566D01*
X158710646Y-72072428D01*
X158721351Y-72113436D01*
X158737075Y-72141112D01*
X158758781Y-72163981D01*
X158818748Y-72219849D01*
X158634964Y-72219849D01*
X158542889Y-72217959D01*
X158477245Y-72213039D01*
X158452212Y-72206149D01*
X158467199Y-72181771D01*
X158507012Y-72137648D01*
X158508673Y-72135974D01*
X158527195Y-72113427D01*
X158540844Y-72083631D01*
X158550359Y-72038661D01*
X158556476Y-71970592D01*
X158559932Y-71871500D01*
X158561465Y-71733458D01*
X158561813Y-71548543D01*
X158561813Y-71014239D01*
X158685114Y-71014239D01*
X158721962Y-71015497D01*
G37*
G36*
X153412952Y-71404263D02*
G01*
X153481011Y-71415685D01*
X153588524Y-71460358D01*
X153659167Y-71529504D01*
X153684574Y-71616583D01*
X153675072Y-71683169D01*
X153638413Y-71744900D01*
X153566224Y-71805155D01*
X153450179Y-71873041D01*
X153367464Y-71921070D01*
X153302879Y-71973925D01*
X153278318Y-72022705D01*
X153287958Y-72100908D01*
X153342522Y-72148817D01*
X153440696Y-72165048D01*
X153476398Y-72163819D01*
X153544214Y-72145358D01*
X153591193Y-72096548D01*
X153621169Y-72057680D01*
X153667570Y-72028893D01*
X153699862Y-72050775D01*
X153711974Y-72122042D01*
X153710416Y-72160355D01*
X153693651Y-72208120D01*
X153650324Y-72227912D01*
X153555013Y-72241077D01*
X153415159Y-72241713D01*
X153294065Y-72220595D01*
X153203089Y-72180129D01*
X153153590Y-72122720D01*
X153136857Y-72038615D01*
X153148587Y-71940110D01*
X153190435Y-71864582D01*
X153217902Y-71841348D01*
X153291677Y-71791566D01*
X153378817Y-71742552D01*
X153436436Y-71710952D01*
X153509876Y-71653682D01*
X153535987Y-71596480D01*
X153519111Y-71532858D01*
X153470927Y-71492381D01*
X153396099Y-71478810D01*
X153316513Y-71493017D01*
X153253513Y-71534843D01*
X153237458Y-71552293D01*
X153184791Y-71586866D01*
X153149471Y-71571701D01*
X153136570Y-71507965D01*
X153136573Y-71506810D01*
X153150817Y-71446987D01*
X153197188Y-71411621D01*
X153282345Y-71398212D01*
X153412952Y-71404263D01*
G37*
G36*
X148033218Y-71901405D02*
G01*
X148001310Y-72028687D01*
X147938825Y-72136633D01*
X147845687Y-72212595D01*
X147758434Y-72240201D01*
X147630077Y-72240652D01*
X147502674Y-72202817D01*
X147424106Y-72159382D01*
X147389582Y-72121217D01*
X147396163Y-72082948D01*
X147427234Y-72073353D01*
X147492320Y-72096648D01*
X147595346Y-72130886D01*
X147699114Y-72132594D01*
X147788834Y-72104609D01*
X147851905Y-72050913D01*
X147875729Y-71975488D01*
X147877758Y-71945117D01*
X147892360Y-71879587D01*
X147894952Y-71863702D01*
X147880494Y-71849485D01*
X147837746Y-71841150D01*
X147757877Y-71837227D01*
X147632058Y-71836246D01*
X147355124Y-71836246D01*
X147355124Y-71738984D01*
X147356882Y-71712065D01*
X147492126Y-71712065D01*
X147495352Y-71726366D01*
X147520761Y-71743250D01*
X147580177Y-71751723D01*
X147683927Y-71754045D01*
X147727593Y-71753946D01*
X147810277Y-71751448D01*
X147854583Y-71742515D01*
X147872428Y-71723121D01*
X147875729Y-71689240D01*
X147873091Y-71658373D01*
X147834228Y-71569261D01*
X147760504Y-71504838D01*
X147666840Y-71480043D01*
X147609420Y-71484535D01*
X147565946Y-71510958D01*
X147531828Y-71575064D01*
X147527125Y-71586614D01*
X147502260Y-71659869D01*
X147492126Y-71712065D01*
X147356882Y-71712065D01*
X147359103Y-71678062D01*
X147398771Y-71552863D01*
X147474643Y-71462074D01*
X147578874Y-71410461D01*
X147703620Y-71402787D01*
X147841035Y-71443819D01*
X147856618Y-71451845D01*
X147946250Y-71530007D01*
X148005612Y-71639418D01*
X148016904Y-71689240D01*
X148034627Y-71767433D01*
X148033218Y-71901405D01*
G37*
G36*
X163962236Y-71408948D02*
G01*
X164079133Y-71465517D01*
X164112593Y-71487963D01*
X164157509Y-71513762D01*
X164175546Y-71510291D01*
X164178857Y-71479217D01*
X164178885Y-71476279D01*
X164188522Y-71443882D01*
X164224994Y-71428891D01*
X164302158Y-71425242D01*
X164375348Y-71430593D01*
X164419507Y-71446058D01*
X164419722Y-71466817D01*
X164370658Y-71487982D01*
X164362930Y-71490236D01*
X164341397Y-71503041D01*
X164327644Y-71530923D01*
X164319949Y-71583812D01*
X164316594Y-71671635D01*
X164315858Y-71804323D01*
X164315871Y-71818991D01*
X164318118Y-71959047D01*
X164324984Y-72054368D01*
X164337565Y-72114111D01*
X164356958Y-72147434D01*
X164381010Y-72174466D01*
X164398059Y-72204191D01*
X164379948Y-72211314D01*
X164320376Y-72217477D01*
X164233657Y-72219849D01*
X164158875Y-72218340D01*
X164094156Y-72213375D01*
X164069256Y-72206149D01*
X164084243Y-72181771D01*
X164124056Y-72137648D01*
X164151905Y-72091505D01*
X164175412Y-71997465D01*
X164184119Y-71881669D01*
X164178089Y-71761707D01*
X164157384Y-71655167D01*
X164122068Y-71579639D01*
X164115304Y-71571480D01*
X164044602Y-71519317D01*
X163965734Y-71502893D01*
X163895169Y-71522325D01*
X163849376Y-71577727D01*
X163843877Y-71594654D01*
X163829134Y-71678873D01*
X163822143Y-71787224D01*
X163822506Y-71903981D01*
X163829827Y-72013419D01*
X163843709Y-72099812D01*
X163863754Y-72147434D01*
X163872948Y-72156803D01*
X163898312Y-72190331D01*
X163889183Y-72209372D01*
X163838813Y-72217890D01*
X163740453Y-72219849D01*
X163665671Y-72218340D01*
X163600952Y-72213375D01*
X163576052Y-72206149D01*
X163591039Y-72181771D01*
X163630853Y-72137648D01*
X163647915Y-72118203D01*
X163667433Y-72080428D01*
X163678892Y-72024120D01*
X163684297Y-71937203D01*
X163685653Y-71807600D01*
X163685654Y-71802476D01*
X163686716Y-71676997D01*
X163691483Y-71593199D01*
X163702444Y-71538403D01*
X163722089Y-71499928D01*
X163752908Y-71465097D01*
X163764955Y-71453752D01*
X163856952Y-71405026D01*
X163962236Y-71408948D01*
G37*
G36*
X165267809Y-72021484D02*
G01*
X165203405Y-72134495D01*
X165107823Y-72212595D01*
X165074567Y-72226925D01*
X164954730Y-72246243D01*
X164829203Y-72228210D01*
X164716299Y-72177264D01*
X164634329Y-72097844D01*
X164617909Y-72066381D01*
X164588665Y-71978033D01*
X164570502Y-71878847D01*
X164569811Y-71864611D01*
X164712632Y-71864611D01*
X164730600Y-71983667D01*
X164770684Y-72073980D01*
X164828535Y-72129144D01*
X164915860Y-72162284D01*
X165003801Y-72152428D01*
X165076762Y-72098336D01*
X165087013Y-72084284D01*
X165133517Y-71979263D01*
X165153339Y-71853143D01*
X165147043Y-71723462D01*
X165115190Y-71607757D01*
X165058342Y-71523567D01*
X165022464Y-71499581D01*
X164935677Y-71482976D01*
X164846064Y-71506920D01*
X164772673Y-71568421D01*
X164742704Y-71625722D01*
X164716694Y-71738176D01*
X164712632Y-71864611D01*
X164569811Y-71864611D01*
X164566312Y-71792535D01*
X164587806Y-71641278D01*
X164647232Y-71523703D01*
X164742078Y-71443781D01*
X164869833Y-71405484D01*
X164934401Y-71401706D01*
X165070543Y-71424424D01*
X165176196Y-71492616D01*
X165251656Y-71606437D01*
X165291695Y-71738722D01*
X165296755Y-71853143D01*
X165298188Y-71885560D01*
X165267809Y-72021484D01*
G37*
G36*
X149736574Y-71425337D02*
G01*
X149835200Y-71431294D01*
X149892677Y-71445119D01*
X149904467Y-71464842D01*
X149866030Y-71488499D01*
X149859332Y-71494376D01*
X149831627Y-71541627D01*
X149792304Y-71627438D01*
X149745601Y-71742166D01*
X149695751Y-71876169D01*
X149657951Y-71981257D01*
X149604849Y-72117840D01*
X149560564Y-72203922D01*
X149520046Y-72239518D01*
X149478243Y-72224644D01*
X149430104Y-72159314D01*
X149370579Y-72043543D01*
X149294615Y-71877346D01*
X149274494Y-71832953D01*
X149215018Y-71706919D01*
X149161721Y-71601203D01*
X149119782Y-71525805D01*
X149094378Y-71490722D01*
X149062983Y-71462196D01*
X149063043Y-71439919D01*
X149108791Y-71428475D01*
X149204639Y-71425242D01*
X149292987Y-71427763D01*
X149343469Y-71438187D01*
X149347479Y-71459334D01*
X149309264Y-71493993D01*
X149297421Y-71503506D01*
X149282549Y-71526785D01*
X149283335Y-71564065D01*
X149301272Y-71627668D01*
X149337854Y-71729916D01*
X149343083Y-71744003D01*
X149384013Y-71849762D01*
X149421775Y-71940531D01*
X149448785Y-71997985D01*
X149451592Y-72002988D01*
X149465808Y-72022544D01*
X149480030Y-72024643D01*
X149496917Y-72003456D01*
X149519126Y-71953156D01*
X149549314Y-71867914D01*
X149590140Y-71741901D01*
X149644260Y-71569290D01*
X149635012Y-71530195D01*
X149595840Y-71480239D01*
X149536808Y-71425242D01*
X149720076Y-71425242D01*
X149736574Y-71425337D01*
G37*
G36*
X146289096Y-71408948D02*
G01*
X146405993Y-71465517D01*
X146439454Y-71487963D01*
X146484370Y-71513762D01*
X146502407Y-71510291D01*
X146505718Y-71479217D01*
X146505745Y-71476279D01*
X146515383Y-71443882D01*
X146551855Y-71428891D01*
X146629019Y-71425242D01*
X146702209Y-71430593D01*
X146746367Y-71446058D01*
X146746583Y-71466817D01*
X146697519Y-71487982D01*
X146689791Y-71490236D01*
X146668258Y-71503041D01*
X146654505Y-71530923D01*
X146646810Y-71583812D01*
X146643455Y-71671635D01*
X146642719Y-71804323D01*
X146642732Y-71818991D01*
X146644979Y-71959047D01*
X146651845Y-72054368D01*
X146664426Y-72114111D01*
X146683819Y-72147434D01*
X146707871Y-72174466D01*
X146724919Y-72204191D01*
X146706809Y-72211314D01*
X146647237Y-72217477D01*
X146560518Y-72219849D01*
X146485736Y-72218340D01*
X146421017Y-72213375D01*
X146396117Y-72206149D01*
X146411104Y-72181771D01*
X146450917Y-72137648D01*
X146478766Y-72091505D01*
X146502273Y-71997465D01*
X146510980Y-71881669D01*
X146504949Y-71761707D01*
X146484245Y-71655167D01*
X146448929Y-71579639D01*
X146442165Y-71571480D01*
X146371463Y-71519317D01*
X146292595Y-71502893D01*
X146222030Y-71522325D01*
X146176237Y-71577727D01*
X146170738Y-71594654D01*
X146155995Y-71678873D01*
X146149004Y-71787224D01*
X146149367Y-71903981D01*
X146156688Y-72013419D01*
X146170570Y-72099812D01*
X146190615Y-72147434D01*
X146199809Y-72156803D01*
X146225172Y-72190331D01*
X146216044Y-72209372D01*
X146165674Y-72217890D01*
X146067314Y-72219849D01*
X145992532Y-72218340D01*
X145927813Y-72213375D01*
X145902913Y-72206149D01*
X145917900Y-72181771D01*
X145957713Y-72137648D01*
X145974776Y-72118203D01*
X145994294Y-72080428D01*
X146005753Y-72024120D01*
X146011158Y-71937203D01*
X146012514Y-71807600D01*
X146012515Y-71802476D01*
X146013577Y-71676997D01*
X146018343Y-71593199D01*
X146029305Y-71538403D01*
X146048950Y-71499928D01*
X146079769Y-71465097D01*
X146091816Y-71453752D01*
X146183813Y-71405026D01*
X146289096Y-71408948D01*
G37*
G36*
X158308299Y-71901405D02*
G01*
X158276391Y-72028687D01*
X158213906Y-72136633D01*
X158120768Y-72212595D01*
X158033515Y-72240201D01*
X157905158Y-72240652D01*
X157777755Y-72202817D01*
X157699187Y-72159382D01*
X157664663Y-72121217D01*
X157671244Y-72082948D01*
X157702315Y-72073353D01*
X157767401Y-72096648D01*
X157870427Y-72130886D01*
X157974195Y-72132594D01*
X158063915Y-72104609D01*
X158126986Y-72050913D01*
X158150809Y-71975488D01*
X158152839Y-71945117D01*
X158167441Y-71879587D01*
X158170033Y-71863702D01*
X158155575Y-71849485D01*
X158112827Y-71841150D01*
X158032958Y-71837227D01*
X157907139Y-71836246D01*
X157630205Y-71836246D01*
X157630205Y-71738984D01*
X157631963Y-71712065D01*
X157767206Y-71712065D01*
X157770432Y-71726366D01*
X157795842Y-71743250D01*
X157855258Y-71751723D01*
X157959008Y-71754045D01*
X158002674Y-71753946D01*
X158085358Y-71751448D01*
X158129664Y-71742515D01*
X158147509Y-71723121D01*
X158150809Y-71689240D01*
X158148172Y-71658373D01*
X158109309Y-71569261D01*
X158035585Y-71504838D01*
X157941921Y-71480043D01*
X157884501Y-71484535D01*
X157841027Y-71510958D01*
X157806909Y-71575064D01*
X157802206Y-71586614D01*
X157777341Y-71659869D01*
X157767206Y-71712065D01*
X157631963Y-71712065D01*
X157634184Y-71678062D01*
X157673852Y-71552863D01*
X157749724Y-71462074D01*
X157853955Y-71410461D01*
X157978701Y-71402787D01*
X158116116Y-71443819D01*
X158131699Y-71451845D01*
X158221331Y-71530007D01*
X158280693Y-71639418D01*
X158291985Y-71689240D01*
X158309708Y-71767433D01*
X158308299Y-71901405D01*
G37*
G36*
X145644999Y-71098403D02*
G01*
X145676339Y-71119894D01*
X145683711Y-71178641D01*
X145682075Y-71214386D01*
X145664166Y-71251994D01*
X145615211Y-71260841D01*
X145585423Y-71258878D01*
X145554083Y-71237387D01*
X145546710Y-71178641D01*
X145548346Y-71142895D01*
X145566255Y-71105287D01*
X145615211Y-71096440D01*
X145644999Y-71098403D01*
G37*
G36*
X156009341Y-71015497D02*
G01*
X156071303Y-71025299D01*
X156095793Y-71041639D01*
X156092165Y-71053265D01*
X156057624Y-71069040D01*
X156036166Y-71072964D01*
X156017324Y-71091077D01*
X156003830Y-71130200D01*
X155994828Y-71197090D01*
X155989459Y-71298502D01*
X155986866Y-71441193D01*
X155986192Y-71631918D01*
X155986426Y-71784182D01*
X155987834Y-71916325D01*
X155991380Y-72009566D01*
X155998025Y-72072428D01*
X156008729Y-72113436D01*
X156024454Y-72141112D01*
X156046159Y-72163981D01*
X156106126Y-72219849D01*
X155922342Y-72219849D01*
X155830268Y-72217959D01*
X155764623Y-72213039D01*
X155739590Y-72206149D01*
X155754578Y-72181771D01*
X155794391Y-72137648D01*
X155811495Y-72117727D01*
X155840587Y-72049448D01*
X155849191Y-71945847D01*
X155849008Y-71917978D01*
X155843913Y-71848459D01*
X155827939Y-71816527D01*
X155795899Y-71808846D01*
X155752382Y-71829225D01*
X155693735Y-71885041D01*
X155632168Y-71961681D01*
X155578250Y-72044485D01*
X155542550Y-72118787D01*
X155535637Y-72169926D01*
X155539309Y-72194684D01*
X155522492Y-72211001D01*
X155472852Y-72218221D01*
X155379419Y-72219849D01*
X155207356Y-72219849D01*
X155294598Y-72144498D01*
X155352607Y-72087482D01*
X155428985Y-72001933D01*
X155503851Y-71909465D01*
X155625862Y-71749782D01*
X155481769Y-71621762D01*
X155403483Y-71554059D01*
X155331952Y-71495547D01*
X155285181Y-71461104D01*
X155266640Y-71445260D01*
X155278733Y-71434596D01*
X155331239Y-71429021D01*
X155431338Y-71426854D01*
X155488917Y-71426784D01*
X155577999Y-71430552D01*
X155619915Y-71441600D01*
X155619818Y-71462234D01*
X155582858Y-71494765D01*
X155562742Y-71513067D01*
X155559720Y-71538407D01*
X155586435Y-71577327D01*
X155648135Y-71641637D01*
X155702250Y-71694288D01*
X155760479Y-71741967D01*
X155800947Y-71755361D01*
X155826853Y-71730373D01*
X155841396Y-71662905D01*
X155847776Y-71548861D01*
X155849191Y-71384142D01*
X155849191Y-71014239D01*
X155972492Y-71014239D01*
X156009341Y-71015497D01*
G37*
G36*
X154084265Y-71098403D02*
G01*
X154115605Y-71119894D01*
X154122978Y-71178641D01*
X154121342Y-71214386D01*
X154103433Y-71251994D01*
X154054477Y-71260841D01*
X154024689Y-71258878D01*
X153993349Y-71237387D01*
X153985977Y-71178641D01*
X153987613Y-71142895D01*
X154005522Y-71105287D01*
X154054477Y-71096440D01*
X154084265Y-71098403D01*
G37*
G36*
X165674557Y-71098403D02*
G01*
X165705896Y-71119894D01*
X165713269Y-71178641D01*
X165711633Y-71214386D01*
X165693724Y-71251994D01*
X165644768Y-71260841D01*
X165614980Y-71258878D01*
X165583640Y-71237387D01*
X165576268Y-71178641D01*
X165577904Y-71142895D01*
X165595813Y-71105287D01*
X165644768Y-71096440D01*
X165674557Y-71098403D01*
G37*
%TD*%
%LPC*%
D11*
%TO.C,R10*%
X139500000Y-130040000D03*
D12*
X139500000Y-114800000D03*
%TD*%
%TO.C,R9*%
X136000000Y-114880000D03*
D11*
X136000000Y-130120000D03*
%TD*%
D12*
%TO.C,R11*%
X143000000Y-130120000D03*
D11*
X143000000Y-114880000D03*
%TD*%
D12*
%TO.C,R13*%
X154500000Y-130120000D03*
D11*
X154500000Y-114880000D03*
%TD*%
D12*
%TO.C,R12*%
X146500000Y-130120000D03*
D11*
X146500000Y-114880000D03*
%TD*%
D12*
%TO.C,R14*%
X167000000Y-130120000D03*
D11*
X167000000Y-114880000D03*
%TD*%
D12*
%TO.C,R8*%
X127100000Y-106610000D03*
D11*
X127100000Y-91370000D03*
%TD*%
D12*
%TO.C,R2*%
X84500000Y-106820000D03*
D11*
X84500000Y-91580000D03*
%TD*%
D13*
%TO.C,U4*%
X107500000Y-85000000D03*
D14*
X110040000Y-85000000D03*
X112580000Y-85000000D03*
X115120000Y-85000000D03*
X117660000Y-85000000D03*
X120200000Y-85000000D03*
X122740000Y-85000000D03*
X125280000Y-85000000D03*
X127820000Y-85000000D03*
X127820000Y-69760000D03*
X125280000Y-69760000D03*
X122740000Y-69760000D03*
X120200000Y-69760000D03*
X117660000Y-69760000D03*
X115120000Y-69760000D03*
X112580000Y-69760000D03*
X110040000Y-69760000D03*
X107500000Y-69760000D03*
%TD*%
%TO.C,U3*%
X81610000Y-69740000D03*
X84150000Y-69740000D03*
X86690000Y-69740000D03*
X89230000Y-69740000D03*
X91770000Y-69740000D03*
X94310000Y-69740000D03*
X96850000Y-69740000D03*
X99390000Y-69740000D03*
X101930000Y-69740000D03*
X101930000Y-84980000D03*
X99390000Y-84980000D03*
X96850000Y-84980000D03*
X94310000Y-84980000D03*
X91770000Y-84980000D03*
X89230000Y-84980000D03*
X86690000Y-84980000D03*
X84150000Y-84980000D03*
D13*
X81610000Y-84980000D03*
%TD*%
D15*
%TO.C,U1*%
X78870000Y-131390000D03*
X81410000Y-131390000D03*
D16*
X83950000Y-131390000D03*
D15*
X86490000Y-131390000D03*
X89030000Y-131390000D03*
X91570000Y-131390000D03*
X94110000Y-131390000D03*
D16*
X96650000Y-131390000D03*
D15*
X99190000Y-131390000D03*
X101730000Y-131390000D03*
X104270000Y-131390000D03*
X106810000Y-131390000D03*
D16*
X109350000Y-131390000D03*
D15*
X111890000Y-131390000D03*
X114430000Y-131390000D03*
X116970000Y-131390000D03*
X119510000Y-131390000D03*
D16*
X122050000Y-131390000D03*
D15*
X124590000Y-131390000D03*
X127130000Y-131390000D03*
X127130000Y-113610000D03*
X124590000Y-113610000D03*
D16*
X122050000Y-113610000D03*
D15*
X119510000Y-113610000D03*
X116970000Y-113610000D03*
X114430000Y-113610000D03*
X111890000Y-113610000D03*
D16*
X109350000Y-113610000D03*
D15*
X106810000Y-113610000D03*
X104270000Y-113610000D03*
X101730000Y-113610000D03*
X99190000Y-113610000D03*
D16*
X96650000Y-113610000D03*
D15*
X94110000Y-113610000D03*
X91570000Y-113610000D03*
X89030000Y-113610000D03*
X86490000Y-113610000D03*
D16*
X83950000Y-113610000D03*
D15*
X81410000Y-113610000D03*
X78870000Y-113610000D03*
X126900000Y-125040000D03*
D16*
X126900000Y-122500000D03*
D15*
X126900000Y-119960000D03*
%TD*%
D12*
%TO.C,R5*%
X116500000Y-106620000D03*
D11*
X116500000Y-91380000D03*
%TD*%
D12*
%TO.C,R3*%
X88000000Y-106820000D03*
D11*
X88000000Y-91580000D03*
%TD*%
D12*
%TO.C,R4*%
X113000000Y-106620000D03*
D11*
X113000000Y-91380000D03*
%TD*%
D12*
%TO.C,R6*%
X120000000Y-106620000D03*
D11*
X120000000Y-91380000D03*
%TD*%
D12*
%TO.C,R7*%
X123500000Y-106620000D03*
D11*
X123500000Y-91380000D03*
%TD*%
D12*
%TO.C,R1*%
X80800000Y-106820000D03*
D11*
X80800000Y-91580000D03*
%TD*%
M02*
