%TF.GenerationSoftware,KiCad,Pcbnew,(6.0.0)*%
%TF.CreationDate,2022-08-12T16:53:38+02:00*%
%TF.ProjectId,PulseOximeter,50756c73-654f-4786-996d-657465722e6b,rev?*%
%TF.SameCoordinates,Original*%
%TF.FileFunction,Soldermask,Bot*%
%TF.FilePolarity,Negative*%
%FSLAX46Y46*%
G04 Gerber Fmt 4.6, Leading zero omitted, Abs format (unit mm)*
G04 Created by KiCad (PCBNEW (6.0.0)) date 2022-08-12 16:53:38*
%MOMM*%
%LPD*%
G01*
G04 APERTURE LIST*
%ADD10O,1.600000X1.600000*%
%ADD11C,1.600000*%
%ADD12R,1.500000X1.500000*%
%ADD13C,1.500000*%
%ADD14O,1.700000X1.700000*%
%ADD15R,1.700000X1.700000*%
G04 APERTURE END LIST*
D10*
%TO.C,R10*%
X139500000Y-130040000D03*
D11*
X139500000Y-114800000D03*
%TD*%
%TO.C,R9*%
X136000000Y-114880000D03*
D10*
X136000000Y-130120000D03*
%TD*%
D11*
%TO.C,R11*%
X143000000Y-130120000D03*
D10*
X143000000Y-114880000D03*
%TD*%
D11*
%TO.C,R13*%
X154500000Y-130120000D03*
D10*
X154500000Y-114880000D03*
%TD*%
D11*
%TO.C,R12*%
X146500000Y-130120000D03*
D10*
X146500000Y-114880000D03*
%TD*%
D11*
%TO.C,R14*%
X167000000Y-130120000D03*
D10*
X167000000Y-114880000D03*
%TD*%
D11*
%TO.C,R8*%
X127100000Y-106610000D03*
D10*
X127100000Y-91370000D03*
%TD*%
D11*
%TO.C,R2*%
X84500000Y-106820000D03*
D10*
X84500000Y-91580000D03*
%TD*%
D12*
%TO.C,U4*%
X107500000Y-85000000D03*
D13*
X110040000Y-85000000D03*
X112580000Y-85000000D03*
X115120000Y-85000000D03*
X117660000Y-85000000D03*
X120200000Y-85000000D03*
X122740000Y-85000000D03*
X125280000Y-85000000D03*
X127820000Y-85000000D03*
X127820000Y-69760000D03*
X125280000Y-69760000D03*
X122740000Y-69760000D03*
X120200000Y-69760000D03*
X117660000Y-69760000D03*
X115120000Y-69760000D03*
X112580000Y-69760000D03*
X110040000Y-69760000D03*
X107500000Y-69760000D03*
%TD*%
%TO.C,U3*%
X81610000Y-69740000D03*
X84150000Y-69740000D03*
X86690000Y-69740000D03*
X89230000Y-69740000D03*
X91770000Y-69740000D03*
X94310000Y-69740000D03*
X96850000Y-69740000D03*
X99390000Y-69740000D03*
X101930000Y-69740000D03*
X101930000Y-84980000D03*
X99390000Y-84980000D03*
X96850000Y-84980000D03*
X94310000Y-84980000D03*
X91770000Y-84980000D03*
X89230000Y-84980000D03*
X86690000Y-84980000D03*
X84150000Y-84980000D03*
D12*
X81610000Y-84980000D03*
%TD*%
D14*
%TO.C,U1*%
X78870000Y-131390000D03*
X81410000Y-131390000D03*
D15*
X83950000Y-131390000D03*
D14*
X86490000Y-131390000D03*
X89030000Y-131390000D03*
X91570000Y-131390000D03*
X94110000Y-131390000D03*
D15*
X96650000Y-131390000D03*
D14*
X99190000Y-131390000D03*
X101730000Y-131390000D03*
X104270000Y-131390000D03*
X106810000Y-131390000D03*
D15*
X109350000Y-131390000D03*
D14*
X111890000Y-131390000D03*
X114430000Y-131390000D03*
X116970000Y-131390000D03*
X119510000Y-131390000D03*
D15*
X122050000Y-131390000D03*
D14*
X124590000Y-131390000D03*
X127130000Y-131390000D03*
X127130000Y-113610000D03*
X124590000Y-113610000D03*
D15*
X122050000Y-113610000D03*
D14*
X119510000Y-113610000D03*
X116970000Y-113610000D03*
X114430000Y-113610000D03*
X111890000Y-113610000D03*
D15*
X109350000Y-113610000D03*
D14*
X106810000Y-113610000D03*
X104270000Y-113610000D03*
X101730000Y-113610000D03*
X99190000Y-113610000D03*
D15*
X96650000Y-113610000D03*
D14*
X94110000Y-113610000D03*
X91570000Y-113610000D03*
X89030000Y-113610000D03*
X86490000Y-113610000D03*
D15*
X83950000Y-113610000D03*
D14*
X81410000Y-113610000D03*
X78870000Y-113610000D03*
X126900000Y-125040000D03*
D15*
X126900000Y-122500000D03*
D14*
X126900000Y-119960000D03*
%TD*%
D11*
%TO.C,R5*%
X116500000Y-106620000D03*
D10*
X116500000Y-91380000D03*
%TD*%
D11*
%TO.C,R3*%
X88000000Y-106820000D03*
D10*
X88000000Y-91580000D03*
%TD*%
D11*
%TO.C,R4*%
X113000000Y-106620000D03*
D10*
X113000000Y-91380000D03*
%TD*%
D11*
%TO.C,R6*%
X120000000Y-106620000D03*
D10*
X120000000Y-91380000D03*
%TD*%
D11*
%TO.C,R7*%
X123500000Y-106620000D03*
D10*
X123500000Y-91380000D03*
%TD*%
D11*
%TO.C,R1*%
X80800000Y-106820000D03*
D10*
X80800000Y-91580000D03*
%TD*%
M02*
