%TF.GenerationSoftware,KiCad,Pcbnew,(6.0.0)*%
%TF.CreationDate,2022-08-12T16:53:37+02:00*%
%TF.ProjectId,PulseOximeter,50756c73-654f-4786-996d-657465722e6b,rev?*%
%TF.SameCoordinates,Original*%
%TF.FileFunction,Soldermask,Top*%
%TF.FilePolarity,Negative*%
%FSLAX46Y46*%
G04 Gerber Fmt 4.6, Leading zero omitted, Abs format (unit mm)*
G04 Created by KiCad (PCBNEW (6.0.0)) date 2022-08-12 16:53:37*
%MOMM*%
%LPD*%
G01*
G04 APERTURE LIST*
G04 Aperture macros list*
%AMRoundRect*
0 Rectangle with rounded corners*
0 $1 Rounding radius*
0 $2 $3 $4 $5 $6 $7 $8 $9 X,Y pos of 4 corners*
0 Add a 4 corners polygon primitive as box body*
4,1,4,$2,$3,$4,$5,$6,$7,$8,$9,$2,$3,0*
0 Add four circle primitives for the rounded corners*
1,1,$1+$1,$2,$3*
1,1,$1+$1,$4,$5*
1,1,$1+$1,$6,$7*
1,1,$1+$1,$8,$9*
0 Add four rect primitives between the rounded corners*
20,1,$1+$1,$2,$3,$4,$5,0*
20,1,$1+$1,$4,$5,$6,$7,0*
20,1,$1+$1,$6,$7,$8,$9,0*
20,1,$1+$1,$8,$9,$2,$3,0*%
G04 Aperture macros list end*
%ADD10R,1.000000X0.900000*%
%ADD11O,1.600000X1.600000*%
%ADD12C,1.600000*%
%ADD13RoundRect,0.150000X0.150000X-0.587500X0.150000X0.587500X-0.150000X0.587500X-0.150000X-0.587500X0*%
%ADD14R,1.500000X1.500000*%
%ADD15C,1.500000*%
%ADD16RoundRect,0.150000X-0.587500X-0.150000X0.587500X-0.150000X0.587500X0.150000X-0.587500X0.150000X0*%
%ADD17O,1.700000X1.700000*%
%ADD18R,1.700000X3.500000*%
%ADD19R,1.700000X1.700000*%
%ADD20R,3.500000X1.700000*%
G04 APERTURE END LIST*
D10*
%TO.C,U2*%
X148250000Y-90500000D03*
X148250000Y-91700000D03*
X148250000Y-92900000D03*
X148250000Y-94100000D03*
X148250000Y-95300000D03*
X148250000Y-96500000D03*
X150750000Y-96500000D03*
X150750000Y-95300000D03*
X150750000Y-94100000D03*
X150750000Y-92900000D03*
X150750000Y-91700000D03*
X150750000Y-90500000D03*
%TD*%
D11*
%TO.C,R10*%
X139500000Y-130040000D03*
D12*
X139500000Y-114800000D03*
%TD*%
%TO.C,R9*%
X136000000Y-114880000D03*
D11*
X136000000Y-130120000D03*
%TD*%
D12*
%TO.C,R11*%
X143000000Y-130120000D03*
D11*
X143000000Y-114880000D03*
%TD*%
D12*
%TO.C,R13*%
X154500000Y-130120000D03*
D11*
X154500000Y-114880000D03*
%TD*%
D12*
%TO.C,R12*%
X146500000Y-130120000D03*
D11*
X146500000Y-114880000D03*
%TD*%
D12*
%TO.C,R14*%
X167000000Y-130120000D03*
D11*
X167000000Y-114880000D03*
%TD*%
D12*
%TO.C,R8*%
X127100000Y-106610000D03*
D11*
X127100000Y-91370000D03*
%TD*%
D13*
%TO.C,Q6*%
X157550000Y-123437500D03*
X159450000Y-123437500D03*
X158500000Y-121562500D03*
%TD*%
D12*
%TO.C,R2*%
X84500000Y-106820000D03*
D11*
X84500000Y-91580000D03*
%TD*%
D14*
%TO.C,U4*%
X107500000Y-85000000D03*
D15*
X110040000Y-85000000D03*
X112580000Y-85000000D03*
X115120000Y-85000000D03*
X117660000Y-85000000D03*
X120200000Y-85000000D03*
X122740000Y-85000000D03*
X125280000Y-85000000D03*
X127820000Y-85000000D03*
X127820000Y-69760000D03*
X125280000Y-69760000D03*
X122740000Y-69760000D03*
X120200000Y-69760000D03*
X117660000Y-69760000D03*
X115120000Y-69760000D03*
X112580000Y-69760000D03*
X110040000Y-69760000D03*
X107500000Y-69760000D03*
%TD*%
%TO.C,U3*%
X81610000Y-69740000D03*
X84150000Y-69740000D03*
X86690000Y-69740000D03*
X89230000Y-69740000D03*
X91770000Y-69740000D03*
X94310000Y-69740000D03*
X96850000Y-69740000D03*
X99390000Y-69740000D03*
X101930000Y-69740000D03*
X101930000Y-84980000D03*
X99390000Y-84980000D03*
X96850000Y-84980000D03*
X94310000Y-84980000D03*
X91770000Y-84980000D03*
X89230000Y-84980000D03*
X86690000Y-84980000D03*
X84150000Y-84980000D03*
D14*
X81610000Y-84980000D03*
%TD*%
D13*
%TO.C,Q7*%
X162050000Y-123437500D03*
X163950000Y-123437500D03*
X163000000Y-121562500D03*
%TD*%
D16*
%TO.C,Q4*%
X119492500Y-61050000D03*
X119492500Y-62950000D03*
X121367500Y-62000000D03*
%TD*%
%TO.C,Q3*%
X114092500Y-61050000D03*
X114092500Y-62950000D03*
X115967500Y-62000000D03*
%TD*%
%TO.C,Q1*%
X89092500Y-61050000D03*
X89092500Y-62950000D03*
X90967500Y-62000000D03*
%TD*%
D17*
%TO.C,U1*%
X78870000Y-131390000D03*
D18*
X78870000Y-132290000D03*
D17*
X81410000Y-131390000D03*
D18*
X81410000Y-132290000D03*
X83950000Y-132290000D03*
D19*
X83950000Y-131390000D03*
D17*
X86490000Y-131390000D03*
D18*
X86490000Y-132290000D03*
D17*
X89030000Y-131390000D03*
D18*
X89030000Y-132290000D03*
X91570000Y-132290000D03*
D17*
X91570000Y-131390000D03*
D18*
X94110000Y-132290000D03*
D17*
X94110000Y-131390000D03*
D18*
X96650000Y-132290000D03*
D19*
X96650000Y-131390000D03*
D18*
X99190000Y-132290000D03*
D17*
X99190000Y-131390000D03*
D18*
X101730000Y-132290000D03*
D17*
X101730000Y-131390000D03*
X104270000Y-131390000D03*
D18*
X104270000Y-132290000D03*
X106810000Y-132290000D03*
D17*
X106810000Y-131390000D03*
D18*
X109350000Y-132290000D03*
D19*
X109350000Y-131390000D03*
D17*
X111890000Y-131390000D03*
D18*
X111890000Y-132290000D03*
X114430000Y-132290000D03*
D17*
X114430000Y-131390000D03*
D18*
X116970000Y-132290000D03*
D17*
X116970000Y-131390000D03*
D18*
X119510000Y-132290000D03*
D17*
X119510000Y-131390000D03*
D18*
X122050000Y-132290000D03*
D19*
X122050000Y-131390000D03*
D17*
X124590000Y-131390000D03*
D18*
X124590000Y-132290000D03*
X127130000Y-132290000D03*
D17*
X127130000Y-131390000D03*
X127130000Y-113610000D03*
D18*
X127130000Y-112710000D03*
X124590000Y-112710000D03*
D17*
X124590000Y-113610000D03*
D18*
X122050000Y-112710000D03*
D19*
X122050000Y-113610000D03*
D18*
X119510000Y-112710000D03*
D17*
X119510000Y-113610000D03*
D18*
X116970000Y-112710000D03*
D17*
X116970000Y-113610000D03*
D18*
X114430000Y-112710000D03*
D17*
X114430000Y-113610000D03*
X111890000Y-113610000D03*
D18*
X111890000Y-112710000D03*
D19*
X109350000Y-113610000D03*
D18*
X109350000Y-112710000D03*
D17*
X106810000Y-113610000D03*
D18*
X106810000Y-112710000D03*
D17*
X104270000Y-113610000D03*
D18*
X104270000Y-112710000D03*
X101730000Y-112710000D03*
D17*
X101730000Y-113610000D03*
X99190000Y-113610000D03*
D18*
X99190000Y-112710000D03*
D19*
X96650000Y-113610000D03*
D18*
X96650000Y-112710000D03*
D17*
X94110000Y-113610000D03*
D18*
X94110000Y-112710000D03*
X91570000Y-112710000D03*
D17*
X91570000Y-113610000D03*
D18*
X89030000Y-112710000D03*
D17*
X89030000Y-113610000D03*
X86490000Y-113610000D03*
D18*
X86490000Y-112710000D03*
D19*
X83950000Y-113610000D03*
D18*
X83950000Y-112710000D03*
X81410000Y-112710000D03*
D17*
X81410000Y-113610000D03*
D18*
X78870000Y-112710000D03*
D17*
X78870000Y-113610000D03*
X126900000Y-125040000D03*
D20*
X127800000Y-125040000D03*
X127800000Y-122500000D03*
D19*
X126900000Y-122500000D03*
D17*
X126900000Y-119960000D03*
D20*
X127800000Y-119960000D03*
%TD*%
D12*
%TO.C,R5*%
X116500000Y-106620000D03*
D11*
X116500000Y-91380000D03*
%TD*%
D12*
%TO.C,R3*%
X88000000Y-106820000D03*
D11*
X88000000Y-91580000D03*
%TD*%
D12*
%TO.C,R4*%
X113000000Y-106620000D03*
D11*
X113000000Y-91380000D03*
%TD*%
D12*
%TO.C,R6*%
X120000000Y-106620000D03*
D11*
X120000000Y-91380000D03*
%TD*%
D12*
%TO.C,R7*%
X123500000Y-106620000D03*
D11*
X123500000Y-91380000D03*
%TD*%
D13*
%TO.C,Q5*%
X149550000Y-122937500D03*
X151450000Y-122937500D03*
X150500000Y-121062500D03*
%TD*%
D16*
%TO.C,Q2*%
X96692500Y-61050000D03*
X96692500Y-62950000D03*
X98567500Y-62000000D03*
%TD*%
D12*
%TO.C,R1*%
X80800000Y-106820000D03*
D11*
X80800000Y-91580000D03*
%TD*%
M02*
