%TF.GenerationSoftware,KiCad,Pcbnew,(6.0.0)*%
%TF.CreationDate,2022-08-12T16:53:37+02:00*%
%TF.ProjectId,PulseOximeter,50756c73-654f-4786-996d-657465722e6b,rev?*%
%TF.SameCoordinates,Original*%
%TF.FileFunction,Legend,Top*%
%TF.FilePolarity,Positive*%
%FSLAX46Y46*%
G04 Gerber Fmt 4.6, Leading zero omitted, Abs format (unit mm)*
G04 Created by KiCad (PCBNEW (6.0.0)) date 2022-08-12 16:53:37*
%MOMM*%
%LPD*%
G01*
G04 APERTURE LIST*
G04 Aperture macros list*
%AMRoundRect*
0 Rectangle with rounded corners*
0 $1 Rounding radius*
0 $2 $3 $4 $5 $6 $7 $8 $9 X,Y pos of 4 corners*
0 Add a 4 corners polygon primitive as box body*
4,1,4,$2,$3,$4,$5,$6,$7,$8,$9,$2,$3,0*
0 Add four circle primitives for the rounded corners*
1,1,$1+$1,$2,$3*
1,1,$1+$1,$4,$5*
1,1,$1+$1,$6,$7*
1,1,$1+$1,$8,$9*
0 Add four rect primitives between the rounded corners*
20,1,$1+$1,$2,$3,$4,$5,0*
20,1,$1+$1,$4,$5,$6,$7,0*
20,1,$1+$1,$6,$7,$8,$9,0*
20,1,$1+$1,$8,$9,$2,$3,0*%
G04 Aperture macros list end*
%ADD10C,0.300000*%
%ADD11C,0.150000*%
%ADD12C,0.120000*%
%ADD13R,1.000000X0.900000*%
%ADD14O,1.600000X1.600000*%
%ADD15C,1.600000*%
%ADD16RoundRect,0.150000X0.150000X-0.587500X0.150000X0.587500X-0.150000X0.587500X-0.150000X-0.587500X0*%
%ADD17R,1.500000X1.500000*%
%ADD18C,1.500000*%
%ADD19RoundRect,0.150000X-0.587500X-0.150000X0.587500X-0.150000X0.587500X0.150000X-0.587500X0.150000X0*%
%ADD20O,1.700000X1.700000*%
%ADD21R,1.700000X3.500000*%
%ADD22R,1.700000X1.700000*%
%ADD23R,3.500000X1.700000*%
G04 APERTURE END LIST*
D10*
X167542857Y-123985714D02*
X167542857Y-124671428D01*
X167542857Y-124328571D02*
X166342857Y-124328571D01*
X166514285Y-124442857D01*
X166628571Y-124557142D01*
X166685714Y-124671428D01*
X166342857Y-123242857D02*
X166342857Y-123128571D01*
X166400000Y-123014285D01*
X166457142Y-122957142D01*
X166571428Y-122900000D01*
X166800000Y-122842857D01*
X167085714Y-122842857D01*
X167314285Y-122900000D01*
X167428571Y-122957142D01*
X167485714Y-123014285D01*
X167542857Y-123128571D01*
X167542857Y-123242857D01*
X167485714Y-123357142D01*
X167428571Y-123414285D01*
X167314285Y-123471428D01*
X167085714Y-123528571D01*
X166800000Y-123528571D01*
X166571428Y-123471428D01*
X166457142Y-123414285D01*
X166400000Y-123357142D01*
X166342857Y-123242857D01*
X166342857Y-122100000D02*
X166342857Y-121985714D01*
X166400000Y-121871428D01*
X166457142Y-121814285D01*
X166571428Y-121757142D01*
X166800000Y-121700000D01*
X167085714Y-121700000D01*
X167314285Y-121757142D01*
X167428571Y-121814285D01*
X167485714Y-121871428D01*
X167542857Y-121985714D01*
X167542857Y-122100000D01*
X167485714Y-122214285D01*
X167428571Y-122271428D01*
X167314285Y-122328571D01*
X167085714Y-122385714D01*
X166800000Y-122385714D01*
X166571428Y-122328571D01*
X166457142Y-122271428D01*
X166400000Y-122214285D01*
X166342857Y-122100000D01*
X167542857Y-121242857D02*
X167542857Y-120957142D01*
X167314285Y-120957142D01*
X167257142Y-121071428D01*
X167142857Y-121185714D01*
X166971428Y-121242857D01*
X166685714Y-121242857D01*
X166514285Y-121185714D01*
X166400000Y-121071428D01*
X166342857Y-120900000D01*
X166342857Y-120671428D01*
X166400000Y-120500000D01*
X166514285Y-120385714D01*
X166685714Y-120328571D01*
X166971428Y-120328571D01*
X167142857Y-120385714D01*
X167257142Y-120500000D01*
X167314285Y-120614285D01*
X167542857Y-120614285D01*
X167542857Y-120328571D01*
X147042857Y-123985714D02*
X147042857Y-124671428D01*
X147042857Y-124328571D02*
X145842857Y-124328571D01*
X146014285Y-124442857D01*
X146128571Y-124557142D01*
X146185714Y-124671428D01*
X145842857Y-123242857D02*
X145842857Y-123128571D01*
X145900000Y-123014285D01*
X145957142Y-122957142D01*
X146071428Y-122900000D01*
X146300000Y-122842857D01*
X146585714Y-122842857D01*
X146814285Y-122900000D01*
X146928571Y-122957142D01*
X146985714Y-123014285D01*
X147042857Y-123128571D01*
X147042857Y-123242857D01*
X146985714Y-123357142D01*
X146928571Y-123414285D01*
X146814285Y-123471428D01*
X146585714Y-123528571D01*
X146300000Y-123528571D01*
X146071428Y-123471428D01*
X145957142Y-123414285D01*
X145900000Y-123357142D01*
X145842857Y-123242857D01*
X145842857Y-122100000D02*
X145842857Y-121985714D01*
X145900000Y-121871428D01*
X145957142Y-121814285D01*
X146071428Y-121757142D01*
X146300000Y-121700000D01*
X146585714Y-121700000D01*
X146814285Y-121757142D01*
X146928571Y-121814285D01*
X146985714Y-121871428D01*
X147042857Y-121985714D01*
X147042857Y-122100000D01*
X146985714Y-122214285D01*
X146928571Y-122271428D01*
X146814285Y-122328571D01*
X146585714Y-122385714D01*
X146300000Y-122385714D01*
X146071428Y-122328571D01*
X145957142Y-122271428D01*
X145900000Y-122214285D01*
X145842857Y-122100000D01*
X147042857Y-121242857D02*
X147042857Y-120957142D01*
X146814285Y-120957142D01*
X146757142Y-121071428D01*
X146642857Y-121185714D01*
X146471428Y-121242857D01*
X146185714Y-121242857D01*
X146014285Y-121185714D01*
X145900000Y-121071428D01*
X145842857Y-120900000D01*
X145842857Y-120671428D01*
X145900000Y-120500000D01*
X146014285Y-120385714D01*
X146185714Y-120328571D01*
X146471428Y-120328571D01*
X146642857Y-120385714D01*
X146757142Y-120500000D01*
X146814285Y-120614285D01*
X147042857Y-120614285D01*
X147042857Y-120328571D01*
X155042857Y-123985714D02*
X155042857Y-124671428D01*
X155042857Y-124328571D02*
X153842857Y-124328571D01*
X154014285Y-124442857D01*
X154128571Y-124557142D01*
X154185714Y-124671428D01*
X153842857Y-122900000D02*
X153842857Y-123471428D01*
X154414285Y-123528571D01*
X154357142Y-123471428D01*
X154300000Y-123357142D01*
X154300000Y-123071428D01*
X154357142Y-122957142D01*
X154414285Y-122900000D01*
X154528571Y-122842857D01*
X154814285Y-122842857D01*
X154928571Y-122900000D01*
X154985714Y-122957142D01*
X155042857Y-123071428D01*
X155042857Y-123357142D01*
X154985714Y-123471428D01*
X154928571Y-123528571D01*
X153842857Y-122100000D02*
X153842857Y-121985714D01*
X153900000Y-121871428D01*
X153957142Y-121814285D01*
X154071428Y-121757142D01*
X154300000Y-121700000D01*
X154585714Y-121700000D01*
X154814285Y-121757142D01*
X154928571Y-121814285D01*
X154985714Y-121871428D01*
X155042857Y-121985714D01*
X155042857Y-122100000D01*
X154985714Y-122214285D01*
X154928571Y-122271428D01*
X154814285Y-122328571D01*
X154585714Y-122385714D01*
X154300000Y-122385714D01*
X154071428Y-122328571D01*
X153957142Y-122271428D01*
X153900000Y-122214285D01*
X153842857Y-122100000D01*
X155042857Y-121242857D02*
X155042857Y-120957142D01*
X154814285Y-120957142D01*
X154757142Y-121071428D01*
X154642857Y-121185714D01*
X154471428Y-121242857D01*
X154185714Y-121242857D01*
X154014285Y-121185714D01*
X153900000Y-121071428D01*
X153842857Y-120900000D01*
X153842857Y-120671428D01*
X153900000Y-120500000D01*
X154014285Y-120385714D01*
X154185714Y-120328571D01*
X154471428Y-120328571D01*
X154642857Y-120385714D01*
X154757142Y-120500000D01*
X154814285Y-120614285D01*
X155042857Y-120614285D01*
X155042857Y-120328571D01*
X143542857Y-123985714D02*
X143542857Y-124671428D01*
X143542857Y-124328571D02*
X142342857Y-124328571D01*
X142514285Y-124442857D01*
X142628571Y-124557142D01*
X142685714Y-124671428D01*
X142857142Y-123300000D02*
X142800000Y-123414285D01*
X142742857Y-123471428D01*
X142628571Y-123528571D01*
X142571428Y-123528571D01*
X142457142Y-123471428D01*
X142400000Y-123414285D01*
X142342857Y-123300000D01*
X142342857Y-123071428D01*
X142400000Y-122957142D01*
X142457142Y-122900000D01*
X142571428Y-122842857D01*
X142628571Y-122842857D01*
X142742857Y-122900000D01*
X142800000Y-122957142D01*
X142857142Y-123071428D01*
X142857142Y-123300000D01*
X142914285Y-123414285D01*
X142971428Y-123471428D01*
X143085714Y-123528571D01*
X143314285Y-123528571D01*
X143428571Y-123471428D01*
X143485714Y-123414285D01*
X143542857Y-123300000D01*
X143542857Y-123071428D01*
X143485714Y-122957142D01*
X143428571Y-122900000D01*
X143314285Y-122842857D01*
X143085714Y-122842857D01*
X142971428Y-122900000D01*
X142914285Y-122957142D01*
X142857142Y-123071428D01*
X142342857Y-122100000D02*
X142342857Y-121985714D01*
X142400000Y-121871428D01*
X142457142Y-121814285D01*
X142571428Y-121757142D01*
X142800000Y-121700000D01*
X143085714Y-121700000D01*
X143314285Y-121757142D01*
X143428571Y-121814285D01*
X143485714Y-121871428D01*
X143542857Y-121985714D01*
X143542857Y-122100000D01*
X143485714Y-122214285D01*
X143428571Y-122271428D01*
X143314285Y-122328571D01*
X143085714Y-122385714D01*
X142800000Y-122385714D01*
X142571428Y-122328571D01*
X142457142Y-122271428D01*
X142400000Y-122214285D01*
X142342857Y-122100000D01*
X143542857Y-121242857D02*
X143542857Y-120957142D01*
X143314285Y-120957142D01*
X143257142Y-121071428D01*
X143142857Y-121185714D01*
X142971428Y-121242857D01*
X142685714Y-121242857D01*
X142514285Y-121185714D01*
X142400000Y-121071428D01*
X142342857Y-120900000D01*
X142342857Y-120671428D01*
X142400000Y-120500000D01*
X142514285Y-120385714D01*
X142685714Y-120328571D01*
X142971428Y-120328571D01*
X143142857Y-120385714D01*
X143257142Y-120500000D01*
X143314285Y-120614285D01*
X143542857Y-120614285D01*
X143542857Y-120328571D01*
X140042857Y-124471428D02*
X140042857Y-125157142D01*
X140042857Y-124814285D02*
X138842857Y-124814285D01*
X139014285Y-124928571D01*
X139128571Y-125042857D01*
X139185714Y-125157142D01*
X138842857Y-123728571D02*
X138842857Y-123614285D01*
X138900000Y-123500000D01*
X138957142Y-123442857D01*
X139071428Y-123385714D01*
X139300000Y-123328571D01*
X139585714Y-123328571D01*
X139814285Y-123385714D01*
X139928571Y-123442857D01*
X139985714Y-123500000D01*
X140042857Y-123614285D01*
X140042857Y-123728571D01*
X139985714Y-123842857D01*
X139928571Y-123900000D01*
X139814285Y-123957142D01*
X139585714Y-124014285D01*
X139300000Y-124014285D01*
X139071428Y-123957142D01*
X138957142Y-123900000D01*
X138900000Y-123842857D01*
X138842857Y-123728571D01*
X138842857Y-122585714D02*
X138842857Y-122471428D01*
X138900000Y-122357142D01*
X138957142Y-122300000D01*
X139071428Y-122242857D01*
X139300000Y-122185714D01*
X139585714Y-122185714D01*
X139814285Y-122242857D01*
X139928571Y-122300000D01*
X139985714Y-122357142D01*
X140042857Y-122471428D01*
X140042857Y-122585714D01*
X139985714Y-122700000D01*
X139928571Y-122757142D01*
X139814285Y-122814285D01*
X139585714Y-122871428D01*
X139300000Y-122871428D01*
X139071428Y-122814285D01*
X138957142Y-122757142D01*
X138900000Y-122700000D01*
X138842857Y-122585714D01*
X140042857Y-121671428D02*
X138842857Y-121671428D01*
X139585714Y-121557142D02*
X140042857Y-121214285D01*
X139242857Y-121214285D02*
X139700000Y-121671428D01*
X140042857Y-120757142D02*
X140042857Y-120471428D01*
X139814285Y-120471428D01*
X139757142Y-120585714D01*
X139642857Y-120700000D01*
X139471428Y-120757142D01*
X139185714Y-120757142D01*
X139014285Y-120700000D01*
X138900000Y-120585714D01*
X138842857Y-120414285D01*
X138842857Y-120185714D01*
X138900000Y-120014285D01*
X139014285Y-119900000D01*
X139185714Y-119842857D01*
X139471428Y-119842857D01*
X139642857Y-119900000D01*
X139757142Y-120014285D01*
X139814285Y-120128571D01*
X140042857Y-120128571D01*
X140042857Y-119842857D01*
X136542857Y-124471428D02*
X136542857Y-125157142D01*
X136542857Y-124814285D02*
X135342857Y-124814285D01*
X135514285Y-124928571D01*
X135628571Y-125042857D01*
X135685714Y-125157142D01*
X135342857Y-123728571D02*
X135342857Y-123614285D01*
X135400000Y-123500000D01*
X135457142Y-123442857D01*
X135571428Y-123385714D01*
X135800000Y-123328571D01*
X136085714Y-123328571D01*
X136314285Y-123385714D01*
X136428571Y-123442857D01*
X136485714Y-123500000D01*
X136542857Y-123614285D01*
X136542857Y-123728571D01*
X136485714Y-123842857D01*
X136428571Y-123900000D01*
X136314285Y-123957142D01*
X136085714Y-124014285D01*
X135800000Y-124014285D01*
X135571428Y-123957142D01*
X135457142Y-123900000D01*
X135400000Y-123842857D01*
X135342857Y-123728571D01*
X135342857Y-122585714D02*
X135342857Y-122471428D01*
X135400000Y-122357142D01*
X135457142Y-122300000D01*
X135571428Y-122242857D01*
X135800000Y-122185714D01*
X136085714Y-122185714D01*
X136314285Y-122242857D01*
X136428571Y-122300000D01*
X136485714Y-122357142D01*
X136542857Y-122471428D01*
X136542857Y-122585714D01*
X136485714Y-122700000D01*
X136428571Y-122757142D01*
X136314285Y-122814285D01*
X136085714Y-122871428D01*
X135800000Y-122871428D01*
X135571428Y-122814285D01*
X135457142Y-122757142D01*
X135400000Y-122700000D01*
X135342857Y-122585714D01*
X136542857Y-121671428D02*
X135342857Y-121671428D01*
X136085714Y-121557142D02*
X136542857Y-121214285D01*
X135742857Y-121214285D02*
X136200000Y-121671428D01*
X136542857Y-120757142D02*
X136542857Y-120471428D01*
X136314285Y-120471428D01*
X136257142Y-120585714D01*
X136142857Y-120700000D01*
X135971428Y-120757142D01*
X135685714Y-120757142D01*
X135514285Y-120700000D01*
X135400000Y-120585714D01*
X135342857Y-120414285D01*
X135342857Y-120185714D01*
X135400000Y-120014285D01*
X135514285Y-119900000D01*
X135685714Y-119842857D01*
X135971428Y-119842857D01*
X136142857Y-119900000D01*
X136257142Y-120014285D01*
X136314285Y-120128571D01*
X136542857Y-120128571D01*
X136542857Y-119842857D01*
X127542857Y-100735714D02*
X127542857Y-101421428D01*
X127542857Y-101078571D02*
X126342857Y-101078571D01*
X126514285Y-101192857D01*
X126628571Y-101307142D01*
X126685714Y-101421428D01*
X126342857Y-99707142D02*
X126342857Y-99935714D01*
X126400000Y-100050000D01*
X126457142Y-100107142D01*
X126628571Y-100221428D01*
X126857142Y-100278571D01*
X127314285Y-100278571D01*
X127428571Y-100221428D01*
X127485714Y-100164285D01*
X127542857Y-100050000D01*
X127542857Y-99821428D01*
X127485714Y-99707142D01*
X127428571Y-99650000D01*
X127314285Y-99592857D01*
X127028571Y-99592857D01*
X126914285Y-99650000D01*
X126857142Y-99707142D01*
X126800000Y-99821428D01*
X126800000Y-100050000D01*
X126857142Y-100164285D01*
X126914285Y-100221428D01*
X127028571Y-100278571D01*
X126342857Y-98850000D02*
X126342857Y-98735714D01*
X126400000Y-98621428D01*
X126457142Y-98564285D01*
X126571428Y-98507142D01*
X126800000Y-98450000D01*
X127085714Y-98450000D01*
X127314285Y-98507142D01*
X127428571Y-98564285D01*
X127485714Y-98621428D01*
X127542857Y-98735714D01*
X127542857Y-98850000D01*
X127485714Y-98964285D01*
X127428571Y-99021428D01*
X127314285Y-99078571D01*
X127085714Y-99135714D01*
X126800000Y-99135714D01*
X126571428Y-99078571D01*
X126457142Y-99021428D01*
X126400000Y-98964285D01*
X126342857Y-98850000D01*
X127542857Y-97992857D02*
X127542857Y-97707142D01*
X127314285Y-97707142D01*
X127257142Y-97821428D01*
X127142857Y-97935714D01*
X126971428Y-97992857D01*
X126685714Y-97992857D01*
X126514285Y-97935714D01*
X126400000Y-97821428D01*
X126342857Y-97650000D01*
X126342857Y-97421428D01*
X126400000Y-97250000D01*
X126514285Y-97135714D01*
X126685714Y-97078571D01*
X126971428Y-97078571D01*
X127142857Y-97135714D01*
X127257142Y-97250000D01*
X127314285Y-97364285D01*
X127542857Y-97364285D01*
X127542857Y-97078571D01*
X124042857Y-100485714D02*
X124042857Y-101171428D01*
X124042857Y-100828571D02*
X122842857Y-100828571D01*
X123014285Y-100942857D01*
X123128571Y-101057142D01*
X123185714Y-101171428D01*
X122842857Y-99457142D02*
X122842857Y-99685714D01*
X122900000Y-99800000D01*
X122957142Y-99857142D01*
X123128571Y-99971428D01*
X123357142Y-100028571D01*
X123814285Y-100028571D01*
X123928571Y-99971428D01*
X123985714Y-99914285D01*
X124042857Y-99800000D01*
X124042857Y-99571428D01*
X123985714Y-99457142D01*
X123928571Y-99400000D01*
X123814285Y-99342857D01*
X123528571Y-99342857D01*
X123414285Y-99400000D01*
X123357142Y-99457142D01*
X123300000Y-99571428D01*
X123300000Y-99800000D01*
X123357142Y-99914285D01*
X123414285Y-99971428D01*
X123528571Y-100028571D01*
X122842857Y-98600000D02*
X122842857Y-98485714D01*
X122900000Y-98371428D01*
X122957142Y-98314285D01*
X123071428Y-98257142D01*
X123300000Y-98200000D01*
X123585714Y-98200000D01*
X123814285Y-98257142D01*
X123928571Y-98314285D01*
X123985714Y-98371428D01*
X124042857Y-98485714D01*
X124042857Y-98600000D01*
X123985714Y-98714285D01*
X123928571Y-98771428D01*
X123814285Y-98828571D01*
X123585714Y-98885714D01*
X123300000Y-98885714D01*
X123071428Y-98828571D01*
X122957142Y-98771428D01*
X122900000Y-98714285D01*
X122842857Y-98600000D01*
X124042857Y-97742857D02*
X124042857Y-97457142D01*
X123814285Y-97457142D01*
X123757142Y-97571428D01*
X123642857Y-97685714D01*
X123471428Y-97742857D01*
X123185714Y-97742857D01*
X123014285Y-97685714D01*
X122900000Y-97571428D01*
X122842857Y-97400000D01*
X122842857Y-97171428D01*
X122900000Y-97000000D01*
X123014285Y-96885714D01*
X123185714Y-96828571D01*
X123471428Y-96828571D01*
X123642857Y-96885714D01*
X123757142Y-97000000D01*
X123814285Y-97114285D01*
X124042857Y-97114285D01*
X124042857Y-96828571D01*
X120542857Y-100485714D02*
X120542857Y-101171428D01*
X120542857Y-100828571D02*
X119342857Y-100828571D01*
X119514285Y-100942857D01*
X119628571Y-101057142D01*
X119685714Y-101171428D01*
X119342857Y-99457142D02*
X119342857Y-99685714D01*
X119400000Y-99800000D01*
X119457142Y-99857142D01*
X119628571Y-99971428D01*
X119857142Y-100028571D01*
X120314285Y-100028571D01*
X120428571Y-99971428D01*
X120485714Y-99914285D01*
X120542857Y-99800000D01*
X120542857Y-99571428D01*
X120485714Y-99457142D01*
X120428571Y-99400000D01*
X120314285Y-99342857D01*
X120028571Y-99342857D01*
X119914285Y-99400000D01*
X119857142Y-99457142D01*
X119800000Y-99571428D01*
X119800000Y-99800000D01*
X119857142Y-99914285D01*
X119914285Y-99971428D01*
X120028571Y-100028571D01*
X119342857Y-98600000D02*
X119342857Y-98485714D01*
X119400000Y-98371428D01*
X119457142Y-98314285D01*
X119571428Y-98257142D01*
X119800000Y-98200000D01*
X120085714Y-98200000D01*
X120314285Y-98257142D01*
X120428571Y-98314285D01*
X120485714Y-98371428D01*
X120542857Y-98485714D01*
X120542857Y-98600000D01*
X120485714Y-98714285D01*
X120428571Y-98771428D01*
X120314285Y-98828571D01*
X120085714Y-98885714D01*
X119800000Y-98885714D01*
X119571428Y-98828571D01*
X119457142Y-98771428D01*
X119400000Y-98714285D01*
X119342857Y-98600000D01*
X120542857Y-97742857D02*
X120542857Y-97457142D01*
X120314285Y-97457142D01*
X120257142Y-97571428D01*
X120142857Y-97685714D01*
X119971428Y-97742857D01*
X119685714Y-97742857D01*
X119514285Y-97685714D01*
X119400000Y-97571428D01*
X119342857Y-97400000D01*
X119342857Y-97171428D01*
X119400000Y-97000000D01*
X119514285Y-96885714D01*
X119685714Y-96828571D01*
X119971428Y-96828571D01*
X120142857Y-96885714D01*
X120257142Y-97000000D01*
X120314285Y-97114285D01*
X120542857Y-97114285D01*
X120542857Y-96828571D01*
X117042857Y-100485714D02*
X117042857Y-101171428D01*
X117042857Y-100828571D02*
X115842857Y-100828571D01*
X116014285Y-100942857D01*
X116128571Y-101057142D01*
X116185714Y-101171428D01*
X115842857Y-99457142D02*
X115842857Y-99685714D01*
X115900000Y-99800000D01*
X115957142Y-99857142D01*
X116128571Y-99971428D01*
X116357142Y-100028571D01*
X116814285Y-100028571D01*
X116928571Y-99971428D01*
X116985714Y-99914285D01*
X117042857Y-99800000D01*
X117042857Y-99571428D01*
X116985714Y-99457142D01*
X116928571Y-99400000D01*
X116814285Y-99342857D01*
X116528571Y-99342857D01*
X116414285Y-99400000D01*
X116357142Y-99457142D01*
X116300000Y-99571428D01*
X116300000Y-99800000D01*
X116357142Y-99914285D01*
X116414285Y-99971428D01*
X116528571Y-100028571D01*
X115842857Y-98600000D02*
X115842857Y-98485714D01*
X115900000Y-98371428D01*
X115957142Y-98314285D01*
X116071428Y-98257142D01*
X116300000Y-98200000D01*
X116585714Y-98200000D01*
X116814285Y-98257142D01*
X116928571Y-98314285D01*
X116985714Y-98371428D01*
X117042857Y-98485714D01*
X117042857Y-98600000D01*
X116985714Y-98714285D01*
X116928571Y-98771428D01*
X116814285Y-98828571D01*
X116585714Y-98885714D01*
X116300000Y-98885714D01*
X116071428Y-98828571D01*
X115957142Y-98771428D01*
X115900000Y-98714285D01*
X115842857Y-98600000D01*
X117042857Y-97742857D02*
X117042857Y-97457142D01*
X116814285Y-97457142D01*
X116757142Y-97571428D01*
X116642857Y-97685714D01*
X116471428Y-97742857D01*
X116185714Y-97742857D01*
X116014285Y-97685714D01*
X115900000Y-97571428D01*
X115842857Y-97400000D01*
X115842857Y-97171428D01*
X115900000Y-97000000D01*
X116014285Y-96885714D01*
X116185714Y-96828571D01*
X116471428Y-96828571D01*
X116642857Y-96885714D01*
X116757142Y-97000000D01*
X116814285Y-97114285D01*
X117042857Y-97114285D01*
X117042857Y-96828571D01*
X113542857Y-100485714D02*
X113542857Y-101171428D01*
X113542857Y-100828571D02*
X112342857Y-100828571D01*
X112514285Y-100942857D01*
X112628571Y-101057142D01*
X112685714Y-101171428D01*
X112342857Y-99457142D02*
X112342857Y-99685714D01*
X112400000Y-99800000D01*
X112457142Y-99857142D01*
X112628571Y-99971428D01*
X112857142Y-100028571D01*
X113314285Y-100028571D01*
X113428571Y-99971428D01*
X113485714Y-99914285D01*
X113542857Y-99800000D01*
X113542857Y-99571428D01*
X113485714Y-99457142D01*
X113428571Y-99400000D01*
X113314285Y-99342857D01*
X113028571Y-99342857D01*
X112914285Y-99400000D01*
X112857142Y-99457142D01*
X112800000Y-99571428D01*
X112800000Y-99800000D01*
X112857142Y-99914285D01*
X112914285Y-99971428D01*
X113028571Y-100028571D01*
X112342857Y-98600000D02*
X112342857Y-98485714D01*
X112400000Y-98371428D01*
X112457142Y-98314285D01*
X112571428Y-98257142D01*
X112800000Y-98200000D01*
X113085714Y-98200000D01*
X113314285Y-98257142D01*
X113428571Y-98314285D01*
X113485714Y-98371428D01*
X113542857Y-98485714D01*
X113542857Y-98600000D01*
X113485714Y-98714285D01*
X113428571Y-98771428D01*
X113314285Y-98828571D01*
X113085714Y-98885714D01*
X112800000Y-98885714D01*
X112571428Y-98828571D01*
X112457142Y-98771428D01*
X112400000Y-98714285D01*
X112342857Y-98600000D01*
X113542857Y-97742857D02*
X113542857Y-97457142D01*
X113314285Y-97457142D01*
X113257142Y-97571428D01*
X113142857Y-97685714D01*
X112971428Y-97742857D01*
X112685714Y-97742857D01*
X112514285Y-97685714D01*
X112400000Y-97571428D01*
X112342857Y-97400000D01*
X112342857Y-97171428D01*
X112400000Y-97000000D01*
X112514285Y-96885714D01*
X112685714Y-96828571D01*
X112971428Y-96828571D01*
X113142857Y-96885714D01*
X113257142Y-97000000D01*
X113314285Y-97114285D01*
X113542857Y-97114285D01*
X113542857Y-96828571D01*
X88542857Y-100735714D02*
X88542857Y-101421428D01*
X88542857Y-101078571D02*
X87342857Y-101078571D01*
X87514285Y-101192857D01*
X87628571Y-101307142D01*
X87685714Y-101421428D01*
X87342857Y-99707142D02*
X87342857Y-99935714D01*
X87400000Y-100050000D01*
X87457142Y-100107142D01*
X87628571Y-100221428D01*
X87857142Y-100278571D01*
X88314285Y-100278571D01*
X88428571Y-100221428D01*
X88485714Y-100164285D01*
X88542857Y-100050000D01*
X88542857Y-99821428D01*
X88485714Y-99707142D01*
X88428571Y-99650000D01*
X88314285Y-99592857D01*
X88028571Y-99592857D01*
X87914285Y-99650000D01*
X87857142Y-99707142D01*
X87800000Y-99821428D01*
X87800000Y-100050000D01*
X87857142Y-100164285D01*
X87914285Y-100221428D01*
X88028571Y-100278571D01*
X87342857Y-98850000D02*
X87342857Y-98735714D01*
X87400000Y-98621428D01*
X87457142Y-98564285D01*
X87571428Y-98507142D01*
X87800000Y-98450000D01*
X88085714Y-98450000D01*
X88314285Y-98507142D01*
X88428571Y-98564285D01*
X88485714Y-98621428D01*
X88542857Y-98735714D01*
X88542857Y-98850000D01*
X88485714Y-98964285D01*
X88428571Y-99021428D01*
X88314285Y-99078571D01*
X88085714Y-99135714D01*
X87800000Y-99135714D01*
X87571428Y-99078571D01*
X87457142Y-99021428D01*
X87400000Y-98964285D01*
X87342857Y-98850000D01*
X88542857Y-97992857D02*
X88542857Y-97707142D01*
X88314285Y-97707142D01*
X88257142Y-97821428D01*
X88142857Y-97935714D01*
X87971428Y-97992857D01*
X87685714Y-97992857D01*
X87514285Y-97935714D01*
X87400000Y-97821428D01*
X87342857Y-97650000D01*
X87342857Y-97421428D01*
X87400000Y-97250000D01*
X87514285Y-97135714D01*
X87685714Y-97078571D01*
X87971428Y-97078571D01*
X88142857Y-97135714D01*
X88257142Y-97250000D01*
X88314285Y-97364285D01*
X88542857Y-97364285D01*
X88542857Y-97078571D01*
X85042857Y-100735714D02*
X85042857Y-101421428D01*
X85042857Y-101078571D02*
X83842857Y-101078571D01*
X84014285Y-101192857D01*
X84128571Y-101307142D01*
X84185714Y-101421428D01*
X83842857Y-99707142D02*
X83842857Y-99935714D01*
X83900000Y-100050000D01*
X83957142Y-100107142D01*
X84128571Y-100221428D01*
X84357142Y-100278571D01*
X84814285Y-100278571D01*
X84928571Y-100221428D01*
X84985714Y-100164285D01*
X85042857Y-100050000D01*
X85042857Y-99821428D01*
X84985714Y-99707142D01*
X84928571Y-99650000D01*
X84814285Y-99592857D01*
X84528571Y-99592857D01*
X84414285Y-99650000D01*
X84357142Y-99707142D01*
X84300000Y-99821428D01*
X84300000Y-100050000D01*
X84357142Y-100164285D01*
X84414285Y-100221428D01*
X84528571Y-100278571D01*
X83842857Y-98850000D02*
X83842857Y-98735714D01*
X83900000Y-98621428D01*
X83957142Y-98564285D01*
X84071428Y-98507142D01*
X84300000Y-98450000D01*
X84585714Y-98450000D01*
X84814285Y-98507142D01*
X84928571Y-98564285D01*
X84985714Y-98621428D01*
X85042857Y-98735714D01*
X85042857Y-98850000D01*
X84985714Y-98964285D01*
X84928571Y-99021428D01*
X84814285Y-99078571D01*
X84585714Y-99135714D01*
X84300000Y-99135714D01*
X84071428Y-99078571D01*
X83957142Y-99021428D01*
X83900000Y-98964285D01*
X83842857Y-98850000D01*
X85042857Y-97992857D02*
X85042857Y-97707142D01*
X84814285Y-97707142D01*
X84757142Y-97821428D01*
X84642857Y-97935714D01*
X84471428Y-97992857D01*
X84185714Y-97992857D01*
X84014285Y-97935714D01*
X83900000Y-97821428D01*
X83842857Y-97650000D01*
X83842857Y-97421428D01*
X83900000Y-97250000D01*
X84014285Y-97135714D01*
X84185714Y-97078571D01*
X84471428Y-97078571D01*
X84642857Y-97135714D01*
X84757142Y-97250000D01*
X84814285Y-97364285D01*
X85042857Y-97364285D01*
X85042857Y-97078571D01*
X81292857Y-100685714D02*
X81292857Y-101371428D01*
X81292857Y-101028571D02*
X80092857Y-101028571D01*
X80264285Y-101142857D01*
X80378571Y-101257142D01*
X80435714Y-101371428D01*
X80092857Y-99657142D02*
X80092857Y-99885714D01*
X80150000Y-100000000D01*
X80207142Y-100057142D01*
X80378571Y-100171428D01*
X80607142Y-100228571D01*
X81064285Y-100228571D01*
X81178571Y-100171428D01*
X81235714Y-100114285D01*
X81292857Y-100000000D01*
X81292857Y-99771428D01*
X81235714Y-99657142D01*
X81178571Y-99600000D01*
X81064285Y-99542857D01*
X80778571Y-99542857D01*
X80664285Y-99600000D01*
X80607142Y-99657142D01*
X80550000Y-99771428D01*
X80550000Y-100000000D01*
X80607142Y-100114285D01*
X80664285Y-100171428D01*
X80778571Y-100228571D01*
X80092857Y-98800000D02*
X80092857Y-98685714D01*
X80150000Y-98571428D01*
X80207142Y-98514285D01*
X80321428Y-98457142D01*
X80550000Y-98400000D01*
X80835714Y-98400000D01*
X81064285Y-98457142D01*
X81178571Y-98514285D01*
X81235714Y-98571428D01*
X81292857Y-98685714D01*
X81292857Y-98800000D01*
X81235714Y-98914285D01*
X81178571Y-98971428D01*
X81064285Y-99028571D01*
X80835714Y-99085714D01*
X80550000Y-99085714D01*
X80321428Y-99028571D01*
X80207142Y-98971428D01*
X80150000Y-98914285D01*
X80092857Y-98800000D01*
X81292857Y-97942857D02*
X81292857Y-97657142D01*
X81064285Y-97657142D01*
X81007142Y-97771428D01*
X80892857Y-97885714D01*
X80721428Y-97942857D01*
X80435714Y-97942857D01*
X80264285Y-97885714D01*
X80150000Y-97771428D01*
X80092857Y-97600000D01*
X80092857Y-97371428D01*
X80150000Y-97200000D01*
X80264285Y-97085714D01*
X80435714Y-97028571D01*
X80721428Y-97028571D01*
X80892857Y-97085714D01*
X81007142Y-97200000D01*
X81064285Y-97314285D01*
X81292857Y-97314285D01*
X81292857Y-97028571D01*
D11*
%TO.C,U2*%
X148738095Y-88402380D02*
X148738095Y-89211904D01*
X148785714Y-89307142D01*
X148833333Y-89354761D01*
X148928571Y-89402380D01*
X149119047Y-89402380D01*
X149214285Y-89354761D01*
X149261904Y-89307142D01*
X149309523Y-89211904D01*
X149309523Y-88402380D01*
X149738095Y-88497619D02*
X149785714Y-88450000D01*
X149880952Y-88402380D01*
X150119047Y-88402380D01*
X150214285Y-88450000D01*
X150261904Y-88497619D01*
X150309523Y-88592857D01*
X150309523Y-88688095D01*
X150261904Y-88830952D01*
X149690476Y-89402380D01*
X150309523Y-89402380D01*
%TO.C,R10*%
X138957142Y-132652380D02*
X138623809Y-132176190D01*
X138385714Y-132652380D02*
X138385714Y-131652380D01*
X138766666Y-131652380D01*
X138861904Y-131700000D01*
X138909523Y-131747619D01*
X138957142Y-131842857D01*
X138957142Y-131985714D01*
X138909523Y-132080952D01*
X138861904Y-132128571D01*
X138766666Y-132176190D01*
X138385714Y-132176190D01*
X139909523Y-132652380D02*
X139338095Y-132652380D01*
X139623809Y-132652380D02*
X139623809Y-131652380D01*
X139528571Y-131795238D01*
X139433333Y-131890476D01*
X139338095Y-131938095D01*
X140528571Y-131652380D02*
X140623809Y-131652380D01*
X140719047Y-131700000D01*
X140766666Y-131747619D01*
X140814285Y-131842857D01*
X140861904Y-132033333D01*
X140861904Y-132271428D01*
X140814285Y-132461904D01*
X140766666Y-132557142D01*
X140719047Y-132604761D01*
X140623809Y-132652380D01*
X140528571Y-132652380D01*
X140433333Y-132604761D01*
X140385714Y-132557142D01*
X140338095Y-132461904D01*
X140290476Y-132271428D01*
X140290476Y-132033333D01*
X140338095Y-131842857D01*
X140385714Y-131747619D01*
X140433333Y-131700000D01*
X140528571Y-131652380D01*
%TO.C,R9*%
X135833333Y-132652380D02*
X135500000Y-132176190D01*
X135261904Y-132652380D02*
X135261904Y-131652380D01*
X135642857Y-131652380D01*
X135738095Y-131700000D01*
X135785714Y-131747619D01*
X135833333Y-131842857D01*
X135833333Y-131985714D01*
X135785714Y-132080952D01*
X135738095Y-132128571D01*
X135642857Y-132176190D01*
X135261904Y-132176190D01*
X136309523Y-132652380D02*
X136500000Y-132652380D01*
X136595238Y-132604761D01*
X136642857Y-132557142D01*
X136738095Y-132414285D01*
X136785714Y-132223809D01*
X136785714Y-131842857D01*
X136738095Y-131747619D01*
X136690476Y-131700000D01*
X136595238Y-131652380D01*
X136404761Y-131652380D01*
X136309523Y-131700000D01*
X136261904Y-131747619D01*
X136214285Y-131842857D01*
X136214285Y-132080952D01*
X136261904Y-132176190D01*
X136309523Y-132223809D01*
X136404761Y-132271428D01*
X136595238Y-132271428D01*
X136690476Y-132223809D01*
X136738095Y-132176190D01*
X136785714Y-132080952D01*
%TO.C,R11*%
X142357142Y-132652380D02*
X142023809Y-132176190D01*
X141785714Y-132652380D02*
X141785714Y-131652380D01*
X142166666Y-131652380D01*
X142261904Y-131700000D01*
X142309523Y-131747619D01*
X142357142Y-131842857D01*
X142357142Y-131985714D01*
X142309523Y-132080952D01*
X142261904Y-132128571D01*
X142166666Y-132176190D01*
X141785714Y-132176190D01*
X143309523Y-132652380D02*
X142738095Y-132652380D01*
X143023809Y-132652380D02*
X143023809Y-131652380D01*
X142928571Y-131795238D01*
X142833333Y-131890476D01*
X142738095Y-131938095D01*
X144261904Y-132652380D02*
X143690476Y-132652380D01*
X143976190Y-132652380D02*
X143976190Y-131652380D01*
X143880952Y-131795238D01*
X143785714Y-131890476D01*
X143690476Y-131938095D01*
%TO.C,R13*%
X153757142Y-132652380D02*
X153423809Y-132176190D01*
X153185714Y-132652380D02*
X153185714Y-131652380D01*
X153566666Y-131652380D01*
X153661904Y-131700000D01*
X153709523Y-131747619D01*
X153757142Y-131842857D01*
X153757142Y-131985714D01*
X153709523Y-132080952D01*
X153661904Y-132128571D01*
X153566666Y-132176190D01*
X153185714Y-132176190D01*
X154709523Y-132652380D02*
X154138095Y-132652380D01*
X154423809Y-132652380D02*
X154423809Y-131652380D01*
X154328571Y-131795238D01*
X154233333Y-131890476D01*
X154138095Y-131938095D01*
X155042857Y-131652380D02*
X155661904Y-131652380D01*
X155328571Y-132033333D01*
X155471428Y-132033333D01*
X155566666Y-132080952D01*
X155614285Y-132128571D01*
X155661904Y-132223809D01*
X155661904Y-132461904D01*
X155614285Y-132557142D01*
X155566666Y-132604761D01*
X155471428Y-132652380D01*
X155185714Y-132652380D01*
X155090476Y-132604761D01*
X155042857Y-132557142D01*
%TO.C,R12*%
X145757142Y-132652380D02*
X145423809Y-132176190D01*
X145185714Y-132652380D02*
X145185714Y-131652380D01*
X145566666Y-131652380D01*
X145661904Y-131700000D01*
X145709523Y-131747619D01*
X145757142Y-131842857D01*
X145757142Y-131985714D01*
X145709523Y-132080952D01*
X145661904Y-132128571D01*
X145566666Y-132176190D01*
X145185714Y-132176190D01*
X146709523Y-132652380D02*
X146138095Y-132652380D01*
X146423809Y-132652380D02*
X146423809Y-131652380D01*
X146328571Y-131795238D01*
X146233333Y-131890476D01*
X146138095Y-131938095D01*
X147090476Y-131747619D02*
X147138095Y-131700000D01*
X147233333Y-131652380D01*
X147471428Y-131652380D01*
X147566666Y-131700000D01*
X147614285Y-131747619D01*
X147661904Y-131842857D01*
X147661904Y-131938095D01*
X147614285Y-132080952D01*
X147042857Y-132652380D01*
X147661904Y-132652380D01*
%TO.C,R14*%
X166357142Y-132552380D02*
X166023809Y-132076190D01*
X165785714Y-132552380D02*
X165785714Y-131552380D01*
X166166666Y-131552380D01*
X166261904Y-131600000D01*
X166309523Y-131647619D01*
X166357142Y-131742857D01*
X166357142Y-131885714D01*
X166309523Y-131980952D01*
X166261904Y-132028571D01*
X166166666Y-132076190D01*
X165785714Y-132076190D01*
X167309523Y-132552380D02*
X166738095Y-132552380D01*
X167023809Y-132552380D02*
X167023809Y-131552380D01*
X166928571Y-131695238D01*
X166833333Y-131790476D01*
X166738095Y-131838095D01*
X168166666Y-131885714D02*
X168166666Y-132552380D01*
X167928571Y-131504761D02*
X167690476Y-132219047D01*
X168309523Y-132219047D01*
%TO.C,R8*%
X126452380Y-104166666D02*
X125976190Y-104500000D01*
X126452380Y-104738095D02*
X125452380Y-104738095D01*
X125452380Y-104357142D01*
X125500000Y-104261904D01*
X125547619Y-104214285D01*
X125642857Y-104166666D01*
X125785714Y-104166666D01*
X125880952Y-104214285D01*
X125928571Y-104261904D01*
X125976190Y-104357142D01*
X125976190Y-104738095D01*
X125880952Y-103595238D02*
X125833333Y-103690476D01*
X125785714Y-103738095D01*
X125690476Y-103785714D01*
X125642857Y-103785714D01*
X125547619Y-103738095D01*
X125500000Y-103690476D01*
X125452380Y-103595238D01*
X125452380Y-103404761D01*
X125500000Y-103309523D01*
X125547619Y-103261904D01*
X125642857Y-103214285D01*
X125690476Y-103214285D01*
X125785714Y-103261904D01*
X125833333Y-103309523D01*
X125880952Y-103404761D01*
X125880952Y-103595238D01*
X125928571Y-103690476D01*
X125976190Y-103738095D01*
X126071428Y-103785714D01*
X126261904Y-103785714D01*
X126357142Y-103738095D01*
X126404761Y-103690476D01*
X126452380Y-103595238D01*
X126452380Y-103404761D01*
X126404761Y-103309523D01*
X126357142Y-103261904D01*
X126261904Y-103214285D01*
X126071428Y-103214285D01*
X125976190Y-103261904D01*
X125928571Y-103309523D01*
X125880952Y-103404761D01*
%TO.C,Q6*%
X158404761Y-126547619D02*
X158309523Y-126500000D01*
X158214285Y-126404761D01*
X158071428Y-126261904D01*
X157976190Y-126214285D01*
X157880952Y-126214285D01*
X157928571Y-126452380D02*
X157833333Y-126404761D01*
X157738095Y-126309523D01*
X157690476Y-126119047D01*
X157690476Y-125785714D01*
X157738095Y-125595238D01*
X157833333Y-125500000D01*
X157928571Y-125452380D01*
X158119047Y-125452380D01*
X158214285Y-125500000D01*
X158309523Y-125595238D01*
X158357142Y-125785714D01*
X158357142Y-126119047D01*
X158309523Y-126309523D01*
X158214285Y-126404761D01*
X158119047Y-126452380D01*
X157928571Y-126452380D01*
X159214285Y-125452380D02*
X159023809Y-125452380D01*
X158928571Y-125500000D01*
X158880952Y-125547619D01*
X158785714Y-125690476D01*
X158738095Y-125880952D01*
X158738095Y-126261904D01*
X158785714Y-126357142D01*
X158833333Y-126404761D01*
X158928571Y-126452380D01*
X159119047Y-126452380D01*
X159214285Y-126404761D01*
X159261904Y-126357142D01*
X159309523Y-126261904D01*
X159309523Y-126023809D01*
X159261904Y-125928571D01*
X159214285Y-125880952D01*
X159119047Y-125833333D01*
X158928571Y-125833333D01*
X158833333Y-125880952D01*
X158785714Y-125928571D01*
X158738095Y-126023809D01*
%TO.C,R2*%
X83952380Y-104166666D02*
X83476190Y-104500000D01*
X83952380Y-104738095D02*
X82952380Y-104738095D01*
X82952380Y-104357142D01*
X83000000Y-104261904D01*
X83047619Y-104214285D01*
X83142857Y-104166666D01*
X83285714Y-104166666D01*
X83380952Y-104214285D01*
X83428571Y-104261904D01*
X83476190Y-104357142D01*
X83476190Y-104738095D01*
X83047619Y-103785714D02*
X83000000Y-103738095D01*
X82952380Y-103642857D01*
X82952380Y-103404761D01*
X83000000Y-103309523D01*
X83047619Y-103261904D01*
X83142857Y-103214285D01*
X83238095Y-103214285D01*
X83380952Y-103261904D01*
X83952380Y-103833333D01*
X83952380Y-103214285D01*
%TO.C,U4*%
X105168095Y-65952380D02*
X105168095Y-66761904D01*
X105215714Y-66857142D01*
X105263333Y-66904761D01*
X105358571Y-66952380D01*
X105549047Y-66952380D01*
X105644285Y-66904761D01*
X105691904Y-66857142D01*
X105739523Y-66761904D01*
X105739523Y-65952380D01*
X106644285Y-66285714D02*
X106644285Y-66952380D01*
X106406190Y-65904761D02*
X106168095Y-66619047D01*
X106787142Y-66619047D01*
%TO.C,U3*%
X79768095Y-65952380D02*
X79768095Y-66761904D01*
X79815714Y-66857142D01*
X79863333Y-66904761D01*
X79958571Y-66952380D01*
X80149047Y-66952380D01*
X80244285Y-66904761D01*
X80291904Y-66857142D01*
X80339523Y-66761904D01*
X80339523Y-65952380D01*
X80720476Y-65952380D02*
X81339523Y-65952380D01*
X81006190Y-66333333D01*
X81149047Y-66333333D01*
X81244285Y-66380952D01*
X81291904Y-66428571D01*
X81339523Y-66523809D01*
X81339523Y-66761904D01*
X81291904Y-66857142D01*
X81244285Y-66904761D01*
X81149047Y-66952380D01*
X80863333Y-66952380D01*
X80768095Y-66904761D01*
X80720476Y-66857142D01*
%TO.C,Q7*%
X162904761Y-127047619D02*
X162809523Y-127000000D01*
X162714285Y-126904761D01*
X162571428Y-126761904D01*
X162476190Y-126714285D01*
X162380952Y-126714285D01*
X162428571Y-126952380D02*
X162333333Y-126904761D01*
X162238095Y-126809523D01*
X162190476Y-126619047D01*
X162190476Y-126285714D01*
X162238095Y-126095238D01*
X162333333Y-126000000D01*
X162428571Y-125952380D01*
X162619047Y-125952380D01*
X162714285Y-126000000D01*
X162809523Y-126095238D01*
X162857142Y-126285714D01*
X162857142Y-126619047D01*
X162809523Y-126809523D01*
X162714285Y-126904761D01*
X162619047Y-126952380D01*
X162428571Y-126952380D01*
X163190476Y-125952380D02*
X163857142Y-125952380D01*
X163428571Y-126952380D01*
%TO.C,Q4*%
X120334761Y-60147619D02*
X120239523Y-60100000D01*
X120144285Y-60004761D01*
X120001428Y-59861904D01*
X119906190Y-59814285D01*
X119810952Y-59814285D01*
X119858571Y-60052380D02*
X119763333Y-60004761D01*
X119668095Y-59909523D01*
X119620476Y-59719047D01*
X119620476Y-59385714D01*
X119668095Y-59195238D01*
X119763333Y-59100000D01*
X119858571Y-59052380D01*
X120049047Y-59052380D01*
X120144285Y-59100000D01*
X120239523Y-59195238D01*
X120287142Y-59385714D01*
X120287142Y-59719047D01*
X120239523Y-59909523D01*
X120144285Y-60004761D01*
X120049047Y-60052380D01*
X119858571Y-60052380D01*
X121144285Y-59385714D02*
X121144285Y-60052380D01*
X120906190Y-59004761D02*
X120668095Y-59719047D01*
X121287142Y-59719047D01*
%TO.C,Q3*%
X114934761Y-60147619D02*
X114839523Y-60100000D01*
X114744285Y-60004761D01*
X114601428Y-59861904D01*
X114506190Y-59814285D01*
X114410952Y-59814285D01*
X114458571Y-60052380D02*
X114363333Y-60004761D01*
X114268095Y-59909523D01*
X114220476Y-59719047D01*
X114220476Y-59385714D01*
X114268095Y-59195238D01*
X114363333Y-59100000D01*
X114458571Y-59052380D01*
X114649047Y-59052380D01*
X114744285Y-59100000D01*
X114839523Y-59195238D01*
X114887142Y-59385714D01*
X114887142Y-59719047D01*
X114839523Y-59909523D01*
X114744285Y-60004761D01*
X114649047Y-60052380D01*
X114458571Y-60052380D01*
X115220476Y-59052380D02*
X115839523Y-59052380D01*
X115506190Y-59433333D01*
X115649047Y-59433333D01*
X115744285Y-59480952D01*
X115791904Y-59528571D01*
X115839523Y-59623809D01*
X115839523Y-59861904D01*
X115791904Y-59957142D01*
X115744285Y-60004761D01*
X115649047Y-60052380D01*
X115363333Y-60052380D01*
X115268095Y-60004761D01*
X115220476Y-59957142D01*
%TO.C,Q1*%
X89934761Y-60147619D02*
X89839523Y-60100000D01*
X89744285Y-60004761D01*
X89601428Y-59861904D01*
X89506190Y-59814285D01*
X89410952Y-59814285D01*
X89458571Y-60052380D02*
X89363333Y-60004761D01*
X89268095Y-59909523D01*
X89220476Y-59719047D01*
X89220476Y-59385714D01*
X89268095Y-59195238D01*
X89363333Y-59100000D01*
X89458571Y-59052380D01*
X89649047Y-59052380D01*
X89744285Y-59100000D01*
X89839523Y-59195238D01*
X89887142Y-59385714D01*
X89887142Y-59719047D01*
X89839523Y-59909523D01*
X89744285Y-60004761D01*
X89649047Y-60052380D01*
X89458571Y-60052380D01*
X90839523Y-60052380D02*
X90268095Y-60052380D01*
X90553809Y-60052380D02*
X90553809Y-59052380D01*
X90458571Y-59195238D01*
X90363333Y-59290476D01*
X90268095Y-59338095D01*
%TO.C,U1*%
X129238095Y-132952380D02*
X129238095Y-133761904D01*
X129285714Y-133857142D01*
X129333333Y-133904761D01*
X129428571Y-133952380D01*
X129619047Y-133952380D01*
X129714285Y-133904761D01*
X129761904Y-133857142D01*
X129809523Y-133761904D01*
X129809523Y-132952380D01*
X130809523Y-133952380D02*
X130238095Y-133952380D01*
X130523809Y-133952380D02*
X130523809Y-132952380D01*
X130428571Y-133095238D01*
X130333333Y-133190476D01*
X130238095Y-133238095D01*
%TO.C,R5*%
X115952380Y-104166666D02*
X115476190Y-104500000D01*
X115952380Y-104738095D02*
X114952380Y-104738095D01*
X114952380Y-104357142D01*
X115000000Y-104261904D01*
X115047619Y-104214285D01*
X115142857Y-104166666D01*
X115285714Y-104166666D01*
X115380952Y-104214285D01*
X115428571Y-104261904D01*
X115476190Y-104357142D01*
X115476190Y-104738095D01*
X114952380Y-103261904D02*
X114952380Y-103738095D01*
X115428571Y-103785714D01*
X115380952Y-103738095D01*
X115333333Y-103642857D01*
X115333333Y-103404761D01*
X115380952Y-103309523D01*
X115428571Y-103261904D01*
X115523809Y-103214285D01*
X115761904Y-103214285D01*
X115857142Y-103261904D01*
X115904761Y-103309523D01*
X115952380Y-103404761D01*
X115952380Y-103642857D01*
X115904761Y-103738095D01*
X115857142Y-103785714D01*
%TO.C,R3*%
X87452380Y-104166666D02*
X86976190Y-104500000D01*
X87452380Y-104738095D02*
X86452380Y-104738095D01*
X86452380Y-104357142D01*
X86500000Y-104261904D01*
X86547619Y-104214285D01*
X86642857Y-104166666D01*
X86785714Y-104166666D01*
X86880952Y-104214285D01*
X86928571Y-104261904D01*
X86976190Y-104357142D01*
X86976190Y-104738095D01*
X86452380Y-103833333D02*
X86452380Y-103214285D01*
X86833333Y-103547619D01*
X86833333Y-103404761D01*
X86880952Y-103309523D01*
X86928571Y-103261904D01*
X87023809Y-103214285D01*
X87261904Y-103214285D01*
X87357142Y-103261904D01*
X87404761Y-103309523D01*
X87452380Y-103404761D01*
X87452380Y-103690476D01*
X87404761Y-103785714D01*
X87357142Y-103833333D01*
%TO.C,R4*%
X112452380Y-104166666D02*
X111976190Y-104500000D01*
X112452380Y-104738095D02*
X111452380Y-104738095D01*
X111452380Y-104357142D01*
X111500000Y-104261904D01*
X111547619Y-104214285D01*
X111642857Y-104166666D01*
X111785714Y-104166666D01*
X111880952Y-104214285D01*
X111928571Y-104261904D01*
X111976190Y-104357142D01*
X111976190Y-104738095D01*
X111785714Y-103309523D02*
X112452380Y-103309523D01*
X111404761Y-103547619D02*
X112119047Y-103785714D01*
X112119047Y-103166666D01*
%TO.C,R6*%
X119452380Y-104166666D02*
X118976190Y-104500000D01*
X119452380Y-104738095D02*
X118452380Y-104738095D01*
X118452380Y-104357142D01*
X118500000Y-104261904D01*
X118547619Y-104214285D01*
X118642857Y-104166666D01*
X118785714Y-104166666D01*
X118880952Y-104214285D01*
X118928571Y-104261904D01*
X118976190Y-104357142D01*
X118976190Y-104738095D01*
X118452380Y-103309523D02*
X118452380Y-103500000D01*
X118500000Y-103595238D01*
X118547619Y-103642857D01*
X118690476Y-103738095D01*
X118880952Y-103785714D01*
X119261904Y-103785714D01*
X119357142Y-103738095D01*
X119404761Y-103690476D01*
X119452380Y-103595238D01*
X119452380Y-103404761D01*
X119404761Y-103309523D01*
X119357142Y-103261904D01*
X119261904Y-103214285D01*
X119023809Y-103214285D01*
X118928571Y-103261904D01*
X118880952Y-103309523D01*
X118833333Y-103404761D01*
X118833333Y-103595238D01*
X118880952Y-103690476D01*
X118928571Y-103738095D01*
X119023809Y-103785714D01*
%TO.C,R7*%
X122952380Y-104166666D02*
X122476190Y-104500000D01*
X122952380Y-104738095D02*
X121952380Y-104738095D01*
X121952380Y-104357142D01*
X122000000Y-104261904D01*
X122047619Y-104214285D01*
X122142857Y-104166666D01*
X122285714Y-104166666D01*
X122380952Y-104214285D01*
X122428571Y-104261904D01*
X122476190Y-104357142D01*
X122476190Y-104738095D01*
X121952380Y-103833333D02*
X121952380Y-103166666D01*
X122952380Y-103595238D01*
%TO.C,Q5*%
X150404761Y-126547619D02*
X150309523Y-126500000D01*
X150214285Y-126404761D01*
X150071428Y-126261904D01*
X149976190Y-126214285D01*
X149880952Y-126214285D01*
X149928571Y-126452380D02*
X149833333Y-126404761D01*
X149738095Y-126309523D01*
X149690476Y-126119047D01*
X149690476Y-125785714D01*
X149738095Y-125595238D01*
X149833333Y-125500000D01*
X149928571Y-125452380D01*
X150119047Y-125452380D01*
X150214285Y-125500000D01*
X150309523Y-125595238D01*
X150357142Y-125785714D01*
X150357142Y-126119047D01*
X150309523Y-126309523D01*
X150214285Y-126404761D01*
X150119047Y-126452380D01*
X149928571Y-126452380D01*
X151261904Y-125452380D02*
X150785714Y-125452380D01*
X150738095Y-125928571D01*
X150785714Y-125880952D01*
X150880952Y-125833333D01*
X151119047Y-125833333D01*
X151214285Y-125880952D01*
X151261904Y-125928571D01*
X151309523Y-126023809D01*
X151309523Y-126261904D01*
X151261904Y-126357142D01*
X151214285Y-126404761D01*
X151119047Y-126452380D01*
X150880952Y-126452380D01*
X150785714Y-126404761D01*
X150738095Y-126357142D01*
%TO.C,Q2*%
X97534761Y-60147619D02*
X97439523Y-60100000D01*
X97344285Y-60004761D01*
X97201428Y-59861904D01*
X97106190Y-59814285D01*
X97010952Y-59814285D01*
X97058571Y-60052380D02*
X96963333Y-60004761D01*
X96868095Y-59909523D01*
X96820476Y-59719047D01*
X96820476Y-59385714D01*
X96868095Y-59195238D01*
X96963333Y-59100000D01*
X97058571Y-59052380D01*
X97249047Y-59052380D01*
X97344285Y-59100000D01*
X97439523Y-59195238D01*
X97487142Y-59385714D01*
X97487142Y-59719047D01*
X97439523Y-59909523D01*
X97344285Y-60004761D01*
X97249047Y-60052380D01*
X97058571Y-60052380D01*
X97868095Y-59147619D02*
X97915714Y-59100000D01*
X98010952Y-59052380D01*
X98249047Y-59052380D01*
X98344285Y-59100000D01*
X98391904Y-59147619D01*
X98439523Y-59242857D01*
X98439523Y-59338095D01*
X98391904Y-59480952D01*
X97820476Y-60052380D01*
X98439523Y-60052380D01*
%TO.C,R1*%
X79952380Y-104166666D02*
X79476190Y-104500000D01*
X79952380Y-104738095D02*
X78952380Y-104738095D01*
X78952380Y-104357142D01*
X79000000Y-104261904D01*
X79047619Y-104214285D01*
X79142857Y-104166666D01*
X79285714Y-104166666D01*
X79380952Y-104214285D01*
X79428571Y-104261904D01*
X79476190Y-104357142D01*
X79476190Y-104738095D01*
X79952380Y-103214285D02*
X79952380Y-103785714D01*
X79952380Y-103500000D02*
X78952380Y-103500000D01*
X79095238Y-103595238D01*
X79190476Y-103690476D01*
X79238095Y-103785714D01*
D12*
%TO.C,U2*%
X150075000Y-96600000D02*
X149925000Y-96600000D01*
X149925000Y-96600000D02*
X149925000Y-96750000D01*
X149925000Y-96750000D02*
X150075000Y-96750000D01*
X150075000Y-96750000D02*
X150075000Y-96600000D01*
X149775000Y-96600000D02*
X149625000Y-96600000D01*
X149625000Y-96600000D02*
X149625000Y-96750000D01*
X149625000Y-96750000D02*
X149775000Y-96750000D01*
X149775000Y-96750000D02*
X149775000Y-96600000D01*
X150150000Y-93000000D02*
X148900000Y-93000000D01*
X148900000Y-93000000D02*
X148900000Y-93900000D01*
X148900000Y-93900000D02*
X150150000Y-93900000D01*
X150150000Y-93900000D02*
X150150000Y-93000000D01*
X150100000Y-90050000D02*
X149950000Y-90050000D01*
X149950000Y-90050000D02*
X149950000Y-90200000D01*
X149950000Y-90200000D02*
X150100000Y-90200000D01*
X150100000Y-90200000D02*
X150100000Y-90050000D01*
X149550000Y-90100000D02*
X149000000Y-90100000D01*
X149000000Y-90100000D02*
X149000000Y-90650000D01*
X149000000Y-90650000D02*
X149550000Y-90650000D01*
X149550000Y-90650000D02*
X149550000Y-90100000D01*
X149425000Y-96250000D02*
X148875000Y-96250000D01*
X148875000Y-96250000D02*
X148875000Y-96800000D01*
X148875000Y-96800000D02*
X149425000Y-96800000D01*
X149425000Y-96800000D02*
X149425000Y-96250000D01*
X151650000Y-89700000D02*
X147350000Y-89700000D01*
X147350000Y-89700000D02*
X147350000Y-97300000D01*
X147350000Y-97300000D02*
X151650000Y-97300000D01*
X151650000Y-97300000D02*
X151650000Y-89700000D01*
%TO.C,R10*%
X139500000Y-129000000D02*
X139500000Y-125690000D01*
X139500000Y-115840000D02*
X139500000Y-119150000D01*
X140870000Y-125690000D02*
X140870000Y-119150000D01*
X138130000Y-125690000D02*
X140870000Y-125690000D01*
X138130000Y-119150000D02*
X138130000Y-125690000D01*
X140870000Y-119150000D02*
X138130000Y-119150000D01*
%TO.C,R9*%
X137370000Y-119230000D02*
X134630000Y-119230000D01*
X134630000Y-119230000D02*
X134630000Y-125770000D01*
X134630000Y-125770000D02*
X137370000Y-125770000D01*
X137370000Y-125770000D02*
X137370000Y-119230000D01*
X136000000Y-115920000D02*
X136000000Y-119230000D01*
X136000000Y-129080000D02*
X136000000Y-125770000D01*
%TO.C,R11*%
X141630000Y-125770000D02*
X144370000Y-125770000D01*
X144370000Y-125770000D02*
X144370000Y-119230000D01*
X144370000Y-119230000D02*
X141630000Y-119230000D01*
X141630000Y-119230000D02*
X141630000Y-125770000D01*
X143000000Y-129080000D02*
X143000000Y-125770000D01*
X143000000Y-115920000D02*
X143000000Y-119230000D01*
%TO.C,R13*%
X153130000Y-125770000D02*
X155870000Y-125770000D01*
X155870000Y-125770000D02*
X155870000Y-119230000D01*
X155870000Y-119230000D02*
X153130000Y-119230000D01*
X153130000Y-119230000D02*
X153130000Y-125770000D01*
X154500000Y-129080000D02*
X154500000Y-125770000D01*
X154500000Y-115920000D02*
X154500000Y-119230000D01*
%TO.C,R12*%
X145130000Y-125770000D02*
X147870000Y-125770000D01*
X147870000Y-125770000D02*
X147870000Y-119230000D01*
X147870000Y-119230000D02*
X145130000Y-119230000D01*
X145130000Y-119230000D02*
X145130000Y-125770000D01*
X146500000Y-129080000D02*
X146500000Y-125770000D01*
X146500000Y-115920000D02*
X146500000Y-119230000D01*
%TO.C,R14*%
X165630000Y-125770000D02*
X168370000Y-125770000D01*
X168370000Y-125770000D02*
X168370000Y-119230000D01*
X168370000Y-119230000D02*
X165630000Y-119230000D01*
X165630000Y-119230000D02*
X165630000Y-125770000D01*
X167000000Y-129080000D02*
X167000000Y-125770000D01*
X167000000Y-115920000D02*
X167000000Y-119230000D01*
%TO.C,R8*%
X125730000Y-95720000D02*
X125730000Y-102260000D01*
X125730000Y-102260000D02*
X128470000Y-102260000D01*
X127100000Y-92410000D02*
X127100000Y-95720000D01*
X127100000Y-105570000D02*
X127100000Y-102260000D01*
X128470000Y-95720000D02*
X125730000Y-95720000D01*
X128470000Y-102260000D02*
X128470000Y-95720000D01*
%TO.C,Q6*%
X156940000Y-122500000D02*
X156940000Y-124175000D01*
X160060000Y-122500000D02*
X160060000Y-121850000D01*
X160060000Y-122500000D02*
X160060000Y-123150000D01*
X156940000Y-122500000D02*
X156940000Y-121850000D01*
%TO.C,R2*%
X85870000Y-102470000D02*
X85870000Y-95930000D01*
X83130000Y-95930000D02*
X83130000Y-102470000D01*
X85870000Y-95930000D02*
X83130000Y-95930000D01*
X84500000Y-105780000D02*
X84500000Y-102470000D01*
X84500000Y-92620000D02*
X84500000Y-95930000D01*
X83130000Y-102470000D02*
X85870000Y-102470000D01*
%TO.C,U4*%
X105040000Y-67735000D02*
X130290000Y-67735000D01*
X105040000Y-87025000D02*
X105040000Y-67735000D01*
X104790000Y-87280000D02*
X104790000Y-85000000D01*
X130290000Y-87025000D02*
X105040000Y-87025000D01*
X130290000Y-67735000D02*
X130290000Y-87025000D01*
X104790000Y-87280000D02*
X107500000Y-87280000D01*
%TO.C,G\u002A\u002A\u002A*%
G36*
X150019649Y-66440351D02*
G01*
X149975088Y-66484912D01*
X149930526Y-66440351D01*
X149975088Y-66395789D01*
X150019649Y-66440351D01*
G37*
G36*
X144922670Y-70405066D02*
G01*
X144947951Y-70119220D01*
X144881166Y-69795575D01*
X144768620Y-69164046D01*
X144786959Y-68503608D01*
X144924138Y-67851238D01*
X145168111Y-67243918D01*
X145506835Y-66718625D01*
X145928265Y-66312340D01*
X146040348Y-66236666D01*
X146338410Y-65996139D01*
X146558220Y-65671648D01*
X146624807Y-65531264D01*
X146798496Y-65222472D01*
X147035135Y-64908346D01*
X147291969Y-64637416D01*
X147526243Y-64458213D01*
X147599922Y-64424441D01*
X147625864Y-64323745D01*
X147565341Y-64069815D01*
X147438837Y-63715931D01*
X147169922Y-62840729D01*
X147062005Y-62019899D01*
X147072845Y-61862362D01*
X147359737Y-61862362D01*
X147425026Y-62655913D01*
X147648244Y-63506142D01*
X147704975Y-63663819D01*
X147814033Y-63929952D01*
X147907006Y-64112573D01*
X147955961Y-64167719D01*
X148032603Y-64096532D01*
X148149809Y-63918105D01*
X148194645Y-63837670D01*
X148422097Y-63448997D01*
X148628215Y-63200906D01*
X148848914Y-63065176D01*
X149120109Y-63013587D01*
X149247747Y-63010180D01*
X149964810Y-63092868D01*
X150696393Y-63322523D01*
X151402724Y-63676340D01*
X152044030Y-64131511D01*
X152580540Y-64665231D01*
X152886269Y-65096604D01*
X153075942Y-65407665D01*
X153268728Y-65706374D01*
X153361842Y-65842030D01*
X153525429Y-66156037D01*
X153660822Y-66569026D01*
X153745548Y-67001823D01*
X153762807Y-67254676D01*
X153775093Y-67393837D01*
X153844251Y-67448178D01*
X154018731Y-67438844D01*
X154141579Y-67419977D01*
X154464734Y-67333196D01*
X154804938Y-67191779D01*
X154891367Y-67145563D01*
X155278753Y-66833632D01*
X155549675Y-66431033D01*
X155687032Y-65978256D01*
X155673723Y-65515786D01*
X155637263Y-65379594D01*
X155506356Y-65137340D01*
X155277451Y-64852645D01*
X155084058Y-64660802D01*
X154800663Y-64421402D01*
X154602373Y-64285913D01*
X154502635Y-64261328D01*
X154514894Y-64354642D01*
X154521538Y-64368246D01*
X154508660Y-64381448D01*
X154408784Y-64280652D01*
X154357349Y-64221850D01*
X154242178Y-64064444D01*
X154055351Y-63782788D01*
X153815588Y-63406268D01*
X153541607Y-62964269D01*
X153259148Y-62497904D01*
X152771728Y-61711333D01*
X152336346Y-61072030D01*
X151937725Y-60562215D01*
X151560591Y-60164111D01*
X151189667Y-59859938D01*
X150809678Y-59631916D01*
X150787026Y-59620647D01*
X150128381Y-59369052D01*
X149514236Y-59281149D01*
X148953451Y-59356007D01*
X148454887Y-59592696D01*
X148102939Y-59902191D01*
X147699545Y-60477460D01*
X147451527Y-61133530D01*
X147359737Y-61862362D01*
X147072845Y-61862362D01*
X147114294Y-61259959D01*
X147325997Y-60567421D01*
X147696323Y-59948803D01*
X147929146Y-59681108D01*
X148248428Y-59384821D01*
X148550523Y-59194998D01*
X148891029Y-59090142D01*
X149325541Y-59048756D01*
X149574035Y-59045114D01*
X149987917Y-59054539D01*
X150293249Y-59091329D01*
X150559191Y-59169063D01*
X150838885Y-59293467D01*
X151281473Y-59540365D01*
X151683553Y-59836744D01*
X152062153Y-60203074D01*
X152434298Y-60659826D01*
X152817017Y-61227470D01*
X153227335Y-61926475D01*
X153591410Y-62602627D01*
X153841318Y-63074766D01*
X154034199Y-63418607D01*
X154192856Y-63665224D01*
X154340093Y-63845688D01*
X154498709Y-63991073D01*
X154691509Y-64132450D01*
X154736735Y-64163357D01*
X155180644Y-64502006D01*
X155537358Y-64848538D01*
X155779189Y-65173210D01*
X155866780Y-65377345D01*
X155891430Y-65598811D01*
X155889863Y-65905607D01*
X155878390Y-66066412D01*
X155861011Y-66336214D01*
X155891583Y-66522468D01*
X155996157Y-66696450D01*
X156189227Y-66916867D01*
X156477863Y-67300636D01*
X156760901Y-67797830D01*
X157007648Y-68345403D01*
X157187408Y-68880311D01*
X157228548Y-69051580D01*
X157288994Y-69415269D01*
X157318276Y-69755651D01*
X157319715Y-70048711D01*
X157296631Y-70270434D01*
X157252346Y-70396805D01*
X157190178Y-70403808D01*
X157113450Y-70267429D01*
X157075884Y-70155649D01*
X156944887Y-69854534D01*
X156758903Y-69586677D01*
X156556861Y-69398838D01*
X156394222Y-69336842D01*
X156272286Y-69407126D01*
X156106734Y-69588059D01*
X155988914Y-69755343D01*
X155723509Y-70173844D01*
X155723509Y-69268511D01*
X155699663Y-68735832D01*
X155633616Y-68243465D01*
X155533602Y-67824116D01*
X155407854Y-67510489D01*
X155264608Y-67335291D01*
X155232678Y-67318995D01*
X155077997Y-67325912D01*
X154864225Y-67404257D01*
X154854262Y-67409335D01*
X154607459Y-67501959D01*
X154283465Y-67580917D01*
X154133235Y-67605511D01*
X153673684Y-67666472D01*
X153673684Y-70192263D01*
X153985339Y-70304958D01*
X154255227Y-70472272D01*
X154366659Y-70720146D01*
X154318795Y-71045905D01*
X154261184Y-71184298D01*
X154156341Y-71370902D01*
X154077669Y-71452918D01*
X154063796Y-71449995D01*
X154073411Y-71350919D01*
X154162858Y-71177932D01*
X154166563Y-71172241D01*
X154270541Y-70886809D01*
X154216254Y-70627624D01*
X154013880Y-70436435D01*
X153983557Y-70421595D01*
X153753998Y-70334015D01*
X153629062Y-70354641D01*
X153559925Y-70500986D01*
X153540919Y-70580376D01*
X153406528Y-70924791D01*
X153193177Y-71174896D01*
X152935862Y-71293009D01*
X152874843Y-71297544D01*
X152638996Y-71260345D01*
X152344275Y-71166870D01*
X152235171Y-71121255D01*
X151711256Y-70972265D01*
X151146121Y-70961156D01*
X150676994Y-71066497D01*
X150439543Y-71169539D01*
X150108970Y-71334343D01*
X149744877Y-71530755D01*
X149626665Y-71597866D01*
X149049291Y-71888735D01*
X148513586Y-72078216D01*
X148049431Y-72157848D01*
X147735660Y-72133396D01*
X147565524Y-72046243D01*
X147309994Y-71862253D01*
X147008707Y-71611629D01*
X146799877Y-71420415D01*
X146396256Y-71056783D01*
X146076524Y-70822950D01*
X145815805Y-70707500D01*
X145589222Y-70699019D01*
X145392069Y-70774447D01*
X145188320Y-70941309D01*
X145112027Y-71152985D01*
X145166745Y-71424511D01*
X145356029Y-71770923D01*
X145683436Y-72207257D01*
X145749936Y-72287687D01*
X146146919Y-72776004D01*
X146514546Y-73259712D01*
X146881863Y-73779838D01*
X147277913Y-74377414D01*
X147698781Y-75040702D01*
X148077165Y-75626922D01*
X148395533Y-76074341D01*
X148671849Y-76404437D01*
X148924080Y-76638689D01*
X149168246Y-76797562D01*
X149456624Y-76879605D01*
X149866421Y-76906097D01*
X150350882Y-76880546D01*
X150863250Y-76806458D01*
X151356767Y-76687340D01*
X151566449Y-76617702D01*
X152061173Y-76399035D01*
X152440964Y-76135408D01*
X152726279Y-75798154D01*
X152937573Y-75358607D01*
X153095304Y-74788100D01*
X153173649Y-74365433D01*
X153260561Y-73827676D01*
X153320101Y-73440983D01*
X153353284Y-73180447D01*
X153361128Y-73021162D01*
X153344648Y-72938222D01*
X153304861Y-72906720D01*
X153242784Y-72901750D01*
X153233379Y-72901754D01*
X153090246Y-72930615D01*
X152984120Y-73036088D01*
X152901862Y-73246505D01*
X152830328Y-73590200D01*
X152788785Y-73860305D01*
X152666574Y-74554250D01*
X152512072Y-75095626D01*
X152309056Y-75509387D01*
X152041301Y-75820484D01*
X151692586Y-76053871D01*
X151246686Y-76234498D01*
X151244726Y-76235135D01*
X150594742Y-76398797D01*
X150018117Y-76448598D01*
X149539503Y-76383617D01*
X149341826Y-76306358D01*
X149178998Y-76212454D01*
X149029553Y-76094267D01*
X148875224Y-75928318D01*
X148697742Y-75691127D01*
X148478838Y-75359215D01*
X148200245Y-74909102D01*
X148010583Y-74595381D01*
X147812155Y-74280706D01*
X147556044Y-73896690D01*
X147300003Y-73525659D01*
X147552754Y-73525659D01*
X147585125Y-73595302D01*
X147694167Y-73783198D01*
X147860121Y-74057696D01*
X148063223Y-74387143D01*
X148283713Y-74739884D01*
X148501829Y-75084269D01*
X148697809Y-75388644D01*
X148851892Y-75621356D01*
X148932652Y-75735894D01*
X149260389Y-76057726D01*
X149657412Y-76240155D01*
X150140923Y-76286959D01*
X150728124Y-76201918D01*
X150880669Y-76163837D01*
X151435746Y-75967873D01*
X151888754Y-75710261D01*
X152206049Y-75411240D01*
X152258685Y-75334888D01*
X152333346Y-75159663D01*
X152421446Y-74871824D01*
X152514107Y-74512686D01*
X152602454Y-74123567D01*
X152677608Y-73745786D01*
X152730694Y-73420659D01*
X152752835Y-73189504D01*
X152739581Y-73096540D01*
X152640234Y-73099012D01*
X152410967Y-73141968D01*
X152093288Y-73217063D01*
X151937513Y-73257782D01*
X151178246Y-73461825D01*
X151177912Y-73827930D01*
X151143590Y-74077873D01*
X151057172Y-74351181D01*
X150942882Y-74592412D01*
X150824944Y-74746125D01*
X150764833Y-74773333D01*
X150675551Y-74716359D01*
X150495534Y-74566154D01*
X150261795Y-74353796D01*
X150234122Y-74327719D01*
X149762950Y-73882105D01*
X149134712Y-73882105D01*
X148461063Y-73821689D01*
X148192198Y-73746901D01*
X150051264Y-73746901D01*
X150058808Y-73818887D01*
X150157583Y-73974234D01*
X150312177Y-74170871D01*
X150487175Y-74366729D01*
X150647164Y-74519741D01*
X150756729Y-74587835D01*
X150759460Y-74588188D01*
X150836369Y-74518983D01*
X150936773Y-74338942D01*
X150959986Y-74286020D01*
X151055118Y-73987744D01*
X151084629Y-73733204D01*
X151047484Y-73566670D01*
X150977719Y-73526111D01*
X150829343Y-73548395D01*
X150579648Y-73603474D01*
X150298561Y-73674683D01*
X150056008Y-73745357D01*
X150051264Y-73746901D01*
X148192198Y-73746901D01*
X148037623Y-73703904D01*
X147779984Y-73606960D01*
X147602998Y-73542220D01*
X147552754Y-73525659D01*
X147300003Y-73525659D01*
X147261951Y-73470517D01*
X146949579Y-73029367D01*
X146638630Y-72600424D01*
X146348805Y-72210870D01*
X146099808Y-71887888D01*
X145911338Y-71658659D01*
X145803900Y-71550877D01*
X145645103Y-71520080D01*
X145571591Y-71531353D01*
X145529402Y-71527892D01*
X145624674Y-71467460D01*
X145918921Y-71407278D01*
X146243843Y-71499881D01*
X146410175Y-71606123D01*
X146521015Y-71697541D01*
X146493260Y-71707243D01*
X146338516Y-71654929D01*
X146088610Y-71565661D01*
X146249393Y-71850451D01*
X146382080Y-72038535D01*
X146604787Y-72307078D01*
X146880020Y-72611997D01*
X147034035Y-72772938D01*
X147377409Y-73107029D01*
X147656713Y-73332757D01*
X147917073Y-73482641D01*
X148138008Y-73568469D01*
X148371438Y-73634123D01*
X148612796Y-73673682D01*
X148883360Y-73684341D01*
X149204411Y-73663295D01*
X149597225Y-73607738D01*
X150083084Y-73514866D01*
X150683265Y-73381874D01*
X151419049Y-73205956D01*
X152024912Y-73056086D01*
X152669689Y-72897945D01*
X153283485Y-72752547D01*
X153837252Y-72626376D01*
X154301943Y-72525917D01*
X154648514Y-72457653D01*
X154832281Y-72429405D01*
X155322456Y-72380971D01*
X154726518Y-72529959D01*
X154416547Y-72615262D01*
X154176455Y-72695758D01*
X154058155Y-72754040D01*
X154058097Y-72754100D01*
X154093328Y-72792370D01*
X154267305Y-72811466D01*
X154541822Y-72813630D01*
X154878670Y-72801105D01*
X155239643Y-72776133D01*
X155586532Y-72740957D01*
X155881130Y-72697820D01*
X156085230Y-72648965D01*
X156124561Y-72632805D01*
X156349956Y-72452365D01*
X156411251Y-72235758D01*
X156303031Y-72011287D01*
X156253070Y-71961047D01*
X156136160Y-71880327D01*
X155972091Y-71825449D01*
X155723593Y-71789835D01*
X155353395Y-71766904D01*
X155102199Y-71757862D01*
X154186597Y-71775492D01*
X153277163Y-71892546D01*
X152315565Y-72117711D01*
X151939324Y-72228784D01*
X151611540Y-72325779D01*
X151356007Y-72393004D01*
X151214282Y-72419843D01*
X151199343Y-72417822D01*
X151256892Y-72372975D01*
X151448047Y-72290334D01*
X151735491Y-72182674D01*
X152081908Y-72062767D01*
X152449980Y-71943389D01*
X152802392Y-71837311D01*
X153101826Y-71757310D01*
X153183509Y-71738625D01*
X153468801Y-71675109D01*
X153673739Y-71625253D01*
X153747098Y-71602630D01*
X153730211Y-71518639D01*
X153651032Y-71340413D01*
X153635172Y-71309241D01*
X153548780Y-71121004D01*
X153558066Y-71021050D01*
X153670718Y-70942651D01*
X153677832Y-70938832D01*
X153887419Y-70876072D01*
X154012565Y-70880517D01*
X154083140Y-70912494D01*
X153980859Y-70929737D01*
X153963333Y-70930714D01*
X153806106Y-70987053D01*
X153762807Y-71158600D01*
X153804365Y-71353642D01*
X153874210Y-71445515D01*
X154005664Y-71475394D01*
X154272466Y-71501201D01*
X154631718Y-71519620D01*
X154921403Y-71526420D01*
X155559514Y-71558011D01*
X156036370Y-71638134D01*
X156363500Y-71771539D01*
X156552434Y-71962979D01*
X156614703Y-72217203D01*
X156614737Y-72224164D01*
X156531276Y-72487151D01*
X156290717Y-72698035D01*
X155907792Y-72852096D01*
X155397233Y-72944618D01*
X154773774Y-72970882D01*
X154341497Y-72952148D01*
X153538784Y-72894181D01*
X153387464Y-73856038D01*
X153261432Y-74584608D01*
X153131232Y-75159388D01*
X152984739Y-75604660D01*
X152809827Y-75944701D01*
X152594371Y-76203792D01*
X152326244Y-76406211D01*
X152039153Y-76555809D01*
X151317824Y-76835307D01*
X150626017Y-77012322D01*
X149992175Y-77083018D01*
X149444745Y-77043557D01*
X149128421Y-76948437D01*
X148920408Y-76843114D01*
X148725174Y-76704012D01*
X148524874Y-76510100D01*
X148301663Y-76240348D01*
X148037696Y-75873724D01*
X147715127Y-75389196D01*
X147434062Y-74951579D01*
X147093477Y-74429802D01*
X146724604Y-73887230D01*
X146361070Y-73371893D01*
X146036502Y-72931822D01*
X145874149Y-72723509D01*
X145597622Y-72373220D01*
X145354376Y-72053288D01*
X145171463Y-71800055D01*
X145078048Y-71654035D01*
X144971378Y-71358754D01*
X144903893Y-71000011D01*
X144891062Y-70763540D01*
X144957758Y-70763540D01*
X145005232Y-70850482D01*
X145019110Y-70851930D01*
X145113377Y-70796985D01*
X145117895Y-70773619D01*
X145191464Y-70689099D01*
X145369811Y-70591051D01*
X145382518Y-70585698D01*
X145734180Y-70533313D01*
X146109687Y-70653090D01*
X146499965Y-70942011D01*
X146524552Y-70965530D01*
X146820338Y-71252216D01*
X146748941Y-70851547D01*
X146698688Y-70388848D01*
X146683628Y-69813092D01*
X146684323Y-69788082D01*
X146836312Y-69788082D01*
X146849898Y-70296036D01*
X146888021Y-70761258D01*
X146946896Y-71146784D01*
X147022739Y-71415649D01*
X147080013Y-71511005D01*
X147138906Y-71537797D01*
X147128723Y-71421610D01*
X147108857Y-71342105D01*
X147062871Y-71058349D01*
X147043180Y-70692519D01*
X147048280Y-70303554D01*
X147076669Y-69950392D01*
X147126842Y-69691968D01*
X147152562Y-69628534D01*
X147339785Y-69388299D01*
X147538095Y-69307598D01*
X147736014Y-69369154D01*
X147922066Y-69555688D01*
X148084772Y-69849923D01*
X148212655Y-70234582D01*
X148294239Y-70692386D01*
X148318044Y-71206059D01*
X148311908Y-71373768D01*
X148276290Y-72004109D01*
X148501829Y-71951832D01*
X148723521Y-71876146D01*
X148999829Y-71751515D01*
X149080095Y-71709952D01*
X149302320Y-71554625D01*
X149466401Y-71344332D01*
X149580057Y-71053223D01*
X149651007Y-70655443D01*
X149686972Y-70125142D01*
X149695526Y-69648772D01*
X149689363Y-69097815D01*
X149660406Y-68663460D01*
X149601995Y-68284797D01*
X149507469Y-67900915D01*
X149502479Y-67883310D01*
X149303867Y-67282922D01*
X149076911Y-66760465D01*
X148835027Y-66337800D01*
X148591635Y-66036788D01*
X148360150Y-65879290D01*
X148261279Y-65861053D01*
X147986112Y-65946977D01*
X147722828Y-66192049D01*
X147479298Y-66577213D01*
X147263394Y-67083417D01*
X147082990Y-67691607D01*
X146945956Y-68382728D01*
X146860166Y-69137728D01*
X146851046Y-69274361D01*
X146836312Y-69788082D01*
X146684323Y-69788082D01*
X146701069Y-69185394D01*
X146748320Y-68566870D01*
X146822689Y-68018634D01*
X146886919Y-67718896D01*
X147114101Y-67000817D01*
X147370713Y-66442068D01*
X147650269Y-66045055D01*
X147946283Y-65812184D01*
X148252271Y-65745862D01*
X148561745Y-65848494D01*
X148868221Y-66122487D01*
X149165213Y-66570247D01*
X149292785Y-66826347D01*
X149656356Y-67808105D01*
X149862804Y-68815483D01*
X149909638Y-69821685D01*
X149794366Y-70799915D01*
X149698533Y-71190670D01*
X149673477Y-71297202D01*
X149698616Y-71337245D01*
X149805813Y-71306925D01*
X150026931Y-71202370D01*
X150164035Y-71134091D01*
X150495896Y-70984909D01*
X150818305Y-70866708D01*
X151013574Y-70815227D01*
X151323084Y-70798072D01*
X151658117Y-70830620D01*
X151704276Y-70840051D01*
X152069474Y-70922105D01*
X152071799Y-70552807D01*
X152082420Y-70106926D01*
X152107146Y-69592410D01*
X152139641Y-69094868D01*
X152253186Y-69094868D01*
X152282718Y-69243474D01*
X152344991Y-69320448D01*
X152442021Y-69352017D01*
X152448172Y-69352924D01*
X152632178Y-69464202D01*
X152765207Y-69720800D01*
X152838974Y-70094984D01*
X152845194Y-70559015D01*
X152837849Y-70657400D01*
X152816395Y-70964403D01*
X152825132Y-71130802D01*
X152870391Y-71192636D01*
X152931769Y-71192137D01*
X153085001Y-71104069D01*
X153240555Y-70941053D01*
X153390959Y-70642810D01*
X153493391Y-70240954D01*
X153550803Y-69764584D01*
X153566151Y-69242804D01*
X153542391Y-68704716D01*
X153482476Y-68179422D01*
X153389361Y-67696024D01*
X153266002Y-67283623D01*
X153115353Y-66971323D01*
X152940368Y-66788225D01*
X152815259Y-66752281D01*
X152649172Y-66840086D01*
X152511078Y-67102460D01*
X152401592Y-67537842D01*
X152340884Y-67957023D01*
X152284285Y-68477868D01*
X152254380Y-68848408D01*
X152253186Y-69094868D01*
X152139641Y-69094868D01*
X152142822Y-69046168D01*
X152186289Y-68505107D01*
X152234390Y-68006136D01*
X152283967Y-67586162D01*
X152331864Y-67282093D01*
X152362086Y-67159716D01*
X152486293Y-66903534D01*
X152640345Y-66709911D01*
X152675398Y-66682553D01*
X152808428Y-66614736D01*
X152924221Y-66638437D01*
X153082946Y-66772279D01*
X153136534Y-66825279D01*
X153304727Y-67023174D01*
X153398985Y-67191724D01*
X153406316Y-67230341D01*
X153455649Y-67383435D01*
X153491580Y-67418317D01*
X153539604Y-67383079D01*
X153547360Y-67219686D01*
X153521316Y-66971994D01*
X153467940Y-66683858D01*
X153393702Y-66399132D01*
X153306759Y-66165285D01*
X153088302Y-65825243D01*
X152837193Y-65646784D01*
X152573456Y-65633222D01*
X152317116Y-65787872D01*
X152166292Y-65976496D01*
X152044869Y-66136398D01*
X151985881Y-66144947D01*
X151981852Y-66115373D01*
X151917889Y-65972187D01*
X151757931Y-65779794D01*
X151665320Y-65692039D01*
X151483305Y-65525815D01*
X151426407Y-65443646D01*
X151482700Y-65415610D01*
X151553916Y-65412473D01*
X151757544Y-65409508D01*
X151547144Y-65234228D01*
X151282779Y-65100679D01*
X151012407Y-65057583D01*
X150814728Y-65045451D01*
X150777898Y-65006429D01*
X150821754Y-64969824D01*
X151002802Y-64908088D01*
X151245088Y-64882066D01*
X151466855Y-64851564D01*
X151520485Y-64770279D01*
X151405034Y-64649223D01*
X151271794Y-64571061D01*
X150875370Y-64447438D01*
X150501164Y-64485497D01*
X150257223Y-64617640D01*
X150025145Y-64800193D01*
X150161302Y-64474323D01*
X150245315Y-64224002D01*
X150240428Y-64106871D01*
X150153847Y-64134072D01*
X150028827Y-64269493D01*
X149833208Y-64458453D01*
X149576944Y-64637660D01*
X149537404Y-64659857D01*
X149297750Y-64827666D01*
X149219821Y-64980145D01*
X149308523Y-65104656D01*
X149411977Y-65220761D01*
X149557031Y-65442002D01*
X149711620Y-65711204D01*
X149843680Y-65971192D01*
X149921147Y-66164789D01*
X149929690Y-66212301D01*
X149889624Y-66207449D01*
X149783178Y-66075519D01*
X149632303Y-65844252D01*
X149612319Y-65811248D01*
X149341710Y-65386904D01*
X149106463Y-65088394D01*
X148870463Y-64878266D01*
X148597597Y-64719066D01*
X148527875Y-64686637D01*
X148096643Y-64575582D01*
X147690728Y-64640753D01*
X147311965Y-64881685D01*
X147163215Y-65033132D01*
X146967413Y-65299101D01*
X146768862Y-65637535D01*
X146596591Y-65990486D01*
X146479628Y-66300007D01*
X146445853Y-66465173D01*
X146423416Y-66519007D01*
X146377224Y-66404208D01*
X146375693Y-66398755D01*
X146314417Y-66178914D01*
X145906471Y-66554945D01*
X145552656Y-66962161D01*
X145262464Y-67450469D01*
X145245131Y-67487769D01*
X145115657Y-67799659D01*
X145038338Y-68078483D01*
X145000176Y-68392940D01*
X144988170Y-68811723D01*
X144987973Y-68846667D01*
X144993674Y-69225666D01*
X145012121Y-69550649D01*
X145039855Y-69769965D01*
X145052911Y-69816868D01*
X145110945Y-69929067D01*
X145185405Y-69921211D01*
X145311393Y-69816868D01*
X145411307Y-69736179D01*
X145419066Y-69761864D01*
X145330976Y-69910897D01*
X145270398Y-70005263D01*
X145101412Y-70303629D01*
X144993508Y-70568822D01*
X144957758Y-70763540D01*
X144891062Y-70763540D01*
X144885156Y-70654683D01*
X144922670Y-70405066D01*
G37*
%TO.C,U3*%
X104400000Y-87005000D02*
X79150000Y-87005000D01*
X79150000Y-67715000D02*
X104400000Y-67715000D01*
X78900000Y-87260000D02*
X81610000Y-87260000D01*
X78900000Y-87260000D02*
X78900000Y-84980000D01*
X104400000Y-67715000D02*
X104400000Y-87005000D01*
X79150000Y-87005000D02*
X79150000Y-67715000D01*
%TO.C,Q7*%
X161440000Y-122500000D02*
X161440000Y-121850000D01*
X161440000Y-122500000D02*
X161440000Y-124175000D01*
X164560000Y-122500000D02*
X164560000Y-121850000D01*
X164560000Y-122500000D02*
X164560000Y-123150000D01*
%TO.C,Q4*%
X120430000Y-60440000D02*
X118755000Y-60440000D01*
X120430000Y-63560000D02*
X121080000Y-63560000D01*
X120430000Y-60440000D02*
X121080000Y-60440000D01*
X120430000Y-63560000D02*
X119780000Y-63560000D01*
%TO.C,Q3*%
X115030000Y-60440000D02*
X113355000Y-60440000D01*
X115030000Y-63560000D02*
X115680000Y-63560000D01*
X115030000Y-60440000D02*
X115680000Y-60440000D01*
X115030000Y-63560000D02*
X114380000Y-63560000D01*
%TO.C,Q1*%
X90030000Y-63560000D02*
X89380000Y-63560000D01*
X90030000Y-60440000D02*
X90680000Y-60440000D01*
X90030000Y-63560000D02*
X90680000Y-63560000D01*
X90030000Y-60440000D02*
X88355000Y-60440000D01*
%TO.C,U1*%
X77500000Y-133000000D02*
X77500000Y-112000000D01*
X90100000Y-112000000D02*
X90500000Y-112000000D01*
X100300000Y-133000000D02*
X100700000Y-133000000D01*
X77500000Y-112000000D02*
X77800000Y-112000000D01*
X123100000Y-112000000D02*
X123500000Y-112000000D01*
X128500000Y-112000000D02*
X128500000Y-118800000D01*
X110400000Y-133000000D02*
X110800000Y-133000000D01*
X125700000Y-112000000D02*
X126100000Y-112000000D01*
X110400000Y-112000000D02*
X110800000Y-112000000D01*
X128500000Y-121400000D02*
X128500000Y-121000000D01*
X102800000Y-112000000D02*
X103200000Y-112000000D01*
X118100000Y-112000000D02*
X118500000Y-112000000D01*
X120600000Y-112000000D02*
X121000000Y-112000000D01*
X105300000Y-133000000D02*
X105700000Y-133000000D01*
X115500000Y-133000000D02*
X115900000Y-133000000D01*
X77500000Y-133000000D02*
X77800000Y-133000000D01*
X92600000Y-112000000D02*
X93000000Y-112000000D01*
X123100000Y-133000000D02*
X123500000Y-133000000D01*
X118100000Y-133000000D02*
X118500000Y-133000000D01*
X100300000Y-112000000D02*
X100700000Y-112000000D01*
X92600000Y-133000000D02*
X93000000Y-133000000D01*
X107900000Y-133000000D02*
X108300000Y-133000000D01*
X113000000Y-133000000D02*
X113400000Y-133000000D01*
X113000000Y-112000000D02*
X113400000Y-112000000D01*
X90100000Y-133000000D02*
X90500000Y-133000000D01*
X97700000Y-112000000D02*
X98100000Y-112000000D01*
X87600000Y-133000000D02*
X88000000Y-133000000D01*
X107900000Y-112000000D02*
X108300000Y-112000000D01*
X128500000Y-124000000D02*
X128500000Y-123600000D01*
X79900000Y-133000000D02*
X80300000Y-133000000D01*
X85000000Y-133000000D02*
X85400000Y-133000000D01*
X128500000Y-126200000D02*
X128500000Y-133000000D01*
X87600000Y-112000000D02*
X88000000Y-112000000D01*
X82500000Y-133000000D02*
X82900000Y-133000000D01*
X102800000Y-133000000D02*
X103200000Y-133000000D01*
X95200000Y-112000000D02*
X95600000Y-112000000D01*
X82500000Y-112000000D02*
X82900000Y-112000000D01*
X125700000Y-133000000D02*
X126100000Y-133000000D01*
X105300000Y-112000000D02*
X105700000Y-112000000D01*
X79900000Y-112000000D02*
X80300000Y-112000000D01*
X80167000Y-133000000D02*
X80167000Y-129993000D01*
X95200000Y-133000000D02*
X95600000Y-133000000D01*
X97700000Y-133000000D02*
X98100000Y-133000000D01*
X120600000Y-133000000D02*
X121000000Y-133000000D01*
X80167000Y-129993000D02*
X77500000Y-129993000D01*
X115500000Y-112000000D02*
X115900000Y-112000000D01*
X85000000Y-112000000D02*
X85400000Y-112000000D01*
%TO.C,R5*%
X116500000Y-92420000D02*
X116500000Y-95730000D01*
X117870000Y-102270000D02*
X117870000Y-95730000D01*
X117870000Y-95730000D02*
X115130000Y-95730000D01*
X115130000Y-95730000D02*
X115130000Y-102270000D01*
X115130000Y-102270000D02*
X117870000Y-102270000D01*
X116500000Y-105580000D02*
X116500000Y-102270000D01*
%TO.C,R3*%
X89370000Y-95930000D02*
X86630000Y-95930000D01*
X89370000Y-102470000D02*
X89370000Y-95930000D01*
X88000000Y-105780000D02*
X88000000Y-102470000D01*
X86630000Y-95930000D02*
X86630000Y-102470000D01*
X88000000Y-92620000D02*
X88000000Y-95930000D01*
X86630000Y-102470000D02*
X89370000Y-102470000D01*
%TO.C,R4*%
X111630000Y-95730000D02*
X111630000Y-102270000D01*
X114370000Y-95730000D02*
X111630000Y-95730000D01*
X113000000Y-92420000D02*
X113000000Y-95730000D01*
X111630000Y-102270000D02*
X114370000Y-102270000D01*
X113000000Y-105580000D02*
X113000000Y-102270000D01*
X114370000Y-102270000D02*
X114370000Y-95730000D01*
%TO.C,R6*%
X120000000Y-92420000D02*
X120000000Y-95730000D01*
X118630000Y-102270000D02*
X121370000Y-102270000D01*
X121370000Y-95730000D02*
X118630000Y-95730000D01*
X120000000Y-105580000D02*
X120000000Y-102270000D01*
X121370000Y-102270000D02*
X121370000Y-95730000D01*
X118630000Y-95730000D02*
X118630000Y-102270000D01*
%TO.C,R7*%
X124870000Y-95730000D02*
X122130000Y-95730000D01*
X123500000Y-92420000D02*
X123500000Y-95730000D01*
X122130000Y-95730000D02*
X122130000Y-102270000D01*
X123500000Y-105580000D02*
X123500000Y-102270000D01*
X122130000Y-102270000D02*
X124870000Y-102270000D01*
X124870000Y-102270000D02*
X124870000Y-95730000D01*
%TO.C,Q5*%
X152060000Y-122000000D02*
X152060000Y-122650000D01*
X148940000Y-122000000D02*
X148940000Y-121350000D01*
X148940000Y-122000000D02*
X148940000Y-123675000D01*
X152060000Y-122000000D02*
X152060000Y-121350000D01*
%TO.C,Q2*%
X97630000Y-63560000D02*
X98280000Y-63560000D01*
X97630000Y-63560000D02*
X96980000Y-63560000D01*
X97630000Y-60440000D02*
X98280000Y-60440000D01*
X97630000Y-60440000D02*
X95955000Y-60440000D01*
%TO.C,R1*%
X80800000Y-92620000D02*
X80800000Y-95930000D01*
X82170000Y-95930000D02*
X79430000Y-95930000D01*
X79430000Y-102470000D02*
X82170000Y-102470000D01*
X80800000Y-105780000D02*
X80800000Y-102470000D01*
X79430000Y-95930000D02*
X79430000Y-102470000D01*
X82170000Y-102470000D02*
X82170000Y-95930000D01*
%TD*%
%LPC*%
D13*
%TO.C,U2*%
X148250000Y-90500000D03*
X148250000Y-91700000D03*
X148250000Y-92900000D03*
X148250000Y-94100000D03*
X148250000Y-95300000D03*
X148250000Y-96500000D03*
X150750000Y-96500000D03*
X150750000Y-95300000D03*
X150750000Y-94100000D03*
X150750000Y-92900000D03*
X150750000Y-91700000D03*
X150750000Y-90500000D03*
%TD*%
D14*
%TO.C,R10*%
X139500000Y-130040000D03*
D15*
X139500000Y-114800000D03*
%TD*%
%TO.C,R9*%
X136000000Y-114880000D03*
D14*
X136000000Y-130120000D03*
%TD*%
D15*
%TO.C,R11*%
X143000000Y-130120000D03*
D14*
X143000000Y-114880000D03*
%TD*%
D15*
%TO.C,R13*%
X154500000Y-130120000D03*
D14*
X154500000Y-114880000D03*
%TD*%
D15*
%TO.C,R12*%
X146500000Y-130120000D03*
D14*
X146500000Y-114880000D03*
%TD*%
D15*
%TO.C,R14*%
X167000000Y-130120000D03*
D14*
X167000000Y-114880000D03*
%TD*%
D15*
%TO.C,R8*%
X127100000Y-106610000D03*
D14*
X127100000Y-91370000D03*
%TD*%
D16*
%TO.C,Q6*%
X157550000Y-123437500D03*
X159450000Y-123437500D03*
X158500000Y-121562500D03*
%TD*%
D15*
%TO.C,R2*%
X84500000Y-106820000D03*
D14*
X84500000Y-91580000D03*
%TD*%
D17*
%TO.C,U4*%
X107500000Y-85000000D03*
D18*
X110040000Y-85000000D03*
X112580000Y-85000000D03*
X115120000Y-85000000D03*
X117660000Y-85000000D03*
X120200000Y-85000000D03*
X122740000Y-85000000D03*
X125280000Y-85000000D03*
X127820000Y-85000000D03*
X127820000Y-69760000D03*
X125280000Y-69760000D03*
X122740000Y-69760000D03*
X120200000Y-69760000D03*
X117660000Y-69760000D03*
X115120000Y-69760000D03*
X112580000Y-69760000D03*
X110040000Y-69760000D03*
X107500000Y-69760000D03*
%TD*%
%TO.C,U3*%
X81610000Y-69740000D03*
X84150000Y-69740000D03*
X86690000Y-69740000D03*
X89230000Y-69740000D03*
X91770000Y-69740000D03*
X94310000Y-69740000D03*
X96850000Y-69740000D03*
X99390000Y-69740000D03*
X101930000Y-69740000D03*
X101930000Y-84980000D03*
X99390000Y-84980000D03*
X96850000Y-84980000D03*
X94310000Y-84980000D03*
X91770000Y-84980000D03*
X89230000Y-84980000D03*
X86690000Y-84980000D03*
X84150000Y-84980000D03*
D17*
X81610000Y-84980000D03*
%TD*%
D16*
%TO.C,Q7*%
X162050000Y-123437500D03*
X163950000Y-123437500D03*
X163000000Y-121562500D03*
%TD*%
D19*
%TO.C,Q4*%
X119492500Y-61050000D03*
X119492500Y-62950000D03*
X121367500Y-62000000D03*
%TD*%
%TO.C,Q3*%
X114092500Y-61050000D03*
X114092500Y-62950000D03*
X115967500Y-62000000D03*
%TD*%
%TO.C,Q1*%
X89092500Y-61050000D03*
X89092500Y-62950000D03*
X90967500Y-62000000D03*
%TD*%
D20*
%TO.C,U1*%
X78870000Y-131390000D03*
D21*
X78870000Y-132290000D03*
D20*
X81410000Y-131390000D03*
D21*
X81410000Y-132290000D03*
X83950000Y-132290000D03*
D22*
X83950000Y-131390000D03*
D20*
X86490000Y-131390000D03*
D21*
X86490000Y-132290000D03*
D20*
X89030000Y-131390000D03*
D21*
X89030000Y-132290000D03*
X91570000Y-132290000D03*
D20*
X91570000Y-131390000D03*
D21*
X94110000Y-132290000D03*
D20*
X94110000Y-131390000D03*
D21*
X96650000Y-132290000D03*
D22*
X96650000Y-131390000D03*
D21*
X99190000Y-132290000D03*
D20*
X99190000Y-131390000D03*
D21*
X101730000Y-132290000D03*
D20*
X101730000Y-131390000D03*
X104270000Y-131390000D03*
D21*
X104270000Y-132290000D03*
X106810000Y-132290000D03*
D20*
X106810000Y-131390000D03*
D21*
X109350000Y-132290000D03*
D22*
X109350000Y-131390000D03*
D20*
X111890000Y-131390000D03*
D21*
X111890000Y-132290000D03*
X114430000Y-132290000D03*
D20*
X114430000Y-131390000D03*
D21*
X116970000Y-132290000D03*
D20*
X116970000Y-131390000D03*
D21*
X119510000Y-132290000D03*
D20*
X119510000Y-131390000D03*
D21*
X122050000Y-132290000D03*
D22*
X122050000Y-131390000D03*
D20*
X124590000Y-131390000D03*
D21*
X124590000Y-132290000D03*
X127130000Y-132290000D03*
D20*
X127130000Y-131390000D03*
X127130000Y-113610000D03*
D21*
X127130000Y-112710000D03*
X124590000Y-112710000D03*
D20*
X124590000Y-113610000D03*
D21*
X122050000Y-112710000D03*
D22*
X122050000Y-113610000D03*
D21*
X119510000Y-112710000D03*
D20*
X119510000Y-113610000D03*
D21*
X116970000Y-112710000D03*
D20*
X116970000Y-113610000D03*
D21*
X114430000Y-112710000D03*
D20*
X114430000Y-113610000D03*
X111890000Y-113610000D03*
D21*
X111890000Y-112710000D03*
D22*
X109350000Y-113610000D03*
D21*
X109350000Y-112710000D03*
D20*
X106810000Y-113610000D03*
D21*
X106810000Y-112710000D03*
D20*
X104270000Y-113610000D03*
D21*
X104270000Y-112710000D03*
X101730000Y-112710000D03*
D20*
X101730000Y-113610000D03*
X99190000Y-113610000D03*
D21*
X99190000Y-112710000D03*
D22*
X96650000Y-113610000D03*
D21*
X96650000Y-112710000D03*
D20*
X94110000Y-113610000D03*
D21*
X94110000Y-112710000D03*
X91570000Y-112710000D03*
D20*
X91570000Y-113610000D03*
D21*
X89030000Y-112710000D03*
D20*
X89030000Y-113610000D03*
X86490000Y-113610000D03*
D21*
X86490000Y-112710000D03*
D22*
X83950000Y-113610000D03*
D21*
X83950000Y-112710000D03*
X81410000Y-112710000D03*
D20*
X81410000Y-113610000D03*
D21*
X78870000Y-112710000D03*
D20*
X78870000Y-113610000D03*
X126900000Y-125040000D03*
D23*
X127800000Y-125040000D03*
X127800000Y-122500000D03*
D22*
X126900000Y-122500000D03*
D20*
X126900000Y-119960000D03*
D23*
X127800000Y-119960000D03*
%TD*%
D15*
%TO.C,R5*%
X116500000Y-106620000D03*
D14*
X116500000Y-91380000D03*
%TD*%
D15*
%TO.C,R3*%
X88000000Y-106820000D03*
D14*
X88000000Y-91580000D03*
%TD*%
D15*
%TO.C,R4*%
X113000000Y-106620000D03*
D14*
X113000000Y-91380000D03*
%TD*%
D15*
%TO.C,R6*%
X120000000Y-106620000D03*
D14*
X120000000Y-91380000D03*
%TD*%
D15*
%TO.C,R7*%
X123500000Y-106620000D03*
D14*
X123500000Y-91380000D03*
%TD*%
D16*
%TO.C,Q5*%
X149550000Y-122937500D03*
X151450000Y-122937500D03*
X150500000Y-121062500D03*
%TD*%
D19*
%TO.C,Q2*%
X96692500Y-61050000D03*
X96692500Y-62950000D03*
X98567500Y-62000000D03*
%TD*%
D15*
%TO.C,R1*%
X80800000Y-106820000D03*
D14*
X80800000Y-91580000D03*
%TD*%
M02*
